<?xml version="1.0" encoding="UTF-8" standalone="no"?>
<svg
   xmlns:dc="http://purl.org/dc/elements/1.1/"
   xmlns:cc="http://creativecommons.org/ns#"
   xmlns:rdf="http://www.w3.org/1999/02/22-rdf-syntax-ns#"
   xmlns:svg="http://www.w3.org/2000/svg"
   xmlns="http://www.w3.org/2000/svg"
   xmlns:sodipodi="http://sodipodi.sourceforge.net/DTD/sodipodi-0.dtd"
   xmlns:inkscape="http://www.inkscape.org/namespaces/inkscape"
   version="1.1"
   width="5461.7002"
   height="6330.7002"
   viewBox="-27555 -29379 54617.002 63307.002"
   id="svg2"
   inkscape:version="0.48.0 r9654"
   sodipodi:docname="Blank Map of Arizona.svg">
  <metadata
     id="metadata32">
    <rdf:RDF>
      <cc:Work
         rdf:about="">
        <dc:format>image/svg+xml</dc:format>
        <dc:type
           rdf:resource="http://purl.org/dc/dcmitype/StillImage" />
      </cc:Work>
    </rdf:RDF>
  </metadata>
  <defs
     id="defs30" />
  <sodipodi:namedview
     pagecolor="#ffffff"
     bordercolor="#666666"
     borderopacity="1"
     objecttolerance="10"
     gridtolerance="10"
     guidetolerance="10"
     inkscape:pageopacity="0"
     inkscape:pageshadow="2"
     inkscape:window-width="1366"
     inkscape:window-height="716"
     id="namedview28"
     showgrid="false"
     fit-margin-top="0"
     fit-margin-left="0"
     fit-margin-right="0"
     fit-margin-bottom="0"
     inkscape:zoom="0.078506324"
     inkscape:cx="2730.8501"
     inkscape:cy="3165.3501"
     inkscape:window-x="-8"
     inkscape:window-y="-8"
     inkscape:window-maximized="1"
     inkscape:current-layer="svg2" />
  <clipPath
     id="state_clip_path">
    <g
       id="state_outline">
      <path
         id="Arizona"
         d="m 25271,-29379 71,2471 31,1057 211,7365 4,121 104,3797 99,3445 36,1300 4,146 5,167 4,151 4,161 4,151 64,2273 29,997 8,283 9,317 66,2394 3,106 2,60 2,71 2,91 3,116 11,428 5,238 31,1160 2,64 3,102 11,343 10,302 6,167 1,75 4,171 6,263 6,232 8,328 19,812 15,468 14,500 70,2567 14,494 50,1848 37,1331 4,148 73,2634 8,314 68,2574 9,325 2,140 3,92 6,241 3,93 2,53 8,280 5,205 17,750 11,387 17,628 7,289 19,720 50,1925 6,213 1,48 4,166 8,322 9,354 4,161 13,501 4,161 49,1962 10,393 19,713 4,172 5,204 8,329 83,3338 3,174 5,252 23,728 3,219 9,405 4,152 14,612 4,121 12,422 -1684,39 -495,14 -846,22 -159,5 -168,4 -153,0 -643,18 -4815,92 -1184,17 -286,4 -704,13 -535,9 -1714,26 -311,4 -653,14 -653,9 -1576,27 -1720,31 -959,19 -836,-310 -586,-219 -596,-219 -760,-279 -800,-295 -826,-305 -796,-295 -1433,-528 -4310,-1593 -3608,-1344 -204,-70 -87,-36 -1113,-410 -1781,-653 -1312,-496 -21,-5 -2349,-891 -817,-308 -4342,-1673 -710,-273 -3613,-1399 -1994,-772 -1610,-620 -333,-131 -419,-161 15,-31 -15,-40 -10,-20 -6,-31 21,-25 20,5 31,5 25,5 26,-20 0,-20 -26,-31 -25,-30 -31,-40 -10,-36 15,-30 56,-76 20,-15 11,-41 -6,-35 0,-15 -5,-20 5,-46 26,-15 20,-15 46,-20 31,-21 10,-15 -5,-35 -16,-46 -25,-20 -31,5 -36,21 -35,35 -26,20 -25,0 -21,-25 -5,-35 10,-31 26,-25 35,-30 10,-16 16,-40 0,-35 10,-46 15,-40 10,-61 -10,-50 -36,-41 -21,-55 -5,-41 0,-86 31,-45 35,-15 36,0 36,20 31,10 51,-10 30,-21 26,-35 15,-30 21,-31 35,-50 46,-36 26,-35 35,-50 51,-46 31,-51 46,-65 20,-71 26,-76 40,-96 51,-91 77,-146 77,-132 55,-101 41,-74 4,-8 33,-53 4,-7 28,-33 38,-18 19,7 15,6 37,28 41,34 49,24 228,38 116,19 147,22 135,20 0,-61 312,0 3,-26 7,-60 158,0 5,-81 98,3 66,2 77,0 7,-76 49,1 46,-1 -26,-126 -10,-45 0,-92 5,-45 5,-20 0,-15 13,-50 27,-41 35,-35 41,-57 7,-9 34,-44 54,-47 50,-44 68,-32 27,-26 134,-126 127,-110 35,-324 12,-115 9,-83 12,-85 -1,-25 -1,-36 -2,-26 -1,-10 -8,-44 -30,-34 -9,-9 -48,-43 -56,-66 -10,-55 10,-46 4,-29 16,-26 46,-45 42,-67 15,-60 0,-76 -5,-66 -17,-35 -35,-35 -11,-1 -15,-4 -31,10 -35,40 -34,11 -28,-6 -30,-39 -17,-47 -1,-56 7,-75 -11,-35 -8,-58 -23,-93 -25,-71 -24,-51 -12,-24 -36,-59 -45,-41 -20,-9 -43,-19 -30,-9 -51,-15 -82,-15 -81,-11 -99,-17 -80,-27 -52,12 -26,16 -17,11 -33,27 -6,5 -25,24 -45,26 -31,-2 -46,-4 -97,-2 -62,-9 -9,-2 -63,-22 -18,-14 -26,-33 -53,-49 -25,-50 -25,-35 -32,-31 -31,-5 -35,15 -21,46 -20,55 -19,44 -32,18 -31,-2 -49,-35 -33,-60 -21,-30 -6,-56 1,-35 12,-60 -17,-31 -25,-28 -41,-53 -9,-22 -22,-52 -21,-72 -1,-21 -1,-8 -13,-27 -31,-10 -46,-5 -36,5 -25,-20 -11,-35 5,-56 5,-91 18,-78 28,-88 37,-73 4,-8 66,-111 65,-109 27,-63 5,-11 21,-50 12,-54 -2,-42 0,-59 3,-31 1,-14 20,-65 11,-63 -5,-55 -21,-51 -1,-24 -5,-33 8,-12 13,-32 21,-45 11,-47 2,-9 2,-55 -10,-61 -8,-17 -12,-27 -32,-47 -41,-40 -8,-14 -22,-33 -6,-46 11,-18 34,-40 28,-19 13,-9 29,-17 34,-26 6,-21 5,-16 4,-34 -26,-50 -31,-51 -49,-49 -84,-42 -71,-20 -35,-4 -71,-10 -55,-20 -43,-38 -47,-84 -23,-64 13,-57 30,-51 67,-50 50,-47 79,-109 37,-64 27,-83 5,-87 1,-9 -2,-10 -4,-51 -5,-60 -11,-43 -2,-9 -18,-64 -16,-35 -6,-12 -6,-44 -1,-10 -11,-34 -28,-37 -55,-60 -53,-65 -18,-42 9,-35 11,-19 37,-7 25,1 45,5 41,-5 41,-10 45,-17 23,-26 44,-28 51,-20 62,0 56,5 41,15 88,28 16,6 30,12 62,-24 39,-19 30,-19 47,-29 46,-61 33,-56 4,-7 14,-22 19,-49 10,-60 9,-55 0,-14 -1,-37 14,-38 20,-46 16,-23 14,-22 54,-64 27,-33 17,-20 5,-6 25,-34 16,-25 41,-115 35,-56 45,-39 42,-27 38,-17 8,-3 15,-4 19,-6 8,-4 29,-19 21,-13 7,-4 33,-23 21,-28 7,-16 7,-19 7,-36 5,-40 5,-36 34,-38 9,-22 54,-36 46,-40 62,-28 62,-62 29,-26 6,-8 20,-27 -2,-35 -23,-27 -17,-19 -5,-6 -26,-24 -7,-42 -2,-35 -21,-29 -15,-36 -5,-25 5,-40 7,-29 -7,-32 -5,-20 5,-15 19,-18 47,-63 55,-67 9,-11 28,-43 5,-30 -10,-25 -15,-30 -18,-27 -9,-26 1,-33 16,-42 7,-25 21,-26 7,-8 5,-31 -5,-34 -20,-30 -21,-42 -7,-32 2,-26 15,-17 34,-19 32,-17 31,-10 27,-16 -1,-19 -7,-8 -29,-22 -45,-9 -37,-6 -21,-26 -10,-40 10,-44 20,-54 26,-48 17,-14 14,-11 7,-5 12,-7 24,-13 54,-21 41,-15 16,-7 37,-14 18,-7 41,-21 31,-64 0,-54 -24,-105 -22,-56 -26,-49 -36,-27 -26,-28 -15,-42 0,-30 21,-36 25,-50 23,-76 -9,-88 -15,-65 -8,-26 -37,-99 -16,-40 -15,-38 -42,-115 -24,-88 -27,-72 -15,-43 9,-49 6,-15 17,-19 28,-28 6,-27 -6,-39 -19,-57 -22,-83 -2,-9 -22,-70 -11,-50 0,-40 10,-25 16,-11 30,5 26,7 41,3 41,-10 37,-21 9,-4 24,-18 22,-37 16,-45 -6,-57 -26,-29 -64,-64 -57,-60 -37,-48 -27,-48 6,-28 15,-10 23,1 28,20 68,3 14,-24 16,-34 -31,-64 -41,-58 -53,-50 -59,-38 -26,-16 -16,-12 -20,-25 -4,-25 3,-16 16,-60 60,-135 32,-47 40,-29 37,-9 15,-5 15,-2 46,-7 31,-8 46,-15 21,-18 46,-57 56,-72 26,-31 14,-16 17,-14 6,-7 22,-21 27,-17 16,-20 4,-7 11,-18 26,-28 22,-24 38,-17 20,-3 27,-14 7,-19 -12,-16 -37,-23 -28,-28 -18,-24 -4,-23 25,-23 26,-25 20,5 55,7 27,-2 31,-20 66,-54 26,-47 20,-71 5,-76 0,-55 -15,-66 -10,-70 0,-68 10,-88 20,-92 4,-20 11,-45 5,-25 27,-53 25,-38 40,-50 41,-60 36,-36 46,-40 56,-19 21,-7 21,4 10,2 35,6 47,4 51,-16 46,-25 77,-21 56,-24 53,-49 34,-43 31,-39 5,-6 15,-15 46,-15 62,7 73,-15 75,-22 59,-43 72,-70 78,-89 60,-83 53,-53 34,-16 32,-18 21,-3 41,7 46,3 9,0 42,-9 68,-10 45,-9 66,-38 28,-25 14,-12 30,-18 43,-32 33,-10 8,-2 23,-19 11,-21 9,-28 -3,-35 10,-41 6,-29 18,-23 32,-24 42,-35 16,-8 49,-39 75,-80 100,-94 86,-83 25,-30 15,-26 26,-35 26,-20 23,-8 18,-12 15,-20 13,-25 1,-11 1,-25 16,-10 8,-2 27,-8 41,0 39,-4 36,-2 46,8 38,3 31,-15 11,-22 -6,-44 -13,-43 -13,-32 -6,-51 5,-70 -20,-62 -3,-39 -2,-38 -5,-43 -4,-33 -32,-52 -30,-66 -61,-74 -47,-47 -61,-71 -28,-40 -15,-23 -41,-66 -34,-57 -29,-44 -39,-29 -55,-18 -80,-32 -7,-3 -83,-20 -65,-25 -9,-3 -40,-13 -8,-5 -36,-32 -14,-16 -27,-37 -41,-81 -76,-76 -68,-75 -37,-34 -45,-47 -46,-31 -61,-9 -51,-5 -45,-8 -34,-28 -24,-45 -14,-59 -27,-57 -27,-43 -55,-43 -61,-40 -73,-39 -40,-22 -6,-5 -36,-34 -25,-36 -20,-50 -26,-26 -41,-15 -56,0 -103,23 -10,2 -68,18 -8,0 -54,1 -54,-29 -42,-59 -16,-57 7,-55 24,-79 5,-77 2,-29 2,-70 26,-130 2,-13 23,-106 -3,-91 -15,-86 -32,-105 -40,-79 -21,-62 -36,-51 -22,-50 -33,-68 -25,-52 -22,-38 -34,-31 -38,-35 -106,-84 -52,-46 -26,-39 -6,-31 9,-14 7,-11 30,-25 31,-20 31,-25 20,-26 -5,-40 -25,-40 -52,-41 -36,-30 -26,-40 -10,-61 -15,-70 -10,-86 -16,-49 -51,-52 -24,-26 -17,-19 -10,-30 -5,-20 20,-31 19,-17 17,-28 -11,-30 -30,-61 -31,-85 -41,-81 -17,-81 -2,-16 -17,-64 -31,-81 -51,-40 -36,-11 -8,-2 -58,-53 -11,-25 -15,-31 -15,-29 -67,-36 -62,-25 -61,-30 -15,-18 -21,-25 -27,-53 -51,-64 -55,-37 -82,-65 -69,-81 -80,-111 -52,-112 -56,-130 -24,-101 -7,-28 -25,-103 -3,-13 -18,-85 -47,-93 -54,-74 -6,-8 -98,-83 -107,-77 -9,-6 -84,-69 -55,-75 -22,-77 0,-72 9,-70 17,-74 25,-61 10,-65 -4,-38 -6,-63 -5,-65 15,-90 15,-77 -5,-85 -17,-76 -8,-55 -4,-22 -7,-54 26,-96 30,-104 -3,-22 0,-69 -22,-72 -12,-21 -14,-62 -4,-20 -6,-43 1,-23 3,-26 2,-32 -1,-35 0,-60 8,-69 29,-69 19,-28 46,-46 56,-38 9,-6 38,-20 42,-21 23,-37 11,-17 24,-69 -9,-59 -16,-43 -35,-42 -41,-36 -20,-24 -11,-10 -35,-30 -24,-8 -17,-10 -10,-4 -22,-10 -30,-15 -56,-30 -33,-24 -20,-15 -23,-52 -1,-35 26,-39 55,-62 51,-27 52,-28 44,-8 17,-3 57,-9 77,0 92,-5 72,-10 57,-17 44,-38 5,-11 30,-63 7,-32 -2,-48 -3,-18 -5,-35 4,-17 10,-46 32,-78 0,-91 5,-36 4,-24 3,-15 3,-31 -11,-66 -15,-70 6,-51 -11,-44 -20,-46 -28,-30 -18,-46 4,-65 0,-75 -1,-16 -4,-45 -11,-47 -8,-54 -6,-43 5,-37 -4,-54 -4,-52 -2,-49 -3,-26 -9,-86 -1,-10 -24,-96 -36,-81 -5,-43 -3,-23 -12,-75 2,-44 1,-21 -1,-15 13,-80 10,-56 13,-64 -18,-52 -8,-49 -6,-32 -15,-72 -2,-9 -22,-74 -4,-13 -46,-94 -30,-112 -6,-23 -55,-187 -7,-22 -230,-512 -71,-135 -70,-140 -17,-37 -27,-66 -21,-100 -15,-60 -16,-61 -2,-10 -11,-41 -10,-36 -3,-14 -5,-22 11,-109 3,-11 11,-40 23,-29 6,-8 26,-25 27,-29 36,-36 12,-13 18,-23 23,-34 6,-25 -4,-20 -13,-29 -18,-54 -8,-52 -2,-14 -8,-62 6,-24 7,-29 -8,-37 -17,-61 -18,-36 -26,-20 -9,-7 -24,-22 2,-36 5,-25 26,-15 49,-22 7,-3 35,-26 13,-10 18,-14 21,-26 6,-39 14,-56 6,-66 -7,-24 -4,-16 -17,-51 -24,-25 -25,-18 -34,-22 -28,-35 -5,-32 -3,-26 -18,-38 -20,-35 -36,-40 -36,-29 -16,-37 -15,-35 -10,-91 14,-61 2,-9 11,-35 12,-40 8,-25 11,-29 8,-22 5,-18 5,-15 1,-30 -5,-28 -22,-29 -25,-21 -46,-36 -40,-40 -37,-45 -20,-51 -5,-45 0,-50 10,-46 16,-37 6,-15 29,-58 19,-76 14,-60 -7,-46 -11,-35 -7,-21 2,-35 15,-29 11,-36 5,-15 -9,-25 -15,-31 -17,-36 -5,-44 0,-58 5,-43 -3,-28 -3,-22 0,-58 -22,-67 -19,-31 -14,-16 -19,-21 -18,-42 1,-25 18,-23 17,-23 9,-9 14,-9 13,-12 16,-41 9,-26 1,-28 12,-19 23,-23 16,-25 5,-10 -3,-31 -14,-26 -24,-39 -14,-23 -9,-16 -12,-28 -15,-34 4,-25 10,-20 30,-13 26,-2 11,-2 20,-3 27,-14 17,-24 8,-12 5,-6 10,-10 36,-14 52,-17 58,-32 28,-7 15,-3 25,-6 21,-11 7,-23 -10,-16 -24,-16 -41,-13 -43,-43 -16,-26 -6,-9 -50,-54 -63,-57 -57,-68 -20,-23 -19,-24 -20,-25 -19,-44 -17,-39 3,-55 9,-55 -9,-40 -26,-63 -66,-53 -41,-40 -41,-25 -26,-35 3,-18 3,-23 9,-72 0,-49 -10,-55 -36,-35 -41,-81 -18,-61 -18,-55 3,-24 3,-25 18,-33 17,-33 5,-46 -5,-40 -7,-59 7,-42 12,-17 14,-23 51,-34 41,-46 31,-36 20,-40 -6,-29 -30,-26 -25,-36 -31,-15 -37,-16 -14,-24 -2,-48 6,-29 21,-19 23,-29 -8,-41 -15,-35 -20,-53 -16,-48 -25,-40 -41,-41 -36,-45 -11,-45 22,-75 35,-36 58,-59 59,-37 57,-20 74,-18 106,-2 43,-10 47,-7 28,-8 20,-14 42,-18 34,10 42,7 20,-2 41,-19 7,-3 45,-22 6,-3 44,-25 21,-22 7,-7 27,-29 22,-18 27,-34 41,-33 29,-19 53,-16 30,-30 39,-17 21,-14 36,2 27,29 11,28 14,31 35,13 33,4 41,-10 41,-31 49,-39 7,-6 46,-32 80,-51 95,-23 71,-5 57,-10 67,-10 46,-10 61,20 40,33 35,22 36,2 26,-14 27,-22 52,-8 41,-3 30,12 31,19 22,44 -6,20 -22,24 -32,23 -18,30 -2,35 14,36 34,29 57,-4 62,-16 101,-55 83,-50 46,-25 36,5 39,16 32,44 38,61 40,22 45,28 62,-50 6,-5 76,-51 7,-5 55,-45 61,-45 58,-5 70,-5 72,20 56,20 77,4 50,28 53,58 18,52 49,54 33,31 39,35 39,64 6,12 20,41 37,29 46,25 11,4 35,15 24,27 24,37 24,48 32,51 28,37 23,46 8,51 -19,50 -36,31 -41,41 -7,44 24,36 45,23 36,-3 46,-4 36,20 44,27 27,38 41,21 57,15 39,16 22,49 6,71 12,69 78,75 109,61 47,31 61,15 87,-5 98,-20 107,-35 75,-29 47,-12 38,-28 56,-26 18,-2 43,-3 52,10 43,-3 56,9 31,-4 32,-18 2,-9 15,-36 5,-20 19,-18 33,-39 23,-44 3,-50 1,-25 5,-81 26,-89 54,-127 47,-104 44,-48 22,-34 8,-40 -13,-26 -26,-35 -32,-34 7,-51 25,-46 42,-25 56,-20 59,-28 23,-39 25,-84 31,-70 57,-71 39,-79 58,-107 48,-114 5,-11 6,-14 23,-47 62,-73 6,-6 68,-51 54,-11 5,-107 7,-292 66,-2860 5,-275 14,-745 28,-1458 19,-1043 1,-35 2,-166 3,-206 27,-1723 0,-22 394,4 154,2 487,9 159,3 164,2 43,1 117,0 225,6 175,3 82,1 18,1 141,2 174,4 149,2 21,1 410,4 77,1 10,0 98,4 46,3 339,0 154,2 133,1 816,13 184,3 139,3 159,2 328,6 298,5 180,2 164,2 174,2 164,1 344,4 134,0 36,2 123,1 184,1 159,1 41,1 278,3 159,2 30,0 134,1 179,3 329,4 154,0 159,3 31,0 164,2 313,3 15,1 308,1 72,1 131,0 120,2 241,3 303,2 416,2 697,3 349,5 734,6 718,4 410,3 457,2 739,3 1057,8 134,1 189,1 159,1 493,3 118,1 185,1 159,1 32,0 404,2 282,0 359,-1 575,-1 354,-1 90,0 69,-1 652,-4 138,-1 375,2 20,0 149,-3 98,2 148,2 190,-2 159,-2 195,-2 667,-5 744,-2 165,-5 169,1 400,-5 8,0 115,-4 16,-1 179,0 87,1 319,0 92,-1 36,-1 190,2 56,0 734,-9 15,0 31,4 16,-1 35,-1 52,-1 723,-9 1514,-16 1191,-15 230,-2 1031,-14 631,-4 529,-4 10,0 62,47 97,-1 1191,-17 2904,-47 600,-11 2042,-40 1637,-36 410,-10 z"
         inkscape:connector-curvature="0" />
    </g>
  </clipPath>
  <path
     style="fill:#b9b9b9;fill-opacity:1;stroke:#ffffff;stroke-width:87;stroke-linejoin:round;stroke-opacity:1"
     inkscape:connector-curvature="0"
     d="m 25314.5,-29335.5 71,2471 31,1057 211,7365 4,121 104,3797 99,3445 36,1300 4,146 5,167 4,151 4,161 4,151 64,2273 29,997 8,283 9,317 66,2394 3,106 2,60 2,71 2,91 3,116 11,428 5,238 31,1160 2,64 3,102 11,343 10,302 6,167 1,75 4,171 6,263 6,232 8,328 19,812 15,468 14,500 70,2567 14,494 -2080,40 -706,13 -46,0 -21,40 -36,147 -21,70 -6,96 26,40 36,36 20,65 -46,15 -62,5 -41,30 -41,20 -41,31 -112,20 -31,10 -21,25 -10,40 -5,15 -16,0 -71,-15 -16,0 -30,10 -31,0 -92,-16 -133,5 -26,10 -36,35 -61,71 -11,30 -51,20 -31,10 -71,5 -16,25 -10,15 -10,20 -16,56 0,101 -1,101 -5,50 -72,50 -71,134 -46,-6 -37,105 -83,23 -27,67 -97,135 32,54 -78,-6 -15,-10 -12,-34 -18,-12 -24,-1 -11,23 1,5 -25,58 -95,-27 -38,-65 -39,-7 -137,95 -24,19 -91,2 -134,48 -21,53 27,70 -54,96 -50,-14 -42,112 -23,3 -85,-6 -121,-14 -144,26 -137,120 -6,47 39,97 4,7 12,20 -7,16 -19,11 -33,9 -15,26 -55,103 -142,89 -56,30 -136,114 -56,74 -116,75 -36,69 27,104 -43,104 -68,45 -116,62 -156,-5 -7,-57 -70,-38 -85,-44 -37,13 -31,-12 7,-91 14,-34 10,-41 -89,-14 -93,-45 37,-123 -42,-78 -53,-37 -4,-6 -8,-13 -9,-7 -16,2 -5,11 -8,28 -13,6 -34,-1 -21,-11 -21,-20 -1,-17 -1,-21 -16,-23 -11,-4 -14,17 -9,20 -8,-3 -9,-11 -12,-22 6,-24 25,-38 -1,-17 -8,-13 -29,1 -28,0 -112,-120 -2,0 -5,-13 -5,-9 -9,-11 -10,-1 -21,2 -11,1 -26,16 -5,0 0,-20 -2,-13 -2,-20 -2,-16 -10,-11 -9,-12 -6,-11 -11,-12 -12,2 -16,16 -10,4 -50,5 -44,-2332 304,-9 -21,-972 -62,-2680 -5,-207 144,1 -26,-1488 -9,-464 -13,-826 -5,-141 -23,-943 -171,-958 100,-967 -36,-1653 -5,-242 -5,-56 67,0 -5,-176 -5,-65 -4,-424 1,-166 0,-156 -23,-973 1,-332 -4,-151 -5,-217 -4,-227 -3,-952 -46,-3883 67,-5 -32,-1586 -1569,27 -36,-1939 -134,-6544 -125,-6346 600,-11 2042,-40 1637,-36 410,-10 z"
     id="Apache" />
  <path
     style="fill:#b9b9b9;fill-opacity:1;stroke:#ffffff;stroke-width:87;stroke-linejoin:round;stroke-opacity:1"
     inkscape:connector-curvature="0"
     d="m 26100.5,21412.5 325,-7 289,-10 6,213 1,48 4,166 8,322 9,354 4,161 13,501 4,161 49,1962 10,393 19,713 4,172 5,204 8,329 83,3338 3,174 5,252 23,728 3,219 9,405 4,152 14,612 4,121 12,422 -1684,39 -495,14 -846,22 -159,5 -168,4 -153,0 -643,18 -4815,92 -1184,17 -286,4 -704,13 -535,9 -1714,26 -21,-1503 -11,-1316 -5,-162 -5,-152 77,-4 -9,-420 -4,-385 -5,-152 -4,-318 1,-172 -5,-177 1,-152 -6,-1436 -5,-172 -18,-799 -14,-653 -4,-167 0,-146 21,-5 2,-945 1,-61 -8,-930 -31,0 -4,-167 -31,-1744 971,-7 -6,15 445,-4 87,-5 97,0 51,-5 87,0 51,-5 271,-4 168,0 470,-9 475,-8 649,-19 966,-3 960,-22 961,-23 965,-2 956,-23 184,-4 158,-5 317,-4 158,-5 159,-9 955,-13 164,1 158,-5 317,-4 163,1 154,-5 0,-20 163,-10 164,1 158,-5 163,-9 149,-5 163,-4 z"
     id="Cochise" />
  <path
     style="fill:#b9b9b9;fill-opacity:1;stroke:#ffffff;stroke-width:87;stroke-linejoin:round;stroke-opacity:1"
     inkscape:connector-curvature="0"
     d="m 10117.5,-29097.5 359,30427 -72,25 -41,35 -20,0 -10,-20 -5,-20 5,-66 10,-20 26,-55 46,-56 -15,-65 -56,-86 -46,-30 -62,-31 -25,-10 -36,-10 5,-96 -51,116 -5,-136 -67,35 -10,86 -62,20 -9,-151 -26,0 -41,176 -62,-45 -87,-26 -61,-35 -46,-35 -62,10 16,35 97,45 36,26 56,35 30,71 -41,15 -51,50 -61,20 25,25 77,-5 0,46 -15,-5 -36,15 -16,25 -15,20 -26,5 -51,0 -31,5 -102,-15 -174,-61 -61,-51 -41,-65 41,-45 -113,-61 11,-40 -31,-36 -72,30 -204,-116 -138,-5 -26,-66 -66,-15 -21,65 -77,-60 -46,-76 -66,-126 -123,-61 -76,-25 10,-60 -21,-16 -66,-5 10,-60 -35,-56 -21,30 -97,-25 5,-106 -25,-25 -21,55 -10,56 -77,15 66,96 -15,30 -26,20 20,91 -138,-16 -82,-121 -35,0 133,-186 51,-15 -56,-86 -159,15 -148,-20 5,-71 -36,-30 -46,-56 -25,-10 -21,0 -35,-15 -26,0 -36,30 -51,61 -51,40 -36,5 -46,0 -67,-66 -20,40 -77,0 -36,66 -46,65 -31,-40 0,-91 -76,-116 -36,-76 -46,15 -26,0 -56,-10 -15,-50 -113,15 -82,-26 -205,-75 -10,-101 -25,0 -26,-61 -61,15 -41,-15 -21,-76 -46,-35 -20,-15 31,-71 -62,-40 -61,65 -82,51 -123,40 -144,25 -164,75 -56,30 -51,51 -98,-11 -153,0 -15,-60 25,-36 -20,-20 15,-40 16,-25 -26,0 -36,5 -46,45 -20,-30 -31,-10 -51,10 -52,75 -56,10 -21,61 -35,15 -41,-16 -11,-35 -30,30 5,116 -11,51 -46,25 -46,-5 77,116 87,5 61,10 -26,30 11,30 41,11 -21,35 -31,0 -30,25 -21,15 -26,25 -41,35 -61,15 -31,-50 -46,10 -46,-86 -20,-60 15,-96 0,-60 -30,-126 36,-106 -15,-66 51,0 26,31 30,-16 51,71 21,-30 -15,-96 56,-20 15,-30 -46,-10 -41,-31 -15,46 -82,-21 -71,-35 -88,20 -51,101 -87,65 -31,56 -56,25 -52,111 -117,-1 0,-126 61,-55 41,-70 -97,60 26,-50 -31,15 -21,10 -30,-16 -5,51 -41,0 -57,-46 26,126 -11,51 -41,-25 -15,-71 -46,60 -36,0 -20,31 -11,35 -61,35 -82,20 -87,-10 5,-30 -31,-5 -25,-16 -26,20 -10,-30 -36,-25 62,-35 41,-61 25,41 72,25 -10,-136 46,50 25,36 41,-46 -20,-75 26,-25 -21,-66 57,25 46,36 15,30 41,-45 -10,-21 36,-30 30,0 21,-60 36,15 10,-40 41,5 67,30 -26,-45 36,-51 36,26 -16,-31 11,-30 -72,20 -5,-15 -51,-20 -11,20 -76,5 -46,30 -57,35 -46,5 -51,-5 -16,-25 -20,10 -15,25 -98,10 -61,-10 0,-15 31,-30 66,-30 67,-21 10,11 26,-41 56,-20 5,-55 0,-71 26,15 -15,-65 -26,-5 0,-15 16,-10 10,-31 -26,-20 36,-25 77,-45 -61,-5 -93,40 -10,-10 5,-41 -25,0 -26,46 20,80 16,56 -16,55 -36,30 -25,51 -72,30 -10,-20 15,-25 -25,-36 -26,36 -16,30 11,40 -21,10 -41,-10 2,-887 -5,-257 -4,-1119 1,-216 -4,-1245 -875,-1 -897,-11 -307,-11 1,-861 6,-997 0,-96 -153,0 -128,-6 5,56 -195,0 -87,-1 -41,-5 -1127,4 -379,0 -123,-1 0,21 -538,-1 -292,5 -2024,3 -4,-1164 -5,-50 6,-746 -979,-1 11,-841 5,-171 0,-151 1,-81 -57,25 -25,15 -11,6 -10,10 -5,15 0,10 -21,10 -15,5 -15,0 -16,10 -15,5 -21,10 -15,15 -26,10 -15,20 -15,25 -21,21 0,15 -5,15 0,10 -10,-5 -31,-5 -16,-5 -15,-5 -20,0 -11,-5 -10,-6 -25,-5 -52,-10 -15,-5 -56,0 -26,5 -21,0 -35,15 -47,5 -220,40 -20,0 -118,-25 -26,-5 -87,-25 -15,-5 -77,-16 -67,-75 -5,-15 -36,-46 -36,-40 -10,-10 -31,-30 -5,-15 -5,-10 -41,-41 -5,-10 -36,-25 -25,-10 -16,-5 -36,-15 -30,-5 -10,-5 5,-26 10,-15 5,-20 5,-30 0,-30 -5,-30 0,-16 -5,-15 -5,-10 -15,-25 -16,-20 -10,-5 -10,-10 -26,-10 -20,-16 -72,-10 -26,5 -31,10 -25,10 -36,31 -10,5 -11,15 -15,20 -46,0 -10,-15 -16,-30 -25,-36 -26,-30 -25,-15 -11,-10 -5,-10 -26,-15 -46,-26 -35,-5 -36,-15 -52,-15 -30,0 -16,5 -20,-5 -10,5 -21,10 -20,5 -11,5 -30,10 -21,5 -10,10 -21,0 -20,5 -31,5 -26,5 -35,5 -36,0 -11,5 -20,-5 -46,0 -16,-5 -10,5 -15,-5 -10,0 -21,-5 -41,-5 -15,-25 -26,-25 -31,-21 -15,-15 -41,-10 -26,-5 -25,5 -36,0 -56,-10 -11,-10 -15,-15 -36,-20 -46,-36 -36,-15 -26,-10 -35,-10 -26,-5 -36,-5 -56,-15 -52,-10 -87,-26 -153,-40 -134,-41 -71,-25 -41,-15 -11,0 -20,-10 -41,-5 -15,-5 -62,-10 -15,-5 -36,-5 -113,-26 -113,-25 -20,0 -36,-10 -61,-10 -11,-5 -15,0 -15,-10 -41,-20 -41,-16 -62,-211 -10,-20 -10,-25 -11,-26 -25,-45 -36,-40 -21,-20 -25,-26 -57,-35 -35,-25 -52,-35 -20,-11 -15,-5 -11,-5 -15,-20 -15,-5 -21,-20 -10,0 -26,-15 -712,-499 -62,-25 -30,-26 -21,-10 -10,-5 -21,-5 -10,-10 -20,-5 -16,-15 -25,-10 -16,-5 -15,-10 -20,-5 -11,-10 -15,-5 -5,-10 -21,-11 -15,-5 -10,-10 -16,0 -10,-5 -15,-5 -11,-10 -15,-10 -10,0 -10,-10 -11,-5 -10,0 -15,-10 -11,-5 -15,-15 -10,-5 -16,-5 -10,-5 0,-11 -20,0 -16,-10 0,-25 -5,-10 0,-10 -10,-20 0,-20 -10,-15 -11,-26 -5,-10 -15,-15 -5,-10 -10,-10 -5,-15 -11,-10 -10,0 -10,-15 -11,-10 -15,-10 -5,-10 -20,-16 -26,-25 -26,-20 -25,-10 -31,-5 -41,-10 -16,0 -25,-10 -31,-10 -41,-10 -10,-5 -26,0 -36,5 -10,5 -25,5 -62,0 -46,5 -118,-71 -26,-20 -36,-20 -41,-15 -61,-31 -5,-10 -16,-20 -10,-10 -36,-15 -20,-20 -26,-5 -25,-5 -26,0 -21,5 -25,-11 -10,6 -16,0 -36,10 -15,-6 -10,-5 -52,0 -41,5 -25,-10 -21,-5 -25,5 -98,-5 -36,0 -41,-5 -10,5 -20,5 -52,20 -41,0 11,-1133 21,-1002 5,-503 5,-307 36,-136 21,-50 -31,-131 46,-76 46,-171 11,-15 41,-76 41,-50 5,-20 15,-25 6,-358 -52,-45 -46,-60 -41,-86 -31,-60 -5,-31 11,-40 25,-35 31,-55 0,-71 -15,-171 77,-116 0,-50 -10,-51 -62,-35 -97,-60 -46,-61 -11,-45 21,-55 20,-71 21,-50 -41,-61 -26,-75 -36,-96 -46,-91 16,-40 0,-50 20,-55 26,-61 164,-196 41,-126 103,-131 36,-50 20,-5 10,15 52,15 56,20 51,-15 98,31 210,45 113,-30 92,15 72,-20 10,-5 16,-10 15,-10 15,-35 11,-20 87,-66 56,-55 26,-10 26,-20 30,-15 0,-31 -20,-105 -26,-101 16,-60 10,-36 51,-35 67,-45 67,-96 25,-30 124,-80 138,10 41,40 20,15 11,0 66,-25 83,-100 92,-96 31,-20 313,-161 107,-40 57,-55 25,-30 103,-131 72,-56 46,-40 139,-30 46,20 113,41 66,10 364,-85 113,-71 93,-121 61,-10 123,51 77,-30 36,-30 10,-10 21,-36 72,-130 5,-11 26,-15 20,-35 77,-45 67,35 133,36 46,-20 36,-26 36,-50 108,-15 56,35 72,0 51,-30 26,-40 21,-55 5,-31 71,-30 119,-45 46,-25 20,-60 67,-76 77,-30 67,30 76,56 41,-30 26,-15 10,-76 1,-30 -16,-76 10,-50 57,-50 51,-35 36,-15 72,-36 87,-5 31,46 15,60 31,20 46,-15 52,-40 56,-75 82,-96 52,-116 25,-100 67,-66 72,-10 0,-110 56,-81 11,-60 -26,-51 -31,-35 -5,-80 -77,20 -30,-91 -26,-60 67,-25 -31,-46 -51,5 56,-110 -31,-36 31,-30 67,-10 41,-40 -10,-55 36,-26 15,-25 -143,15 -83,-30 1,-40 25,-46 11,-75 -47,0 -41,35 -72,10 47,-60 41,-51 -5,-55 -52,-20 -25,-50 10,-51 5,-85 -41,-41 0,-105 -71,-41 15,-85 36,-30 0,-86 87,15 11,-15 41,-25 25,-50 36,-35 46,-41 47,-30 30,-25 36,-45 16,-50 67,-131 0,-86 10,-110 -5,-41 10,-40 -25,-40 -26,-61 -5,-35 26,-50 -5,-56 -31,-65 -41,-96 -21,-45 -15,-80 -25,-61 -11,-45 5,-40 -5,-41 21,-45 -5,-40 -10,-46 -11,-30 11,-30 30,-40 26,-35 5,-31 6,-75 15,-71 15,-75 21,-75 15,-86 16,-75 15,-66 21,-45 5,-50 0,-31 10,-40 11,-30 -16,-35 -20,-30 -26,-31 -5,-15 10,-45 31,-55 36,-41 26,-35 5,-40 15,-25 26,-35 21,-31 5,-30 0,-55 10,-45 26,-36 20,-15 0,-70 16,-40 26,-31 25,-40 11,-45 15,-60 26,-46 31,-60 20,-60 10,-36 -5,-60 0,-70 16,-66 26,-60 56,-15 46,-40 52,-25 36,-91 15,-40 21,-101 10,-95 21,-51 41,-85 41,-91 20,-60 6,-45 -16,-71 -5,-45 -25,-40 -21,-81 -20,-65 -16,-91 0,-40 410,3 457,2 739,3 1057,8 134,1 189,1 159,1 493,3 118,1 185,1 159,1 32,0 404,2 282,0 359,-1 575,-1 354,-1 90,0 69,-1 652,-4 138,-1 375,2 20,0 149,-3 98,2 148,2 190,-2 159,-2 195,-2 667,-5 744,-2 165,-5 169,1 400,-5 8,0 115,-4 16,-1 179,0 87,1 319,0 92,-1 36,-1 190,2 56,0 734,-9 15,0 31,4 16,-1 35,-1 52,-1 723,-9 1514,-16 z"
     id="Coconino" />
  <path
     style="fill:#b9b9b9;fill-opacity:1;stroke:#ffffff;stroke-width:87;stroke-linejoin:round;stroke-opacity:1"
     inkscape:connector-curvature="0"
     d="m 10476.5,1329.5 -1,565 9,247 5,398 -1,247 5,363 9,439 -1,534 4,116 441,-4 834,-9 988,-18 2068,-31 2600,-40 26,1579 26,1442 36,1670 22,1232 -956,12 -619,14 15,61 -16,10 -30,15 -82,0 -16,10 -5,45 -20,20 -31,20 -51,10 -51,0 -108,5 -112,-5 -52,40 -61,5 -41,20 -46,5 -56,-5 -57,-5 -56,-31 -51,-5 -87,71 -67,35 -41,30 -71,5 -62,-10 -51,-6 -71,-15 -144,70 -61,61 -31,91 -16,65 -51,46 -72,19 -76,5 -57,10 -51,-20 -112,20 -41,-15 -46,-10 -31,-6 -31,10 -30,5 -31,0 -51,76 -31,45 -41,5 -67,0 -56,51 -10,25 -1,70 -5,36 0,40 -67,121 -20,61 -11,131 5,50 0,172 10,35 5,61 20,20 10,55 -10,71 0,111 -6,121 0,91 -11,116 10,101 158,248 87,136 10,41 -11,40 62,81 20,50 -10,46 -47,70 -61,5 -102,25 -75,-31 -38,-44 -91,66 22,81 -34,21 -110,7 -259,-28 -47,21 -55,40 -39,20 -23,3 -32,4 -16,77 -49,36 -2,24 5,13 20,7 12,0 22,-2 10,9 6,24 -20,17 -11,7 -5,0 -23,-8 -39,-12 -76,-87 -15,10 -37,121 -14,46 -152,93 -166,74 -128,-2 -94,-51 -229,16 -41,85 -163,230 -49,23 -11,-82 -23,3 -129,82 -47,142 10,106 -19,14 -22,24 1,22 -2,29 -19,35 -22,15 -133,-73 -44,26 -89,56 -43,70 94,214 -2,91 -63,1 -53,74 10,74 -3,13 -8,11 -168,190 -97,54 -62,8 -10,193 -154,14 -190,-404 -61,-121 -280,-490 -86,-157 -62,-101 -106,-212 -87,-167 -87,-161 -585,-1127 -102,-313 -76,-248 -137,-449 -97,-313 -66,-136 -96,-218 -219,-525 -78,-147 -270,-525 -71,-136 -123,-253 -259,-560 -219,-469 -87,-192 -61,-152 -36,-60 -56,45 -92,70 -16,46 -20,35 -26,10 -36,-10 -25,25 -21,30 -20,16 -16,30 -46,40 -20,30 -11,20 -36,36 -30,15 -26,15 -20,45 25,106 -16,51 -66,75 -11,40 -35,36 -36,-26 -31,-20 -25,-30 -62,-71 -56,-30 -41,-30 -20,-1 -67,36 -46,-21 -30,-40 -36,-30 -5,-41 -31,-35 0,-25 -30,-10 -31,-51 0,-25 -21,-10 -45,-61 5,-40 -10,-35 -52,-6 -61,-45 -20,-35 -31,-56 -20,0 -46,-56 -26,-45 -51,-25 -46,-5 -26,-26 -45,-40 -6,-40 -15,-46 -25,-55 0,-202 -31,-20 -20,-26 -26,-30 -30,-40 -31,-15 -20,0 -41,-86 -61,-21 -67,-35 -5,-35 -41,-10 -36,25 -46,-20 0,-31 21,-10 20,-45 -5,-61 -41,-5 -10,-45 -10,-46 16,-25 -21,-35 41,-71 21,-5 10,-25 -10,-25 46,-61 -97,-121 31,-70 5,-61 25,0 31,-15 21,10 41,-25 0,-55 -36,-16 -36,-50 -46,-40 -36,-6 -41,-20 21,-15 -36,-20 -10,-66 26,-70 15,-66 41,-40 -15,-25 -41,-26 -5,-15 -31,-25 -5,-50 0,-41 -51,-15 -36,-10 0,-25 -10,-10 -10,-11 -20,0 -21,-15 -10,-40 20,-61 -20,-25 16,-80 41,-16 -11,-40 5,-35 11,-46 10,-35 -20,-15 -31,-5 -15,-15 -36,0 -31,-15 -36,-16 -25,-15 -46,40 -11,26 -20,20 -21,30 -36,-5 -35,-20 -21,-10 -20,5 -21,-16 11,-30 -11,-15 21,-70 -31,-16 11,-20 35,-10 -10,-35 16,-35 -26,-21 -10,-35 -15,-25 5,-35 25,-46 11,-25 -21,-25 -15,-5 -5,-20 5,-36 20,-10 1,-35 15,-40 36,-21 25,-35 21,-5 20,-20 21,-5 15,-25 -10,-30 -46,-31 -20,-15 -16,-15 11,-10 15,-25 -5,-31 -21,-10 -10,-5 -10,-15 -5,-15 -21,5 -15,10 -46,-50 -25,15 -16,15 -46,-20 -25,-21 -31,31 -10,-11 -16,-5 -25,15 -26,5 -15,0 -16,-5 -15,15 -26,-5 -25,15 -10,-10 -57,20 -10,-40 -20,-5 -11,-45 6,-31 35,-40 0,-25 -20,-15 31,-61 -26,-65 26,-20 5,-26 5,-45 46,15 16,5 15,-5 15,-45 31,-5 0,15 26,-15 31,0 20,-20 10,-35 11,5 10,-21 -5,-15 -5,-30 -16,-5 -5,-15 -10,-35 5,-26 36,-10 10,5 36,0 10,-25 11,-45 -11,-25 -20,-26 0,-30 -10,0 -10,-15 -21,-15 -15,-10 -15,-30 -41,-16 0,-25 -26,-15 0,-40 -15,-11 -16,-50 -30,-30 5,-10 15,-20 11,-5 30,-26 6,-25 30,-20 11,-30 15,-15 10,-31 -25,-20 -11,-25 6,-25 -62,-10 -10,-36 10,-40 16,-45 -21,-15 -36,5 -56,10 -20,-26 10,-25 21,-30 20,-25 41,-20 0,-31 10,-20 16,-30 15,-10 15,-15 -1720,8 -440,-1 -10,-25 -31,-25 -30,-26 -11,-35 6,-25 61,-30 26,-46 20,-30 26,-30 -5,-30 5,-31 26,-20 35,10 16,20 25,-10 6,-50 -5,-30 -31,-20 -21,5 -25,10 -26,20 -36,5 -5,-15 16,-20 20,-16 -36,-30 -15,-30 5,-35 36,5 15,5 31,10 15,20 0,25 10,15 31,-5 26,-15 5,-30 15,-20 11,-35 -16,-46 -20,-15 -10,-25 -5,-15 -21,0 -15,5 -51,-15 0,-11 5,-55 10,-25 5,-20 -15,-36 5,-35 26,-10 25,0 0,-15 -15,-20 0,-41 -10,-35 41,-30 10,5 15,-15 -20,-20 -15,0 -5,-20 15,-41 26,-40 20,-5 10,-15 0,-35 11,-16 35,0 36,-20 16,-40 20,-10 0,-10 16,-20 -16,-10 -20,-5 -15,-26 0,-25 -11,-45 -25,-15 0,-15 25,-11 36,1 67,-10 51,-16 16,-55 -6,-35 11,-15 -21,-31 -30,15 -16,11 -15,5 -26,5 5,20 -5,40 -20,-5 -26,-30 0,-20 -10,-26 -31,-5 5,-35 57,-40 31,-36 5,-10 30,0 6,11 15,-11 5,-15 -5,-15 15,-30 16,-15 10,-76 5,-30 -10,-86 -5,-85 -20,-96 31,-86 46,-75 5,-126 0,-51 -10,-80 97,-66 57,-15 61,0 82,-50 103,-70 20,-10 77,-86 -5,-30 31,-36 92,-30 10,0 92,11 67,-25 21,-81 76,-30 88,-81 30,-25 1,-126 -5,-141 20,0 41,10 21,-10 -11,-40 16,-30 26,-36 25,36 -15,25 10,20 72,-30 25,-51 36,-30 16,-55 -16,-56 -20,-80 26,-46 25,0 -5,41 10,10 93,-40 61,5 -77,45 -36,25 26,20 -10,31 -16,10 0,15 26,5 15,65 -26,-15 0,71 -5,55 -56,20 -26,41 -10,-11 -67,21 -66,30 -31,30 0,15 61,10 98,-10 15,-25 20,-10 16,25 51,5 46,-5 57,-35 46,-30 76,-5 11,-20 51,20 5,15 72,-20 -11,30 16,31 -36,-26 -36,51 26,45 -67,-30 -41,-5 -10,40 -36,-15 -21,60 -30,0 -36,30 10,21 -41,45 -15,-30 -46,-36 -57,-25 21,66 -26,25 20,75 -41,46 -25,-36 -46,-50 10,136 -72,-25 -25,-41 -41,61 -62,35 36,25 10,30 26,-20 25,16 31,5 -5,30 87,10 82,-20 61,-35 11,-35 20,-31 36,0 46,-60 15,71 41,25 11,-51 -26,-126 57,46 41,0 5,-51 30,16 21,-10 31,-15 -26,50 97,-60 -41,70 -61,55 0,126 117,1 52,-111 56,-25 31,-56 87,-65 51,-101 88,-20 71,35 82,21 15,-46 41,31 46,10 -15,30 -56,20 15,96 -21,30 -51,-71 -30,16 -26,-31 -51,0 15,66 -36,106 30,126 0,60 -15,96 20,60 46,86 46,-10 31,50 61,-15 41,-35 26,-25 21,-15 30,-25 31,0 21,-35 -41,-11 -11,-30 26,-30 -61,-10 -87,-5 -77,-116 46,5 46,-25 11,-51 -5,-116 30,-30 11,35 41,16 35,-15 21,-61 56,-10 52,-75 51,-10 31,10 20,30 46,-45 36,-5 26,0 -16,25 -15,40 20,20 -25,36 15,60 153,0 98,11 51,-51 56,-30 164,-75 144,-25 123,-40 82,-51 61,-65 62,40 -31,71 20,15 46,35 21,76 41,15 61,-15 26,61 25,0 10,101 205,75 82,26 113,-15 15,50 56,10 26,0 46,-15 36,76 76,116 0,91 31,40 46,-65 36,-66 77,0 20,-40 67,66 46,0 36,-5 51,-40 51,-61 36,-30 26,0 35,15 21,0 25,10 46,56 36,30 -5,71 148,20 159,-15 56,86 -51,15 -133,186 35,0 82,121 138,16 -20,-91 26,-20 15,-30 -66,-96 77,-15 10,-56 21,-55 25,25 -5,106 97,25 21,-30 35,56 -10,60 66,5 21,16 -10,60 76,25 123,61 66,126 46,76 77,60 21,-65 66,15 26,66 138,5 204,116 72,-30 31,36 -11,40 113,61 -41,45 41,65 61,51 174,61 102,15 31,-5 51,0 26,-5 15,-20 16,-25 36,-15 15,5 0,-46 -77,5 -25,-25 61,-20 51,-50 41,-15 -30,-71 -56,-35 -36,-26 -97,-45 -16,-35 62,-10 46,35 61,35 87,26 62,45 41,-176 26,0 9,151 62,-20 10,-86 67,-35 5,136 51,-116 -5,96 36,10 25,10 62,31 46,30 56,86 15,65 -46,56 -26,55 -10,20 -5,66 5,20 10,20 20,0 41,-35 z"
     id="Gila" />
  <path
     style="fill:#b9b9b9;fill-opacity:1;stroke:#ffffff;stroke-width:87;stroke-linejoin:round;stroke-opacity:1"
     inkscape:connector-curvature="0"
     d="m 17524.5,8827.5 57,-61 111,39 24,27 105,-16 21,-6 12,-12 16,-12 24,-2 7,8 4,29 -3,20 4,27 33,4 77,-10 110,24 115,25 92,-93 135,2 16,29 20,62 34,1 50,-5 10,-4 16,-16 12,-2 11,12 6,11 9,12 10,11 2,16 2,20 2,13 0,20 5,0 26,-16 11,-1 21,-2 10,1 9,11 5,9 5,13 2,0 112,120 28,0 29,-1 8,13 1,17 -25,38 -6,24 12,22 9,11 8,3 9,-20 14,-17 11,4 16,23 1,21 1,17 21,20 21,11 34,1 13,-6 8,-28 5,-11 16,-2 9,7 8,13 4,6 53,37 42,78 -37,123 93,45 89,14 -10,41 -14,34 -7,91 31,12 37,-13 85,44 70,38 7,57 156,5 116,-62 68,-45 43,-104 -27,-104 36,-69 116,-75 56,-74 136,-114 56,-30 142,-89 55,-103 15,-26 33,-9 19,-11 7,-16 -12,-20 -4,-7 -39,-97 6,-47 137,-120 144,-26 121,14 85,6 23,-3 42,-112 50,14 54,-96 -27,-70 21,-53 134,-48 91,-2 24,-19 137,-95 39,7 38,65 95,27 25,-58 -1,-5 11,-23 24,1 18,12 12,34 15,10 78,6 -32,-54 97,-135 27,-67 83,-23 37,-105 46,6 197,6433 56,96 432,714 208,338 193,314 31,51 487,789 87,142 40,60 138,1 168,263 269,435 76,111 127,203 41,-5 56,147 106,227 167,334 0,132 9,237 86,182 -77,268 -32,116 36,91 40,101 -31,131 -93,329 4,126 102,56 148,76 35,157 28,27 14,-13 5,-30 39,-15 43,48 2,33 47,71 12,82 7,84 1,23 31,71 29,0 34,-29 37,-4 76,23 21,10 22,4 51,96 5,26 -5,25 25,25 9,64 120,181 147,62 -84,2 -163,4 -149,5 -163,9 -158,5 -164,-1 -163,10 0,20 -154,5 -163,-1 -317,4 -158,5 -164,-1 -955,13 -159,9 -158,5 -317,4 -158,5 -184,4 -956,23 -965,2 -961,23 -960,22 -966,3 -649,19 -475,8 -470,9 -168,0 -271,4 -51,5 -87,0 -51,5 -97,0 -87,5 -445,4 6,-15 -971,7 -9,-525 -9,-440 -110,-7540 75,31 102,-25 61,-5 47,-70 10,-46 -20,-50 -62,-81 11,-40 -10,-41 -87,-136 -158,-248 -10,-101 11,-116 0,-91 6,-121 0,-111 10,-71 -10,-55 -20,-20 -5,-61 -10,-35 0,-172 -5,-50 11,-131 20,-61 67,-121 0,-40 5,-36 1,-70 10,-25 56,-51 67,0 41,-5 31,-45 51,-76 31,0 30,-5 31,-10 31,6 46,10 41,15 112,-20 51,20 57,-10 76,-5 72,-19 51,-46 16,-65 31,-91 61,-61 144,-70 71,15 51,6 62,10 71,-5 41,-30 67,-35 87,-71 51,5 56,31 57,5 56,5 46,-5 41,-20 61,-5 52,-40 112,5 108,-5 51,0 51,-10 31,-20 20,-20 5,-45 16,-10 82,0 30,-15 16,-10 -15,-61 619,-14 956,-12 z"
     id="Graham" />
  <path
     style="fill:#b9b9b9;fill-opacity:1;stroke:#ffffff;stroke-width:87;stroke-linejoin:round;stroke-opacity:1"
     inkscape:connector-curvature="0"
     d="m 26315.5,6418.5 50,1848 37,1331 4,148 73,2634 8,314 68,2574 9,325 2,140 3,92 6,241 3,93 2,53 8,280 5,205 17,750 11,387 17,628 7,289 19,720 50,1925 -289,10 -325,7 -147,-62 -120,-181 -9,-64 -25,-25 5,-25 -5,-26 -51,-96 -22,-4 -21,-10 -76,-23 -37,4 -34,29 -29,0 -31,-71 -1,-23 -7,-84 -12,-82 -47,-71 -2,-33 -43,-48 -39,15 -5,30 -14,13 -28,-27 -35,-157 -148,-76 -102,-56 -4,-126 93,-329 31,-131 -40,-101 -36,-91 32,-116 77,-268 -86,-182 -9,-237 0,-132 -167,-334 -106,-227 -56,-147 -41,5 -127,-203 -76,-111 -269,-435 -168,-263 -138,-1 -40,-60 -87,-142 -487,-789 -31,-51 -193,-314 -208,-338 -432,-714 -56,-96 -197,-6433 71,-134 72,-50 5,-50 1,-101 0,-101 16,-56 10,-20 10,-15 16,-25 71,-5 31,-10 51,-20 11,-30 61,-71 36,-35 26,-10 133,-5 92,16 31,0 30,-10 16,0 71,15 16,0 5,-15 10,-40 21,-25 31,-10 112,-20 41,-31 41,-20 41,-30 62,-5 46,-15 -20,-65 -36,-36 -26,-40 6,-96 21,-70 36,-147 21,-40 46,0 706,-13 z"
     id="Greenlee" />
  <path
     style="fill:#b9b9b9;fill-opacity:1;stroke:#ffffff;stroke-width:87;stroke-linejoin:round;stroke-opacity:1"
     inkscape:connector-curvature="0"
     d="m -20703.5,680.5 62,10 20,5 92,71 31,25 26,5 25,0 41,-25 41,-20 36,-5 41,10 31,30 20,15 26,10 51,21 26,0 41,20 30,10 21,35 15,35 16,0 20,36 26,20 41,10 25,25 21,30 0,46 31,35 15,0 26,-5 10,10 -5,46 10,10 26,10 25,0 31,-26 15,-30 5,-20 11,-5 15,-5 20,15 11,15 0,25 20,26 26,30 36,25 30,15 36,-5 87,0 41,5 36,-10 72,-15 123,-10 87,15 51,5 102,30 46,31 21,20 30,5 47,0 138,10 51,5 31,0 41,-5 71,-25 52,-10 40,-20 16,-5 36,-5 41,10 51,10 46,10 26,10 15,10 10,15 0,35 5,41 5,25 16,25 20,20 26,56 15,40 5,30 16,16 15,10 31,0 20,-10 21,0 20,-6 16,-15 10,0 20,-10 5,-10 11,-5 0,-30 5,-20 10,-15 10,-5 11,-10 10,5 5,10 5,15 10,15 16,-5 15,5 15,-20 11,0 15,-10 25,-21 16,0 31,11 25,5 62,30 25,5 10,20 26,10 41,10 26,-5 15,-20 20,-10 21,-10 26,-5 15,0 36,-30 25,-5 11,-10 35,-5 16,-16 10,10 15,-5 16,-10 20,-5 62,-5 25,-5 16,5 15,5 20,51 21,45 15,51 0,20 16,25 0,10 25,10 26,-5 10,5 10,40 21,11 5,10 20,-5 31,50 15,5 11,5 41,5 35,10 47,0 25,5 82,0 16,-15 -1,-10 11,-10 25,5 16,5 15,-10 15,5 16,0 20,10 10,-5 0,-10 11,-10 25,-30 16,0 5,10 20,-10 21,-15 15,-26 26,-15 10,10 10,11 10,-11 6,-15 10,-10 -16,-20 6,-10 15,-15 20,5 16,45 25,-15 21,10 20,-20 11,-5 30,-25 21,5 10,0 36,10 25,0 46,-25 -5,-15 51,-5 11,20 20,-15 16,-10 30,-15 -5,-21 16,-10 15,-15 15,-10 26,-15 46,-35 41,-182 56,-50 31,-40 25,-11 16,-10 -5,-35 10,-20 25,-15 11,-10 25,-30 57,-61 56,-30 20,-15 11,-41 10,-40 0,-20 20,-25 26,-46 10,-10 41,-20 36,-15 46,-15 41,-10 31,5 46,5 77,55 82,10 61,-10 82,21 154,-10 61,45 41,15 26,5 46,0 41,-5 51,-15 25,5 57,10 66,36 31,25 31,15 30,-15 31,-25 21,-10 25,-16 26,0 107,56 41,10 31,10 77,20 56,-10 41,-20 56,-40 46,-56 21,-60 31,-30 10,-10 -15,-31 -6,-25 0,-15 26,-5 31,15 36,5 -6,167 -5,761 -20,1250 0,50 -5,333 -10,948 -6,444 -10,792 -5,297 -5,711 -20,1766 -10,963 -10,787 -5,162 0,197 -16,777 -291,-11 -471,0 -184,-5 -604,-15 -1350,-15 -967,-21 -20,0 -128,-5 -967,-15 -56,-5 -598,-15 -51,5 -108,-5 25,-964 -327,0 -92,5 -543,-15 -307,-10 -670,-10 -787,-15 -169,-10 -15,969 -14,974 -20,-5 -10,954 -64,1933 -966,-9 -97,0 -844,-15 -169,-10 -249,-7 -43,-19 -30,-9 -51,-15 -82,-15 -81,-11 -99,-17 -80,-27 -52,12 -26,16 -17,11 -33,27 -6,5 -25,24 -45,26 -31,-2 -46,-4 -97,-2 -62,-9 -9,-2 -63,-22 -18,-14 -26,-33 -53,-49 -25,-50 -25,-35 -32,-31 -31,-5 -35,15 -21,46 -20,55 -19,44 -32,18 -31,-2 -49,-35 -33,-60 -21,-30 -6,-56 1,-35 12,-60 -17,-31 -25,-28 -41,-53 -9,-22 -22,-52 -21,-72 -1,-21 -1,-8 -13,-27 -31,-10 -46,-5 -36,5 -25,-20 -11,-35 5,-56 5,-91 18,-78 28,-88 37,-73 4,-8 66,-111 65,-109 27,-63 5,-11 21,-50 12,-54 -2,-42 0,-59 3,-31 1,-14 20,-65 11,-63 -5,-55 -21,-51 -1,-24 -5,-33 8,-12 13,-32 21,-45 11,-47 2,-9 2,-55 -10,-61 -8,-17 -12,-27 -32,-47 -41,-40 -8,-14 -22,-33 -6,-46 11,-18 34,-40 28,-19 13,-9 29,-17 34,-26 6,-21 5,-16 4,-34 -26,-50 -31,-51 -49,-49 -84,-42 -71,-20 -35,-4 -71,-10 -55,-20 -43,-38 -47,-84 -23,-64 13,-57 30,-51 67,-50 50,-47 79,-109 37,-64 27,-83 5,-87 1,-9 -2,-10 -4,-51 -5,-60 -11,-43 -2,-9 -18,-64 -16,-35 -6,-12 -6,-44 -1,-10 -11,-34 -28,-37 -55,-60 -53,-65 -18,-42 9,-35 11,-19 37,-7 25,1 45,5 41,-5 41,-10 45,-17 23,-26 44,-28 51,-20 62,0 56,5 41,15 88,28 16,6 30,12 62,-24 39,-19 30,-19 47,-29 46,-61 33,-56 4,-7 14,-22 19,-49 10,-60 9,-55 0,-14 -1,-37 14,-38 20,-46 16,-23 14,-22 54,-64 27,-33 17,-20 5,-6 25,-34 16,-25 41,-115 35,-56 45,-39 42,-27 38,-17 8,-3 15,-4 19,-6 8,-4 29,-19 21,-13 7,-4 33,-23 21,-28 7,-16 7,-19 7,-36 5,-40 5,-36 34,-38 9,-22 54,-36 46,-40 62,-28 62,-62 29,-26 6,-8 20,-27 -2,-35 -23,-27 -17,-19 -5,-6 -26,-24 -7,-42 -2,-35 -21,-29 -15,-36 -5,-25 5,-40 7,-29 -7,-32 -5,-20 5,-15 19,-18 47,-63 55,-67 9,-11 28,-43 5,-30 -10,-25 -15,-30 -18,-27 -9,-26 1,-33 16,-42 7,-25 21,-26 7,-8 5,-31 -5,-34 -20,-30 -21,-42 -7,-32 2,-26 15,-17 34,-19 32,-17 31,-10 27,-16 -1,-19 -7,-8 -29,-22 -45,-9 -37,-6 -21,-26 -10,-40 10,-44 20,-54 26,-48 17,-14 14,-11 7,-5 12,-7 24,-13 54,-21 41,-15 16,-7 37,-14 18,-7 41,-21 31,-64 0,-54 -24,-105 -22,-56 -26,-49 -36,-27 -26,-28 -15,-42 0,-30 21,-36 25,-50 23,-76 -9,-88 -15,-65 -8,-26 -37,-99 -16,-40 -15,-38 -42,-115 -24,-88 -27,-72 -15,-43 9,-49 6,-15 17,-19 28,-28 6,-27 -6,-39 -19,-57 -22,-83 -2,-9 -22,-70 -11,-50 0,-40 10,-25 16,-11 30,5 26,7 41,3 41,-10 37,-21 9,-4 24,-18 22,-37 16,-45 -6,-57 -26,-29 -64,-64 -57,-60 -37,-48 -27,-48 6,-28 15,-10 23,1 28,20 68,3 14,-24 16,-34 -31,-64 -41,-58 -53,-50 -59,-38 -26,-16 -16,-12 -20,-25 -4,-25 3,-16 16,-60 60,-135 32,-47 40,-29 37,-9 15,-5 15,-2 46,-7 31,-8 46,-15 21,-18 46,-57 56,-72 26,-31 14,-16 17,-14 6,-7 22,-21 27,-17 16,-20 4,-7 11,-18 26,-28 22,-24 38,-17 20,-3 27,-14 7,-19 -12,-16 -37,-23 -28,-28 -18,-24 -4,-23 25,-23 26,-25 20,5 55,7 27,-2 31,-20 66,-54 26,-47 20,-71 5,-76 0,-55 -15,-66 -10,-70 0,-68 10,-88 20,-92 4,-20 11,-45 5,-25 27,-53 25,-38 40,-50 41,-60 36,-36 46,-40 56,-19 21,-7 21,4 10,2 35,6 47,4 51,-16 46,-25 77,-21 56,-24 53,-49 34,-43 31,-39 5,-6 15,-15 46,-15 62,7 73,-15 75,-22 59,-43 72,-70 78,-89 60,-83 53,-53 34,-16 32,-18 21,-3 41,7 46,3 9,0 42,-9 68,-10 45,-9 66,-38 28,-25 14,-12 30,-18 43,-32 33,-10 8,-2 23,-19 11,-21 9,-28 -3,-35 10,-41 6,-29 18,-23 32,-24 42,-35 16,-8 49,-39 75,-80 100,-94 86,-83 25,-30 15,-26 26,-35 26,-20 23,-8 18,-12 15,-20 13,-25 1,-11 1,-25 16,-10 8,-2 27,-8 41,0 39,-4 36,-2 46,8 38,3 31,-15 11,-22 -6,-44 -13,-43 -13,-32 -6,-51 5,-70 -20,-62 -3,-39 -2,-38 z"
     id="La_Paz" />
  <path
     style="fill:#b9b9b9;fill-opacity:1;stroke:#ffffff;stroke-width:87;stroke-linejoin:round;stroke-opacity:1"
     inkscape:connector-curvature="0"
     d="m -13355.5,4186.5 844,11 317,5 968,0 1136,11 317,5 159,0 1049,36 425,6 236,5 163,50 343,102 82,30 834,258 67,20 158,51 323,101 71,20 82,25 118,41 72,20 317,91 465,147 169,45 159,51 77,25 547,167 261,86 -15,-76 20,-40 51,-30 31,-15 31,-31 20,-25 36,-40 36,-5 41,10 36,0 31,-10 15,-35 -31,-76 41,5 26,10 15,-35 21,-126 5,-76 -10,-15 -21,-15 -25,-10 -31,-10 15,-25 36,-46 -15,-20 -26,0 0,-35 16,-20 -21,-26 31,-10 36,10 20,16 57,-41 36,-30 35,-10 36,-20 -10,-25 31,-31 30,-15 47,0 25,-10 36,-25 21,-40 10,-41 0,-75 10,-46 15,-35 26,-20 21,-15 0,-10 30,-30 6,-5 20,-26 -10,-30 -16,-25 -5,-20 11,-31 56,-15 36,-35 15,15 26,15 20,31 41,-56 -10,-40 -15,-45 -11,-51 1,-50 20,-31 82,-50 -36,-20 -31,10 -10,-30 -20,-20 179,15 292,41 476,61 2354,310 716,92 51,5 77,5 67,0 271,-5 379,1 1315,-4 57,-20 10,10 25,-15 26,5 15,-15 16,5 15,0 26,-5 25,-15 16,5 10,11 31,-31 25,21 46,20 16,-15 25,-15 46,50 15,-10 21,-5 5,15 10,15 10,5 21,10 5,31 -15,25 -11,10 16,15 20,15 46,31 10,30 -15,25 -21,5 -20,20 -21,5 -25,35 -36,21 -15,40 -1,35 -20,10 -5,36 5,20 15,5 21,25 -11,25 -25,46 -5,35 15,25 10,35 26,21 -16,35 10,35 -35,10 -11,20 31,16 -21,70 11,15 -11,30 21,16 20,-5 21,10 35,20 36,5 21,-30 20,-20 11,-26 46,-40 25,15 36,16 31,15 36,0 15,15 31,5 20,15 -10,35 -11,46 -5,35 11,40 -41,16 -16,80 20,25 -20,61 10,40 21,15 20,0 10,11 10,10 0,25 36,10 51,15 0,41 5,50 31,25 5,15 41,26 15,25 -41,40 -15,66 -26,70 10,66 36,20 -21,15 41,20 36,6 46,40 36,50 36,16 0,55 -41,25 -21,-10 -31,15 -25,0 -5,61 -31,70 97,121 -46,61 10,25 -10,25 -21,5 -41,71 21,35 -16,25 10,46 10,45 41,5 5,61 -20,45 -21,10 0,31 46,20 36,-25 41,10 5,35 67,35 61,21 41,86 20,0 31,15 30,40 26,30 20,26 31,20 0,202 25,55 15,46 6,40 45,40 26,26 46,5 51,25 26,45 46,56 20,0 31,56 20,35 61,45 52,6 10,35 -5,40 45,61 21,10 0,25 31,51 30,10 0,25 31,35 5,41 36,30 30,40 46,21 67,-36 20,1 41,30 56,30 62,71 25,30 31,20 36,26 35,-36 11,-40 66,-75 16,-51 -25,-106 20,-45 26,-15 30,-15 36,-36 11,-20 20,-30 46,-40 16,-30 20,-16 21,-30 25,-25 36,10 26,-10 20,-35 16,-46 92,-70 56,-45 36,60 61,152 87,192 219,469 259,560 123,253 71,136 270,525 -281,5 -3494,4 -159,5 -153,0 -333,5 -644,-1 9,948 -31,5 23,1938 -962,9 -1933,13 -1733,-18 -46,-35 -16,-15 -25,-10 -16,-41 1,-45 -16,-30 -5,-36 -15,-35 -41,0 -26,-10 -51,-56 -15,-20 -36,10 -51,-10 -26,10 -35,-35 -31,-10 -36,0 -20,5 -16,-16 -20,-5 -31,-30 -15,-30 21,-51 -11,-25 -10,-20 -31,-15 -15,0 -56,-10 -26,15 -20,5 -51,-41 -41,-5 -36,15 -26,-20 -30,-10 -31,-51 0,-45 -20,-35 -31,-31 -46,-35 -20,-35 -36,-106 -10,-71 -10,-61 -16,-45 -20,-20 -5,181 15,0 0,313 -6,167 5,464 -5,459 -1,510 5,136 -5,172 0,157 -1,504 -15,0 0,313 -1,167 -5,490 5,10 -5,121 -6,505 5,333 -5,364 -1,277 -5,76 0,409 -1,369 0,904 -1,500 -11,980 -3474,-3 -2815,-12 -542,-5 -322,0 -1594,-26 -92,0 -1788,-26 45,-2930 0,-161 15,-672 -5,-147 5,-151 10,-338 0,-172 10,-162 0,-146 5,-141 56,-2282 10,-475 10,-948 10,-177 0,-232 10,-560 -36,0 16,-777 0,-197 5,-162 10,-787 10,-963 20,-1766 5,-711 5,-297 10,-792 z"
     id="Maricopa" />
  <path
     style="fill:#b9b9b9;fill-opacity:1;stroke:#ffffff;stroke-width:87;stroke-linejoin:round;stroke-opacity:1"
     inkscape:connector-curvature="0"
     d="m -5825.5,-29044.5 0,40 16,91 20,65 21,81 25,40 5,45 16,71 -6,45 -20,60 -41,91 -41,85 -21,51 -10,95 -21,101 -15,40 -36,91 -52,25 -46,40 -56,15 -26,60 -16,66 0,70 5,60 -10,36 -20,60 -31,60 -26,46 -15,60 -11,45 -25,40 -26,31 -16,40 0,70 -20,15 -26,36 -10,45 0,55 -5,30 -21,31 -26,35 -15,25 -5,40 -26,35 -36,41 -31,55 -10,45 5,15 26,31 20,30 16,35 -11,30 -10,40 0,31 -5,50 -21,45 -15,66 -16,75 -15,86 -21,75 -15,75 -15,71 -6,75 -5,31 -26,35 -30,40 -11,30 11,30 10,46 5,40 -21,45 5,41 -5,40 11,45 25,61 15,80 21,45 41,96 31,65 5,56 -26,50 5,35 26,61 25,40 -10,40 5,41 -10,110 0,86 -67,131 -16,50 -36,45 -30,25 -47,30 -46,41 -36,35 -25,50 -41,25 -11,15 -87,-15 0,86 -36,30 -15,85 71,41 0,105 41,41 -5,85 -10,51 25,50 52,20 5,55 -41,51 -47,60 72,-10 41,-35 47,0 -11,75 -25,46 -1,40 83,30 143,-15 -15,25 -36,26 10,55 -41,40 -67,10 -31,30 31,36 -56,110 51,-5 31,46 -67,25 26,60 30,91 77,-20 5,80 31,35 26,51 -11,60 -56,81 0,110 -72,10 -67,66 -25,100 -52,116 -82,96 -56,75 -52,40 -46,15 -31,-20 -15,-60 -31,-46 -87,5 -72,36 -36,15 -51,35 -57,50 -10,50 16,76 -1,30 -10,76 -26,15 -41,30 -76,-56 -67,-30 -77,30 -67,76 -20,60 -46,25 -119,45 -71,30 -5,31 -21,55 -26,40 -51,30 -72,0 -56,-35 -108,15 -36,50 -36,26 -46,20 -133,-36 -67,-35 -77,45 -20,35 -26,15 -5,11 -72,130 -21,36 -10,10 -36,30 -77,30 -123,-51 -61,10 -93,121 -113,71 -364,85 -66,-10 -113,-41 -46,-20 -139,30 -46,40 -72,56 -103,131 -25,30 -57,55 -107,40 -313,161 -31,20 -92,96 -83,100 -66,25 -11,0 -20,-15 -41,-40 -138,-10 -124,80 -25,30 -67,96 -67,45 -51,35 -10,36 -16,60 26,101 20,105 0,31 -30,15 -26,20 -26,10 -56,55 -87,66 -11,20 -15,35 -15,10 -16,10 -10,5 -72,20 -92,-15 -113,30 -210,-45 -98,-31 -51,15 -56,-20 -52,-15 -10,-15 -20,5 -36,50 -103,131 -41,126 -164,196 -26,61 -20,55 0,50 -16,40 46,91 36,96 26,75 41,61 -21,50 -20,71 -21,55 11,45 46,61 97,60 62,35 10,51 0,50 -77,116 15,171 0,71 -31,55 -25,35 -11,40 5,31 31,60 41,86 46,60 52,45 -6,358 -15,25 -5,20 -41,50 -41,76 -11,15 -46,171 -46,76 31,131 -21,50 -36,136 -5,307 -5,503 -21,1002 -11,1133 -5,252 -10,891 -26,1818 -21,1713 -31,1995 -26,1445 -5,333 5,121 -5,166 0,167 -6,166 0,166 -5,166 0,272 -5,11 0,508 -5,177 -5,469 -5,161 0,171 -5,101 0,60 -6,535 -5,277 -5,171 0,414 -20,700 -36,-5 -31,-15 -26,5 0,15 6,25 15,31 -10,10 -31,30 -21,60 -46,56 -56,40 -41,20 -56,10 -77,-20 -31,-10 -41,-10 -107,-56 -26,0 -25,16 -21,10 -31,25 -30,15 -31,-15 -31,-25 -66,-36 -57,-10 -25,-5 -51,15 -41,5 -46,0 -26,-5 -41,-15 -61,-45 -154,10 -82,-21 -61,10 -82,-10 -77,-55 -46,-5 -31,-5 -41,10 -46,15 -36,15 -41,20 -10,10 -26,46 -20,25 0,20 -10,40 -11,41 -20,15 -56,30 -57,61 -25,30 -11,10 -25,15 -10,20 5,35 -16,10 -25,11 -31,40 -56,50 -41,182 -46,35 -26,15 -15,10 -15,15 -16,10 5,21 -30,15 -16,10 -20,15 -11,-20 -51,5 5,15 -46,25 -25,0 -36,-10 -10,0 -21,-5 -30,25 -11,5 -20,20 -21,-10 -25,15 -16,-45 -20,-5 -15,15 -6,10 16,20 -10,10 -6,15 -10,11 -10,-11 -10,-10 -26,15 -15,26 -21,15 -20,10 -5,-10 -16,0 -25,30 -11,10 0,10 -10,5 -20,-10 -16,0 -15,-5 -15,10 -16,-5 -25,-5 -11,10 1,10 -16,15 -82,0 -25,-5 -47,0 -35,-10 -41,-5 -11,-5 -15,-5 -31,-50 -20,5 -5,-10 -21,-11 -10,-40 -10,-5 -26,5 -25,-10 0,-10 -16,-25 0,-20 -15,-51 -21,-45 -20,-51 -15,-5 -16,-5 -25,5 -62,5 -20,5 -16,10 -15,5 -10,-10 -16,16 -35,5 -11,10 -25,5 -36,30 -15,0 -26,5 -21,10 -20,10 -15,20 -26,5 -41,-10 -26,-10 -10,-20 -25,-5 -62,-30 -25,-5 -31,-11 -16,0 -25,21 -15,10 -11,0 -15,20 -15,-5 -16,5 -10,-15 -5,-15 -5,-10 -10,-5 -11,10 -10,5 -10,15 -5,20 0,30 -11,5 -5,10 -20,10 -10,0 -16,15 -20,6 -21,0 -20,10 -31,0 -15,-10 -16,-16 -5,-30 -15,-40 -26,-56 -20,-20 -16,-25 -5,-25 -5,-41 0,-35 -10,-15 -15,-10 -26,-10 -46,-10 -51,-10 -41,-10 -36,5 -16,5 -40,20 -52,10 -71,25 -41,5 -31,0 -51,-5 -138,-10 -47,0 -30,-5 -21,-20 -46,-31 -102,-30 -51,-5 -87,-15 -123,10 -72,15 -36,10 -41,-5 -87,0 -36,5 -30,-15 -36,-25 -26,-30 -20,-26 0,-25 -11,-15 -20,-15 -15,5 -11,5 -5,20 -15,30 -31,26 -25,0 -26,-10 -10,-10 5,-46 -10,-10 -26,5 -15,0 -31,-35 0,-46 -21,-30 -25,-25 -41,-10 -26,-20 -20,-36 -16,0 -15,-35 -21,-35 -30,-10 -41,-20 -26,0 -51,-21 -26,-10 -20,-15 -31,-30 -41,-10 -36,5 -41,20 -41,25 -25,0 -26,-5 -31,-25 -92,-71 -20,-5 -62,-10 -4,-33 -32,-52 -30,-66 -61,-74 -47,-47 -61,-71 -28,-40 -15,-23 -41,-66 -34,-57 -29,-44 -39,-29 -55,-18 -80,-32 -7,-3 -83,-20 -65,-25 -9,-3 -40,-13 -8,-5 -36,-32 -14,-16 -27,-37 -41,-81 -76,-76 -68,-75 -37,-34 -45,-47 -46,-31 -61,-9 -51,-5 -45,-8 -34,-28 -24,-45 -14,-59 -27,-57 -27,-43 -55,-43 -61,-40 -73,-39 -40,-22 -6,-5 -36,-34 -25,-36 -20,-50 -26,-26 -41,-15 -56,0 -103,23 -10,2 -68,18 -8,0 -54,1 -54,-29 -42,-59 -16,-57 7,-55 24,-79 5,-77 2,-29 2,-70 26,-130 2,-13 23,-106 -3,-91 -15,-86 -32,-105 -40,-79 -21,-62 -36,-51 -22,-50 -33,-68 -25,-52 -22,-38 -34,-31 -38,-35 -106,-84 -52,-46 -26,-39 -6,-31 9,-14 7,-11 30,-25 31,-20 31,-25 20,-26 -5,-40 -25,-40 -52,-41 -36,-30 -26,-40 -10,-61 -15,-70 -10,-86 -16,-49 -51,-52 -24,-26 -17,-19 -10,-30 -5,-20 20,-31 19,-17 17,-28 -11,-30 -30,-61 -31,-85 -41,-81 -17,-81 -2,-16 -17,-64 -31,-81 -51,-40 -36,-11 -8,-2 -58,-53 -11,-25 -15,-31 -15,-29 -67,-36 -62,-25 -61,-30 -15,-18 -21,-25 -27,-53 -51,-64 -55,-37 -82,-65 -69,-81 -80,-111 -52,-112 -56,-130 -24,-101 -7,-28 -25,-103 -3,-13 -18,-85 -47,-93 -54,-74 -6,-8 -98,-83 -107,-77 -9,-6 -84,-69 -55,-75 -22,-77 0,-72 9,-70 17,-74 25,-61 10,-65 -4,-38 -6,-63 -5,-65 15,-90 15,-77 -5,-85 -17,-76 -8,-55 -4,-22 -7,-54 26,-96 30,-104 -3,-22 0,-69 -22,-72 -12,-21 -14,-62 -4,-20 -6,-43 1,-23 3,-26 2,-32 -1,-35 0,-60 8,-69 29,-69 19,-28 46,-46 56,-38 9,-6 38,-20 42,-21 23,-37 11,-17 24,-69 -9,-59 -16,-43 -35,-42 -41,-36 -20,-24 -11,-10 -35,-30 -24,-8 -17,-10 -10,-4 -22,-10 -30,-15 -56,-30 -33,-24 -20,-15 -23,-52 -1,-35 26,-39 55,-62 51,-27 52,-28 44,-8 17,-3 57,-9 77,0 92,-5 72,-10 57,-17 44,-38 5,-11 30,-63 7,-32 -2,-48 -3,-18 -5,-35 4,-17 10,-46 32,-78 0,-91 5,-36 4,-24 3,-15 3,-31 -11,-66 -15,-70 6,-51 -11,-44 -20,-46 -28,-30 -18,-46 4,-65 0,-75 -1,-16 -4,-45 -11,-47 -8,-54 -6,-43 5,-37 -4,-54 -4,-52 -2,-49 -3,-26 -9,-86 -1,-10 -24,-96 -36,-81 -5,-43 -3,-23 -12,-75 2,-44 1,-21 -1,-15 13,-80 10,-56 13,-64 -18,-52 -8,-49 -6,-32 -15,-72 -2,-9 -22,-74 -4,-13 -46,-94 -30,-112 -6,-23 -55,-187 -7,-22 -230,-512 -71,-135 -70,-140 -17,-37 -27,-66 -21,-100 -15,-60 -16,-61 -2,-10 -11,-41 -10,-36 -3,-14 -5,-22 11,-109 3,-11 11,-40 23,-29 6,-8 26,-25 27,-29 36,-36 12,-13 18,-23 23,-34 6,-25 -4,-20 -13,-29 -18,-54 -8,-52 -2,-14 -8,-62 6,-24 7,-29 -8,-37 -17,-61 -18,-36 -26,-20 -9,-7 -24,-22 2,-36 5,-25 26,-15 49,-22 7,-3 35,-26 13,-10 18,-14 21,-26 6,-39 14,-56 6,-66 -7,-24 -4,-16 -17,-51 -24,-25 -25,-18 -34,-22 -28,-35 -5,-32 -3,-26 -18,-38 -20,-35 -36,-40 -36,-29 -16,-37 -15,-35 -10,-91 14,-61 2,-9 11,-35 12,-40 8,-25 11,-29 8,-22 5,-18 5,-15 1,-30 -5,-28 -22,-29 -25,-21 -46,-36 -40,-40 -37,-45 -20,-51 -5,-45 0,-50 10,-46 16,-37 6,-15 29,-58 19,-76 14,-60 -7,-46 -11,-35 -7,-21 2,-35 15,-29 11,-36 5,-15 -9,-25 -15,-31 -17,-36 -5,-44 0,-58 5,-43 -3,-28 -3,-22 0,-58 -22,-67 -19,-31 -14,-16 -19,-21 -18,-42 1,-25 18,-23 17,-23 9,-9 14,-9 13,-12 16,-41 9,-26 1,-28 12,-19 23,-23 16,-25 5,-10 -3,-31 -14,-26 -24,-39 -14,-23 -9,-16 -12,-28 -15,-34 4,-25 10,-20 30,-13 26,-2 11,-2 20,-3 27,-14 17,-24 8,-12 5,-6 10,-10 36,-14 52,-17 58,-32 28,-7 15,-3 25,-6 21,-11 7,-23 -10,-16 -24,-16 -41,-13 -43,-43 -16,-26 -6,-9 -50,-54 -63,-57 -57,-68 -20,-23 -19,-24 -20,-25 -19,-44 -17,-39 3,-55 9,-55 -9,-40 -26,-63 -66,-53 -41,-40 -41,-25 -26,-35 3,-18 3,-23 9,-72 0,-49 -10,-55 -36,-35 -41,-81 -18,-61 -18,-55 3,-24 3,-25 18,-33 17,-33 5,-46 -5,-40 -7,-59 7,-42 12,-17 14,-23 51,-34 41,-46 31,-36 20,-40 -6,-29 -30,-26 -25,-36 -31,-15 -37,-16 -14,-24 -2,-48 6,-29 21,-19 23,-29 -8,-41 -15,-35 -20,-53 -16,-48 -25,-40 -41,-41 -36,-45 -11,-45 22,-75 35,-36 58,-59 59,-37 57,-20 74,-18 106,-2 43,-10 47,-7 28,-8 20,-14 42,-18 34,10 42,7 20,-2 41,-19 7,-3 45,-22 6,-3 44,-25 21,-22 7,-7 27,-29 22,-18 27,-34 41,-33 29,-19 53,-16 30,-30 39,-17 21,-14 36,2 27,29 11,28 14,31 35,13 33,4 41,-10 41,-31 49,-39 7,-6 46,-32 80,-51 95,-23 71,-5 57,-10 67,-10 46,-10 61,20 40,33 35,22 36,2 26,-14 27,-22 52,-8 41,-3 30,12 31,19 22,44 -6,20 -22,24 -32,23 -18,30 -2,35 14,36 34,29 57,-4 62,-16 101,-55 83,-50 46,-25 36,5 39,16 32,44 38,61 40,22 45,28 62,-50 6,-5 76,-51 7,-5 55,-45 61,-45 58,-5 70,-5 72,20 56,20 77,4 50,28 53,58 18,52 49,54 33,31 39,35 39,64 6,12 20,41 37,29 46,25 11,4 35,15 24,27 24,37 24,48 32,51 28,37 23,46 8,51 -19,50 -36,31 -41,41 -7,44 24,36 45,23 36,-3 46,-4 36,20 44,27 27,38 41,21 57,15 39,16 22,49 6,71 12,69 78,75 109,61 47,31 61,15 87,-5 98,-20 107,-35 75,-29 47,-12 38,-28 56,-26 18,-2 43,-3 52,10 43,-3 56,9 31,-4 32,-18 2,-9 15,-36 5,-20 19,-18 33,-39 23,-44 3,-50 1,-25 5,-81 26,-89 54,-127 47,-104 44,-48 22,-34 8,-40 -13,-26 -26,-35 -32,-34 7,-51 25,-46 42,-25 56,-20 59,-28 23,-39 25,-84 31,-70 57,-71 39,-79 58,-107 48,-114 5,-11 6,-14 23,-47 62,-73 6,-6 68,-51 54,-11 5,-107 7,-292 66,-2860 5,-275 14,-745 28,-1458 19,-1043 1,-35 2,-166 3,-206 27,-1723 0,-22 394,4 154,2 487,9 159,3 164,2 43,1 117,0 225,6 175,3 82,1 18,1 141,2 174,4 149,2 21,1 410,4 77,1 10,0 98,4 46,3 339,0 154,2 133,1 816,13 184,3 139,3 159,2 328,6 298,5 180,2 164,2 174,2 164,1 344,4 134,0 36,2 123,1 184,1 159,1 41,1 278,3 159,2 30,0 134,1 179,3 329,4 154,0 159,3 31,0 164,2 313,3 15,1 308,1 72,1 131,0 120,2 241,3 303,2 416,2 697,3 349,5 734,6 z"
     id="Mohave" />
  <path
     style="fill:#b9b9b9;fill-opacity:1;stroke:#ffffff;stroke-width:87;stroke-linejoin:round;stroke-opacity:1"
     inkscape:connector-curvature="0"
     d="m 16802.5,-29139.5 125,6346 134,6544 36,1939 1569,-27 32,1586 -67,5 46,3883 3,952 4,227 5,217 4,151 -1,332 23,973 0,156 -1,166 4,424 5,65 5,176 -67,0 5,56 5,242 36,1653 -100,967 171,958 23,943 5,141 13,826 9,464 26,1488 -144,-1 5,207 62,2680 21,972 -304,9 44,2332 -34,-1 -20,-62 -16,-29 -135,-2 -92,93 -115,-25 -110,-24 -77,10 -33,-4 -4,-27 3,-20 -4,-29 -7,-8 -24,2 -16,12 -12,12 -21,6 -105,16 -24,-27 -111,-39 -57,61 -36,-1670 -26,-1442 -26,-1579 -2600,40 -2068,31 -988,18 -834,9 -441,4 -4,-116 1,-534 -9,-439 -5,-363 1,-247 -5,-398 -9,-247 1,-565 -359,-30427 230,-2 1031,-14 631,-4 529,-4 10,0 62,47 97,-1 1191,-17 z"
     id="Navajo" />
  <path
     style="fill:#b9b9b9;fill-opacity:1;stroke:#ffffff;stroke-width:87;stroke-linejoin:round;stroke-opacity:1"
     inkscape:connector-curvature="0"
     d="m -13587.5,20776.5 1788,26 92,0 1594,26 322,0 542,5 2815,12 3474,3 971,-4 2876,13 36,0 312,1 158,-5 169,5 465,1 163,-5 634,-4 189,0 0,56 904,-4 67,0 163,-5 1732,-17 373,0 164,1 475,-5 0,-96 531,-9 327,-4 1058,-13 904,-4 133,6 0,-26 792,-18 486,-4 97,0 87,-5 1282,-7 940,-19 9,440 9,525 31,1744 4,167 31,0 8,930 -1,61 -2,945 -21,5 0,146 4,167 14,653 18,799 5,172 6,1436 -1,152 5,177 -1,172 -811,8 -786,13 -450,9 -45,-5 -138,5 -194,0 -853,8 -551,4 5,61 -184,-1 -183,5 -618,14 -454,4 -1496,17 8,946 3,977 21,116 -11,203 -975,8 -331,5 -638,9 18,1083 -800,-295 -826,-305 -796,-295 -1433,-528 -4310,-1593 -3608,-1344 -204,-70 -87,-36 -1113,-410 -1781,-653 -1312,-496 -21,-5 -2349,-891 0,-55 5,-592 0,-40 40,-2765 10,-768 z"
     id="Pima" />
  <path
     style="fill:#b9b9b9;fill-opacity:1;stroke:#ffffff;stroke-width:87;stroke-linejoin:round;stroke-opacity:1"
     inkscape:connector-curvature="0"
     d="m 7934.5,10195.5 78,147 219,525 96,218 66,136 97,313 137,449 76,248 102,313 585,1127 87,161 87,167 106,212 62,101 86,157 280,490 61,121 190,404 154,-14 10,-193 62,-8 97,-54 168,-190 8,-11 3,-13 -10,-74 53,-74 63,-1 2,-91 -94,-214 43,-70 89,-56 44,-26 133,73 22,-15 19,-35 2,-29 -1,-22 22,-24 19,-14 -10,-106 47,-142 129,-82 23,-3 11,82 49,-23 163,-230 41,-85 229,-16 94,51 128,2 166,-74 152,-93 14,-46 37,-121 15,-10 76,87 39,12 23,8 5,0 11,-7 20,-17 -6,-24 -10,-9 -22,2 -12,0 -20,-7 -5,-13 2,-24 49,-36 16,-77 32,-4 23,-3 39,-20 55,-40 47,-21 259,28 110,-7 34,-21 -22,-81 91,-66 38,44 110,7540 -940,19 -1282,7 -87,5 -97,0 -486,4 -792,18 0,26 -133,-6 -904,4 -1058,13 -327,4 -531,9 0,96 -475,5 -164,-1 -373,0 -1732,17 -163,5 -67,0 -904,4 0,-56 -189,0 -634,4 -163,5 -465,-1 -169,-5 -158,5 -312,-1 -36,0 -2876,-13 -971,4 11,-980 1,-500 0,-904 1,-369 0,-409 5,-76 1,-277 5,-364 -5,-333 6,-505 5,-121 -5,-10 5,-490 1,-167 0,-313 15,0 1,-504 0,-157 5,-172 -5,-136 1,-510 5,-459 -5,-464 6,-167 0,-313 -15,0 5,-181 20,20 16,45 10,61 10,71 36,106 20,35 46,35 31,31 20,35 0,45 31,51 30,10 26,20 36,-15 41,5 51,41 20,-5 26,-15 56,10 15,0 31,15 10,20 11,25 -21,51 15,30 31,30 20,5 16,16 20,-5 36,0 31,10 35,35 26,-10 51,10 36,-10 15,20 51,56 26,10 41,0 15,35 5,36 16,30 -1,45 16,41 25,10 16,15 46,35 1733,18 1933,-13 962,-9 -23,-1938 31,-5 -9,-948 644,1 333,-5 153,0 159,-5 3494,-4 z"
     id="Pinal" />
  <path
     style="fill:#b9b9b9;fill-opacity:1;stroke:#ffffff;stroke-width:87;stroke-linejoin:round;stroke-opacity:1"
     inkscape:connector-curvature="0"
     d="m 4982.5,32857.5 -18,-1083 638,-9 331,-5 975,-8 11,-203 -21,-116 -3,-977 -8,-946 1496,-17 454,-4 618,-14 183,-5 184,1 -5,-61 551,-4 853,-8 194,0 138,-5 45,5 450,-9 786,-13 811,-8 4,318 5,152 4,385 9,420 -77,4 5,152 5,162 11,1316 21,1503 -311,4 -653,14 -653,9 -1576,27 -1720,31 -959,19 -836,-310 -586,-219 -596,-219 z"
     id="Santa_Cruz" />
  <path
     style="fill:#b9b9b9;fill-opacity:1;stroke:#ffffff;stroke-width:87;stroke-linejoin:round;stroke-opacity:1"
     inkscape:connector-curvature="0"
     d="m -13113.5,-12748.5 41,0 52,-20 20,-5 10,-5 41,5 36,0 98,5 25,-5 21,5 25,10 41,-5 52,0 10,5 15,6 36,-10 16,0 10,-6 25,11 21,-5 26,0 25,5 26,5 20,20 36,15 10,10 16,20 5,10 61,31 41,15 36,20 26,20 118,71 46,-5 62,0 25,-5 10,-5 36,-5 26,0 10,5 41,10 31,10 25,10 16,0 41,10 31,5 25,10 26,20 26,25 20,16 5,10 15,10 11,10 10,15 10,0 11,10 5,15 10,10 5,10 15,15 5,10 11,26 10,15 0,20 10,20 0,10 5,10 0,25 16,10 20,0 0,11 10,5 16,5 10,5 15,15 11,5 15,10 10,0 11,5 10,10 10,0 15,10 11,10 15,5 10,5 16,0 10,10 15,5 21,11 5,10 15,5 11,10 20,5 15,10 16,5 25,10 16,15 20,5 10,10 21,5 10,5 21,10 30,26 62,25 712,499 26,15 10,0 21,20 15,5 15,20 11,5 15,5 20,11 52,35 35,25 57,35 25,26 21,20 36,40 25,45 11,26 10,25 10,20 62,211 41,16 41,20 15,10 15,0 11,5 61,10 36,10 20,0 113,25 113,26 36,5 15,5 62,10 15,5 41,5 20,10 11,0 41,15 71,25 134,41 153,40 87,26 52,10 56,15 36,5 26,5 35,10 26,10 36,15 46,36 36,20 15,15 11,10 56,10 36,0 25,-5 26,5 41,10 15,15 31,21 26,25 15,25 41,5 21,5 10,0 15,5 10,-5 16,5 46,0 20,5 11,-5 36,0 35,-5 26,-5 31,-5 20,-5 21,0 10,-10 21,-5 30,-10 11,-5 20,-5 21,-10 10,-5 20,5 16,-5 30,0 52,15 36,15 35,5 46,26 26,15 5,10 11,10 25,15 26,30 25,36 16,30 10,15 46,0 15,-20 11,-15 10,-5 36,-31 25,-10 31,-10 26,-5 72,10 20,16 26,10 10,10 10,5 16,20 15,25 5,10 5,15 0,16 5,30 0,30 -5,30 -5,20 -10,15 -5,26 10,5 30,5 36,15 16,5 25,10 36,25 5,10 41,41 5,10 5,15 31,30 10,10 36,40 36,46 5,15 67,75 77,16 15,5 87,25 26,5 118,25 20,0 220,-40 47,-5 35,-15 21,0 26,-5 56,0 15,5 52,10 25,5 10,6 11,5 20,0 15,5 16,5 31,5 10,5 0,-10 5,-15 0,-15 21,-21 15,-25 15,-20 26,-10 15,-15 21,-10 15,-5 16,-10 15,0 15,-5 21,-10 0,-10 5,-15 10,-10 11,-6 25,-15 57,-25 -1,81 0,151 -5,171 -11,841 979,1 -6,746 5,50 4,1164 2024,-3 292,-5 538,1 0,-21 123,1 379,0 1127,-4 41,5 87,1 195,0 -5,-56 128,6 153,0 0,96 -6,997 -1,861 307,11 897,11 875,1 4,1245 -1,216 4,1119 5,257 -2,887 -20,0 5,141 -1,126 -30,25 -88,81 -76,30 -21,81 -67,25 -92,-11 -10,0 -92,30 -31,36 5,30 -77,86 -20,10 -103,70 -82,50 -61,0 -57,15 -97,66 10,80 0,51 -5,126 -46,75 -31,86 20,96 5,85 10,86 -5,30 -10,76 -16,15 -15,30 5,15 -5,15 -15,11 -6,-11 -30,0 -5,10 -31,36 -57,40 -5,35 31,5 10,26 0,20 26,30 20,5 5,-40 -5,-20 26,-5 15,-5 16,-11 30,-15 21,31 -11,15 6,35 -16,55 -51,16 -67,10 -36,-1 -25,11 0,15 25,15 11,45 0,25 15,26 20,5 16,10 -16,20 0,10 -20,10 -16,40 -36,20 -35,0 -11,16 0,35 -10,15 -20,5 -26,40 -15,41 5,20 15,0 20,20 -15,15 -10,-5 -41,30 10,35 0,41 15,20 0,15 -25,0 -26,10 -5,35 15,36 -5,20 -10,25 -5,55 0,11 51,15 15,-5 21,0 5,15 10,25 20,15 16,46 -11,35 -15,20 -5,30 -26,15 -31,5 -10,-15 0,-25 -15,-20 -31,-10 -15,-5 -36,-5 -5,35 15,30 36,30 -20,16 -16,20 5,15 36,-5 26,-20 25,-10 21,-5 31,20 5,30 -6,50 -25,10 -16,-20 -35,-10 -26,20 -5,31 5,30 -26,30 -20,30 -26,46 -61,30 -6,25 11,35 30,26 31,25 10,25 440,1 1720,-8 -15,15 -15,10 -16,30 -10,20 0,31 -41,20 -20,25 -21,30 -10,25 20,26 56,-10 36,-5 21,15 -16,45 -10,40 10,36 62,10 -6,25 11,25 25,20 -10,31 -15,15 -11,30 -30,20 -6,25 -30,26 -11,5 -15,20 -5,10 30,30 16,50 15,11 0,40 26,15 0,25 41,16 15,30 15,10 21,15 10,15 10,0 0,30 20,26 11,25 -11,45 -10,25 -36,0 -10,-5 -36,10 -5,26 10,35 5,15 16,5 5,30 5,15 -10,21 -11,-5 -10,35 -20,20 -31,0 -26,15 0,-15 -31,5 -15,45 -15,5 -16,-5 -46,-15 -5,45 -5,26 -26,20 26,65 -31,61 20,15 0,25 -35,40 -6,31 11,45 20,5 10,40 -1315,4 -379,-1 -271,5 -67,0 -77,-5 -51,-5 -716,-92 -2354,-310 -476,-61 -292,-41 -179,-15 20,20 10,30 31,-10 36,20 -82,50 -20,31 -1,50 11,51 15,45 10,40 -41,56 -20,-31 -26,-15 -15,-15 -36,35 -56,15 -11,31 5,20 16,25 10,30 -20,26 -6,5 -30,30 0,10 -21,15 -26,20 -15,35 -10,46 0,75 -10,41 -21,40 -36,25 -25,10 -47,0 -30,15 -31,31 10,25 -36,20 -35,10 -36,30 -57,41 -20,-16 -36,-10 -31,10 21,26 -16,20 0,35 26,0 15,20 -36,46 -15,25 31,10 25,10 21,15 10,15 -5,76 -21,126 -15,35 -26,-10 -41,-5 31,76 -15,35 -31,10 -36,0 -41,-10 -36,5 -36,40 -20,25 -31,31 -31,15 -51,30 -20,40 15,76 -261,-86 -547,-167 -77,-25 -159,-51 -169,-45 -465,-147 -317,-91 -72,-20 -118,-41 -82,-25 -71,-20 -323,-101 -158,-51 -67,-20 -834,-258 -82,-30 -343,-102 -163,-50 -236,-5 -425,-6 -1049,-36 -159,0 -317,-5 -1136,-11 -968,0 -317,-5 -844,-11 10,-948 5,-333 0,-50 20,-1250 5,-761 6,-167 20,-700 0,-414 5,-171 5,-277 6,-535 0,-60 5,-101 0,-171 5,-161 5,-469 5,-177 0,-508 5,-11 0,-272 5,-166 0,-166 6,-166 0,-167 5,-166 -5,-121 5,-333 26,-1445 31,-1995 21,-1713 26,-1818 10,-891 z"
     id="Yavapai" />
  <path
     style="fill:#b9b9b9;fill-opacity:1;stroke:#ffffff;stroke-width:87;stroke-linejoin:round;stroke-opacity:1"
     inkscape:connector-curvature="0"
     d="m -13442.5,11082.5 36,0 -10,560 0,232 -10,177 -10,948 -10,475 -56,2282 -5,141 0,146 -10,162 0,172 -10,338 -5,151 5,147 -15,672 0,161 -45,2930 -15,940 -10,768 -40,2765 0,40 -5,592 0,55 -817,-308 -4342,-1673 -710,-273 -3613,-1399 -1994,-772 -1610,-620 -333,-131 -419,-161 15,-31 -15,-40 -10,-20 -6,-31 21,-25 20,5 31,5 25,5 26,-20 0,-20 -26,-31 -25,-30 -31,-40 -10,-36 15,-30 56,-76 20,-15 11,-41 -6,-35 0,-15 -5,-20 5,-46 26,-15 20,-15 46,-20 31,-21 10,-15 -5,-35 -16,-46 -25,-20 -31,5 -36,21 -35,35 -26,20 -25,0 -21,-25 -5,-35 10,-31 26,-25 35,-30 10,-16 16,-40 0,-35 10,-46 15,-40 10,-61 -10,-50 -36,-41 -21,-55 -5,-41 0,-86 31,-45 35,-15 36,0 36,20 31,10 51,-10 30,-21 26,-35 15,-30 21,-31 35,-50 46,-36 26,-35 35,-50 51,-46 31,-51 46,-65 20,-71 26,-76 40,-96 51,-91 77,-146 77,-132 55,-101 41,-74 4,-8 33,-53 4,-7 28,-33 38,-18 19,7 15,6 37,28 41,34 49,24 228,38 116,19 147,22 135,20 0,-61 312,0 3,-26 7,-60 158,0 5,-81 98,3 66,2 77,0 7,-76 49,1 46,-1 -26,-126 -10,-45 0,-92 5,-45 5,-20 0,-15 13,-50 27,-41 35,-35 41,-57 7,-9 34,-44 54,-47 50,-44 68,-32 27,-26 134,-126 127,-110 35,-324 12,-115 9,-83 12,-85 -1,-25 -1,-36 -2,-26 -1,-10 -8,-44 -30,-34 -9,-9 -48,-43 -56,-66 -10,-55 10,-46 4,-29 16,-26 46,-45 42,-67 15,-60 0,-76 -5,-66 -17,-35 -35,-35 -11,-1 -15,-4 -31,10 -35,40 -34,11 -28,-6 -30,-39 -17,-47 -1,-56 7,-75 -11,-35 -8,-58 -23,-93 -25,-71 -24,-51 -12,-24 -36,-59 -45,-41 -20,-9 249,7 169,10 844,15 97,0 966,9 64,-1933 10,-954 20,5 14,-974 15,-969 169,10 787,15 670,10 307,10 543,15 92,-5 327,0 -25,964 108,5 51,-5 598,15 56,5 967,15 128,5 20,0 967,21 1350,15 604,15 184,5 471,0 z"
     id="Yuma" />
</svg>
