<?xml version="1.0" standalone="yes"?>
<!DOCTYPE svg PUBLIC "-//W3C//DTD SVG 1.1//EN" "http://www.w3.org/Graphics/SVG/1.1/DTD/svg11.dtd">
<svg xmlns="http://www.w3.org/2000/svg" xmlns:xlink="http://www.w3.org/1999/xlink" version="1.1" width="3453.4" height="6156.6" viewBox="-18279,-26465 34534,61566">
<clipPath id="state_clip_path">
<g id="state_outline">
<path id="1716" d="M -10480,-26464 l 46,-1 5,0 122,6 1586,31 25,3 1611,9 1289,3 258,2 350,7 192,12 141,9 260,0 421,3 300,1 287,0 1002,7 919,23 666,15 284,7 417,9 10,0 307,1 378,5 395,4 296,2 662,8 882,12 550,7 340,4 1355,21 15,0 542,-19 265,-9 370,-11 1020,-5 780,-5 889,-12 859,-13 22,0 147,-2 496,0 424,-6 574,-6 901,-9 678,-6 37,156 25,181 5,81 -41,227 0,243 -10,192 -10,121 -26,20 -15,15 5,30 -20,46 -16,40 -5,51 5,30 0,30 -10,10 -10,0 -10,-15 -5,-20 -6,-5 -10,5 -5,45 -10,101 -21,86 1,86 -26,60 -5,51 -5,35 10,41 5,50 0,46 -20,35 5,30 0,10 -31,0 15,96 5,126 6,20 25,81 21,71 20,136 31,131 56,162 5,40 56,0 11,25 30,61 26,106 25,45 -35,0 87,172 87,116 66,55 128,227 36,51 72,146 40,56 6,25 35,50 41,36 10,5 16,20 10,45 51,71 103,116 87,80 51,51 25,30 21,25 10,31 36,20 31,40 20,41 5,35 10,10 0,71 26,156 26,20 -6,35 11,41 10,25 10,45 26,91 25,101 11,30 35,51 11,30 15,30 10,36 -10,100 10,51 26,20 15,20 5,10 21,15 0,51 20,30 16,25 20,21 31,5 25,10 11,15 -11,20 -35,20 -26,-5 -5,15 15,51 31,65 15,26 5,20 0,40 11,25 15,15 -5,41 10,15 5,30 0,40 21,66 20,45 10,10 16,-5 10,11 -15,15 -21,20 -5,25 5,20 5,25 16,5 20,16 10,10 16,15 20,40 10,15 93,10 10,5 0,11 -10,5 -67,0 -15,10 -16,20 5,15 -10,30 -10,31 -5,45 5,91 15,10 16,15 51,0 0,50 -5,56 0,20 -21,10 -20,15 25,91 26,81 31,70 36,66 51,91 46,65 25,40 16,31 10,35 21,35 15,5 5,5 5,10 -10,11 -21,20 5,25 11,25 5,15 0,31 5,10 15,10 21,5 15,10 -10,10 -21,0 -15,5 -10,10 0,10 5,15 10,5 10,-5 31,-10 10,15 6,10 40,51 6,15 5,15 5,5 15,20 0,20 41,51 21,5 20,5 15,0 11,-5 30,5 11,10 5,20 -11,15 1,20 10,11 15,0 15,15 21,15 20,15 11,15 15,121 5,25 5,41 16,131 15,52 5,215 21,1583 10,893 10,695 31,1225 10,348 22,1120 9,478 25,1209 10,344 0,25 31,1576 24,1088 1,36 10,473 41,1607 8,659 1,131 8,721 8,1561 8,1371 1,216 35,1581 25,1182 6,226 4,157 39,1575 24,1072 3,114 9,415 20,941 10,421 4,233 18,735 -15,9 -22,-10 -20,-13 -17,-11 -10,-5 -8,0 -6,2 -20,11 -7,5 -5,7 -8,15 -5,19 -9,21 -15,25 -15,16 -25,11 -15,5 -20,4 -6,0 -43,-3 -19,-2 -51,-5 -36,7 -30,16 -15,7 -5,4 -20,20 -22,27 -21,30 -20,35 -13,25 -8,15 -36,56 -36,70 -20,30 -15,15 -25,11 -28,9 -7,3 -18,8 -10,10 0,20 10,15 9,4 10,3 26,-1 26,-6 35,-6 21,5 21,14 9,19 1,6 6,22 -5,25 -15,26 -21,25 -15,25 -15,30 0,25 5,15 5,31 20,30 13,17 7,26 -4,22 -10,34 -1,27 0,35 9,13 10,15 5,10 6,10 16,33 36,60 6,12 7,9 11,3 20,-4 9,-5 13,-11 16,-24 12,-22 24,-24 8,-3 38,-2 16,10 16,20 1,21 0,10 -10,10 -4,9 -8,11 -12,16 -5,20 -4,19 10,31 2,36 13,95 1,38 1,27 -1,24 -2,27 -4,30 -8,29 -7,16 -15,17 -9,10 -20,15 -15,26 -9,26 -9,27 -10,19 -21,21 -21,9 -29,12 -20,6 -8,7 -9,16 -16,20 -10,20 -6,9 -3,5 -11,11 -14,9 -27,1 -27,-5 -15,-4 -15,5 -10,15 -10,27 1,30 1,11 0,20 -4,25 -7,11 -3,4 -23,17 -22,5 -56,27 -35,26 -20,26 -5,10 1,15 12,12 21,5 26,5 16,7 9,2 31,21 10,10 0,15 -10,10 -15,6 -16,0 -25,-9 -15,-3 -6,-2 -8,-1 -13,0 -9,-3 -11,1 -14,0 -7,2 -20,14 -15,15 -14,21 -10,16 -12,40 -11,29 -15,21 -5,25 -5,35 0,9 2,8 11,15 24,7 7,1 51,15 16,14 11,15 5,22 1,13 5,12 15,10 11,7 5,2 17,8 7,2 6,6 11,5 5,15 0,10 -2,6 -8,5 -17,6 -21,1 -26,0 -24,-3 -27,-4 -19,4 -20,5 -11,10 -5,26 1,26 15,28 20,17 16,3 17,5 29,1 19,3 14,-1 75,-2 63,-2 14,0 15,2 16,0 7,2 15,9 10,13 2,22 -10,26 -20,20 -15,16 -9,20 -4,12 -3,11 1,30 8,18 9,23 3,5 30,20 41,15 36,-5 37,0 10,2 25,9 31,19 35,36 30,28 21,25 22,32 5,6 15,19 31,45 25,25 10,20 6,30 -5,26 -6,15 -5,15 -15,25 -10,25 -16,36 0,20 6,21 10,18 20,26 51,85 10,41 0,30 -9,32 -3,7 -14,31 -19,41 -21,55 -13,26 1,25 12,15 5,5 15,10 26,9 26,14 7,7 9,13 0,10 -4,15 -15,15 -16,2 -26,-5 -21,-4 -15,-1 -6,3 -10,6 -1,11 3,11 5,11 18,8 24,15 36,15 78,32 67,18 74,28 57,19 10,6 12,8 30,25 21,24 10,22 11,25 21,20 12,17 6,4 17,14 35,30 16,20 9,12 2,13 -10,20 -14,20 -17,16 -7,10 -6,11 -9,20 -5,26 0,10 6,15 16,19 17,40 1,35 0,13 -3,28 -10,30 -21,25 -9,9 -9,8 -18,28 -11,20 -5,20 1,28 4,20 7,7 20,11 20,6 22,9 10,15 1,12 0,13 -5,0 -7,5 -42,10 -24,10 -17,13 -10,8 -26,24 -5,15 -4,15 -10,6 -11,0 -16,-5 -15,-5 -15,-9 -11,6 -10,10 -4,30 3,13 6,15 18,21 6,6 26,24 21,19 1,21 1,13 -21,17 -15,6 -22,9 -15,10 -7,10 -3,6 -5,19 0,16 2,5 3,10 8,12 2,18 -10,15 -11,10 -7,7 -17,2 -16,5 -10,5 -4,11 -2,5 0,10 10,20 16,21 18,10 21,7 73,17 5,1 47,30 20,20 5,10 8,23 5,20 3,18 4,20 0,7 1,20 5,33 15,30 5,7 5,8 14,32 6,29 -8,18 -16,19 -13,21 -6,35 3,11 5,11 19,22 22,39 21,35 43,54 71,87 8,10 33,41 11,17 7,17 11,31 5,34 1,21 -6,12 -9,13 -15,10 -7,3 -21,12 -25,10 -21,10 -14,6 -11,5 -8,7 -4,6 -4,18 10,14 11,7 5,1 11,2 14,0 11,-2 15,-3 26,-5 25,5 16,15 1,30 -2,13 -2,12 -10,30 -7,28 -2,7 -9,31 1,26 0,20 11,20 16,14 11,15 6,25 -10,25 -15,16 -14,21 -19,31 -18,33 -11,20 -10,26 -15,23 -15,20 -15,30 -14,27 -10,20 -6,26 -2,10 -4,29 -1,6 -5,35 -2,12 -3,23 -11,61 -24,62 -32,43 -36,36 -41,40 -62,25 -82,29 -5,1 -65,17 -71,12 -56,17 -66,27 -28,12 -22,11 -31,20 -45,37 -7,12 -14,32 -16,35 -5,30 -10,40 -10,28 -14,21 -20,16 -18,10 -25,6 -17,16 -4,4 -16,20 -3,14 -1,6 0,20 5,25 10,26 0,45 -2,6 -13,25 -10,22 -10,20 1,25 0,20 1,20 -5,21 -9,20 -9,21 -10,35 -4,35 3,14 5,13 17,22 34,13 8,4 13,6 16,8 4,3 15,24 6,30 -3,13 -5,19 -13,10 -23,0 -31,-4 -21,-3 -28,-9 -19,-12 -4,-4 -23,-20 -15,-5 -14,0 -6,2 -11,12 -6,6 -5,16 -2,12 -2,22 0,16 4,27 1,28 0,20 -11,31 -9,19 -18,14 -20,16 -10,5 -4,4 -6,7 -9,13 -6,12 0,10 -5,20 -5,26 0,35 -8,22 -3,7 -25,33 -26,16 -20,10 -30,26 -25,26 -5,6 -7,20 0,8 3,12 22,34 31,46 21,46 20,37 11,18 15,27 15,18 21,15 20,26 11,13 7,11 6,25 7,30 -5,25 -10,25 -15,21 -22,10 -25,11 -10,1 -19,1 -14,-2 -14,-5 -20,-10 -19,-17 -11,-6 -5,-2 -9,-1 -18,0 -10,10 -13,22 -15,31 -13,33 -26,40 -17,28 -7,11 -35,32 -19,11 -41,26 -47,26 -19,11 -61,27 -36,4 -38,3 -29,2 -45,4 -27,2 -4,0 -31,1 -29,5 -17,3 -30,20 -27,26 -27,31 -3,4 -21,31 -15,32 -9,40 -2,8 0,10 5,35 4,8 10,9 11,7 6,1 8,3 17,3 36,4 25,0 26,5 8,2 13,6 8,8 12,14 9,11 3,6 4,16 0,13 -5,20 -21,25 -20,20 -26,24 -10,25 -6,37 -2,13 0,11 -3,33 -1,13 -3,50 -2,44 -1,27 -4,30 -4,15 0,5 -6,15 -14,31 -37,55 -46,68 -30,46 -32,47 -31,45 -13,22 -2,5 -15,33 -9,18 -10,16 -23,26 -30,26 -9,7 -17,13 -36,15 -61,23 -92,33 -35,27 -22,23 -26,35 -21,29 -14,31 -20,26 -6,8 -16,27 -10,15 -7,17 -14,28 -16,33 -5,38 -10,40 -15,86 -3,63 1,17 0,24 6,40 1,57 0,40 -4,29 -2,11 -10,45 -18,45 -25,41 -38,72 -30,26 -26,11 -22,1 -26,-5 -7,-4 -13,-11 -21,-25 -26,-35 -5,-10 -6,-18 -17,-45 9,-57 6,-25 7,-29 2,-19 0,-28 -11,-50 -9,-12 -11,-14 -22,-16 -20,-4 -31,10 -19,26 -15,30 -19,51 -18,39 -26,50 -20,51 -21,30 -17,16 -10,9 -15,16 -24,26 -10,10 -10,20 -22,48 -20,36 -20,13 -11,6 -31,6 -8,-5 -13,-9 -15,-22 -4,-14 -4,-19 5,-35 19,-36 16,-36 3,-5 4,-7 15,-29 15,-25 9,-26 -6,-30 -10,-14 -10,-8 -22,-17 -31,-9 -36,-4 -20,1 -14,2 -26,15 -36,20 -25,25 -19,24 -11,19 -12,38 -6,18 -9,32 -8,16 -8,10 -15,14 -24,15 -20,21 -10,30 4,14 4,11 5,9 4,6 26,24 16,21 5,25 0,20 -15,21 -12,15 -6,4 -23,15 -21,11 -14,9 -11,28 -5,18 -1,30 0,20 -2,15 -5,13 -20,26 -6,4 -8,3 -21,0 -22,-21 -11,-13 -10,-11 -22,-31 -47,-75 -25,-36 -8,-11 -21,-9 -16,-4 -9,9 -10,11 -3,12 -2,7 17,36 11,25 20,35 4,15 3,19 8,45 -5,37 -9,49 1,15 -5,26 -2,11 -1,53 0,17 -3,55 4,27 4,24 8,31 14,48 30,67 3,7 63,98 30,36 4,4 52,39 34,17 13,5 36,5 21,0 36,15 33,33 13,33 5,25 13,34 2,6 5,35 4,15 3,6 10,5 21,-5 19,-21 20,-30 7,-9 4,-6 11,-11 13,-11 11,-3 11,0 16,9 14,21 6,20 15,35 0,26 -16,25 -15,15 -15,20 -6,20 -6,11 -9,14 -19,24 -26,20 -22,17 -21,19 -35,45 -5,11 -15,28 -22,32 -28,30 -14,5 -19,0 -31,-10 -30,-10 -26,-5 -29,10 -51,15 -9,9 -24,27 -10,33 -5,39 -3,45 -9,36 -11,19 -4,6 -20,16 -25,11 -31,10 -5,2 -31,0 -20,1 -11,0 -40,1 -22,2 -35,10 -36,25 -21,14 -31,36 -10,21 -5,38 6,35 6,14 8,13 10,20 9,13 5,3 17,10 16,5 20,-5 36,-16 10,-5 29,-14 25,-14 126,-69 72,-43 29,-15 21,-11 22,-5 18,4 16,14 0,26 2,25 9,14 5,9 11,24 6,14 7,23 2,12 0,17 -3,37 -1,10 -11,38 -19,37 -22,34 -41,35 -31,26 -56,31 -85,58 -31,18 -23,13 -72,30 -36,10 -25,11 -31,-1 -36,-5 -77,-10 -57,5 -20,7 -20,11 -30,21 -20,31 -10,18 -8,17 0,31 20,28 27,26 26,14 36,4 35,-2 35,-5 47,-5 13,0 19,2 13,6 7,5 17,23 1,31 -4,8 -9,14 -26,22 -21,15 -21,30 -4,4 -26,41 -16,35 -10,36 6,35 2,15 7,25 15,30 55,94 7,12 24,58 6,16 6,22 10,45 -5,35 -3,22 -4,21 -13,23 -22,23 -25,17 -25,14 -20,11 -27,10 -19,12 -20,17 -8,12 -2,7 -2,15 0,12 -1,41 11,50 10,50 15,51 6,35 0,30 -14,22 -22,23 -23,13 -23,7 -31,5 -22,0 -19,-10 -26,-20 -21,-15 -35,-30 -21,-11 -20,1 -25,11 -20,15 -15,21 -16,34 -2,27 11,25 3,6 27,27 21,15 26,4 22,5 36,-1 24,-1 17,0 49,7 6,1 120,12 52,8 31,10 21,29 22,44 8,29 2,14 2,19 1,18 -4,28 -15,28 -8,9 -12,9 -21,8 -5,2 -20,-5 -29,-13 -17,-12 -16,-9 -11,-4 -26,-5 -12,1 -7,1 -29,9 -18,6 -5,1 -35,6 -31,-1 -31,0 -42,-6 -30,-5 -51,-35 -30,-21 -25,-21 -37,-29 -27,-15 -25,-9 -17,0 -8,2 -20,10 -10,21 -4,11 -2,16 0,35 14,33 16,38 21,30 9,13 11,17 26,40 20,40 26,41 16,35 28,48 22,43 37,59 59,45 52,29 79,38 72,28 22,12 23,15 25,29 10,32 1,29 0,6 -11,45 -9,12 -3,5 -9,6 -14,7 -29,16 -4,2 -41,11 -36,6 -50,-5 -25,-6 -18,-6 -57,-28 -57,-24 -22,-9 -41,-17 -31,-6 -30,6 -25,16 -10,20 -4,31 1,32 1,11 14,45 2,6 22,55 21,41 7,13 47,32 46,20 41,5 41,-10 31,-15 26,-21 9,-4 21,-11 40,-12 7,-2 41,-1 13,3 16,5 21,15 9,13 7,15 11,35 3,20 7,35 -26,45 -7,35 -6,42 -8,58 -4,27 -17,119 -48,88 -7,14 -99,181 -98,90 -167,97 -17,10 -86,50 -73,50 -127,89 -117,141 -140,227 -43,85 -10,31 -9,30 -11,61 -1,30 0,88 31,115 6,25 94,250 10,28 40,160 34,139 30,50 62,81 32,23 151,133 17,20 25,40 21,35 25,36 26,30 5,4 82,66 31,25 30,26 46,113 5,13 5,91 3,66 -21,116 -28,72 -34,57 -69,73 -151,52 -77,3 -116,4 -40,3 -38,6 -29,5 -72,13 -38,7 -15,4 -77,21 -29,7 -221,59 -51,14 -36,5 -81,9 -294,20 -12,1 -162,11 -296,83 -28,11 -61,31 -30,17 -136,97 -106,107 -52,69 -87,116 -86,39 -27,6 -31,-3 -46,-6 -15,-10 -63,-46 -54,-42 -105,-82 -59,-22 -17,-5 -46,5 -26,10 -20,5 -36,15 -62,32 -141,57 -116,102 -23,19 -78,104 -47,93 -11,151 -9,117 -10,38 -34,133 -4,17 -112,286 -63,139 -36,80 -13,39 -27,96 -14,78 -3,29 5,45 10,66 9,20 52,76 52,49 93,87 111,192 43,73 39,27 6,4 51,40 17,19 80,104 77,150 65,181 88,243 4,106 -25,132 -99,236 -3,7 -80,155 -33,56 -21,35 -98,134 -77,72 -72,45 -56,22 -31,9 -27,4 -182,12 -26,-3 -93,-12 -92,-24 -26,-8 -46,-22 -45,-23 -110,-92 -12,-9 -310,-262 -10,-7 -98,-78 -42,-25 -49,-26 -115,-45 -148,-40 -184,-76 -67,-45 -139,-44 -50,-7 -33,-4 -42,2 -137,4 -60,-23 -11,-6 -231,-195 -5,-4 -313,-230 -250,-109 -201,-85 -143,-56 -252,-116 -118,-50 -39,-16 -63,-24 -108,-31 -59,-13 -227,-25 -246,15 -160,56 -16,6 -240,171 -403,402 -69,105 -107,213 -113,225 -14,21 -28,35 -154,168 -13,14 -254,276 -3,5 -31,55 -20,35 -57,101 -16,60 -8,31 -15,109 5,115 2,11 8,26 87,186 140,156 84,65 100,74 -73,28 -95,39 -61,32 -47,24 -63,17 -70,3 -37,-6 -41,-22 -39,-41 -21,-62 -11,-75 0,-86 -10,-81 -11,-60 0,-6 -9,-30 -17,-40 -3,-6 -17,-23 -38,-39 -22,-12 -44,-30 -33,-16 -62,-35 -56,-40 -51,-61 -40,-113 -37,-98 -31,-41 -498,-10 -25,20 -7,39 3,61 17,33 32,39 30,26 40,32 55,27 35,20 56,30 36,9 25,16 35,26 37,40 37,43 19,41 9,56 2,46 -10,44 -11,31 -22,33 -45,48 -41,45 -31,30 -37,14 -45,-4 -31,-5 -25,-10 -36,-40 -29,-32 -38,-39 -36,-45 -35,-36 -40,-36 -60,-43 -81,-42 -66,-35 -55,-35 -86,-33 -85,-53 -61,-40 -56,-45 -34,-25 -38,-41 -15,-52 10,-54 16,-65 26,-60 28,-60 8,-40 5,-41 1,-49 -1,-47 -10,-40 -12,-33 -33,-48 -39,-57 -24,-38 -36,-46 -28,-34 -30,-37 -25,-21 -35,-18 -45,-35 -37,-36 -48,-47 -39,-62 -34,-56 -38,-77 -24,-66 -37,-80 -41,-70 -48,-70 -28,-67 -36,-65 -16,-70 -25,-86 -31,-100 -20,-76 0,-40 5,-35 17,-50 17,-40 17,-44 16,-42 5,-51 -6,-48 -14,-27 -25,-16 -6,-4 -56,4 -16,1 -51,2 -42,8 -45,-1 -52,-10 -36,-15 -44,-45 -49,-67 -24,-41 -31,-53 -21,-51 -5,-50 0,-50 19,-64 18,-62 15,-70 15,-58 12,-50 50,-58 31,-41 31,-30 32,-37 45,-43 35,-30 27,-14 9,0 37,-19 61,-8 83,-12 82,-12 73,-19 42,-23 42,-34 22,-45 26,-95 16,-61 10,-70 9,-64 7,-62 -5,-70 -5,-51 -24,-85 -22,-106 -32,-112 -23,-91 -48,-109 -28,-55 -38,-51 -46,-50 -82,-66 -51,-60 -52,-50 -33,-60 -36,-69 -47,-59 -42,-79 -21,-66 -22,-69 -24,-72 -38,-81 -28,-60 -49,-94 -42,-117 -17,-106 -19,-56 4,-80 1,-6 4,-69 8,-41 12,-35 17,-19 26,-14 4,-2 41,-5 77,16 56,1 46,-4 37,-3 31,-14 31,-35 10,-36 0,-45 -15,-50 -24,-51 -39,-62 -54,-72 -73,-67 -51,-63 -31,-48 -10,-20 -15,-20 -17,-20 -20,-31 -4,-30 1,-25 6,-30 1,-40 -3,-66 2,-40 -4,-55 7,-51 6,-40 5,-35 10,-30 0,-40 -4,-40 -16,-36 -43,-47 -39,-33 -62,-35 -4,-2 -73,-24 -85,-25 -110,-26 -87,-25 -87,-20 -72,-31 -41,-25 -4,-3 -32,-27 -31,-30 -10,-25 -15,-46 -30,-46 -24,-41 -33,-29 -37,-23 -50,-27 -62,-15 -66,-11 -72,-15 -40,-2 -37,-9 -4,-1 -40,-23 -40,-27 -24,-28 -15,-41 10,-40 18,-47 28,-60 23,-59 6,-50 2,-51 -15,-45 -36,-60 -41,-61 -44,-50 -17,-12 -18,-14 -85,-45 -56,-30 -82,-50 -69,-55 -85,-86 -58,-80 -44,-72 -46,-50 -47,-40 -37,-25 -35,-16 -45,-30 -66,-34 -57,-21 -60,-3 -33,-3 -39,-5 -25,-16 -25,-26 -29,-33 -20,-34 -36,-57 -3,-4 -20,-26 -33,-35 -31,-31 -67,-45 -107,-81 -36,-29 -41,-26 -31,-1 -5,0 -30,5 -27,13 -42,34 -35,29 -49,34 -43,49 -42,49 -43,48 -48,44 -68,42 -51,20 -87,15 -68,-5 -92,-23 -80,-22 -52,-36 -54,-54 -49,-87 -43,-77 -15,-32 -104,-192 -9,-109 109,-69 20,-76 120,6 117,-71 76,-82 0,-67 -89,7 -45,-128 -126,47 -249,57 -109,-14 -36,-23 -52,-46 -51,-38 -67,-70 -41,-51 -26,-50 -35,-41 -46,-45 -26,-25 -42,-50 -35,-35 -46,-41 -59,-24 -94,-36 -83,-26 -102,-53 -92,-63 -62,-55 -41,-71 -27,-60 -14,-46 -14,-55 -21,-50 -36,-51 -46,-24 -56,-27 -62,-19 -116,-27 -61,-22 -81,-38 -65,-32 -87,-48 -109,-80 -7,-5 -78,-63 -80,-63 -59,-52 -80,-93 -79,-114 -4,-5 -9,-17 -49,-88 -63,-120 -34,-67 -31,-65 -30,-50 -41,-54 -41,-42 -57,-40 -57,-29 -51,-22 -56,-20 -35,-20 -45,-20 -32,-26 -62,-65 -36,-51 -34,-44 -34,-47 -34,-55 -39,-68 -22,-63 -35,-75 -32,-102 -18,-76 -17,-69 -16,-70 -15,-81 -15,-75 -26,-101 0,-111 6,-146 -1,-64 1,-51 5,-71 0,-50 11,-55 13,-49 23,-60 22,-55 28,-54 17,-50 17,-60 12,-55 2,-55 26,-55 25,-60 36,-61 29,-47 38,-48 47,-50 64,-58 64,-83 41,-45 44,-33 43,-37 57,-66 36,-75 42,-83 28,-74 29,-100 20,-135 10,-71 10,-80 16,-81 15,-55 16,-65 31,-81 33,-107 15,-48 3,-12 21,-54 25,-64 2,-6 52,-94 27,-59 28,-48 41,-71 53,-77 29,-38 33,-47 39,-44 67,-53 113,-92 57,-60 54,-82 38,-89 31,-61 21,-65 16,-49 13,-65 2,-62 5,-91 -14,-89 -9,-72 -2,-15 -15,-65 -26,-81 -35,-77 -31,-54 -41,-50 -32,-35 -29,-41 -24,-41 -29,-67 -4,-51 -2,-60 7,-65 23,-60 27,-49 22,-29 26,-30 36,-31 26,-20 36,-30 25,-20 30,-30 33,-39 16,-35 17,-39 17,-40 31,-43 23,-30 3,-5 8,-9 23,-26 29,-29 32,-29 42,-23 58,-39 75,-41 93,-85 41,-45 4,-7 22,-40 3,-6 23,-50 12,-55 23,-69 17,-75 9,-55 5,-51 -8,-50 -19,-51 -19,-41 -35,-29 -46,-24 -88,-57 -87,-60 -102,-71 -59,-35 -50,-32 -45,-24 -51,-24 -40,-21 -42,-20 -59,-34 -40,-42 -45,-42 -51,-44 -61,-55 -62,-51 -106,-60 -50,-32 -44,-19 -56,-30 -46,-15 -72,-14 -67,-7 -5,0 -46,-5 -61,-5 -98,0 -60,-12 -62,-24 -73,-25 -53,-35 -59,-41 -71,-49 -109,-62 -67,-49 -81,-42 -70,-39 -77,-22 -65,-23 -70,-17 -94,-8 -71,-8 -51,-10 -41,-10 -46,-4 -22,-4 -24,-3 -15,3 -47,10 -46,13 -46,25 -39,28 -32,49 -29,49 -3,4 -17,31 -14,55 -10,50 -5,40 -16,51 -41,73 -54,74 -28,54 -52,60 -23,29 -36,24 -54,27 -41,45 -53,54 -43,49 -48,48 -41,40 -38,28 -58,38 -53,19 -61,13 -57,8 -46,-11 -56,-25 -50,-19 -68,-32 -88,-59 -61,-42 -59,-38 -38,-38 -36,-55 -14,-30 -14,-41 -23,-25 -18,-26 -33,-29 -31,-31 -34,-30 -17,-25 -28,-27 -18,-34 -25,-48 -9,-45 -12,-53 -15,-50 -19,-60 -23,-66 -34,-67 2,-40 -8,-49 7,-82 2,-70 2,-59 -10,-56 -26,-68 -30,-37 -16,-26 -28,-30 -33,-35 -21,-42 -4,-35 1,-41 -3,-50 -19,-49 -36,-90 -15,-36 -20,-35 -21,-30 -28,-37 -15,-35 7,-40 16,-30 21,-44 30,-61 26,-45 16,-35 15,-25 34,-32 28,-33 31,-41 25,-40 19,-49 17,-46 0,-51 -2,-28 -8,-42 -25,-50 -24,-56 -29,-56 -29,-47 -31,-48 -35,-66 -16,-45 -13,-65 -13,-61 -3,-71 -3,-65 7,-70 -9,-54 -11,-52 -15,-45 -21,-51 -10,-45 0,-55 2,-53 7,-56 -9,-47 -10,-46 -15,-45 -5,-50 -5,-25 -2,-15 -8,-56 -16,-65 -4,-41 -14,-51 -29,-56 -19,-41 -25,-21 -35,-31 -55,-37 -33,-25 -17,-13 -29,-22 -50,-60 -53,-71 -17,-26 -24,-35 -48,-65 -69,-82 -51,-75 -31,-35 -12,-14 -55,-43 -30,-24 -31,-20 -34,-19 -48,-42 -51,-55 -36,-40 -41,-41 -42,-45 -4,-5 -31,-25 -35,-34 -50,-45 -24,-23 -39,-25 -37,-13 -4,-1 -42,-15 -40,-22 -60,-42 -48,-38 -51,-46 -64,-52 -52,-27 -55,-43 -80,-65 -46,-45 -31,-35 -22,-27 -19,-36 -5,-13 -9,-27 -15,-31 -27,-23 -38,-25 -45,-11 -60,-24 -31,-15 -36,-21 -45,-22 -37,-18 -25,-15 -36,-11 -44,-16 -38,-19 -52,-34 -46,-41 -55,-28 -74,-68 -101,-87 -63,-70 -54,-67 -52,-54 -25,-41 -21,-40 -15,-45 -8,-41 -3,-55 -9,-51 -15,-40 -33,-52 -39,-59 -49,-75 -48,-92 -46,-130 -15,-40 -44,-50 -50,-42 -60,-33 -71,-2 -129,-15 -5,0 -87,-16 -55,-29 -50,-52 -38,-50 -39,-78 -18,-71 -9,-27 -5,-24 0,-52 -5,-40 -6,-50 -13,-50 -19,-41 -19,-36 -11,-9 -15,-13 -70,-52 -55,-32 -53,-25 -46,-20 -42,-20 -45,-26 -54,-42 -47,-33 -44,-42 -45,-49 -29,-44 -27,-42 -27,-45 -24,-41 -36,-45 -31,-36 -33,-52 -33,-49 -33,-46 -80,-60 -61,-45 -48,-27 -37,-27 -28,-32 -20,-35 -10,-11 -30,-30 -67,-55 -72,-56 -56,-52 -31,-29 -49,-39 -44,-52 -50,-50 -46,-66 -37,-40 -10,-47 -12,-49 -4,-46 -3,-44 10,-51 15,-40 15,-35 4,-26 2,-14 0,-81 4,-35 7,-40 17,-49 9,-47 0,-55 -10,-51 -18,-45 -28,-56 -40,-47 -79,-93 -60,-62 -57,-40 -48,-35 -74,-56 -70,-37 -46,-29 -35,-31 -39,-62 -30,-73 -32,-75 -28,-82 -8,-51 -9,-50 8,-71 7,-55 12,-55 33,-64 39,-46 3,-4 38,-38 27,-34 29,-29 26,-36 26,-45 5,-35 0,-40 -10,-51 -20,-50 -34,-61 -82,-102 -11,-12 -59,-83 -34,-75 -26,-66 -35,-70 -44,-61 -29,-72 -22,-96 -23,-76 -28,-76 -68,-104 -51,-85 -17,-33 -9,-23 -4,-38 1,-45 9,-37 5,-56 7,-47 1,-46 -3,-55 -11,-47 -24,-72 -29,-120 -17,-117 -11,-101 -29,-105 -14,-123 -13,-86 3,-65 1,-46 -3,-60 6,-38 13,-52 8,-49 0,-52 -8,-45 -12,-59 -5,-53 5,-43 19,-47 6,-50 17,-35 12,-34 3,-30 -1,-31 1,-30 -4,-35 1,-36 1,-30 7,-55 7,-45 6,-45 2,-51 2,-50 -1,-36 16,-44 26,-30 31,-39 11,-14 22,-50 22,-40 6,-30 1,-30 -9,-35 -12,-29 -1,-42 17,-49 17,-46 2,-5 22,-54 21,-71 16,-55 19,-39 17,-31 21,-38 27,-55 17,-44 19,-80 11,-45 18,-60 26,-66 35,-68 37,-52 22,-37 35,-54 36,-35 41,-45 46,-35 60,-50 59,-45 52,-18 39,-12 72,-10 87,-15 71,-11 17,-11 36,-22 48,-34 32,-38 18,-55 3,-60 -13,-66 -21,-50 -44,-90 -28,-66 -12,-66 8,-71 0,-55 21,-60 20,-75 21,-56 35,-87 25,-95 14,-80 8,-55 -1,-86 -13,-56 -36,-112 -25,-53 -26,-41 -35,-46 -47,-45 -37,-35 -50,-25 -41,-9 -29,-26 -39,-37 -24,-47 1,-48 9,-57 27,-59 31,-55 31,-29 66,-56 72,-56 72,-65 72,-57 51,-58 51,-38 57,-48 55,-43 53,-27 87,-35 134,-55 180,-70 84,-31 105,-39 87,-29 72,-15 63,-8 57,-8 57,-2 56,2 29,4 22,3 59,15 58,6 45,-1 61,0 43,-8 19,-11 55,-31 83,-50 67,-40 51,-40 94,-48 45,-27 46,-35 36,-29 38,-38 33,-44 42,-90 16,-64 9,-80 6,-63 6,-80 -9,-54 -12,-67 -2,-74 7,-40 11,-53 15,-52 11,-48 18,-37 18,-34 31,-45 21,-40 25,-43 17,-44 18,-65 13,-55 14,-45 6,-90 -5,-71 -21,-102 -15,-59 4,-47 18,-55 25,-54 45,-34 34,-40 21,-33 18,-24 36,-35 37,-23 30,-27 45,-40 33,-44 38,-64 38,-78 25,-60 62,-71 67,-81 55,-52 48,-63 77,-93 26,-28 25,-20 26,-15 34,-12 38,-13 36,-20 36,-27 5,-4 41,-24 36,-20 37,-32 25,-31 30,-78 26,-91 22,-89 15,-56 10,-36 5,-35 0,-35 -10,-41 -16,-35 -5,-50 -5,-41 6,-40 15,-30 9,-24 17,-42 15,-60 16,-81 10,-60 8,-67 8,-75 5,-101 5,-110 4,-86 -7,-76 -17,-81 -2,-61 -3,-46 1,-40 5,-38 5,-62 6,-64 0,-50 -9,-43 -16,-43 -31,-60 -41,-61 -50,-79 -27,-67 -35,-61 -51,-101 -46,-91 -29,-57 -27,-44 -50,-55 -57,-31 -46,-15 -20,4 -31,6 -46,16 -4,0 -42,4 -52,-1 -65,-14 -50,-23 -33,-18 -31,-41 -14,-40 -8,-35 -9,-26 -14,-40 -31,-30 -31,-21 -30,-15 -37,-18 -4,-2 -36,-36 -41,-60 -15,-51 -9,-36 -7,-66 -20,-49 -20,-50 -30,-55 -41,-51 -46,-61 -21,-30 -15,-41 0,-50 11,-45 19,-34 32,-44 31,-48 26,-71 10,-35 21,-65 20,-46 31,-50 46,-70 24,-40 56,-88 22,-44 12,-40 5,-65 15,-61 -5,-60 3,-21 1,-15 -2,-40 9,-111 16,-95 15,-81 28,-73 28,-59 32,-49 29,-39 17,-32 5,-50 4,-49 3,-60 2,-45 12,-40 12,-45 23,-39 27,-29 42,-24 40,-16 57,-15 110,-20 54,-15 56,-15 41,-15 41,-12 46,-3 52,2 45,12 40,17 62,25 54,21 59,10 104,17 31,1 36,-8 73,-27 42,-13 78,-30 89,-39 54,-36 56,-34 59,-38 42,-34 49,-29 4,-3 47,-24 56,-13 83,-5 4,0 78,3 51,-3 62,3 66,8 72,5 4,0 67,5 5,0 25,5 77,15 66,9 77,8 61,8 62,-3 4,-1 57,1 67,-9 51,-7 47,-9 61,-5 73,-9 72,-17 50,-14 49,-21 63,-14 5,0 67,5 46,1 36,-19 36,-22 49,-44 54,-54 53,-48 90,-70 67,-50 34,-23 17,-27 18,-37 11,-45 7,-44 16,-25 43,-44 44,-27 41,-20 41,-13 51,-7 42,-9 53,-28 47,-28 68,-32 46,-3 12,0 34,2 46,8 46,16 41,15 72,20 79,14 117,15 80,2 62,-10 49,-14 53,-31 52,-35 49,-48 38,-48 41,-55 46,-53 31,-38 46,-35 34,-23 33,-57 36,-56 41,-44 61,-41 93,-45 86,-20 67,-10 63,-19 52,-23 49,-23 46,-39 41,-37 19,-34 7,-57 -1,-71 -6,-106 -1,-96 -8,-147 7,-84 -5,-55 17,-56 19,-50 11,-65 5,-61 8,-35 7,-30 19,-49 33,-49 59,-53 43,-41 11,-45 8,-58 0,-96 -17,-76 -6,-78 0,-65 14,-44 27,-47 45,-65 65,-83 59,-63 36,-31 36,-30 62,-40 14,-6 47,-24 98,-50 85,-53 43,-26 27,-19 4,-3 18,-14 69,-54 4,-4 47,-28 48,-25 62,-17 69,-19 5,-1 52,-18 46,-30 28,-34 23,-52 7,-58 -7,-78 -10,-38 -7,-27 14,-85 4,-42 10,-50 17,-28 14,-23 20,-41 11,-44 15,-61 16,-96 21,-90 41,-98 41,-79 12,-28 15,-36 21,-45 3,-7 17,-58 -1,-68 -10,-60 -23,-74 -21,-63 -28,-55 -23,-68 -7,-68 5,-66 31,-45 49,-70 28,-44 26,-52 5,-41 6,-47 6,-40 18,-40 22,-34 20,-40 14,-39 2,-47 -9,-29 -27,-42 -25,-65 -28,-48 -18,-58 -15,-39 -8,-21 -44,-72 -30,-101 -10,-65 -1,-9 -7,-86 -2,-82 3,-19 13,-87 14,-108 15,-96 2,-78 -8,-23 2,-50 -2,-14 -7,-34 -28,-45 -29,-26 -40,-17 -41,3 -67,-16 -4,-2 -42,-9 -34,-20 -32,-40 -4,-67 -8,-51 -13,-44 -21,-50 -27,-35 -39,-31 -55,-22 -86,-46 -85,-53 -4,-3 -61,-23 -25,-8 -72,-23 -62,-15 -82,-35 -81,-47 -94,-70 -75,-40 -80,-47 -12,-8 -58,-31 -34,-16 -61,-20 -61,-15 -76,-25 -52,-26 -52,-39 -66,-57 -9,-10 -43,-45 -60,-87 -65,-90 -48,-73 -35,-44 -41,-90 -33,-78 -15,-35 -20,-77 -13,-59 -5,-38 -3,-20 2,-37 1,-21 18,-63 23,-59 26,-54 21,-45 10,-51 6,-65 0,-35 -5,-31 -8,-25 -20,-21 -18,-5 -7,-2 -9,-3 -31,-23 -43,-63 -48,-76 -38,-69 -38,-57 -72,-81 -81,-106 -51,-71 -18,-17 -13,-13 -36,-25 -42,-14 -34,-22 -64,-64 -59,-53 -61,-35 -4,-2 -73,-38 -92,-41 -81,-44 -8,-7 -51,-41 -15,-11 -39,-49 -15,-51 -5,-60 -18,-45 -30,-32 -49,-32 -71,-28 -55,-23 -78,-33 -15,-10 -63,-25 -80,-44 -109,-70 -90,-74 -67,-70 -39,-62 0,-35 -1,-41 8,-75 12,-50 40,-64 z" />
</g>
</clipPath>
<g stroke="black" fill="none" stroke-linejoin="round" stroke-width="55" clip-path="url(#state_clip_path)">
<use xlink:href="#state_outline" fill="white" stroke-width="241" />
<path id="Adams" d="M -13145,-771 l -28,971 -28,957 -10,232 -16,95 -17,655 -12,956 -28,972 -964,-23 -1015,-28 -995,-29 -868,-23 2,-14 0,-81 4,-35 7,-40 17,-49 9,-47 0,-55 -10,-51 -18,-45 -28,-56 -40,-47 -79,-93 -60,-62 -57,-40 -48,-35 -74,-56 -70,-37 -46,-29 -35,-31 -39,-62 -30,-73 -32,-75 -28,-82 -8,-51 -9,-50 8,-71 7,-55 12,-55 33,-64 39,-46 3,-4 38,-38 27,-34 29,-29 26,-36 26,-45 5,-35 0,-40 -10,-51 -20,-50 -34,-61 -82,-102 -11,-12 -59,-83 -34,-75 -26,-66 -35,-70 -44,-61 -29,-72 -22,-96 -23,-76 -28,-76 -68,-104 -51,-85 -17,-33 -9,-23 -4,-38 1,-45 9,-37 5,-56 7,-47 1,-46 -3,-55 -11,-47 -24,-72 -29,-120 -17,-117 -11,-101 -29,-105 -14,-123 -13,-86 3,-65 1,-46 -3,-60 6,-38 13,-52 8,-49 0,-52 -8,-45 -12,-59 -5,-53 5,-43 19,-47 6,-50 17,-35 12,-34 3,-30 -1,-31 124,6 974,39 1010,38 968,34 1000,38 z" />
<path id="Alexander" d="M 1055,31055 l 25,25 41,5 21,10 56,-20 21,5 20,10 31,5 21,15 15,10 36,41 56,40 6,35 10,20 15,25 0,66 -5,50 10,76 -10,45 0,45 -21,61 -21,30 -46,-5 -31,15 -25,-10 -26,15 -51,80 -26,10 -26,-15 -15,5 -21,50 -36,25 -10,41 -26,35 0,30 -10,30 0,61 -31,55 -5,40 -5,25 0,56 -26,15 -16,30 -25,-5 -26,15 -20,15 -11,55 36,35 5,61 10,20 11,5 0,10 -6,55 11,21 -5,15 0,20 5,10 20,10 26,10 5,10 0,30 5,20 0,16 -10,10 -11,10 -5,15 -20,15 -31,10 -26,30 -10,20 10,15 16,5 5,30 -16,16 -5,25 26,30 -6,35 -25,20 -5,25 10,25 31,-5 25,-15 11,21 -1,55 0,40 -5,30 -15,36 -41,40 -31,80 -16,56 0,35 21,50 20,25 31,26 -5,20 0,15 -21,25 26,25 36,45 41,0 20,21 16,30 20,-5 31,0 0,10 5,30 15,5 21,0 10,10 10,15 16,20 20,11 31,0 26,-10 15,0 21,5 15,10 21,10 56,10 41,10 26,5 15,0 21,-15 15,-5 21,-5 15,15 10,35 46,46 57,65 25,30 10,31 21,5 10,-10 47,35 -57,101 -16,60 -8,31 -15,109 5,115 2,11 8,26 87,186 140,156 84,65 100,74 -73,28 -95,39 -61,32 -47,24 -63,17 -70,3 -37,-6 -41,-22 -39,-41 -21,-62 -11,-75 0,-86 -10,-81 -11,-60 0,-6 -9,-30 -17,-40 -3,-6 -17,-23 -38,-39 -22,-12 -44,-30 -33,-16 -62,-35 -56,-40 -51,-61 -40,-113 -37,-98 -31,-41 -498,-10 -25,20 -7,39 3,61 17,33 32,39 30,26 40,32 55,27 35,20 56,30 36,9 25,16 35,26 37,40 37,43 19,41 9,56 2,46 -10,44 -11,31 -22,33 -45,48 -41,45 -31,30 -37,14 -45,-4 -31,-5 -25,-10 -36,-40 -29,-32 -38,-39 -36,-45 -35,-36 -40,-36 -60,-43 -81,-42 -66,-35 -55,-35 -86,-33 -85,-53 -61,-40 -56,-45 -34,-25 -38,-41 -15,-52 10,-54 16,-65 26,-60 28,-60 8,-40 5,-41 1,-49 -1,-47 -10,-40 -12,-33 -33,-48 -39,-57 -24,-38 -36,-46 -28,-34 -30,-37 -25,-21 -35,-18 -45,-35 -37,-36 -48,-47 -39,-62 -34,-56 -38,-77 -24,-66 -37,-80 -41,-70 -48,-70 -28,-67 -36,-65 -16,-70 -25,-86 -31,-100 -20,-76 0,-40 5,-35 17,-50 17,-40 17,-44 16,-42 5,-51 -6,-48 -14,-27 -25,-16 -6,-4 -56,4 -16,1 -51,2 -42,8 -45,-1 -52,-10 -36,-15 -44,-45 -49,-67 -24,-41 -31,-53 -21,-51 -5,-50 0,-50 19,-64 18,-62 15,-70 15,-58 12,-50 50,-58 31,-41 31,-30 32,-37 45,-43 35,-30 27,-14 887,0 981,1 z" />
<path id="Bond" d="M 984,12293 l 4,307 -36,302 4,629 9,941 5,539 4,447 -179,0 -836,4 -975,-1 -985,-17 -24,-986 -15,-483 -313,-1 -9,-689 -4,-700 344,1 112,0 6,-307 z" />
<path id="Boone" d="M 3521,-26275 l 1355,21 15,0 542,-19 15,893 15,974 -6,969 4,948 -962,15 -972,14 -9,-954 -4,-973 6,-974 z" />
<path id="Brown" d="M -13173,200 l 508,-3 481,6 846,38 -10,55 -21,35 -61,40 -6,26 67,90 56,36 82,-5 57,-15 30,15 10,25 -25,106 5,75 0,26 -21,85 20,46 31,15 67,-10 41,45 25,20 5,61 62,35 92,41 36,30 30,0 31,-15 57,0 56,-50 31,30 10,66 -26,30 -72,-5 0,55 41,61 82,70 10,31 -46,65 -5,85 25,56 51,10 57,20 102,-25 72,-35 128,6 57,25 51,0 36,-20 102,0 -10,-50 21,0 46,35 51,11 10,50 5,35 5,71 -5,50 -26,40 -51,66 -72,110 -41,91 -16,55 0,101 -5,35 -16,40 -41,66 -56,70 -41,50 -57,40 -10,5 -57,30 -25,25 -26,31 -77,155 -26,51 5,55 15,71 16,80 25,61 10,20 46,70 -948,-17 -538,-6 -452,-17 -861,-27 -138,-36 12,-956 17,-655 16,-95 10,-232 z" />
<path id="Bureau" d="M -2203,-16143 l 36,5 906,-4 46,1 917,6 66,0 471,-4 36,0 399,10 77,0 906,12 5,474 4,504 5,468 4,515 10,463 4,489 0,136 -128,10 -133,-25 -97,-15 -144,-11 -210,-75 -122,-16 -26,0 -46,15 -15,15 -62,61 -251,100 -185,45 -35,31 -16,25 0,75 15,41 11,40 -6,45 -56,161 -26,71 -26,86 -36,171 -312,0 -620,-1 4,942 -1455,-2 2,-938 -855,-11 -118,0 -850,-12 2,-957 17,-978 6,-484 -5,-499 1,-242 -31,0 -4,-741 942,1 31,0 z" />
<path id="Calhoun" d="M -10749,8120 l -31,136 -26,115 -10,91 20,181 15,121 36,106 0,60 15,96 5,55 20,51 26,65 25,66 -26,115 -15,81 -26,116 0,75 15,40 31,46 15,35 21,40 10,46 40,201 0,141 5,80 -20,81 -42,75 -36,81 -46,80 -26,50 -26,76 -5,45 5,116 5,60 20,86 36,100 21,41 0,50 10,61 5,50 41,85 30,91 5,40 21,81 25,76 26,55 10,35 -5,40 -31,31 -16,30 -10,35 5,35 21,35 46,56 35,45 11,30 20,76 -5,55 -16,101 -5,55 31,101 81,141 52,51 61,70 20,56 21,35 20,30 62,40 66,41 62,20 62,-5 56,-20 82,-45 57,-30 30,-10 124,-30 66,-5 67,6 72,12 -47,10 -46,13 -46,25 -39,28 -32,49 -29,49 -3,4 -17,31 -14,55 -10,50 -5,40 -16,51 -41,73 -54,74 -28,54 -52,60 -23,29 -36,24 -54,27 -41,45 -53,54 -43,49 -48,48 -41,40 -38,28 -58,38 -53,19 -61,13 -57,8 -46,-11 -56,-25 -50,-19 -68,-32 -88,-59 -61,-42 -59,-38 -38,-38 -36,-55 -14,-30 -14,-41 -23,-25 -18,-26 -33,-29 -31,-31 -34,-30 -17,-25 -28,-27 -18,-34 -25,-48 -9,-45 -12,-53 -15,-50 -19,-60 -23,-66 -34,-67 2,-40 -8,-49 7,-82 2,-70 2,-59 -10,-56 -26,-68 -30,-37 -16,-26 -28,-30 -33,-35 -21,-42 -4,-35 1,-41 -3,-50 -19,-49 -36,-90 -15,-36 -20,-35 -21,-30 -28,-37 -15,-35 7,-40 16,-30 21,-44 30,-61 26,-45 16,-35 15,-25 34,-32 28,-33 31,-41 25,-40 19,-49 17,-46 0,-51 -2,-28 -8,-42 -25,-50 -24,-56 -29,-56 -29,-47 -31,-48 -35,-66 -16,-45 -13,-65 -13,-61 -3,-71 -3,-65 7,-70 -9,-54 -11,-52 -15,-45 -21,-51 -10,-45 0,-55 2,-53 7,-56 -9,-47 -10,-46 -15,-45 -5,-50 -5,-25 -2,-15 -8,-56 -16,-65 -4,-41 -14,-51 -29,-56 -19,-41 -25,-21 -35,-31 -55,-37 -33,-25 -17,-13 -29,-22 -50,-60 -53,-71 -17,-26 -24,-35 -48,-65 -69,-82 -51,-75 -31,-35 -12,-14 -55,-43 -30,-24 -31,-20 -34,-19 -48,-42 -51,-55 -36,-40 -41,-41 -42,-45 -4,-5 -31,-25 -35,-34 -50,-45 -24,-23 -39,-25 -37,-13 -4,-1 -42,-15 -40,-22 -60,-42 -48,-38 -51,-46 -64,-52 -52,-27 -55,-43 -80,-65 -46,-45 -31,-35 -22,-27 -19,-36 -5,-13 195,6 990,27 995,48 z" />
<path id="Carroll" d="M -2662,-22968 l 24,984 -1,394 -6,590 -6,640 4,399 -502,-11 -946,-17 -978,-7 -967,-2 -158,0 -356,6 -21,-63 -28,-55 -23,-68 -7,-68 5,-66 31,-45 49,-70 28,-44 26,-52 5,-41 6,-47 6,-40 18,-40 22,-34 20,-40 14,-39 2,-47 -9,-29 -27,-42 -25,-65 -28,-48 -18,-58 -15,-39 -8,-21 -44,-72 -30,-101 -10,-65 -1,-9 -7,-86 -2,-82 3,-19 13,-87 14,-108 15,-96 2,-78 -8,-23 2,-50 -2,-14 -7,-34 -28,-45 -29,-26 -40,-17 -41,3 -67,-16 -4,-2 -42,-9 -34,-20 -32,-40 -4,-67 -8,-51 -13,-44 -21,-50 -27,-35 -39,-31 -55,-22 -86,-46 -85,-53 -4,-3 -61,-23 -25,-8 -72,-23 -62,-15 -82,-35 -81,-47 -94,-70 -75,-40 -80,-47 -12,-8 46,4 435,1 404,6 987,7 978,2 480,-4 481,-4 0,-15 957,12 z" />
<path id="Cass" d="M -5356,244 l 4,690 0,131 -17,579 5,256 -1,640 -1,332 -492,-11 -964,-7 -687,-7 -282,0 -979,-22 -969,-23 -410,-6 -82,-5 -179,-1 77,-155 26,-31 25,-25 57,-30 10,-5 57,-40 41,-50 56,-70 41,-66 16,-40 5,-35 0,-101 16,-55 41,-91 72,-110 51,-66 26,-40 5,-50 -5,-71 -5,-35 -10,-50 5,-61 21,-35 31,-20 46,-30 421,-160 112,-55 47,-35 10,-31 10,-65 16,-81 15,-65 6,-70 -5,-36 10,-85 15,-20 42,-25 87,-46 56,-30 93,-80 10,-45 -5,-35 0,-46 5,-20 62,-95 15,-46 26,-75 36,-56 62,-55 25,-20 41,0 36,5 31,0 5,-5 10,36 31,25 26,15 36,-5 41,-45 20,15 21,5 41,0 10,15 31,16 41,5 20,15 0,60 10,30 15,36 31,50 10,46 31,40 0,55 25,46 -30,10 -11,20 10,35 52,10 25,35 31,31 -16,45 -5,25 31,0 31,25 0,36 -5,40 30,-25 16,-5 36,5 35,5 21,-55 21,-15 25,10 31,-10 5,35 20,25 62,15 41,-9 77,0 20,-15 52,15 15,40 20,40 16,-35 20,-5 57,-20 31,-25 0,20 10,10 25,-20 11,0 15,51 15,5 26,-5 26,0 15,-5 5,-25 62,-61 0,-40 20,0 62,26 20,25 16,0 15,-10 10,5 21,20 20,5 16,-20 10,-15 15,-10 26,5 20,15 16,-25 5,-30 21,-15 66,10 36,10 20,40 16,0 5,-45 41,-75 21,-36 10,-5 16,0 35,-5 16,-25 15,-10 46,0 21,-5 36,-5 10,11 20,20 26,-15 15,25 26,-20 26,0 5,-30 10,-20 15,15 41,25 21,-50 10,-36 31,-20 36,0 -10,-20 20,-30 41,-10 -5,-45 11,-10 20,15 26,-5 25,5 26,10 10,-65 16,-10 31,-31 35,-15 16,26 5,45 20,-15 6,-61 15,-15 5,36 26,35 30,-10 57,10 61,51 26,-10 26,-76 10,-25 10,25 31,66 5,-5 0,-101 10,-15 16,5 15,10 z" />
<path id="Champaign" d="M 12172,-3071 l 0,10 10,196 -10,40 10,162 25,463 0,96 20,981 -107,5 14,927 10,297 25,639 61,1979 -631,0 -964,5 -969,25 -989,24 -954,20 -9,-992 -10,-961 -4,-982 -4,-906 10,-5 1,-635 5,-312 -9,-977 968,-20 964,-19 958,-25 979,-25 103,0 z" />
<path id="Christian" d="M 2932,5321 l 4,488 14,976 -11,972 3,986 -1005,-11 -953,-1 -980,3 -949,4 -477,4 -8,-991 -10,-785 6,-212 -10,-181 1,-775 -5,-317 482,1 -4,-267 5,-221 467,0 0,-161 -10,-543 1,-156 25,0 16,10 10,20 -10,91 41,45 56,35 87,0 67,-10 31,-20 10,-55 41,-25 123,-76 5,16 21,25 20,-5 10,-71 6,-55 102,10 57,35 61,11 56,-5 6,-15 -41,-21 20,-25 0,-20 154,0 62,-30 36,-40 0,-45 -26,-61 26,-20 51,10 31,-25 -5,-70 25,-20 98,-10 82,-81 51,15 36,-125 36,-76 41,-20 31,25 31,15 41,36 15,30 21,30 51,5 61,5 36,15 26,1 46,-36 56,-20 113,-15 46,15 103,81 102,56 118,55 10,131 19,977 0,488 z" />
<path id="Clark" d="M 15795,7128 l 10,421 4,233 18,735 -15,9 -22,-10 -20,-13 -17,-11 -10,-5 -8,0 -6,2 -20,11 -7,5 -5,7 -8,15 -5,19 -9,21 -15,25 -15,16 -25,11 -15,5 -20,4 -6,0 -43,-3 -19,-2 -51,-5 -36,7 -30,16 -15,7 -5,4 -20,20 -22,27 -21,30 -20,35 -13,25 -8,15 -36,56 -36,70 -20,30 -15,15 -25,11 -28,9 -7,3 -18,8 -10,10 0,20 10,15 9,4 10,3 26,-1 26,-6 35,-6 21,5 21,14 9,19 1,6 6,22 -5,25 -15,26 -21,25 -15,25 -15,30 0,25 5,15 5,31 20,30 13,17 7,26 -4,22 -10,34 -1,27 0,35 9,13 10,15 5,10 6,10 16,33 36,60 6,12 7,9 11,3 20,-4 9,-5 13,-11 16,-24 12,-22 24,-24 8,-3 38,-2 16,10 16,20 1,21 0,10 -10,10 -4,9 -8,11 -12,16 -5,20 -4,19 10,31 2,36 13,95 1,38 1,27 -1,24 -2,27 -4,30 -8,29 -7,16 -15,17 -9,10 -20,15 -15,26 -9,26 -9,27 -10,19 -21,21 -21,9 -29,12 -20,6 -8,7 -9,16 -16,20 -10,20 -6,9 -3,5 -11,11 -14,9 -27,1 -27,-5 -15,-4 -15,5 -10,15 -10,27 1,30 1,11 0,20 -4,25 -7,11 -3,4 -23,17 -22,5 -56,27 -35,26 -20,26 -5,10 1,15 12,12 21,5 26,5 16,7 9,2 31,21 10,10 0,6 -256,-10 -5,-167 -246,1 -549,30 5,-81 -456,20 -836,20 -139,5 -338,15 -498,25 -80,-2269 -20,-639 -15,-504 477,-10 492,-15 1877,-90 -20,131 994,-21 z" />
<path id="Clay" d="M 8712,13523 l 4,649 888,36 29,1303 -246,-5 -5,10 -11,25 11,10 10,5 -5,10 -10,31 15,10 5,10 -10,10 -10,5 -16,5 0,15 5,10 31,15 0,15 -21,35 6,15 15,16 0,10 -16,10 -5,10 0,25 5,40 11,15 5,30 -26,21 31,35 0,60 -11,40 21,31 26,35 -1,55 36,25 16,21 5,25 -16,25 0,55 -15,25 -72,41 -20,25 -16,30 -5,30 -36,20 -26,40 -5,41 16,15 30,20 11,15 -11,15 5,15 16,20 10,0 20,-10 16,5 5,10 -5,10 -5,36 5,25 15,0 21,-15 10,5 5,15 10,0 21,-20 5,0 21,10 0,15 -1,45 11,5 41,0 15,10 21,15 25,21 67,40 5,25 -5,40 -959,-10 -442,-6 -482,-15 -379,-15 -601,-6 -1010,20 7,-1454 6,-982 6,-981 303,-15 256,-4 431,10 954,1 z" />
<path id="Clinton" d="M 974,15458 l 257,11 743,41 4,961 -27,981 -11,634 -867,-42 -46,10 -62,0 -5,-10 -5,-20 -15,0 -16,5 -25,0 -21,-5 -10,5 -21,20 -15,10 -36,-10 -20,5 -16,-10 -31,0 -20,-20 -21,-5 -10,5 -15,10 -41,-15 -10,15 -21,15 -21,-20 0,-25 -30,-5 -31,-1 -46,-10 -16,5 -25,20 -21,-5 -25,-10 -6,-30 -25,15 -10,-15 -31,25 -16,0 -20,-20 -26,15 -26,-15 -30,5 -21,-5 0,-30 -25,-20 -36,-1 -46,0 -6,31 -15,20 10,20 -5,15 -41,5 15,15 -5,15 -25,5 -21,20 15,15 21,5 -31,25 -15,21 -16,-11 0,-15 -25,-5 -11,10 0,20 -36,26 -25,-5 -16,10 -36,-16 -15,10 -20,16 -26,-6 -10,0 -16,10 16,26 -6,25 -20,-5 -21,-10 -5,-15 0,-16 -15,-5 -16,5 -10,31 -10,15 -15,5 -16,0 -41,-31 -56,-45 -41,-10 -31,5 -36,50 -31,20 -31,0 -36,5 -20,15 -41,30 -16,31 -10,25 -26,30 -56,25 -31,20 -56,15 -57,25 -15,0 -5,-20 -10,-20 -62,-46 -15,15 25,26 -5,20 -67,-20 -46,-1 -41,16 -20,-6 -47,-15 -35,-35 -47,-15 -25,-15 -36,10 -36,0 -15,10 -11,40 -36,10 -15,-10 -46,-30 -26,15 -20,15 -26,-15 -21,-5 -15,5 -26,-11 21,-50 -56,0 -6,30 -15,10 -26,-30 -30,20 -31,5 -10,20 -57,10 -36,0 -67,10 -51,20 -62,45 -20,20 -5,36 -21,25 -15,0 -16,-20 -10,5 10,35 0,25 -10,55 -21,20 -46,-5 -5,25 -5,6 -21,-1 -5,11 0,20 -15,5 -21,-5 -10,10 -5,25 -15,10 -52,-5 -20,0 -36,-26 -26,-5 -20,0 -11,10 -15,20 -16,41 16,20 10,10 5,20 -5,10 -15,10 -16,0 -20,-20 -10,0 -6,5 0,15 11,15 -6,10 -10,5 -20,-10 -11,5 0,20 -5,30 -61,10 0,-20 5,-20 -31,15 -10,20 -31,0 -16,20 -5,21 0,50 -15,15 -31,-5 -31,-10 -9,-685 2,-981 6,-971 959,7 2,-956 985,17 975,1 836,-4 z" />
<path id="Coles" d="M 12018,4863 l 20,806 40,971 20,488 -477,10 15,504 20,639 -1097,40 -944,30 -964,29 -646,20 -200,-5 -98,-5 -9,-805 -15,-816 0,-15 -9,-966 -10,-483 1651,-30 277,0 328,1 605,-15 375,-5 282,-10 -10,-338 323,1 0,-41 z" />
<path id="Cook" d="M 9329,-22512 l 322,-10 640,-15 972,-10 0,-15 977,5 992,-16 72,0 36,51 72,146 40,56 6,25 35,50 41,36 10,5 16,20 10,45 51,71 103,116 87,80 51,51 25,30 21,25 10,31 36,20 31,40 20,41 5,35 10,10 0,71 26,156 26,20 -6,35 11,41 10,25 10,45 26,91 25,101 11,30 35,51 11,30 15,30 10,36 -10,100 10,51 26,20 15,20 5,10 21,15 0,51 20,30 16,25 20,21 31,5 25,10 11,15 -11,20 -35,20 -26,-5 -5,15 15,51 31,65 15,26 5,20 0,40 11,25 15,15 -5,41 10,15 5,30 0,40 21,66 20,45 10,10 16,-5 10,11 -15,15 -21,20 -5,25 5,20 5,25 16,5 20,16 10,10 16,15 20,40 10,15 93,10 10,5 0,11 -10,5 -67,0 -15,10 -16,20 5,15 -10,30 -10,31 -5,45 5,91 15,10 16,15 51,0 0,50 -5,56 0,20 -21,10 -20,15 25,91 26,81 31,70 36,66 51,91 46,65 25,40 16,31 10,35 21,35 15,5 5,5 5,10 -10,11 -21,20 5,25 11,25 5,15 0,31 5,10 15,10 21,5 15,10 -10,10 -21,0 -15,5 -10,10 0,10 5,15 10,5 10,-5 31,-10 10,15 6,10 40,51 6,15 5,15 5,5 15,20 0,20 41,51 21,5 20,5 15,0 11,-5 30,5 11,10 5,20 -11,15 1,20 10,11 15,0 15,15 21,15 20,15 11,15 15,121 5,25 5,41 16,131 15,52 5,215 21,1583 10,893 -251,5 -952,15 -988,11 -6,-147 -5,-161 -30,-418 -5,-242 -958,35 -45,-963 -994,35 -15,-489 246,-10 107,-5 174,-5 159,-71 36,-85 246,-177 -5,-161 -46,-963 -26,-989 -5,-958 -967,30 -936,60 -962,20 -10,-887 0,-10 210,0 z" />
<path id="Crawford" d="M 15054,10692 l 0,9 -10,10 -15,6 -16,0 -25,-9 -15,-3 -6,-2 -8,-1 -13,0 -9,-3 -11,1 -14,0 -7,2 -20,14 -15,15 -14,21 -10,16 -12,40 -11,29 -15,21 -5,25 -5,35 0,9 2,8 11,15 24,7 7,1 51,15 16,14 11,15 5,22 1,13 5,12 15,10 11,7 5,2 17,8 7,2 6,6 11,5 5,15 0,10 -2,6 -8,5 -17,6 -21,1 -26,0 -24,-3 -27,-4 -19,4 -20,5 -11,10 -5,26 1,26 15,28 20,17 16,3 17,5 29,1 19,3 14,-1 75,-2 63,-2 14,0 15,2 16,0 7,2 15,9 10,13 2,22 -10,26 -20,20 -15,16 -9,20 -4,12 -3,11 1,30 8,18 9,23 3,5 30,20 41,15 36,-5 37,0 10,2 25,9 31,19 35,36 30,28 21,25 22,32 5,6 15,19 31,45 25,25 10,20 6,30 -5,26 -6,15 -5,15 -15,25 -10,25 -16,36 0,20 6,21 10,18 20,26 51,85 10,41 0,30 -9,32 -3,7 -14,31 -19,41 -21,55 -13,26 1,25 12,15 5,5 15,10 26,9 26,14 7,7 9,13 0,10 -4,15 -15,15 -16,2 -26,-5 -21,-4 -15,-1 -6,3 -10,6 -1,11 3,11 5,11 18,8 24,15 36,15 78,32 67,18 74,28 57,19 10,6 12,8 30,25 21,24 10,22 11,25 21,20 12,17 6,4 17,14 35,30 16,20 9,12 2,13 -10,20 -14,20 -17,16 -7,10 -6,11 -9,20 -5,26 0,10 6,15 16,19 17,40 1,35 0,13 -3,28 -10,30 -21,25 -9,9 -9,8 -18,28 -11,20 -5,20 1,28 4,20 7,7 20,11 20,6 22,9 10,15 1,12 0,13 -5,0 -7,5 -42,10 -24,10 -17,13 -10,8 -26,24 -5,15 -4,15 -10,6 -11,0 -16,-5 -15,-5 -15,-9 -11,6 -10,10 -4,30 3,13 6,15 18,21 6,6 26,24 21,19 1,21 1,13 -21,17 -15,6 -22,9 -15,10 -7,10 -3,6 -5,19 0,16 2,5 3,10 8,12 2,18 -10,15 -11,10 -7,7 -17,2 -16,5 -10,5 -4,11 -2,5 0,10 10,20 16,21 18,10 21,7 73,17 5,1 47,30 10,10 -375,15 -446,15 -508,10 -451,15 -513,6 -975,19 -333,5 -10,-166 -9,-1444 -15,-176 -30,-830 -40,-1002 338,-15 139,-5 836,-20 456,-20 -5,81 549,-30 246,-1 5,167 z" />
<path id="Cumberland" d="M 11656,8281 l 80,2269 -154,11 -128,-1 -821,35 -174,5 -600,30 -195,0 -118,5 -851,5 -944,-1 -10,-473 -15,-488 -14,-966 -5,-322 98,5 200,5 646,-20 964,-29 944,-30 z" />
<path id="DeKalb" d="M 6428,-22488 l 15,979 -118,0 15,953 4,979 -6,963 5,958 -1,136 10,328 20,509 -916,15 -865,9 -1019,40 -9,-595 -5,-379 -14,-973 -5,-978 -9,-948 -29,-984 35,0 -9,-984 972,-14 962,-15 z" />
<path id="De_Witt" d="M 6728,-1673 l -950,1530 5,498 -487,5 4,483 -492,0 -999,34 -944,39 -984,14 -9,-961 -14,-977 -9,-655 968,-9 528,-4 451,10 z" />
<path id="Douglas" d="M 12230,2724 l 25,961 -277,6 40,1172 -523,5 0,41 -323,-1 10,338 -282,10 -375,5 -605,15 -328,-1 -277,0 -1651,30 -4,-489 -10,-1052 77,0 -4,-966 954,-20 989,-24 969,-25 964,-5 z" />
<path id="DuPage" d="M 9144,-20651 l 962,-20 936,-60 967,-30 5,958 26,989 46,963 5,161 -246,177 -36,85 -159,71 -174,5 -107,5 -246,10 -15,-474 -983,40 -937,36 -14,-954 -10,-569 -5,-419 z" />
<path id="Edgar" d="M 15690,2628 l 6,226 4,157 39,1575 24,1072 3,114 9,415 20,941 -354,5 -994,21 20,-131 -1877,90 -492,15 -20,-488 -40,-971 -20,-806 -40,-1172 277,-6 -25,-961 15,0 482,-10 1928,-50 353,-11 -15,141 302,-15 195,-10 -195,-131 329,-10 z" />
<path id="Edwards" d="M 12304,17258 l 0,30 -10,25 -5,31 0,20 20,30 0,15 -5,40 5,15 10,10 10,15 -5,46 5,15 26,25 36,5 -16,25 -5,15 11,5 30,-5 21,15 -5,31 10,30 -16,20 -20,10 -36,35 -46,35 -5,26 0,25 20,20 0,25 -10,25 20,20 11,15 -31,51 -5,35 25,50 -5,30 -5,21 25,30 0,25 -5,30 11,20 10,15 -5,76 35,45 0,30 -15,25 31,26 -5,20 -6,20 -5,20 0,25 5,20 -5,25 -10,51 -10,25 0,20 -16,20 -15,25 0,20 5,16 15,30 0,20 -15,30 10,30 5,30 -20,5 -36,-5 -21,15 -26,36 -36,30 -20,50 -10,30 -26,41 -10,30 10,20 31,20 20,30 -10,10 -52,30 -30,46 -6,25 16,35 41,121 20,75 26,61 20,35 26,25 15,15 5,20 0,41 11,15 10,30 15,30 5,20 0,66 -15,30 -5,45 15,15 51,20 5,36 0,65 -20,20 -16,25 5,35 -5,31 -5,25 5,45 -5,25 -15,15 -26,10 -15,5 -41,31 -26,10 -41,20 -31,30 0,30 5,15 15,20 -5,20 -25,5 -41,-10 -36,0 -26,15 -10,66 -6,50 6,30 -47,15 -272,16 0,40 -610,10 -457,-6 6,-478 -4,-976 -4,-890 -15,-981 -5,-141 z" />
<path id="Effingham" d="M 7741,10166 l 10,473 944,1 4,891 4,991 9,1001 -939,-15 -954,-1 -431,-10 -256,4 -303,15 -974,40 -9,-977 -9,-971 -4,-956 -5,-478 969,-9 534,-5 425,1 580,10 z" />
<path id="Fayette" d="M 4828,10174 l 5,478 4,956 9,971 9,977 974,-40 -6,981 -969,25 -991,9 -954,9 -559,-1 -374,-5 -2,976 -743,-41 -257,-11 -4,-447 -5,-539 -9,-941 -4,-629 36,-302 -4,-307 1,-669 -4,-966 0,-478 313,5 657,-9 985,6 z" />
<path id="Ford" d="M 10393,-9655 l 20,655 30,967 35,962 46,962 35,1129 15,972 978,-25 88,15 486,-10 46,957 -497,10 -103,0 -979,25 -958,25 -964,19 -968,20 -19,-1944 -5,-494 938,-24 953,-15 -25,-625 -30,-962 -35,-962 -41,-972 -15,-635 z" />
<path id="Franklin" d="M 5798,22261 l -7,965 30,982 -1,477 0,483 -960,20 -1036,14 -945,-11 -985,-7 -3,-965 -252,-1 26,-25 51,-35 46,0 26,-10 5,-65 16,-31 31,-35 10,-25 10,-65 21,-41 15,-25 21,-15 10,-35 5,-35 5,-40 6,-41 5,-55 0,-25 -5,-30 -5,-20 20,-26 11,-45 20,-30 0,-30 -51,-91 -5,-30 36,-30 0,-30 20,-36 -5,-30 -20,-30 15,-10 26,5 20,-5 6,-20 -11,-55 11,-26 20,21 16,-10 25,-5 0,-21 11,-10 36,-10 -11,-30 21,-15 -5,-10 -26,-10 10,-25 -10,-25 21,0 10,-15 -5,-21 -10,-15 -11,-45 0,-25 16,-40 15,-30 -5,-26 0,-35 16,-20 5,-20 -26,-20 -36,-10 -36,-15 -30,-16 -16,-10 -15,0 -10,-5 0,-15 5,-25 10,-15 21,-5 15,-15 5,-15 0,-30 -15,-51 0,-30 10,-45 801,6 267,0 569,-19 128,-5 1016,-9 z" />
<path id="Fulton" d="M -5241,-6438 l -28,947 979,22 -11,493 41,6 -17,740 -31,20 -25,25 -21,35 -41,217 -11,85 -10,41 -87,125 -36,51 -16,65 -15,50 -52,71 -61,45 -41,20 -67,25 -51,25 -21,15 -51,30 -57,51 -118,120 -107,141 -21,20 -36,50 -56,15 -129,86 -10,25 -26,20 -30,20 -88,0 -46,10 -56,25 -51,60 -26,51 -31,90 -10,40 -6,11 -10,30 0,45 10,71 -5,70 -16,55 -30,46 -41,35 -57,50 -10,45 10,51 5,65 -31,96 -139,201 -82,90 -36,26 -36,25 -26,35 -20,40 -52,141 -36,101 -36,55 -41,35 -174,40 -82,40 -46,40 -41,45 -26,46 -36,90 -26,20 -41,20 -56,20 -36,31 -31,40 -15,30 -134,-15 -379,-37 -651,-21 -963,-33 17,-966 17,-967 23,-977 17,-982 18,-977 17,-957 994,23 953,17 968,17 z" />
<path id="Gallatin" d="M 11234,24719 l 14,33 16,38 21,30 9,13 11,17 26,40 20,40 26,41 16,35 28,48 22,43 37,59 59,45 52,29 79,38 72,28 22,12 23,15 25,29 10,32 1,29 0,6 -11,45 -9,12 -3,5 -9,6 -14,7 -29,16 -4,2 -41,11 -36,6 -50,-5 -25,-6 -18,-6 -57,-28 -57,-24 -22,-9 -41,-17 -31,-6 -30,6 -25,16 -10,20 -4,31 1,32 1,11 14,45 2,6 22,55 21,41 7,13 47,32 46,20 41,5 41,-10 31,-15 26,-21 9,-4 21,-11 40,-12 7,-2 41,-1 13,3 16,5 21,15 9,13 7,15 11,35 3,20 7,35 -26,45 -7,35 -6,42 -8,58 -4,27 -17,119 -48,88 -7,14 -99,181 -98,90 -167,97 -17,10 -86,50 -73,50 -127,89 -117,141 -140,227 -43,85 -10,31 -9,30 -11,61 -1,30 0,88 31,115 6,25 94,250 10,28 40,160 34,139 30,50 62,81 -108,-61 -113,10 -41,-10 -36,-15 -71,-136 -21,-25 -25,-25 -185,-71 -616,0 -985,14 -9,-961 -5,-161 -25,-825 -4,-961 -14,-498 379,-9 211,-26 385,1 133,-5 164,-10 149,10 672,-20 11,-50 138,90 82,36 36,40 31,45 25,51 21,15 20,-5 z" />
<path id="Greene" d="M -8044,6767 l 318,6 943,12 9,946 14,982 -2,926 -385,-1 0,45 -77,0 10,357 -969,3 -1,554 -513,-1 -626,-17 -333,0 -26,4 -5,76 -10,45 -16,20 -46,15 -31,-10 -20,-30 -10,-25 5,-46 -10,-55 -11,-35 -25,-46 -26,-25 -36,-5 -133,-15 -51,-11 -62,-15 -51,-5 -31,5 -20,5 -31,20 -26,5 -15,-10 -5,-25 0,-20 -10,-10 -21,10 -15,20 -6,25 6,20 10,25 0,25 -5,15 -11,15 -20,0 -16,-15 -10,-25 0,-25 -15,-15 -21,0 -10,5 0,25 -10,25 -5,10 0,15 25,25 21,26 5,35 -5,30 -16,20 -15,0 -36,25 -21,20 -10,30 0,31 5,35 15,25 -5,60 -10,10 -31,26 -5,20 -52,40 0,100 -26,46 -10,5 -20,20 -21,-41 -36,-100 -20,-86 -5,-60 -5,-116 5,-45 26,-76 26,-50 46,-80 36,-81 42,-75 20,-81 -5,-80 0,-141 -40,-201 -10,-46 -21,-40 -15,-35 -31,-46 -15,-40 0,-75 26,-116 15,-81 26,-115 -25,-66 -26,-65 -20,-51 -5,-55 -15,-96 0,-60 -36,-106 -15,-121 -20,-181 10,-91 26,-115 31,-136 0,-40 -5,-66 -10,-50 16,-81 -11,-95 11,-81 26,-95 15,-106 6,-75 10,-46 15,-35 62,-121 46,-90 16,-45 21,-40 20,-61 57,-156 10,-60 0,-55 805,17 980,12 z" />
<path id="Grundy" d="M 9310,-14831 l 35,963 35,962 36,963 35,977 -92,6 -876,24 -62,5 -548,20 -358,10 -968,20 -25,-948 -15,-962 -45,-968 -35,-963 963,-29 962,-35 z" />
<path id="Hamilton" d="M 8714,20789 l 4,483 -1,966 -1,950 4,981 10,468 -955,10 -256,5 -87,10 -637,9 -975,14 1,-477 -30,-982 7,-965 1,-977 1,-477 z" />
<path id="Hancock" d="M -13005,-5711 l -34,972 -33,977 -22,1027 -28,957 -23,1007 -994,-38 -1000,-38 -968,-34 -1010,-38 -974,-39 -124,-6 1,-30 -4,-35 1,-36 1,-30 7,-55 7,-45 6,-45 2,-51 2,-50 -1,-36 16,-44 26,-30 31,-39 11,-14 22,-50 22,-40 6,-30 1,-30 -9,-35 -12,-29 -1,-42 17,-49 17,-46 2,-5 22,-54 21,-71 16,-55 19,-39 17,-31 21,-38 27,-55 17,-44 19,-80 11,-45 18,-60 26,-66 35,-68 37,-52 22,-37 35,-54 36,-35 41,-45 46,-35 60,-50 59,-45 52,-18 39,-12 72,-10 87,-15 71,-11 17,-11 36,-22 48,-34 32,-38 18,-55 3,-60 -13,-66 -21,-50 -44,-90 -28,-66 -12,-66 8,-71 0,-55 21,-60 20,-75 21,-56 35,-87 25,-95 14,-80 8,-55 -1,-86 -13,-56 -36,-112 -25,-53 -26,-41 -35,-46 -47,-45 -37,-35 -50,-25 -41,-9 -29,-26 -39,-37 -24,-47 1,-48 9,-57 27,-59 31,-55 31,-29 66,-56 72,-56 72,-65 72,-57 51,-58 51,-38 57,-48 55,-43 53,-27 87,-35 134,-55 180,-70 84,-31 105,-39 87,-29 72,-15 63,-8 57,-8 57,-2 56,2 29,4 22,3 59,15 58,6 45,-1 61,0 43,-8 19,-11 404,26 964,48 204,1 277,-10 31,0 174,-4 z" />
<path id="Hardin" d="M 8787,28043 l 985,-14 616,0 185,71 25,25 21,25 71,136 36,15 41,10 113,-10 108,61 32,23 151,133 17,20 25,40 21,35 25,36 26,30 5,4 82,66 31,25 30,26 46,113 5,13 5,91 3,66 -21,116 -28,72 -34,57 -69,73 -151,52 -77,3 -116,4 -40,3 -38,6 -29,5 -72,13 -38,7 -15,4 -77,21 -29,7 -221,59 -51,14 -36,5 -81,9 -294,20 -12,1 -162,11 -296,83 -28,11 -61,31 -30,17 -136,97 -106,107 -52,69 -87,116 -86,39 -27,6 -31,-3 -46,-6 -15,-10 -63,-46 -54,-42 -105,-82 -59,-22 -17,-5 -46,5 -26,10 29,-1972 z" />
<path id="Henderson" d="M -11934,-10494 l -17,982 -18,963 -18,972 -17,987 -28,912 -973,-33 -308,-1 -174,4 -31,0 -277,10 -204,-1 -964,-48 -404,-26 55,-31 83,-50 67,-40 51,-40 94,-48 45,-27 46,-35 36,-29 38,-38 33,-44 42,-90 16,-64 9,-80 6,-63 6,-80 -9,-54 -12,-67 -2,-74 7,-40 11,-53 15,-52 11,-48 18,-37 18,-34 31,-45 21,-40 25,-43 17,-44 18,-65 13,-55 14,-45 6,-90 -5,-71 -21,-102 -15,-59 4,-47 18,-55 25,-54 45,-34 34,-40 21,-33 18,-24 36,-35 37,-23 30,-27 45,-40 33,-44 38,-64 38,-78 25,-60 62,-71 67,-81 55,-52 48,-63 77,-93 26,-28 25,-20 26,-15 34,-12 38,-13 36,-20 36,-27 5,-4 41,-24 36,-20 37,-32 25,-31 30,-78 26,-91 22,-89 15,-56 10,-36 5,-35 0,-35 -10,-41 -16,-35 -5,-50 -5,-41 6,-40 15,-30 9,-24 17,-42 15,-60 16,-81 10,-60 8,-67 8,-75 5,-101 5,-110 4,-86 -7,-76 -17,-81 -2,-61 -3,-46 406,24 210,0 61,1 313,6 41,0 z" />
<path id="Henry" d="M -4123,-16141 l 4,741 31,0 -1,242 5,499 -6,484 -17,978 -2,957 -92,0 -12,937 -994,-2 -911,-12 -953,-17 -958,-17 -978,-18 33,-952 33,-993 28,-952 11,-479 92,-10 138,-85 98,-71 36,-40 66,-20 47,-40 25,-116 21,-81 98,-90 76,-25 87,-30 52,10 81,25 62,6 41,-46 36,-35 118,-25 287,-40 128,-25 82,-55 61,-15 26,-50 41,-30 159,-30 35,-30 57,-121 31,-161 5,-66 -10,-61 -36,-65 779,7 76,5 907,7 25,0 z" />
<path id="Iroquois" d="M 15479,-9943 l 10,344 0,25 31,1576 24,1088 1,36 10,473 41,1607 8,659 -101,6 -978,40 -928,15 -989,36 -482,10 -486,10 -88,-15 -978,25 -15,-972 -35,-1129 -46,-962 -35,-962 -30,-967 -20,-655 1106,-60 0,-11 640,-55 323,-15 958,-41 558,-30 425,0 390,-15 558,-46 z" />
<path id="Jackson" d="M 1639,24218 l 252,1 3,965 -1,1017 -6,312 -10,322 -1,80 -5,237 0,181 5,226 -1,86 0,467 -87,0 -329,5 -308,0 -328,4 -985,-1 -565,4 -5,25 0,25 -5,15 -10,16 -16,20 -10,15 -5,25 10,50 -10,20 -16,30 -5,16 -26,45 -20,50 -31,30 -10,15 -31,-5 -26,10 -26,-15 -46,-25 -41,-25 -25,-5 -21,10 -26,-21 -15,-10 -51,0 -21,-10 -5,-40 -25,-15 -31,0 -88,60 2,-6 -3,-45 7,-52 21,-22 24,-10 32,2 43,11 59,22 3,0 59,16 47,-1 33,-20 44,-27 23,-53 2,-6 0,-45 -15,-50 -24,-51 -39,-62 -54,-72 -73,-67 -51,-63 -31,-48 -10,-20 -15,-20 -17,-20 -20,-31 -4,-30 1,-25 6,-30 1,-40 -3,-66 2,-40 -4,-55 7,-51 6,-40 5,-35 10,-30 0,-40 -4,-40 -16,-36 -43,-47 -39,-33 -62,-35 -4,-2 -73,-24 -85,-25 -110,-26 -87,-25 -87,-20 -72,-31 -41,-25 -4,-3 -32,-27 -31,-30 -10,-25 -15,-46 -30,-46 -24,-41 -33,-29 -37,-23 -50,-27 -62,-15 -66,-11 -72,-15 -40,-2 -37,-9 -4,-1 -40,-23 -40,-27 -24,-28 -15,-41 10,-40 18,-47 28,-60 23,-59 6,-50 2,-51 -15,-45 -36,-60 -41,-61 -21,-29 -35,-157 -15,-70 41,-25 36,-26 31,-20 36,-40 62,-176 10,-55 5,-30 31,-71 396,-814 93,-206 965,6 990,17 959,21 z" />
<path id="Jasper" d="M 12234,10525 l 40,1002 30,830 15,176 9,1444 10,166 -267,5 -426,25 -518,10 -574,30 -421,5 -308,0 -220,-10 -888,-36 -4,-649 -9,-1001 -4,-991 -4,-891 851,-5 118,-5 195,0 600,-30 174,-5 821,-35 128,1 154,-11 z" />
<path id="Jefferson" d="M 5803,18387 l -1,966 -2,986 0,468 -1,477 -1,977 -965,-6 -1016,9 -128,5 -569,19 -267,0 -801,-6 -164,-5 12,-966 22,-976 6,-981 12,-936 959,-9 477,-5 498,-24 975,6 z" />
<path id="Jersey" d="M -6762,9639 l 4,971 8,956 4,1007 -103,-6 -862,-7 -153,-5 -28,815 -5,0 -46,-5 -61,-5 -98,0 -60,-12 -62,-24 -73,-25 -53,-35 -59,-41 -71,-49 -109,-62 -67,-49 -81,-42 -70,-39 -77,-22 -65,-23 -70,-17 -94,-8 -71,-8 -51,-10 -41,-10 -46,-4 -22,-4 -24,-3 -15,3 -72,-12 -67,-6 -66,5 -124,30 -30,10 -57,30 -82,45 -56,20 -62,5 -62,-20 -66,-41 -62,-40 -20,-30 -21,-35 -20,-56 -61,-70 -52,-51 -81,-141 -31,-101 5,-55 16,-101 5,-55 -20,-76 -11,-30 -35,-45 -46,-56 -21,-35 -5,-35 10,-35 16,-30 31,-31 5,-40 -10,-35 -26,-55 -25,-76 -21,-81 -5,-40 -30,-91 -41,-85 -5,-50 -10,-61 0,-50 20,-20 10,-5 26,-46 0,-100 52,-40 5,-20 31,-26 10,-10 5,-60 -15,-25 -5,-35 0,-31 10,-30 21,-20 36,-25 15,0 16,-20 5,-30 -5,-35 -21,-26 -25,-25 0,-15 5,-10 10,-25 0,-25 10,-5 21,0 15,15 0,25 10,25 16,15 20,0 11,-15 5,-15 0,-25 -10,-25 -6,-20 6,-25 15,-20 21,-10 10,10 0,20 5,25 15,10 26,-5 31,-20 20,-5 31,-5 51,5 62,15 51,11 133,15 36,5 26,25 25,46 11,35 10,55 -5,46 10,25 20,30 31,10 46,-15 16,-20 10,-45 5,-76 26,-4 333,0 626,17 513,1 1,-554 969,-3 -10,-357 77,0 0,-45 z" />
<path id="Jo_Daviess" d="M -10480,-26464 l 46,-1 5,0 122,6 1586,31 25,3 1611,9 1289,3 258,2 350,7 192,12 141,9 260,0 4,540 25,2892 -480,4 -978,-2 -987,-7 -404,-6 -435,-1 -46,-4 -58,-31 -34,-16 -61,-20 -61,-15 -76,-25 -52,-26 -52,-39 -66,-57 -9,-10 -43,-45 -60,-87 -65,-90 -48,-73 -35,-44 -41,-90 -33,-78 -15,-35 -20,-77 -13,-59 -5,-38 -3,-20 2,-37 1,-21 18,-63 23,-59 26,-54 21,-45 10,-51 6,-65 0,-35 -5,-31 -8,-25 -20,-21 -18,-5 -7,-2 -9,-3 -31,-23 -43,-63 -48,-76 -38,-69 -38,-57 -72,-81 -81,-106 -51,-71 -18,-17 -13,-13 -36,-25 -42,-14 -34,-22 -64,-64 -59,-53 -61,-35 -4,-2 -73,-38 -92,-41 -81,-44 -8,-7 -51,-41 -15,-11 -39,-49 -15,-51 -5,-60 -18,-45 -30,-32 -49,-32 -71,-28 -55,-23 -78,-33 -15,-10 -63,-25 -80,-44 -109,-70 -90,-74 -67,-70 -39,-62 0,-35 -1,-41 8,-75 12,-50 40,-64 z" />
<path id="Johnson" d="M 5826,28081 l 4,986 -1,976 19,961 -87,5 -601,25 -292,5 -734,14 15,20 10,106 5,30 -5,10 -31,10 -46,25 -72,51 -67,45 -46,35 -20,15 -26,0 -15,10 -21,-15 -15,0 -36,10 -21,10 -20,35 -11,15 -15,10 -56,-10 -52,0 -20,-20 -10,-30 -11,-15 -66,-21 -36,-5 -41,-20 -57,-20 -66,-15 -72,-5 -62,0 -46,15 -41,35 -10,15 -52,40 -31,25 -46,35 -46,15 0,-392 1,-80 0,-202 1,-754 -25,-669 16,-277 6,-981 416,-5 344,-4 241,0 847,-4 138,-30 647,-10 z" />
<path id="Kane" d="M 9329,-22512 l 15,964 -210,0 0,10 10,887 15,974 5,419 10,569 14,954 -916,30 -25,0 -952,24 -952,25 -5,-958 6,-963 -4,-979 -15,-953 118,0 -15,-979 982,-4 962,-5 z" />
<path id="Kankakee" d="M 15413,-13098 l 10,348 22,1120 9,478 25,1209 -128,15 -558,46 -390,15 -425,0 -558,30 -958,41 -323,15 -640,55 0,11 -1106,60 -969,50 -10,-368 -20,-413 -35,-574 92,-6 -35,-977 952,-30 984,-40 -26,-963 963,-30 968,-36 26,0 978,-15 921,-31 47,0 z" />
<path id="Kendall" d="M 9188,-17735 l 31,973 50,948 41,983 -958,45 -962,35 -963,29 -30,-988 -25,-973 -20,-509 -10,-328 1,-136 952,-25 952,-24 25,0 z" />
<path id="Knox" d="M -5207,-11305 l 3,973 -6,962 -2,978 -7,982 -22,972 -969,-17 -968,-17 -953,-17 -994,-23 43,-972 28,-952 22,-993 13,-962 12,-978 978,18 958,17 953,17 z" />
<path id="La_Salle" d="M 6372,-16683 l 25,973 30,988 35,963 45,968 15,962 25,948 -953,19 -958,20 -973,24 -1,1003 4,982 -978,24 -5,0 0,-634 -15,-358 -30,-489 51,-30 -9,-479 -958,9 -19,-977 -9,-968 -5,-333 0,-136 -4,-489 -10,-463 -4,-515 -5,-468 -4,-504 -5,-474 6,-494 952,16 358,0 599,-24 1019,-40 865,-9 z" />
<path id="Lake" d="M 9616,-26328 l 22,0 147,-2 496,0 424,-6 574,-6 901,-9 678,-6 37,156 25,181 5,81 -41,227 0,243 -10,192 -10,121 -26,20 -15,15 5,30 -20,46 -16,40 -5,51 5,30 0,30 -10,10 -10,0 -10,-15 -5,-20 -6,-5 -10,5 -5,45 -10,101 -21,86 1,86 -26,60 -5,51 -5,35 10,41 5,50 0,46 -20,35 5,30 0,10 -31,0 15,96 5,126 6,20 25,81 21,71 20,136 31,131 56,162 5,40 56,0 11,25 30,61 26,106 25,45 -35,0 87,172 87,116 66,55 128,227 -72,0 -992,16 -977,-5 0,15 -972,10 -640,15 -15,-974 11,-949 -20,-979 -11,-439 z" />
<path id="Lawrence" d="M 15939,14058 l 10,10 5,10 8,23 5,20 3,18 4,20 0,7 1,20 5,33 15,30 5,7 5,8 14,32 6,29 -8,18 -16,19 -13,21 -6,35 3,11 5,11 19,22 22,39 21,35 43,54 71,87 8,10 33,41 11,17 7,17 11,31 5,34 1,21 -6,12 -9,13 -15,10 -7,3 -21,12 -25,10 -21,10 -14,6 -11,5 -8,7 -4,6 -4,18 10,14 11,7 5,1 11,2 14,0 11,-2 15,-3 26,-5 25,5 16,15 1,30 -2,13 -2,12 -10,30 -7,28 -2,7 -9,31 1,26 0,20 11,20 16,14 11,15 6,25 -10,25 -15,16 -14,21 -19,31 -18,33 -11,20 -10,26 -15,23 -15,20 -15,30 -14,27 -10,20 -6,26 -2,10 -4,29 -1,6 -5,35 -2,12 -3,23 -11,61 -24,62 -32,43 -36,36 -41,40 -62,25 -82,29 -5,1 -65,17 -71,12 -56,17 -66,27 -28,12 -22,11 -31,20 -45,37 -7,12 -14,32 -16,35 -5,30 -10,40 -10,28 -14,21 -20,16 -18,10 -25,6 -17,16 -4,4 -16,20 -3,14 -1,6 0,20 5,25 10,26 0,45 -2,6 -13,25 -10,22 -10,20 1,25 0,20 1,20 -5,21 -9,20 -9,21 -10,35 -4,35 3,14 5,13 17,22 34,13 8,4 13,6 16,8 4,3 15,24 6,30 -3,13 -5,19 -13,10 -23,0 -31,-4 -21,-3 -28,-9 -19,-12 -4,-4 -23,-20 -15,-5 -14,0 -6,2 -11,12 -6,6 -5,16 -2,12 -2,22 0,16 4,27 1,28 0,20 -11,31 -9,19 -18,14 -20,16 -10,5 -4,4 -6,7 -9,13 -6,12 -302,0 -991,10 -984,15 -5,-815 -4,-991 15,0 -14,-976 0,-333 975,-19 513,-6 451,-15 508,-10 446,-15 z" />
<path id="Lee" d="M 3539,-19544 l 5,978 14,973 5,379 9,595 -599,24 -358,0 -952,-16 -6,494 -906,-12 -77,0 -399,-10 -36,0 -471,4 -66,0 -917,-6 -46,-1 -906,4 -36,-5 -9,-953 2,-716 15,5 0,-247 7,-953 6,-636 717,-3 61,-5 440,-10 36,-50 62,-45 87,5 194,40 87,6 36,30 15,20 -5,40 -57,46 -10,15 118,91 20,0 5,-86 36,-30 31,-25 16,-36 337,1 0,146 1720,-18 302,0 491,-9 41,5 445,-15 164,1 z" />
<path id="Livingston" d="M 9359,-10960 l 35,574 20,413 10,368 15,635 41,972 35,962 30,962 25,625 -953,15 -938,24 -415,15 -563,0 -10,-594 -46,0 -25,-962 -973,14 -979,19 -978,20 -15,-952 -4,-524 -5,-459 -4,-982 1,-1003 973,-24 958,-20 953,-19 968,-20 358,-10 548,-20 62,-5 z" />
<path id="Logan" d="M 870,-2147 l 5,176 5,322 969,-14 9,655 14,977 9,961 19,982 5,503 -636,0 -323,-1 -384,-5 -887,-27 -5,-146 -677,-11 6,-302 0,-186 -267,9 -538,0 -8,-1294 -185,5 1,-338 -5,-151 -14,-916 20,-5 -19,-967 1,-166 z" />
<path id="Macon" d="M 5300,843 l 4,982 13,1968 -102,0 4,554 -471,9 4,473 10,494 -933,-6 -897,4 -995,4 0,-488 -19,-977 -10,-131 -118,-55 -102,-56 -103,-81 -46,-15 -113,15 -56,20 -46,36 -26,-1 -36,-15 7,-1162 636,0 -5,-503 -19,-982 984,-14 944,-39 999,-34 z" />
<path id="Macoupin" d="M -2880,6757 l 9,992 3,981 -46,0 14,916 9,1001 8,972 14,966 -87,5 -882,-2 -980,-2 -662,-1 -51,-5 -256,-6 -72,0 -887,-1 -4,-1007 -8,-956 -4,-971 2,-926 -14,-982 -9,-946 1975,-21 969,7 z" />
<path id="Madison" d="M -2366,12585 l 4,700 9,689 313,1 15,483 24,986 -2,956 -959,-7 -974,-6 -965,-17 -764,-17 -175,0 -148,-5 -298,-11 -420,-11 -324,-6 -59,0 -2,-15 -15,-65 -26,-81 -35,-77 -31,-54 -41,-50 -32,-35 -29,-41 -24,-41 -29,-67 -4,-51 -2,-60 7,-65 23,-60 27,-49 22,-29 26,-30 36,-31 26,-20 36,-30 25,-20 30,-30 33,-39 16,-35 17,-39 17,-40 31,-43 23,-30 3,-5 8,-9 23,-26 29,-29 32,-29 42,-23 58,-39 75,-41 93,-85 41,-45 4,-7 22,-40 3,-6 23,-50 12,-55 23,-69 17,-75 9,-55 5,-51 -8,-50 -19,-51 -19,-41 -35,-29 -46,-24 -88,-57 -87,-60 -102,-71 -59,-35 -50,-32 -45,-24 -51,-24 -40,-21 -42,-20 -59,-34 -40,-42 -45,-42 -51,-44 -61,-55 -62,-51 -106,-60 -50,-32 -44,-19 -56,-30 -46,-15 -72,-14 -67,-7 28,-815 153,5 862,7 103,6 887,1 72,0 256,6 51,5 662,1 980,2 882,2 87,-5 z" />
<path id="Marion" d="M 5823,14497 l -6,982 -7,1454 -6,493 -1,961 -954,-1 -975,-6 -498,24 -477,5 -959,9 0,-332 11,-634 27,-981 -4,-961 2,-976 374,5 559,1 954,-9 991,-9 z" />
<path id="Marshall" d="M -833,-11277 l 1173,2 -26,40 -20,76 -11,55 -5,101 -21,60 -25,51 -77,70 25,25 52,15 502,-4 988,-4 958,-9 9,479 -51,30 30,489 15,358 0,634 -257,0 -384,-5 -71,0 -226,4 -983,29 -533,25 -441,4 -671,-1 128,-141 21,-80 5,-81 52,-126 -16,-85 26,-71 -671,9 -958,-6 2,-973 6,-972 z" />
<path id="Mason" d="M -2015,-2086 l -1,166 19,967 -20,5 14,916 5,151 -31,-5 -46,-70 -26,-36 -61,-55 -5,-40 -46,-21 -21,-40 -20,-75 -46,-1 -46,-30 -41,-15 -31,10 -36,-10 -31,5 -20,-10 -36,-31 -26,0 -10,26 -15,10 -26,10 -31,15 -25,-5 -5,30 -31,-5 -11,5 -5,25 -31,65 -15,25 -31,10 -56,-15 -21,5 -35,-15 -62,20 -20,0 -41,-5 -26,-5 -21,30 -36,35 -46,51 -20,5 -11,20 -41,5 -20,15 -31,20 -31,0 -30,-31 -36,0 -26,5 -46,-25 -26,5 -25,15 -16,0 -25,-15 -26,5 -36,20 -20,20 -16,10 -82,0 -20,10 -21,20 -10,0 -15,-5 -26,-25 -10,0 -31,20 -21,10 -15,-5 -20,-20 -21,5 -20,0 -11,-10 -15,-15 -15,-31 -11,-15 -10,0 -20,25 -26,5 -31,-5 -30,-25 -21,-5 -41,20 -36,-10 -36,-15 -10,-31 -31,-15 -30,15 -36,-5 -16,-5 -15,-5 -10,-5 -5,15 10,35 -5,15 -21,0 -20,-15 -16,0 -31,15 -25,15 -16,-15 -51,-90 -25,5 -11,15 16,25 -21,15 -20,0 -46,-30 -16,-41 -30,20 -21,-30 -77,10 -20,15 -6,35 -25,0 -16,25 -25,5 -10,-15 -16,-25 -20,15 -26,-30 -41,5 -5,-20 0,-21 -26,-40 -30,-10 -41,35 -16,35 5,36 -10,20 -10,45 -11,25 -51,-30 -25,15 -6,40 -20,25 0,36 10,15 26,10 20,0 -5,25 -41,5 -41,30 -31,15 0,-25 -15,-10 -16,-5 -10,15 0,101 -5,5 -31,-66 -10,-25 -10,25 -26,76 -26,10 -61,-51 -57,-10 -30,10 -26,-35 -5,-36 -15,15 -6,61 -20,15 -5,-45 -16,-26 -35,15 -31,31 -16,10 -10,65 -26,-10 -25,-5 -26,5 -20,-15 -11,10 5,45 -41,10 -20,30 10,20 -36,0 -31,20 -10,36 -21,50 -41,-25 -15,-15 -10,20 -5,30 -26,0 -26,20 -15,-25 -26,15 -20,-20 -10,-11 -36,5 -21,5 -46,0 -15,10 -16,25 -35,5 -16,0 -10,5 -21,36 -41,75 -5,45 -16,0 -20,-40 -36,-10 -66,-10 -21,15 -5,30 -16,25 -20,-15 -26,-5 -15,10 -10,15 -16,20 -20,-5 -21,-20 -10,-5 -15,10 -16,0 -20,-25 -62,-26 -20,0 0,40 -62,61 -5,25 -15,5 -26,0 -26,5 -15,-5 -15,-51 -11,0 -25,20 -10,-10 0,-20 -31,25 -57,20 -20,5 -16,35 -20,-40 -15,-40 -52,-15 -20,15 -77,0 -41,9 -62,-15 -20,-25 -5,-35 -31,10 -25,-10 -21,15 -21,55 -35,-5 -36,-5 -16,5 -30,25 5,-40 0,-36 -31,-25 -31,0 5,-25 16,-45 -31,-31 -25,-35 -52,-10 -10,-35 11,-20 30,-10 -25,-46 0,-55 -31,-40 -10,-46 -31,-50 -15,-36 -10,-30 0,-60 -20,-15 -41,-5 -31,-16 -10,-15 -41,0 -21,-5 -20,-15 -41,45 -36,5 -26,-15 -31,-25 -10,-36 5,0 36,-35 93,-85 20,-15 46,-10 41,-20 41,-5 62,5 67,-15 56,-25 51,-35 93,-30 51,-30 36,-20 20,-10 36,0 93,5 102,20 82,31 87,15 62,-5 46,-15 41,-35 31,-45 5,-66 0,-90 -5,-66 16,-50 15,-30 31,-40 36,-31 56,-20 41,-20 26,-20 36,-90 26,-46 41,-45 46,-40 82,-40 174,-40 41,-35 36,-55 36,-101 52,-141 20,-40 26,-35 36,-25 36,-26 82,-90 139,-201 31,-96 -5,-65 -10,-51 10,-45 57,-50 41,-35 30,-46 16,-55 5,-70 -10,-71 0,-45 10,-30 6,-11 10,-40 31,-90 26,-51 51,-60 56,-25 46,-10 88,0 30,-20 26,-20 10,-25 129,-86 56,-15 36,-50 21,-20 107,-141 118,-120 57,-51 51,-30 21,-15 51,-25 67,-25 1752,18 8,1295 z" />
<path id="Massac" d="M 5848,31004 l 31,21 343,397 179,182 215,216 169,192 241,246 769,750 0,31 14,987 -31,9 -27,4 -182,12 -26,-3 -93,-12 -92,-24 -26,-8 -46,-22 -45,-23 -110,-92 -12,-9 -310,-262 -10,-7 -98,-78 -42,-25 -49,-26 -115,-45 -148,-40 -184,-76 -67,-45 -139,-44 -50,-7 -33,-4 -42,2 -137,4 -60,-23 -11,-6 -231,-195 -5,-4 -313,-230 -250,-109 -201,-85 -143,-56 -252,-116 -118,-50 -39,-16 -63,-24 -108,-31 0,-211 -4,-664 46,-35 67,-45 72,-51 46,-25 31,-10 5,-10 -5,-30 -10,-106 -15,-20 734,-14 292,-5 601,-25 z" />
<path id="McDonough" d="M -12032,-5678 l 984,68 948,22 958,33 -18,977 -17,982 -23,977 -17,967 -964,-38 -973,-33 -482,-1 -492,-21 -994,-33 28,-957 22,-1027 33,-977 34,-972 z" />
<path id="McHenry" d="M 8757,-26315 l 859,-13 0,465 11,439 20,979 -11,949 15,974 -322,10 -957,15 -962,5 -982,4 -967,-1 -4,-948 6,-969 -15,-974 -15,-893 265,-9 370,-11 1020,-5 780,-5 z" />
<path id="McLean" d="M 3690,-6898 l 978,-20 979,-19 973,-14 25,962 46,0 10,594 563,0 415,-15 5,494 19,1944 9,977 -5,312 -979,10 -2932,7 -451,-10 -528,4 -968,9 -969,14 -5,-322 -5,-176 -4,-791 -14,-972 -19,-962 0,-252 1143,-33 0,-167 267,-9 0,-141 482,-25 -10,-398 512,-10 -24,-987 z" />
<path id="Menard" d="M -1998,119 l -1,338 185,-5 8,1294 -1020,-2 -1,408 -41,0 10,251 -569,-1 -11,151 -1440,-7 -487,-6 1,-640 -5,-256 17,-579 0,-131 -4,-690 31,-15 41,-30 41,-5 5,-25 -20,0 -26,-10 -10,-15 0,-36 20,-25 6,-40 25,-15 51,30 11,-25 10,-45 10,-20 -5,-36 16,-35 41,-35 30,10 26,40 0,21 5,20 41,-5 26,30 20,-15 16,25 10,15 25,-5 16,-25 25,0 6,-35 20,-15 77,-10 21,30 30,-20 16,41 46,30 20,0 21,-15 -16,-25 11,-15 25,-5 51,90 16,15 25,-15 31,-15 16,0 20,15 21,0 5,-15 -10,-35 5,-15 10,5 15,5 16,5 36,5 30,-15 31,15 10,31 36,15 36,10 41,-20 21,5 30,25 31,5 26,-5 20,-25 10,0 11,15 15,31 15,15 11,10 20,0 21,-5 20,20 15,5 21,-10 31,-20 10,0 26,25 15,5 10,0 21,-20 20,-10 82,0 16,-10 20,-20 36,-20 26,-5 25,15 16,0 25,-15 26,-5 46,25 26,-5 36,0 30,31 31,0 31,-20 20,-15 41,-5 11,-20 20,-5 46,-51 36,-35 21,-30 26,5 41,5 20,0 62,-20 35,15 21,-5 56,15 31,-10 15,-25 31,-65 5,-25 11,-5 31,5 5,-30 25,5 31,-15 26,-10 15,-10 10,-26 26,0 36,31 20,10 31,-5 36,10 31,-10 41,15 46,30 46,1 20,75 21,40 46,21 5,40 61,55 26,36 46,70 z" />
<path id="Mercer" d="M -14268,-13475 l 483,17 968,28 957,53 963,23 993,23 963,17 -33,993 -33,952 -12,978 -374,14 -548,-21 -999,-53 -994,-43 -332,-16 -41,0 -313,-6 -61,-1 -210,0 -406,-24 1,-40 5,-38 5,-62 6,-64 0,-50 -9,-43 -16,-43 -31,-60 -41,-61 -50,-79 -27,-67 -35,-61 -51,-101 -46,-91 -29,-57 -27,-44 -50,-55 -57,-31 -46,-15 -20,4 -31,6 -46,16 -4,0 -42,4 -52,-1 -65,-14 -50,-23 -33,-18 -31,-41 -14,-40 -8,-35 -9,-26 -14,-40 -31,-30 -31,-21 -30,-15 -37,-18 -4,-2 -36,-36 -41,-60 -15,-51 -9,-36 -7,-66 -20,-49 -20,-50 -30,-55 -41,-51 -46,-61 -21,-30 -15,-41 0,-50 11,-45 19,-34 32,-44 31,-48 26,-71 10,-35 21,-65 20,-46 31,-50 46,-70 24,-40 56,-88 22,-44 12,-40 5,-65 15,-61 -5,-60 3,-21 z" />
<path id="Monroe" d="M -7836,17864 l 1028,1058 5,156 0,15 942,958 0,181 379,6 534,6 56,5 113,0 16,45 20,26 15,15 6,15 5,15 0,55 5,20 15,41 0,35 -26,45 -31,25 -30,10 -26,-5 -21,-35 16,-20 26,-5 10,-20 -10,-25 -26,-6 -36,10 -21,76 0,30 16,60 10,56 41,60 0,25 -5,56 15,35 41,40 5,26 -5,65 25,5 31,25 46,15 10,26 -10,20 -31,5 -5,20 5,25 16,50 -226,-5 -965,-17 -6,966 -1497,506 -78,-63 -80,-63 -59,-52 -80,-93 -79,-114 -4,-5 -9,-17 -49,-88 -63,-120 -34,-67 -31,-65 -30,-50 -41,-54 -41,-42 -57,-40 -57,-29 -51,-22 -56,-20 -35,-20 -45,-20 -32,-26 -62,-65 -36,-51 -34,-44 -34,-47 -34,-55 -39,-68 -22,-63 -35,-75 -32,-102 -18,-76 -17,-69 -16,-70 -15,-81 -15,-75 -26,-101 0,-111 6,-146 -1,-64 1,-51 5,-71 0,-50 11,-55 13,-49 23,-60 22,-55 28,-54 17,-50 17,-60 12,-55 2,-55 26,-55 25,-60 36,-61 29,-47 38,-48 47,-50 64,-58 64,-83 41,-45 44,-33 43,-37 57,-66 36,-75 42,-83 28,-74 29,-100 20,-135 10,-71 10,-80 16,-81 15,-55 16,-65 31,-81 33,-107 z" />
<path id="Montgomery" d="M -1434,6754 l -6,212 10,785 8,991 477,-4 949,-4 980,-3 953,1 9,966 5,478 -657,9 -313,-5 0,478 4,966 -1,669 -2888,-14 -6,307 -112,0 -344,-1 -503,0 -14,-966 -8,-972 -9,-1001 -14,-916 46,0 -3,-981 -9,-992 964,2 z" />
<path id="Morgan" d="M -5366,2872 l -1,972 77,5 3,730 398,1430 92,292 15,55 -26,408 -1975,21 -943,-12 -318,-6 12,-956 1,-337 -298,-1 -4,-312 -308,-16 12,-966 -948,-12 11,-398 -200,-5 -769,-7 -31,0 21,-56 36,-55 61,-70 72,-106 26,-60 15,-30 42,-35 15,-41 -10,-45 -31,-61 -46,-70 -10,-20 -25,-61 -16,-80 -15,-71 -5,-55 26,-51 179,1 82,5 410,6 969,23 979,22 282,0 687,7 964,7 z" />
<path id="Moultrie" d="M 7650,3764 l 10,1052 4,489 10,483 9,966 0,15 15,816 -277,5 -708,-11 -5,-322 -143,0 -10,-151 -164,-5 5,-161 -169,0 0,-106 -5,-45 -462,4 -195,0 0,-50 1,-599 -195,0 -590,-6 -4,-327 -15,-488 -10,-494 -4,-473 471,-9 -4,-554 102,0 370,-5 92,0 887,-14 113,0 z" />
<path id="Ogle" d="M -268,-22994 l 972,-19 895,-19 10,605 956,-19 962,-14 9,984 -35,0 29,984 9,948 -332,15 -164,-1 -445,15 -41,-5 -491,9 -302,0 -1720,18 0,-146 -337,-1 -16,36 -31,25 -36,30 -5,86 -20,0 -118,-91 10,-15 57,-46 5,-40 -15,-20 -36,-30 -87,-6 -194,-40 -87,-5 -62,45 -36,50 -440,10 -61,5 -717,3 1,-312 -466,-6 -4,-399 6,-640 6,-590 1,-394 -24,-984 491,-4 373,-14 588,-4 z" />
<path id="Peoria" d="M -2296,-9334 l 958,6 671,-9 -26,71 16,85 -52,126 -5,81 -21,80 -128,141 -62,86 -41,60 -20,86 -21,75 -36,96 -25,70 -26,56 -46,50 -36,50 -62,76 -82,201 -26,56 -5,20 -144,216 -56,86 -21,45 -10,45 -11,76 -15,131 36,156 5,76 35,116 21,85 5,81 10,55 10,91 -47,111 -30,75 -26,20 -103,66 -128,95 -138,116 -108,141 -16,60 10,66 -5,75 -77,111 -46,70 -62,61 -30,50 -52,70 -61,96 -36,60 -16,61 0,60 26,51 15,55 -16,60 -36,56 -66,85 -123,91 -57,-66 -46,-35 -46,-5 -77,40 -82,25 -82,10 -46,20 -62,20 -123,0 -71,-16 -57,-5 -148,60 -118,36 -144,70 -51,35 -67,50 -215,116 -108,65 17,-740 -41,-6 11,-493 -979,-22 28,-947 22,-972 7,-982 2,-978 988,22 963,12 z" />
<path id="Perry" d="M 1900,21311 l -12,966 164,5 -10,45 0,30 15,51 0,30 -5,15 -15,15 -21,5 -10,15 -5,25 0,15 10,5 15,0 16,10 30,16 36,15 36,10 26,20 -5,20 -16,20 0,35 5,26 -15,30 -16,40 0,25 11,45 10,15 5,21 -10,15 -21,0 10,25 -10,25 26,10 5,10 -21,15 11,30 -36,10 -11,10 0,21 -25,5 -16,10 -20,-21 -11,26 11,55 -6,20 -20,5 -26,-5 -15,10 20,30 5,30 -20,36 0,30 -36,30 5,30 51,91 0,30 -20,30 -11,45 -20,26 5,20 5,30 0,25 -5,55 -6,41 -5,40 -5,35 -10,35 -21,15 -15,25 -21,41 -10,65 -10,25 -31,35 -16,31 -5,65 -26,10 -46,0 -51,35 -26,25 -739,4 -959,-21 -990,-17 -965,-6 12,-991 6,-981 7,-971 995,42 960,21 974,6 z" />
<path id="Piatt" d="M 7707,-1683 l -1,635 -10,5 4,906 4,982 10,961 9,992 4,966 -77,0 -871,10 -113,0 -887,14 -92,0 -370,5 -13,-1968 -4,-982 -4,-483 487,-5 -5,-498 950,-1530 z" />
<path id="Pike" d="M -10319,3198 l 31,61 10,45 -15,41 -42,35 -15,30 -26,60 -72,106 -61,70 -36,55 -36,96 -31,55 -6,156 -46,91 -31,75 -67,141 -67,110 -31,51 -66,70 -36,60 -21,81 5,60 0,46 25,75 31,76 71,136 46,65 51,106 21,51 15,45 21,35 25,66 15,75 0,50 31,111 25,81 61,136 82,237 31,95 40,162 -5,75 -31,116 -26,65 5,71 0,55 -10,60 -57,156 -20,61 -21,40 -16,45 -46,90 -62,121 -15,35 -10,46 -6,75 -15,106 -26,95 -11,81 11,95 -16,81 10,50 5,66 0,40 -615,-22 -995,-48 -990,-27 -195,-6 -9,-27 -15,-31 -27,-23 -38,-25 -45,-11 -60,-24 -31,-15 -36,-21 -45,-22 -37,-18 -25,-15 -36,-11 -44,-16 -38,-19 -52,-34 -46,-41 -55,-28 -74,-68 -101,-87 -63,-70 -54,-67 -52,-54 -25,-41 -21,-40 -15,-45 -8,-41 -3,-55 -9,-51 -15,-40 -33,-52 -39,-59 -49,-75 -48,-92 -46,-130 -15,-40 -44,-50 -50,-42 -60,-33 -71,-2 -129,-15 -5,0 -87,-16 -55,-29 -50,-52 -38,-50 -39,-78 -18,-71 -9,-27 -5,-24 0,-52 -5,-40 -6,-50 -13,-50 -19,-41 -19,-36 -11,-9 -15,-13 -70,-52 -55,-32 -53,-25 -46,-20 -42,-20 -45,-26 -54,-42 -47,-33 -44,-42 -45,-49 -29,-44 -27,-42 -27,-45 -24,-41 -36,-45 -31,-36 -33,-52 -33,-49 -33,-46 -80,-60 -61,-45 -48,-27 -37,-27 -28,-32 -20,-35 -10,-11 -30,-30 -67,-55 -72,-56 -56,-52 -31,-29 -49,-39 -44,-52 -50,-50 -46,-66 -37,-40 -10,-47 -12,-49 -4,-46 -3,-44 10,-51 15,-40 15,-35 4,-26 868,23 995,29 1015,28 964,23 28,-972 138,36 861,27 452,17 538,6 z" />
<path id="Pope" d="M 8459,28048 l -29,1972 -20,5 -36,15 -62,32 -141,57 -116,102 -23,19 -78,104 -47,93 -11,151 -9,117 -10,38 -34,133 -4,17 -112,286 -63,139 -36,80 -13,39 -27,96 -14,78 -3,29 5,45 10,66 9,20 52,76 52,49 93,87 111,192 43,73 39,27 6,4 51,40 17,19 80,104 77,150 65,181 88,243 4,106 -25,132 -99,236 -3,7 -80,155 -33,56 -21,35 -98,134 -77,72 -72,45 -56,22 -14,-987 0,-31 -769,-750 -241,-246 -169,-192 -215,-216 -179,-182 -343,-397 -31,-21 -19,-961 1,-976 -4,-986 493,1 487,-5 z" />
<path id="Pulaski" d="M 2876,31102 l 0,392 46,-15 46,-35 31,-25 52,-40 10,-15 41,-35 46,-15 62,0 72,5 66,15 57,20 41,20 36,5 66,21 11,15 10,30 20,20 52,0 56,10 15,-10 11,-15 20,-35 21,-10 36,-10 15,0 21,15 15,-10 26,0 20,-15 4,664 0,211 -59,-13 -227,-25 -246,15 -160,56 -16,6 -240,171 -403,402 -69,105 -107,213 -113,225 -14,21 -28,35 -154,168 -13,14 -254,276 -3,5 -31,55 -20,35 -47,-35 -10,10 -21,-5 -10,-31 -25,-30 -57,-65 -46,-46 -10,-35 -15,-15 -21,5 -15,5 -21,15 -15,0 -26,-5 -41,-10 -56,-10 -21,-10 -15,-10 -21,-5 -15,0 -26,10 -31,0 -20,-11 -16,-20 -10,-15 -10,-10 -21,0 -15,-5 -5,-30 0,-10 -31,0 -20,5 -16,-30 -20,-21 -41,0 -36,-45 -26,-25 21,-25 0,-15 5,-20 -31,-26 -20,-25 -21,-50 0,-35 16,-56 31,-80 41,-40 15,-36 5,-30 0,-40 1,-55 -11,-21 -25,15 -31,5 -10,-25 5,-25 25,-20 6,-35 -26,-30 5,-25 16,-16 -5,-30 -16,-5 -10,-15 10,-20 26,-30 31,-10 20,-15 5,-15 11,-10 10,-10 0,-16 -5,-20 0,-30 -5,-10 -26,-10 -20,-10 -5,-10 0,-20 5,-15 -11,-21 6,-55 0,-10 -11,-5 -10,-20 -5,-61 -36,-35 11,-55 20,-15 26,-15 25,5 16,-30 26,-15 0,-56 5,-25 5,-40 31,-55 0,-61 10,-30 0,-30 26,-35 10,-41 36,-25 21,-50 15,-5 26,15 26,-10 51,-80 26,-15 25,10 31,-15 46,5 21,-30 21,-61 0,-45 10,-45 -10,-76 5,-50 0,-66 -15,-25 -10,-20 -6,-35 -56,-40 -36,-41 -15,-10 -21,-15 -31,-5 -20,-10 -21,-5 -56,20 -21,-10 -41,-5 -25,-25 836,6 365,0 118,15 266,16 z" />
<path id="Putnam" d="M -833,-11277 l -4,-942 620,1 312,0 36,-171 26,-86 26,-71 56,-161 6,-45 -11,-40 -15,-41 0,-75 16,-25 35,-31 185,-45 251,-100 62,-61 15,-15 46,-15 26,0 122,16 210,75 144,11 97,15 133,25 128,-10 5,333 9,968 19,977 -988,4 -502,4 -52,-15 -25,-25 77,-70 25,-51 21,-60 5,-101 11,-55 20,-76 26,-40 z" />
<path id="Randolph" d="M -1989,21235 l -7,971 -6,981 -12,991 -93,206 -396,814 -31,71 -5,30 -10,55 -62,176 -36,40 -31,20 -36,26 -41,25 15,70 35,157 -320,-200 -114,-104 -145,-186 -143,0 -79,-58 -148,-36 -41,41 -84,-84 -36,-112 19,-45 3,-5 -1,-42 -4,-41 -32,-14 -93,-61 -6,-7 -67,-45 -107,-81 -36,-29 -41,-26 -31,-1 -5,0 -30,5 -27,13 -42,34 -35,29 -49,34 -43,49 -42,49 -43,48 -48,44 -68,42 -51,20 -87,15 -68,-5 -92,-23 -80,-22 -52,-36 -54,-54 -49,-87 -43,-77 -15,-32 -104,-192 -9,-109 109,-69 20,-76 120,6 117,-71 76,-82 0,-67 -89,7 -45,-128 -126,47 -249,57 -109,-14 -36,-23 -52,-46 -51,-38 -67,-70 -41,-51 -26,-50 -35,-41 -46,-45 -26,-25 -42,-50 -35,-35 -46,-41 -59,-24 -94,-36 -83,-26 -102,-53 -92,-63 -62,-55 -41,-71 -27,-60 -14,-46 -14,-55 -21,-50 -36,-51 -46,-24 -56,-27 -62,-19 -116,-27 -61,-22 -81,-38 -65,-32 -87,-48 -109,-80 -7,-5 1497,-506 6,-966 965,17 226,5 723,17 980,6 z" />
<path id="Richland" d="M 12671,14138 l 0,333 14,976 -15,0 4,991 5,815 -375,5 -1678,40 -4,-332 -144,-5 -795,4 5,-40 -5,-25 -67,-40 -25,-21 -21,-15 -15,-10 -41,0 -11,-5 1,-45 0,-15 -21,-10 -5,0 -21,20 -10,0 -5,-15 -10,-5 -21,15 -15,0 -5,-25 5,-36 5,-10 -5,-10 -16,-5 -20,10 -10,0 -16,-20 -5,-15 11,-15 -11,-15 -30,-20 -16,-15 5,-41 26,-40 36,-20 5,-30 16,-30 20,-25 72,-41 15,-25 0,-55 16,-25 -5,-25 -16,-21 -36,-25 1,-55 -26,-35 -21,-31 11,-40 0,-60 -31,-35 26,-21 -5,-30 -11,-15 -5,-40 0,-25 5,-10 16,-10 0,-10 -15,-16 -6,-15 21,-35 0,-15 -31,-15 -5,-10 0,-15 16,-5 10,-5 10,-10 -5,-10 -15,-10 10,-31 5,-10 -10,-5 -11,-10 11,-25 5,-10 246,5 -29,-1303 220,10 308,0 421,-5 574,-30 518,-10 426,-25 267,-5 z" />
<path id="Rock_Island" d="M -7297,-18360 l -5,74 -16,30 -5,21 -10,90 56,0 -21,46 -36,70 15,101 62,46 15,40 -21,86 36,40 -41,96 -5,101 -46,35 20,35 56,41 77,70 0,61 -82,20 -11,35 144,91 35,41 46,40 149,31 112,96 72,76 71,15 -5,35 -87,45 26,16 51,30 20,66 -16,141 -20,35 -21,116 -5,75 -16,26 -51,25 -82,15 -26,40 36,65 10,61 -5,66 -31,161 -57,121 -35,30 -159,30 -41,30 -26,50 -61,15 -82,55 -128,25 -287,40 -118,25 -36,35 -41,46 -62,-6 -81,-25 -52,-10 -87,30 -76,25 -98,90 -21,81 -25,116 -47,40 -66,20 -36,40 -98,71 -138,85 -92,10 -11,479 -28,952 -963,-17 -993,-23 -963,-23 -957,-53 -968,-28 -483,-17 -2,-40 9,-111 16,-95 15,-81 28,-73 28,-59 32,-49 29,-39 17,-32 5,-50 4,-49 3,-60 2,-45 12,-40 12,-45 23,-39 27,-29 42,-24 40,-16 57,-15 110,-20 54,-15 56,-15 41,-15 41,-12 46,-3 52,2 45,12 40,17 62,25 54,21 59,10 104,17 31,1 36,-8 73,-27 42,-13 78,-30 89,-39 54,-36 56,-34 59,-38 42,-34 49,-29 4,-3 47,-24 56,-13 83,-5 4,0 78,3 51,-3 62,3 66,8 72,5 4,0 67,5 5,0 25,5 77,15 66,9 77,8 61,8 62,-3 4,-1 57,1 67,-9 51,-7 47,-9 61,-5 73,-9 72,-17 50,-14 49,-21 63,-14 5,0 67,5 46,1 36,-19 36,-22 49,-44 54,-54 53,-48 90,-70 67,-50 34,-23 17,-27 18,-37 11,-45 7,-44 16,-25 43,-44 44,-27 41,-20 41,-13 51,-7 42,-9 53,-28 47,-28 68,-32 46,-3 12,0 34,2 46,8 46,16 41,15 72,20 79,14 117,15 80,2 62,-10 49,-14 53,-31 52,-35 49,-48 38,-48 41,-55 46,-53 31,-38 46,-35 34,-23 33,-57 36,-56 41,-44 61,-41 93,-45 86,-20 67,-10 63,-19 52,-23 49,-23 46,-39 41,-37 19,-34 7,-57 -1,-71 -6,-106 -1,-96 -8,-147 7,-84 -5,-55 17,-56 19,-50 11,-65 5,-61 8,-35 7,-30 19,-49 33,-49 59,-53 43,-41 11,-45 8,-58 0,-96 -17,-76 -6,-78 0,-65 14,-44 27,-47 45,-65 65,-83 59,-63 36,-31 36,-30 62,-40 14,-6 47,-24 98,-50 85,-53 z" />
<path id="Saint_Clair" d="M -2962,16393 l -6,971 -2,981 9,685 0,281 -2,976 -1,946 -980,-6 -723,-17 -16,-50 -5,-25 5,-20 31,-5 10,-20 -10,-26 -46,-15 -31,-25 -25,-5 5,-65 -5,-26 -41,-40 -15,-35 5,-56 0,-25 -41,-60 -10,-56 -16,-60 0,-30 21,-76 36,-10 26,6 10,25 -10,20 -26,5 -16,20 21,35 26,5 30,-10 31,-25 26,-45 0,-35 -15,-41 -5,-20 0,-55 -5,-15 -6,-15 -15,-15 -20,-26 -16,-45 -113,0 -56,-5 -534,-6 -379,-6 0,-181 -942,-958 0,-15 -5,-156 -1028,-1058 3,-12 21,-54 25,-64 2,-6 52,-94 27,-59 28,-48 41,-71 53,-77 29,-38 33,-47 39,-44 67,-53 113,-92 57,-60 54,-82 38,-89 31,-61 21,-65 16,-49 13,-65 2,-62 5,-91 -14,-89 -9,-72 59,0 324,6 420,11 298,11 148,5 175,0 764,17 965,17 z" />
<path id="Saline" d="M 8730,24637 l 14,498 4,961 25,825 5,161 9,961 -328,5 -1653,29 -487,5 -493,-1 -4,-805 0,-151 7,-971 -9,-986 0,-483 975,-14 637,-9 87,-10 256,-5 z" />
<path id="Sangamon" d="M 1269,2415 l -7,1162 -61,-5 -51,-5 -21,-30 -15,-30 -41,-36 -31,-15 -31,-25 -41,20 -36,76 -36,125 -51,-15 -82,81 -98,10 -25,20 5,70 -31,25 -51,-10 -26,20 26,61 0,45 -36,40 -62,30 -154,0 0,20 -20,25 41,21 -6,15 -56,5 -61,-11 -57,-35 -102,-10 -6,55 -10,71 -20,5 -21,-25 -5,-16 -123,76 -41,25 -10,55 -31,20 -67,10 -87,0 -56,-35 -41,-45 10,-91 -10,-20 -16,-10 -25,0 -1,156 10,543 0,161 -467,0 -5,221 4,267 -482,-1 5,317 -1,775 10,181 -482,5 -964,-2 -959,14 -969,-7 26,-408 -15,-55 -92,-292 -398,-1430 -3,-730 -77,-5 1,-972 1,-332 487,6 1440,7 11,-151 569,1 -10,-251 41,0 1,-408 1020,2 538,0 267,-9 0,186 -6,302 677,11 5,146 887,27 384,5 z" />
<path id="Schuyler" d="M -9217,-1652 l -17,966 963,33 651,21 379,37 134,15 -16,50 5,66 0,90 -5,66 -31,45 -41,35 -46,15 -62,5 -87,-15 -82,-31 -102,-20 -93,-5 -36,0 -20,10 -36,20 -51,30 -93,30 -51,35 -56,25 -67,15 -62,-5 -41,5 -41,20 -46,10 -20,15 -93,85 -36,35 -5,0 -5,5 -31,0 -36,-5 -41,0 -25,20 -62,55 -36,56 -26,75 -15,46 -62,95 -5,20 0,46 5,35 -10,45 -93,80 -56,30 -87,46 -42,25 -15,20 -10,85 5,36 -6,70 -15,65 -16,81 -10,65 -10,31 -47,35 -112,55 -421,160 -46,30 -31,20 -21,35 -5,61 -51,-11 -46,-35 -21,0 10,50 -102,0 -36,20 -51,0 -57,-25 -128,-6 -72,35 -102,25 -57,-20 -51,-10 -25,-56 5,-85 46,-65 -10,-31 -82,-70 -41,-61 0,-55 72,5 26,-30 -10,-66 -31,-30 -56,50 -57,0 -31,15 -30,0 -36,-30 -92,-41 -62,-35 -5,-61 -25,-20 -41,-45 -67,10 -31,-15 -20,-46 21,-85 0,-26 -5,-75 25,-106 -10,-25 -30,-15 -57,15 -82,5 -56,-36 -67,-90 6,-26 61,-40 21,-35 10,-55 -846,-38 -481,-6 -508,3 28,-971 23,-1007 994,33 492,21 482,1 973,33 z" />
<path id="Scott" d="M -10566,3757 l 31,0 769,7 200,5 -11,398 948,12 -12,966 308,16 4,312 298,1 -1,337 -12,956 -615,-16 -980,-12 -805,-17 -5,-71 26,-65 31,-116 5,-75 -40,-162 -31,-95 -82,-237 -61,-136 -25,-81 -31,-111 0,-50 -15,-75 -25,-66 -21,-35 -15,-45 -21,-51 -51,-106 -46,-65 -71,-136 -31,-76 -25,-75 0,-46 -5,-60 21,-81 36,-60 66,-70 31,-51 67,-110 67,-141 31,-75 46,-91 6,-156 31,-55 z" />
<path id="Shelby" d="M 4762,5323 l 15,488 4,327 590,6 195,0 -1,599 0,50 195,0 462,-4 5,45 0,106 169,0 -5,161 164,5 10,151 143,0 5,322 708,11 277,-5 9,805 5,322 14,966 15,488 -405,5 -580,-10 -425,-1 -534,5 -969,9 -1892,8 -985,-6 -5,-478 -9,-966 1005,11 -3,-986 11,-972 -14,-976 -4,-488 897,-4 z" />
<path id="Stark" d="M -4109,-12240 l 850,12 118,0 855,11 -2,938 -6,972 -2,973 -963,-2 -963,-12 -988,-22 6,-962 -3,-973 994,2 12,-937 z" />
<path id="Stephenson" d="M -3874,-26379 l 287,0 1002,7 919,23 666,15 284,7 417,9 15,437 9,419 5,126 -1,414 -6,989 9,939 -942,4 -588,4 -373,14 -491,4 -466,10 -957,-12 0,15 -481,4 -25,-2892 -4,-540 421,3 z" />
<path id="Tazewell" d="M -1552,-6824 l 405,5 953,-8 497,-10 -1,353 24,1133 497,-9 10,236 0,252 19,962 14,972 4,791 -2885,61 -949,19 -8,-1295 -1752,-18 41,-20 61,-45 52,-71 15,-50 16,-65 36,-51 87,-125 10,-41 11,-85 41,-217 21,-35 25,-25 31,-20 108,-65 215,-116 67,-50 51,-35 144,-70 118,-36 148,-60 57,5 71,16 123,0 62,-20 46,-20 82,-10 82,-25 77,-40 46,5 46,35 57,66 123,-91 66,-85 36,-56 16,-60 -15,-55 -26,-51 0,-60 16,-61 36,-60 61,-96 52,-70 30,-50 62,-61 46,-70 77,-111 5,-75 -10,-66 16,-60 108,-141 138,-116 128,-95 103,-66 26,-20 30,-75 47,-111 -10,-91 -10,-55 -5,-81 z" />
<path id="Union" d="M 2875,28139 l -6,981 -16,277 25,669 -1,754 0,202 -1,80 -236,-10 -266,-16 -118,-15 -365,0 -836,-6 -205,-1 -981,-1 -878,0 37,-19 61,-8 83,-12 82,-12 73,-19 42,-23 42,-34 22,-45 26,-95 16,-61 10,-70 9,-64 7,-62 -5,-70 -5,-51 -24,-85 -22,-106 -32,-112 -23,-91 -48,-109 -28,-55 -38,-51 -46,-50 -82,-66 -51,-60 -52,-50 -33,-60 -36,-69 -47,-59 -42,-79 -21,-66 -22,-69 -24,-72 -38,-81 -28,-60 -49,-94 -42,-117 -17,-106 -19,-56 4,-80 1,-6 4,-69 88,-60 31,0 25,15 5,40 21,10 51,0 15,10 26,21 21,-10 25,5 41,25 46,25 26,15 26,-10 31,5 10,-15 31,-30 20,-50 26,-45 5,-16 16,-30 10,-20 -10,-50 5,-25 10,-15 16,-20 10,-16 5,-15 0,-25 5,-25 565,-4 985,1 328,-4 308,0 329,-5 87,0 179,6 411,10 323,11 z" />
<path id="Vermilion" d="M 15604,-4135 l 1,131 8,721 8,1561 8,1371 1,216 35,1581 25,1182 -66,0 -329,10 195,131 -195,10 -302,15 15,-141 -353,11 -1928,50 -482,10 -15,0 -61,-1979 -25,-639 -10,-297 -14,-927 107,-5 -20,-981 0,-96 -25,-463 -10,-162 10,-40 -10,-196 0,-10 -46,-957 482,-10 989,-36 928,-15 978,-40 z" />
<path id="Wabash" d="M 12679,17253 l 984,-15 991,-10 302,0 0,10 -5,20 -5,26 0,35 -8,22 -3,7 -25,33 -26,16 -20,10 -30,26 -25,26 -5,6 -7,20 0,8 3,12 22,34 31,46 21,46 20,37 11,18 15,27 15,18 21,15 20,26 11,13 7,11 6,25 7,30 -5,25 -10,25 -15,21 -22,10 -25,11 -10,1 -19,1 -14,-2 -14,-5 -20,-10 -19,-17 -11,-6 -5,-2 -9,-1 -18,0 -10,10 -13,22 -15,31 -13,33 -26,40 -17,28 -7,11 -35,32 -19,11 -41,26 -47,26 -19,11 -61,27 -36,4 -38,3 -29,2 -45,4 -27,2 -4,0 -31,1 -29,5 -17,3 -30,20 -27,26 -27,31 -3,4 -21,31 -15,32 -9,40 -2,8 0,10 5,35 4,8 10,9 11,7 6,1 8,3 17,3 36,4 25,0 26,5 8,2 13,6 8,8 12,14 9,11 3,6 4,16 0,13 -5,20 -21,25 -20,20 -26,24 -10,25 -6,37 -2,13 0,11 -3,33 -1,13 -3,50 -2,44 -1,27 -4,30 -4,15 0,5 -6,15 -14,31 -37,55 -46,68 -30,46 -32,47 -31,45 -13,22 -2,5 -15,33 -9,18 -10,16 -23,26 -30,26 -9,7 -17,13 -36,15 -61,23 -92,33 -35,27 -22,23 -26,35 -21,29 -14,31 -20,26 -6,8 -16,27 -10,15 -7,17 -14,28 -16,33 -5,38 -10,40 -15,86 -3,63 1,17 0,24 6,40 1,57 0,40 -4,29 -2,11 -10,45 -18,45 -25,41 -38,72 -30,26 -26,11 -22,1 -26,-5 -7,-4 -13,-11 -21,-25 -26,-35 -5,-10 -6,-18 -17,-45 9,-57 6,-25 7,-29 2,-19 0,-28 -11,-50 -9,-12 -11,-14 -22,-16 -20,-4 -31,10 -19,26 -15,30 -19,51 -18,39 -26,50 -20,51 -21,30 -17,16 -10,9 -15,16 -24,26 -10,10 -10,20 -22,48 -20,36 -20,13 -11,6 -31,6 -8,-5 -13,-9 -15,-22 -4,-14 -4,-19 5,-35 19,-36 16,-36 3,-5 4,-7 15,-29 15,-25 9,-26 -6,-30 -10,-14 -10,-8 -22,-17 -31,-9 -36,-4 -20,1 -14,2 -26,15 -36,20 -25,25 -19,24 -11,19 -12,38 -6,18 -9,32 -8,16 -8,10 -15,14 -24,15 -20,21 -10,30 4,14 4,11 5,9 4,6 26,24 16,21 5,25 0,20 -15,21 -12,15 -6,4 -23,15 -21,11 -14,9 -11,28 -5,18 -1,30 0,20 -2,15 -5,13 -20,26 -6,4 -8,3 -21,0 -22,-21 -11,-13 -10,-11 -22,-31 -47,-75 -25,-36 -8,-11 -21,-9 -16,-4 -9,9 -10,11 -3,12 -2,7 -19,-14 -25,-31 -6,-30 6,-50 10,-66 26,-15 36,0 41,10 25,-5 5,-20 -15,-20 -5,-15 0,-30 31,-30 41,-20 26,-10 41,-31 15,-5 26,-10 15,-15 5,-25 -5,-45 5,-25 5,-31 -5,-35 16,-25 20,-20 0,-65 -5,-36 -51,-20 -15,-15 5,-45 15,-30 0,-66 -5,-20 -15,-30 -10,-30 -11,-15 0,-41 -5,-20 -15,-15 -26,-25 -20,-35 -26,-61 -20,-75 -41,-121 -16,-35 6,-25 30,-46 52,-30 10,-10 -20,-30 -31,-20 -10,-20 10,-30 26,-41 10,-30 20,-50 36,-30 26,-36 21,-15 36,5 20,-5 -5,-30 -10,-30 15,-30 0,-20 -15,-30 -5,-16 0,-20 15,-25 16,-20 0,-20 10,-25 10,-51 5,-25 -5,-20 0,-25 5,-20 6,-20 5,-20 -31,-26 15,-25 0,-30 -35,-45 5,-76 -10,-15 -11,-20 5,-30 0,-25 -25,-30 5,-21 5,-30 -25,-50 5,-35 31,-51 -11,-15 -20,-20 10,-25 0,-25 -20,-20 0,-25 5,-26 46,-35 36,-35 20,-10 16,-20 -10,-30 5,-31 -21,-15 -30,5 -11,-5 5,-15 16,-25 -36,-5 -26,-25 -5,-15 5,-46 -10,-15 -10,-10 -5,-15 5,-40 0,-15 -20,-30 0,-20 5,-31 10,-25 0,-30 z" />
<path id="Warren" d="M -9019,-10391 l -13,962 -22,993 -28,952 -43,972 -17,957 -958,-33 -948,-22 -984,-68 28,-912 17,-987 18,-972 18,-963 17,-982 994,43 999,53 548,21 z" />
<path id="Washington" d="M 1940,18086 l 0,332 -12,936 -6,981 -22,976 -960,-7 -974,-6 -960,-21 -995,-42 -975,-2 1,-946 2,-976 0,-281 31,10 31,5 15,-15 0,-50 5,-21 16,-20 31,0 10,-20 31,-15 -5,20 0,20 61,-10 5,-30 0,-20 11,-5 20,10 10,-5 6,-10 -11,-15 0,-15 6,-5 10,0 20,20 16,0 15,-10 5,-10 -5,-20 -10,-10 -16,-20 16,-41 15,-20 11,-10 20,0 26,5 36,26 20,0 52,5 15,-10 5,-25 10,-10 21,5 15,-5 0,-20 5,-11 21,1 5,-6 5,-25 46,5 21,-20 10,-55 0,-25 -10,-35 10,-5 16,20 15,0 21,-25 5,-36 20,-20 62,-45 51,-20 67,-10 36,0 57,-10 10,-20 31,-5 30,-20 26,30 15,-10 6,-30 56,0 -21,50 26,11 15,-5 21,5 26,15 20,-15 26,-15 46,30 15,10 36,-10 11,-40 15,-10 36,0 36,-10 25,15 47,15 35,35 47,15 20,6 41,-16 46,1 67,20 5,-20 -25,-26 15,-15 62,46 10,20 5,20 15,0 57,-25 56,-15 31,-20 56,-25 26,-30 10,-25 16,-31 41,-30 20,-15 36,-5 31,0 31,-20 36,-50 31,-5 41,10 56,45 41,31 16,0 15,-5 10,-15 10,-31 16,-5 15,5 0,16 5,15 21,10 20,5 6,-25 -16,-26 16,-10 10,0 26,6 20,-16 15,-10 36,16 16,-10 25,5 36,-26 0,-20 11,-10 25,5 0,15 16,11 15,-21 31,-25 -21,-5 -15,-15 21,-20 25,-5 5,-15 -15,-15 41,-5 5,-15 -10,-20 15,-20 6,-31 46,0 36,1 25,20 0,30 21,5 30,-5 26,15 26,-15 20,20 16,0 31,-25 10,15 25,-15 6,30 25,10 21,5 25,-20 16,-5 46,10 31,1 30,5 0,25 21,20 21,-15 10,-15 41,15 15,-10 10,-5 21,5 20,20 31,0 16,10 20,-5 36,10 15,-10 21,-20 10,-5 21,5 25,0 16,-5 15,0 5,20 5,10 62,0 46,-10 z" />
<path id="Wayne" d="M 9683,16965 l 795,-4 144,5 4,332 5,141 15,981 4,890 4,976 -6,478 -631,-5 -344,10 -554,15 -405,5 -2914,18 0,-468 2,-986 1,-966 1,-961 6,-493 1010,-20 601,6 379,15 482,15 442,6 z" />
<path id="White" d="M 12034,20689 l 25,31 19,14 17,36 11,25 20,35 4,15 3,19 8,45 -5,37 -9,49 1,15 -5,26 -2,11 -1,53 0,17 -3,55 4,27 4,24 8,31 14,48 30,67 3,7 63,98 30,36 4,4 52,39 34,17 13,5 36,5 21,0 36,15 33,33 13,33 5,25 13,34 2,6 5,35 4,15 3,6 10,5 21,-5 19,-21 20,-30 7,-9 4,-6 11,-11 13,-11 11,-3 11,0 16,9 14,21 6,20 15,35 0,26 -16,25 -15,15 -15,20 -6,20 -6,11 -9,14 -19,24 -26,20 -22,17 -21,19 -35,45 -5,11 -15,28 -22,32 -28,30 -14,5 -19,0 -31,-10 -30,-10 -26,-5 -29,10 -51,15 -9,9 -24,27 -10,33 -5,39 -3,45 -9,36 -11,19 -4,6 -20,16 -25,11 -31,10 -5,2 -31,0 -20,1 -11,0 -40,1 -22,2 -35,10 -36,25 -21,14 -31,36 -10,21 -5,38 6,35 6,14 8,13 10,20 9,13 5,3 17,10 16,5 20,-5 36,-16 10,-5 29,-14 25,-14 126,-69 72,-43 29,-15 21,-11 22,-5 18,4 16,14 0,26 2,25 9,14 5,9 11,24 6,14 7,23 2,12 0,17 -3,37 -1,10 -11,38 -19,37 -22,34 -41,35 -31,26 -56,31 -85,58 -31,18 -23,13 -72,30 -36,10 -25,11 -31,-1 -36,-5 -77,-10 -57,5 -20,7 -20,11 -30,21 -20,31 -10,18 -8,17 0,31 20,28 27,26 26,14 36,4 35,-2 35,-5 47,-5 13,0 19,2 13,6 7,5 17,23 1,31 -4,8 -9,14 -26,22 -21,15 -21,30 -4,4 -26,41 -16,35 -10,36 6,35 2,15 7,25 15,30 55,94 7,12 24,58 6,16 6,22 10,45 -5,35 -3,22 -4,21 -13,23 -22,23 -25,17 -25,14 -20,11 -27,10 -19,12 -20,17 -8,12 -2,7 -2,15 0,12 -1,41 11,50 10,50 15,51 6,35 0,30 -14,22 -22,23 -23,13 -23,7 -31,5 -22,0 -19,-10 -26,-20 -21,-15 -35,-30 -21,-11 -20,1 -25,11 -20,15 -15,21 -16,34 -2,27 11,25 3,6 27,27 21,15 26,4 22,5 36,-1 24,-1 17,0 49,7 6,1 120,12 52,8 31,10 21,29 22,44 8,29 2,14 2,19 1,18 -4,28 -15,28 -8,9 -12,9 -21,8 -5,2 -20,-5 -29,-13 -17,-12 -16,-9 -11,-4 -26,-5 -12,1 -7,1 -29,9 -18,6 -5,1 -35,6 -31,-1 -31,0 -42,-6 -30,-5 -51,-35 -30,-21 -25,-21 -37,-29 -27,-15 -25,-9 -17,0 -8,2 -20,10 -10,21 -4,11 -2,16 0,35 -47,81 -20,5 -21,-15 -25,-51 -31,-45 -36,-40 -82,-36 -138,-90 -11,50 -672,20 -149,-10 -164,10 -133,5 -385,-1 -211,26 -379,9 -10,-468 -4,-981 1,-950 1,-966 -4,-483 405,-5 554,-15 344,-10 631,5 457,6 610,-10 0,-40 272,-16 z" />
<path id="Whiteside" d="M -2647,-19961 l 466,6 -1,312 -6,636 -7,953 0,247 -15,-5 -2,716 9,953 -947,3 -31,0 -942,-1 -952,-7 -25,0 -907,-7 -76,-5 -779,-7 26,-40 82,-15 51,-25 16,-26 5,-75 21,-116 20,-35 16,-141 -20,-66 -51,-30 -26,-16 87,-45 5,-35 -71,-15 -72,-76 -112,-96 -149,-31 -46,-40 -35,-41 -144,-91 11,-35 82,-20 0,-61 -77,-70 -56,-41 -20,-35 46,-35 5,-101 41,-96 -36,-40 21,-86 -15,-40 -62,-46 -15,-101 36,-70 21,-46 -56,0 10,-90 5,-21 16,-30 5,-74 27,-19 4,-3 18,-14 69,-54 4,-4 47,-28 48,-25 62,-17 69,-19 5,-1 52,-18 46,-30 28,-34 23,-52 7,-58 -7,-78 -10,-38 -7,-27 14,-85 4,-42 10,-50 17,-28 14,-23 20,-41 11,-44 15,-61 16,-96 21,-90 41,-98 41,-79 12,-28 15,-36 21,-45 3,-7 17,-58 -1,-68 -10,-60 -23,-74 356,-6 158,0 967,2 978,7 946,17 z" />
<path id="Will" d="M 11123,-17337 l 15,489 994,-35 45,963 958,-35 5,242 30,418 5,161 6,147 988,-11 952,-15 251,-5 10,695 31,1225 -184,10 -47,0 -921,31 -978,15 -26,0 -968,36 -963,30 26,963 -984,40 -952,30 -36,-963 -35,-962 -35,-963 -41,-983 -50,-948 -31,-973 937,-36 983,-40 z" />
<path id="Williamson" d="M 5820,25168 l 9,986 -7,971 0,151 4,805 -318,5 -647,10 -138,30 -847,4 -241,0 -344,4 -416,5 -87,0 -323,-11 -411,-10 -179,-6 0,-467 1,-86 -5,-226 0,-181 5,-237 1,-80 10,-322 6,-312 1,-1017 985,7 945,11 1036,-14 z" />
<path id="Winnebago" d="M -299,-26318 l 10,0 307,1 378,5 395,4 296,2 662,8 882,12 550,7 340,4 -1,914 -6,974 4,973 9,954 -962,14 -956,19 -10,-605 -895,19 -972,19 -9,-939 6,-989 1,-414 -5,-126 -9,-419 z" />
<path id="Woodford" d="M 3666,-8833 l 5,459 4,524 15,952 -487,4 24,987 -512,10 10,398 -482,25 0,141 -267,9 0,167 -1143,33 -10,-236 -497,9 -24,-1133 1,-353 -497,10 -953,8 -405,-5 -35,-116 -5,-76 -36,-156 15,-131 11,-76 10,-45 21,-45 56,-86 144,-216 5,-20 26,-56 82,-201 62,-76 36,-50 46,-50 26,-56 25,-70 36,-96 21,-75 20,-86 41,-60 62,-86 671,1 441,-4 533,-25 983,-29 226,-4 71,0 384,5 262,0 z" />
</g>
</svg>
