<?xml version="1.0" standalone="yes"?>
<!DOCTYPE svg PUBLIC "-//W3C//DTD SVG 1.1//EN" "http://www.w3.org/Graphics/SVG/1.1/DTD/svg11.dtd">
<svg xmlns="http://www.w3.org/2000/svg" xmlns:xlink="http://www.w3.org/1999/xlink" version="1.1" width="2887.1" height="4423.4" viewBox="-16037,-19651 28871,44234">
<clipPath id="state_clip_path">
<g id="state_outline">
<path id="1733" d="M -4653,-19570 l 372,3 114,1 241,1 829,6 920,8 37,0 594,5 1397,-12 491,-3 1357,-8 1085,-7 1203,4 235,0 819,1 701,1 2370,-27 584,-8 194,0 2749,-42 333,-3 164,-1 19,718 28,1510 6,328 1,58 20,1099 18,933 9,331 12,468 4,184 1,10 54,2658 7,269 17,744 0,38 3,125 36,1990 2,256 2,57 12,1418 22,2432 4,479 12,1511 -16,433 -4,96 6,1338 6,620 5,370 26,2112 26,1765 4,423 1,87 5,583 4,620 -5,511 -1,158 4,528 7,882 8,393 20,931 -4,2 -7,6 -118,89 -193,198 -91,60 -179,119 -16,18 -12,19 -5,15 -6,54 0,17 45,88 49,60 58,71 7,8 156,191 48,80 57,96 74,124 8,17 4,12 34,132 5,85 -3,23 -20,40 -47,53 -144,162 -5,6 -41,45 -72,81 -26,35 -7,13 -22,68 -2,9 10,46 26,50 77,75 41,16 41,4 299,13 201,76 18,8 41,30 16,33 4,8 14,34 -4,171 -38,86 -3,5 -113,82 -60,44 -14,12 -90,122 -16,27 -18,47 -2,8 1,10 18,69 131,229 7,100 -21,51 -48,28 -13,6 -11,2 -45,0 -21,-2 -26,-5 -87,-25 -12,-4 -106,-32 -71,-9 -150,-19 -116,19 -11,4 -41,20 -44,19 -84,41 -143,69 -17,7 -22,4 -105,14 -139,-18 -83,-11 -143,17 -122,66 -33,22 -76,61 -41,25 -3,-6 -234,163 -15,8 -24,13 -52,24 -85,39 -9,4 -224,158 -12,11 -128,119 -122,113 -28,26 -118,81 -61,30 -67,30 -28,9 -64,17 -26,4 -26,2 -159,-8 -56,-14 0,-12 -102,-48 -9,-9 -147,-164 -69,-106 -52,-75 -45,-50 -6,-4 -102,-56 -166,-24 -29,-2 -118,-1 -185,26 -5,1 -107,36 -25,5 -216,48 -164,-10 -13,-2 -123,-28 -80,-18 -101,6 -7,0 -148,77 -37,37 -13,14 -116,226 -5,12 -10,70 7,90 7,43 23,49 3,6 73,128 3,8 46,122 0,386 -1,112 27,161 53,109 7,11 15,30 31,65 46,96 20,76 5,90 -2,30 -15,109 -56,113 -81,81 -55,40 -23,14 -15,9 -59,28 -139,65 -13,8 -9,10 -44,70 -16,35 -111,250 -5,7 -12,15 -79,83 -41,32 -5,3 -236,85 -9,2 -308,34 -48,11 -58,16 -10,4 -139,77 -102,111 -82,131 -114,319 -33,152 -2,9 -2,56 -11,226 -97,258 -17,34 -16,28 -173,241 -155,144 -6,4 -51,30 -77,45 -167,97 -44,24 -16,9 -74,32 -17,4 -14,0 -99,-26 -67,-71 -35,-55 -52,-40 -36,-15 -46,-11 -51,5 -31,10 -5,5 -56,15 -57,10 -51,15 -44,15 -44,20 -57,67 -40,90 -27,157 -26,149 -56,133 -56,72 -87,80 -178,164 -5,4 -71,109 -60,94 -6,13 -7,18 -43,105 -13,274 26,311 8,94 -4,153 -30,112 -32,119 -21,86 -9,46 -8,46 -43,264 -25,71 -139,170 -14,16 -39,14 -37,13 -72,25 -80,16 -13,2 -258,49 -13,1 -143,27 -133,51 -41,54 -8,13 -2,8 1,125 1,75 -15,38 -26,30 -57,20 -93,-70 -61,-84 -151,-290 -104,-100 -4,-2 -155,-67 -111,-15 -27,-2 -46,4 -142,20 -79,21 -52,14 -46,10 -18,-2 -69,-15 -241,-109 -10,-7 -249,-192 -173,-104 -34,-25 -14,-12 -110,-123 -4,-6 -31,-71 -8,-34 -32,-180 1,-108 21,-118 52,-278 -26,-101 -41,-72 -16,-19 -87,-97 -35,-35 -38,-22 -63,-34 -124,-65 -83,-65 -15,-16 -57,-59 -88,-93 -4,-3 -78,-28 -73,25 -6,4 -43,60 -5,13 -15,57 11,104 21,45 69,63 6,2 102,22 16,4 126,27 81,42 18,12 35,91 -30,91 -40,51 -98,51 -150,1 -116,1 -63,15 -83,66 -5,4 -6,9 -34,82 -21,40 -24,32 -23,18 -8,0 -55,-11 -47,-32 -54,-48 -3,-4 -104,-93 -62,-33 -114,-4 -14,2 -18,14 -74,77 -11,33 -10,47 15,51 13,17 60,62 9,6 46,16 51,20 46,45 16,20 6,11 27,70 2,10 0,23 -5,56 -5,27 -14,29 -48,81 -118,123 -123,41 -175,10 -25,2 -82,-3 -26,2 -14,1 -63,20 -16,9 -17,12 -33,36 -35,96 -3,35 -6,74 -4,52 -13,155 -2,16 1,29 2,248 42,141 77,152 3,6 26,55 9,31 5,26 -20,91 -71,76 -107,46 -175,-4 -30,-3 -263,-29 -102,46 -37,45 -9,27 -14,69 8,150 9,152 1,10 -20,106 -13,28 -14,26 -13,15 -109,100 -7,6 -150,83 -82,31 -109,-15 -47,-33 -7,-7 -31,-51 -10,-65 9,-34 80,-261 54,-177 -6,-86 -12,-16 -12,-15 -110,-53 -98,1 -28,7 -24,10 -47,29 -231,166 -36,9 -51,11 -31,-3 -17,-4 -120,-117 -11,-12 -102,-121 -95,-196 -49,-107 -33,-80 -47,-127 -110,-293 -99,-75 -114,-49 -41,9 -52,20 -51,30 -67,30 -44,16 -92,43 -193,188 -84,104 -89,109 -99,84 -6,2 -201,62 -76,4 -101,5 -58,4 -39,8 -106,27 -60,15 -88,45 -92,50 -93,45 -83,58 -71,67 -57,56 -14,22 -19,34 -14,50 14,97 12,79 -9,71 -22,91 -82,342 -17,39 -79,188 -46,76 -112,106 -51,30 -71,41 -78,20 -7,1 -151,-4 -37,-18 -4,-3 -37,-22 -5,-7 -46,-95 -45,-180 -13,-33 -46,-101 -141,-157 -67,-22 -20,-5 -42,-7 -183,-20 -180,-62 -15,-8 -62,-36 -18,-12 -64,-43 -50,-41 -78,-67 -77,-69 -30,-25 -72,-66 -102,-85 -103,-76 -22,-12 -27,-14 -128,-76 -94,-55 -55,-19 -52,-19 -204,-147 -79,-58 -71,-45 -52,-30 -38,-19 -196,-58 -23,-1 -115,-4 -120,30 -46,24 -21,11 -97,60 -64,45 -14,10 -87,75 -77,65 -67,55 -9,5 -89,30 -10,0 -6,-3 -86,-62 -72,-52 -206,-124 -70,-63 -44,-67 -63,-161 -52,-135 -83,-80 -36,-5 -60,30 -2,6 -18,85 -29,137 -3,8 -10,14 -44,49 -104,116 -12,17 -4,8 -17,81 34,112 3,8 51,75 117,84 69,70 23,26 21,50 19,38 5,12 1,154 0,7 -26,76 -10,18 -115,194 -41,45 -10,10 -92,57 -154,51 -128,0 -103,-15 -9,-5 -114,-78 -37,-141 9,-120 25,-91 45,-74 67,-110 4,-53 -11,-71 -19,-32 -19,-25 -62,-41 -46,-11 -51,16 -87,45 -19,11 -137,40 -17,5 -5,0 -136,-8 -5,0 -159,-10 -46,21 -10,5 -41,24 -43,30 -8,6 -73,55 -18,10 -84,32 -16,2 -61,1 -159,-7 -10,-1 -119,-36 -20,-8 -12,-11 -62,-72 -24,-47 -23,-44 -7,-6 -41,-37 -43,-40 -13,-16 -12,-18 -26,-56 -39,-77 -13,-15 -96,-80 -84,-25 -12,-2 -41,5 -20,10 -43,29 -50,56 -67,75 -36,50 -45,62 -45,60 -39,50 -20,35 -8,23 -11,59 -2,13 8,30 27,77 187,231 26,50 20,108 32,168 1,11 -26,106 -5,15 -206,130 -46,61 -47,80 -41,65 -6,7 -67,46 -9,2 -13,0 -28,-7 -21,-8 -10,-9 -87,-96 -42,-46 -110,-68 -27,-16 -17,-11 -67,-60 -72,-19 -61,9 -8,3 -60,28 -5,-36 -3,-20 -9,-35 -8,-16 -8,-13 -20,-15 -16,-6 -13,-3 -41,-1 -7,2 -40,11 -21,10 -10,4 -27,19 -31,14 -41,9 -41,-6 -46,-22 -45,-33 -7,-14 -19,-41 -21,-56 -2,-6 -12,-45 -1,-12 0,-32 5,-30 11,-20 25,-15 31,-5 31,7 40,18 22,10 56,26 56,30 18,7 25,7 50,6 35,-4 42,-10 4,-2 29,-15 15,-7 8,-6 4,-4 10,-12 12,-45 0,-35 -9,-32 -24,-30 -22,-15 -22,-14 -71,-30 -77,-41 -52,-30 -57,-47 -35,-60 -20,-44 -27,-49 -15,-35 -24,-42 -19,-41 -24,-41 -11,-17 -9,-14 -20,-30 -15,-39 -13,-33 2,-35 3,-16 4,-11 10,-21 21,-9 8,-2 17,0 25,11 26,16 36,30 25,22 29,22 50,37 29,6 42,6 62,4 36,-5 4,-1 18,-5 29,-7 8,-2 12,0 26,5 11,5 15,9 17,13 28,14 20,6 5,-2 21,-8 13,-8 8,-8 16,-28 5,-27 0,-19 -2,-19 -1,-14 -7,-29 -21,-45 -20,-30 -31,-11 -51,-10 -120,-16 -6,-1 -49,-9 -77,0 -22,-6 -25,-5 -20,-15 -15,-16 -12,-13 -3,-6 -9,-25 2,-26 18,-34 15,-20 21,-15 25,-10 20,0 20,11 28,25 7,7 20,15 25,21 19,11 22,1 31,-4 24,-6 22,-13 24,-22 14,-22 1,-30 -4,-35 -14,-51 -8,-51 -9,-50 2,-41 0,-12 3,-15 2,-6 8,-13 21,-16 20,-12 26,-8 21,-10 26,-14 25,-16 22,-22 15,-23 5,-20 3,-22 7,-35 -9,-46 -5,-22 -6,-16 -22,-58 -6,-13 -52,-96 -14,-30 -6,-25 -2,-15 -5,-36 12,-35 16,-35 28,-40 4,-4 22,-29 49,-35 9,-14 4,-8 1,-31 -17,-24 -7,-4 -13,-7 -18,-3 -13,0 -48,3 -35,4 -34,1 -36,-5 -26,-16 -26,-26 -19,-29 1,-31 8,-17 11,-17 21,-31 30,-20 21,-10 20,-6 57,-4 77,13 35,6 31,2 26,-10 36,-8 37,-14 36,-13 23,-13 32,-16 88,-55 56,-30 32,-25 42,-34 23,-32 21,-37 12,-38 1,-10 5,-37 1,-17 -3,-11 -6,-24 -5,-14 -10,-25 -6,-9 -8,-14 0,-51 -16,-15 -17,-4 -23,4 -21,10 -29,14 -74,41 -128,65 -25,13 -30,13 -10,5 -36,14 -21,4 -15,-5 -17,-10 -5,-4 -8,-13 -10,-20 -8,-14 -5,-14 -5,-35 6,-38 11,-20 32,-35 21,-14 38,-23 35,-9 23,-1 70,0 31,1 5,-2 31,-9 26,-10 20,-15 4,-6 12,-19 10,-35 5,-45 6,-39 11,-33 25,-26 10,-9 51,-13 29,-8 26,6 30,11 31,10 19,1 14,-5 29,-29 23,-31 15,-27 6,-11 14,-17 23,-27 21,-19 23,-15 26,-20 20,-23 9,-14 7,-10 6,-20 17,-19 15,-15 17,-25 0,-25 -14,-36 -4,-20 -14,-21 -16,-10 -11,-1 -11,3 -13,10 -12,11 -4,6 -7,9 -21,29 -20,20 -20,5 -10,-6 -3,-5 -4,-16 -4,-35 -1,-6 -12,-35 -5,-25 -11,-33 -18,-18 -15,-16 -35,-16 -20,-1 -36,-6 -14,-6 -32,-18 -51,-41 -4,-3 -29,-38 -59,-100 -4,-8 -27,-67 -12,-48 -7,-32 -4,-24 -2,-27 5,-55 0,-17 2,-53 3,-11 6,-25 0,-15 10,-49 6,-37 -6,-45 -3,-20 -3,-14 -19,-37 -10,-25 -15,-36 1,-7 3,-12 11,-10 10,-9 15,4 21,10 8,11 23,37 45,76 21,32 9,12 11,13 21,22 22,0 7,-2 7,-4 20,-25 6,-13 3,-14 0,-21 2,-30 5,-18 13,-28 14,-8 21,-10 24,-14 6,-4 28,-35 1,-20 -5,-26 -14,-20 -26,-26 -4,-6 -4,-9 -4,-11 -3,-14 10,-30 21,-21 25,-13 15,-14 8,-10 9,-15 10,-32 6,-18 14,-38 12,-18 19,-23 26,-24 37,-19 26,-14 15,-2 20,0 36,5 30,10 22,18 9,8 10,15 5,30 -10,25 -16,25 -16,29 -5,6 -2,6 -18,35 -20,35 -6,35 4,19 3,14 14,22 13,10 8,5 30,-5 12,-5 21,-12 21,-36 23,-47 10,-20 11,-10 26,-25 15,-15 10,-8 18,-16 21,-30 23,-49 27,-50 19,-38 21,-50 16,-30 20,-25 31,-10 20,5 21,17 11,15 8,12 9,50 -1,28 -2,19 -8,29 -7,24 -11,58 16,45 6,18 4,10 25,37 20,25 13,11 7,5 25,6 22,-1 26,-10 31,-25 41,-70 26,-40 20,-45 12,-45 1,-10 5,-29 1,-22 1,-19 1,-56 -4,-41 0,-40 5,-64 18,-85 12,-40 6,-38 17,-31 14,-29 8,-16 10,-15 17,-26 7,-8 20,-25 16,-30 22,-29 27,-34 23,-22 36,-25 92,-30 62,-22 37,-13 17,-13 9,-7 31,-24 24,-26 10,-15 10,-18 16,-33 3,-5 14,-21 32,-44 33,-45 31,-45 49,-67 39,-54 15,-30 6,-15 1,-5 4,-15 5,-30 2,-27 3,-44 6,-50 1,-12 4,-33 0,-11 3,-13 7,-37 11,-25 26,-23 22,-18 21,-25 6,-20 0,-13 -3,-16 -3,-6 -8,-11 -12,-15 -8,-8 -12,-6 -8,-3 -26,-6 -26,-1 -36,-5 -17,-3 -7,-4 -6,-1 -10,-7 -10,-10 -4,-8 -4,-35 0,-10 2,-8 11,-39 16,-32 22,-30 3,-5 28,-29 28,-26 31,-19 17,-2 30,-3 30,-1 5,1 26,-2 46,-2 28,-1 38,-1 37,-4 62,-24 19,-11 47,-24 42,-24 20,-11 36,-31 7,-10 19,-28 27,-39 14,-33 16,-30 14,-21 10,-10 18,1 9,0 4,3 12,6 18,18 20,10 13,6 15,3 19,0 9,-2 26,-10 22,-9 16,-20 11,-25 5,-25 -5,-30 -5,-25 -7,-11 -11,-14 -19,-26 -20,-16 -15,-19 -14,-27 -10,-19 -19,-37 -19,-46 -30,-48 -20,-35 -3,-12 0,-8 7,-19 6,-6 26,-25 31,-25 20,-10 26,-15 27,-31 3,-7 9,-23 1,-35 6,-25 6,-20 0,-10 6,-11 9,-14 7,-6 4,-4 10,-5 20,-15 19,-14 10,-18 12,-30 1,-20 0,-29 -4,-27 1,-15 3,-23 2,-12 6,-16 6,-6 12,-11 5,-1 14,0 16,5 25,25 19,13 28,10 21,4 31,5 22,0 14,-9 6,-19 2,-12 -4,-31 -14,-25 -5,-3 -15,-8 -13,-7 -8,-4 -33,-15 -17,-22 -4,-13 -3,-13 6,-36 10,-34 10,-21 10,-20 6,-20 0,-65 11,-20 10,-22 15,-24 1,-6 1,-16 1,-30 -9,-25 -4,-26 0,-19 6,-21 16,-19 4,-4 17,-15 26,-6 19,-9 20,-15 15,-20 10,-28 12,-40 6,-30 17,-35 15,-31 8,-12 46,-35 31,-19 22,-10 29,-11 67,-25 56,-15 72,-9 65,-15 5,-1 84,-26 62,-23 42,-39 14,-12 23,-22 34,-42 27,-61 12,-60 4,-23 2,-12 7,-35 1,-6 5,-29 2,-10 7,-26 11,-20 15,-26 16,-30 15,-19 17,-23 10,-25 12,-19 18,-33 20,-31 16,-20 15,-15 11,-25 -5,-25 -11,-15 -15,-16 -11,-19 1,-21 0,-26 11,-30 2,-7 8,-27 10,-30 2,-12 3,-14 0,-29 -15,-16 -25,-6 -26,4 -15,3 -11,1 -15,0 -11,-2 -4,-2 -11,-7 -9,-15 4,-17 4,-6 8,-7 12,-4 14,-5 21,-10 11,-3 15,-6 21,-11 7,-3 7,-4 8,-6 10,-12 6,-12 0,-21 -4,-35 -9,-30 -7,-18 -11,-18 -31,-41 -8,-11 -68,-89 -41,-55 -20,-36 -21,-39 -18,-24 -4,-11 -3,-11 8,-34 13,-22 17,-18 8,-17 -5,-30 -12,-32 -5,-8 -5,-7 -14,-31 -4,-33 0,-27 -4,-21 -1,-18 -5,-19 -7,-24 -5,-10 -10,-10 -10,-11 -45,-31 -5,-1 -72,-20 -21,-7 -18,-12 -15,-20 -10,-21 1,-10 2,-5 5,-10 10,-5 16,-5 17,-1 7,-7 11,-10 11,-14 -1,-18 -8,-13 -5,-15 1,-15 6,-20 3,-5 7,-10 16,-9 22,-9 15,-5 21,-17 0,-34 -20,-19 -26,-25 -6,-7 -17,-21 -5,-15 -2,-13 4,-30 11,-10 10,-5 15,9 16,6 15,5 11,0 10,-5 10,-30 27,-23 11,-8 17,-12 25,-9 20,-4 21,-4 8,-5 5,0 0,-25 -10,-15 -22,-11 -20,-6 -19,-12 -6,-6 -4,-21 0,-28 6,-20 11,-19 19,-27 10,-9 9,-8 21,-24 12,-31 4,-27 0,-48 -15,-40 -15,-21 -6,-14 0,-11 6,-25 10,-20 6,-11 7,-9 18,-15 15,-20 10,-20 -1,-13 -9,-12 -15,-21 -34,-31 -17,-14 -5,-5 -12,-17 -20,-21 -10,-25 -10,-22 -20,-26 -28,-25 -12,-9 -11,-6 -56,-21 -73,-31 -66,-20 -77,-34 -35,-17 -24,-16 -17,-8 -6,-11 -2,-11 2,-11 10,-6 6,-3 15,1 21,5 26,7 16,-2 15,-15 5,-15 0,-9 -9,-14 -7,-7 -25,-15 -25,-10 -15,-11 -5,-5 -11,-14 -1,-26 14,-25 23,-55 20,-40 15,-31 4,-6 10,-32 1,-30 -9,-42 -28,-50 -20,-36 -19,-26 -9,-19 -5,-22 0,-20 17,-34 11,-25 16,-25 6,-14 6,-16 6,-25 -5,-30 -9,-20 -25,-26 -29,-47 -14,-19 -5,-7 -21,-32 -20,-26 -29,-29 -34,-37 -30,-20 -25,-10 -15,-3 -15,0 -16,-1 -36,4 -41,-16 -30,-22 -3,-5 -7,-23 -8,-18 0,-30 3,-11 5,-11 10,-20 15,-16 21,-20 10,-25 -1,-22 -9,-13 -15,-10 -7,-2 -16,0 -15,-3 -77,0 -75,-1 -14,0 -19,-3 -28,-2 -18,-6 -15,-3 -20,-18 -13,-29 -1,-26 6,-25 11,-10 21,-4 19,-4 27,6 24,3 12,0 14,1 20,0 17,-6 9,-4 2,-6 0,-10 -4,-15 -11,-6 -6,-7 -7,-2 -17,-8 -5,-2 -10,-8 -15,-10 -5,-12 0,-13 -4,-22 -10,-15 -16,-15 -34,-11 -17,-6 -6,-1 -24,-8 -11,-15 -2,-9 1,-8 6,-36 6,-24 16,-20 11,-29 4,-10 10,-30 10,-15 16,-21 15,-14 21,-14 6,-1 25,0 10,2 12,1 8,2 6,1 15,4 24,10 17,0 15,-5 11,-10 0,-15 -10,-9 -30,-22 -9,-4 -16,-7 -26,-5 -20,-6 -12,-13 0,-15 5,-10 21,-25 36,-25 56,-25 22,-4 24,-17 3,-3 8,-11 5,-25 0,-60 10,-28 11,-14 15,-4 16,4 25,6 28,0 14,-8 12,-11 2,-5 7,-9 11,-19 16,-20 10,-15 8,-8 20,-5 30,-10 21,-9 21,-20 12,-19 9,-27 10,-25 16,-25 21,-15 9,-9 15,-18 8,-15 9,-29 5,-30 3,-26 2,-24 0,-65 -10,-96 0,-35 -9,-32 4,-19 6,-19 12,-16 9,-11 4,-9 11,-10 0,-10 -1,-21 -15,-20 -15,-10 -38,0 -8,3 -25,23 -13,21 -16,24 -14,10 -9,6 -21,3 -10,-4 -7,-9 -5,-13 -35,-61 -15,-33 -5,-10 -4,-11 -11,-15 -7,-13 1,-35 1,-27 12,-33 4,-22 -6,-27 -12,-17 -12,-19 -7,-12 -4,-31 -5,-15 1,-25 17,-29 16,-25 21,-25 16,-24 6,-25 -5,-23 -2,-6 -8,-19 -20,-15 -21,-6 -35,5 -26,5 -26,0 -10,-2 -9,-5 -10,-15 1,-21 11,-10 18,-7 6,-2 29,-8 26,-11 15,-14 21,-29 39,-69 38,-54 8,-15 13,-25 22,-34 22,-30 23,-26 21,-19 5,-3 15,-8 31,-15 36,-5 51,7 18,2 43,5 6,0 20,-3 16,-5 25,-10 16,-15 15,-25 10,-20 6,-19 8,-15 6,-7 6,-4 21,-10 6,-2 8,0 9,5 18,12 19,14 22,10 15,-9 7,-735 4,-233 5,-420 13,-942 5,-415 0,-113 14,-1072 15,-1576 2,-157 2,-226 16,-1183 20,-1580 6,-217 41,-1369 46,-1561 17,-720 3,-131 16,-660 16,-1607 6,-473 0,-36 14,-1088 25,-1576 1,-25 2,-344 18,-1210 7,-477 19,-1120 1,-348 13,-1225 15,-696 21,-892 36,-1583 2,-215 6,5 81,86 -20,30 20,25 112,102 61,55 62,26 15,35 51,25 46,41 82,41 92,-25 87,106 31,-10 5,-81 92,-80 56,56 -185,206 138,141 51,0 57,1 10,0 36,30 102,36 143,61 31,15 143,36 128,30 92,1 46,45 56,21 123,0 36,5 107,-4 108,-5 399,-39 379,-85 467,-139 241,-90 128,-60 82,-30 77,-40 118,-50 97,-40 92,-40 72,-41 87,-40 108,-60 143,-75 118,-65 98,-50 61,-25 57,-15 81,-30 52,-20 31,-76 30,-10 11,-30 51,-25 82,-35 82,-45 67,-35 97,-56 154,-90 51,-30 z" />
<path id="1734" d="M -4653,-19570 l -98,57 -51,30 -154,90 -97,56 -67,35 -82,45 -82,35 -51,25 -11,30 -30,10 -31,76 -52,20 -81,30 -57,15 -61,25 -98,50 -118,65 -143,75 -108,60 -87,40 -72,41 -92,40 -97,40 -118,50 -77,40 -82,30 -128,60 -241,90 -467,139 -379,85 -399,39 -108,5 -107,4 -36,-5 -123,0 -56,-21 -46,-45 -92,-1 -128,-30 -143,-36 -31,-15 -143,-61 -102,-36 -36,-30 -10,0 -57,-1 -51,0 -138,-141 185,-206 -56,-56 -92,80 -5,81 -31,10 -87,-106 -92,25 -82,-41 -46,-41 -51,-25 -15,-35 -62,-26 -61,-55 -112,-102 -20,-25 20,-30 -81,-86 -6,-5 7,-520 804,8 1720,16 112,4 3138,25 z" />
</g>
</clipPath>
<g stroke="black" fill="none" stroke-linejoin="round" stroke-width="46" clip-path="url(#state_clip_path)">
<use xlink:href="#state_outline" fill="white" stroke-width="202" />
<use xlink:href="#1734" fill="#a0a0ff" stroke="none" />
<path id="Adams" d="M 12332,-10341 l 0,38 3,125 36,1990 2,256 2,57 12,1418 -630,24 -963,30 -651,19 -96,-3879 641,-14 994,-30 z" />
<path id="Allen" d="M 12249,-14206 l 4,184 1,10 54,2658 7,269 17,744 -650,34 -994,30 -641,14 -292,5 -952,18 -953,14 -9,-957 0,-30 -39,-933 -24,-977 241,-10 7,-958 968,-3 968,-29 957,-34 963,-39 z" />
<path id="Bartholomew" d="M 5015,7195 l -1,131 0,126 -5,85 -2,639 -5,161 -1,519 -1,292 4,488 -959,23 4,483 5,191 -57,-25 -107,10 -57,15 -41,50 -57,15 -61,0 -10,20 -41,20 -6,40 -36,10 -41,41 -41,25 -5,15 36,45 -16,25 -1898,61 -4,-156 -5,-342 -22,-1545 -4,-246 -18,-1143 523,-13 298,-5 77,0 251,-4 328,-5 985,-43 z" />
<path id="Benton" d="M -7028,-8231 l 10,1939 7,972 -471,-11 -968,-29 -959,-13 -958,-13 -313,-11 3,-131 16,-660 16,-1607 6,-473 302,1 927,13 974,8 942,14 z" />
<path id="Blackford" d="M 9026,-6361 l 9,973 -47,-1 9,1129 -16,-5 -97,4 -1907,18 1,-157 -14,-961 -8,-967 953,-14 948,-14 z" />
<path id="Boone" d="M 207,-2006 l 4,559 2,981 23,967 5,322 -318,9 -180,5 -256,9 -3137,2 1,-332 -3,-972 -8,-976 2,-559 z" />
<path id="Brown" d="M 1563,7268 l 18,1143 4,246 22,1545 5,342 -93,5 -1338,32 -247,-10 -118,-1 -261,-10 -451,4 0,-272 6,-131 0,-297 1,-146 -22,-1414 -67,-5 -5,-171 -8,-800 216,-5 928,-18 959,-27 318,-10 z" />
<path id="Carroll" d="M -2662,-8173 l 76,1 415,11 0,201 -11,267 1009,3 267,0 -9,1456 -9,1440 -2711,-12 1,-478 -2,-977 -641,-2 4,-1143 133,0 21,-81 66,-60 -5,-20 -92,5 -15,-25 51,-51 26,-25 -46,-70 -26,-66 16,-91 21,-45 41,-65 -67,-61 42,-96 0,-45 481,7 z" />
<path id="Cass" d="M -1689,-10099 l 943,2 522,1 205,6 241,5 599,-18 1,1858 -11,298 14,398 9,403 24,891 -641,9 -984,12 -148,0 9,-1456 -267,0 -1009,-3 11,-267 0,-201 -415,-11 -76,-1 18,-982 7,-977 z" />
<path id="Clark" d="M 6068,15449 l 636,-14 5,161 154,1 5,65 441,1 15,30 31,65 46,96 20,76 5,90 -2,30 -15,109 -56,113 -81,81 -55,40 -23,14 -15,9 -59,28 -139,65 -13,8 -9,10 -44,70 -16,35 -111,250 -5,7 -12,15 -79,83 -41,32 -5,3 -236,85 -9,2 -308,34 -48,11 -58,16 -10,4 -139,77 -102,111 -82,131 -114,319 -33,152 -2,9 -2,56 -11,226 -97,258 -17,34 -16,28 -173,241 -155,144 -6,4 -51,30 -77,45 -167,97 -44,24 -16,9 -74,32 -17,4 -14,0 -99,-26 -67,-71 -35,-55 -52,-40 -36,-15 -46,-11 -51,5 -31,10 16,-50 -10,-95 -46,-71 77,-25 -46,-25 -5,-51 92,-60 -102,-45 -21,-86 26,-10 82,31 15,-5 0,-36 -20,-10 10,-30 21,-10 10,-35 21,0 71,-10 11,-35 67,-40 -179,-262 -236,-338 -1631,22 0,-171 7,-780 329,-4 0,-151 621,-9 0,-171 159,5 -4,-322 169,-4 -4,-176 230,0 -4,-141 82,0 0,-80 82,0 0,-86 82,6 -5,-161 z" />
<path id="Clay" d="M -6393,4369 l -13,961 -11,488 620,7 -30,1454 -615,-6 -338,-12 -31,1923 -621,-7 -964,-39 13,-976 18,-971 18,-946 13,-971 308,6 18,-972 651,28 z" />
<path id="Clinton" d="M -924,-4794 l 559,2 4,483 240,1 5,161 323,1 3,800 -13,957 10,383 -3865,15 6,-398 13,-967 8,-961 -4,-489 z" />
<path id="Crawford" d="M 107,17514 l -41,81 -47,35 16,25 41,-5 51,36 -10,55 20,45 -5,35 20,46 31,30 -5,20 -52,35 -25,-15 -57,35 21,40 10,121 82,26 5,15 0,30 -41,50 -36,15 -52,-30 -10,-46 -56,-5 -26,61 -21,70 16,30 25,66 -26,5 -20,5 0,20 25,100 -5,51 -5,55 -41,-15 -21,-20 -10,-16 -57,91 113,81 51,15 26,-10 77,25 0,15 -26,10 -20,0 -6,106 41,-30 52,10 15,15 -5,40 -21,10 -20,76 -16,5 -56,-36 -31,91 -46,0 -6,236 -5,46 -11,286 -21,40 -41,31 -77,-46 -41,35 -5,25 82,61 -11,35 -46,15 46,86 -31,5 -51,-16 -56,-5 -21,25 -26,131 -46,-5 -16,15 77,71 -26,40 -41,0 -76,-51 -47,31 -15,-16 -57,-59 -88,-93 -4,-3 -78,-28 -73,25 -6,4 -43,60 -5,13 -15,57 11,104 21,45 69,63 6,2 102,22 16,4 126,27 81,42 18,12 35,91 -30,91 -40,51 -98,51 -150,1 -116,1 -63,15 -83,66 -5,4 -6,9 -34,82 -21,40 -24,32 -23,18 -8,0 -55,-11 -47,-32 -54,-48 -3,-4 -104,-93 -62,-33 -114,-4 -14,2 -18,14 -74,77 -11,33 6,-179 12,-870 -970,-3 7,-624 -831,8 -118,0 1,-166 0,-347 -4,-297 -4,-458 0,-50 1,-171 261,0 67,1 410,1 1888,-1 170,1 477,11 -20,-282 z" />
<path id="Daviess" d="M -5548,12116 l 4,649 4,322 -159,5 -35,3486 -102,0 -36,40 -6,81 -82,40 -56,-21 0,-125 -72,-16 -31,10 -87,15 -77,-55 -61,-71 -72,55 -41,0 -51,-41 -62,51 -46,5 -87,-61 -98,20 -72,90 -61,20 -36,-45 -31,-91 -25,-20 -41,0 -52,30 -36,-11 0,-30 52,-55 -98,-20 -25,-76 -41,-50 -66,-46 -62,10 -41,25 0,91 -41,15 -21,-5 -41,-56 -36,-20 -25,30 -11,35 36,66 -10,20 -83,30 -51,0 -41,-51 21,-80 -67,-56 -77,5 -20,-106 -82,-71 -179,-55 -62,30 -36,75 -56,45 -62,-20 -66,-51 -36,-10 -21,10 36,-90 -77,-41 -10,-30 77,-5 21,-30 -36,-45 -61,-31 20,-25 36,0 36,-45 5,-55 -15,-15 -62,-1 -30,-55 5,-35 36,-51 -36,-40 6,-15 61,-10 21,-40 -113,-56 -26,-40 47,-25 46,55 41,6 0,-81 -77,-91 -35,-70 36,-45 35,25 41,10 37,-35 -57,-20 -10,-76 -67,-20 -5,-61 31,-15 51,56 36,0 -20,-55 21,-71 -31,-15 -108,70 -41,-70 26,-51 82,-90 6,-50 -31,-15 -21,25 -72,115 -10,-30 -5,-50 -97,-81 0,-20 31,-20 71,-10 0,-25 -20,-5 -67,-6 -66,-55 108,-75 -26,-81 52,-35 10,-50 57,-35 0,-36 -36,-40 -20,-55 20,-41 21,6 0,25 10,20 46,40 36,-5 5,-45 -67,-25 6,-35 67,-76 41,26 36,-15 -16,-26 -41,-50 -71,-76 10,-30 31,-5 31,20 46,-120 -46,-15 -46,45 -41,-1 -26,-45 16,-105 36,-15 71,10 31,-25 6,-91 -26,-85 16,-61 -46,-55 67,-136 46,35 -41,21 0,40 25,5 31,-35 46,15 -20,70 10,21 26,0 20,-66 31,-20 31,5 -31,-115 47,-15 25,30 -5,15 -21,126 26,10 20,-50 47,-36 -21,-95 21,-25 46,20 15,86 31,20 26,-66 -5,-35 -62,-30 -10,-20 10,-20 21,-20 26,10 35,60 16,-30 0,-70 31,0 56,60 36,-15 0,-25 -26,-25 16,-20 -15,-51 -88,-20 -10,-30 31,-15 21,25 51,5 46,-25 46,31 16,-10 61,20 36,55 46,-10 41,-50 -15,-45 26,-25 -36,-31 26,-70 -62,-70 11,-21 20,-5 97,96 52,6 0,-46 -36,5 -20,-25 5,-35 -26,-36 11,-35 20,-15 21,10 20,46 31,15 36,-30 0,-25 -31,-36 -30,-85 61,-45 31,-20 41,-56 57,-60 31,5 25,20 36,-9 5,-36 -30,-35 682,22 z" />
<path id="DeKalb" d="M 12189,-17095 l 1,58 20,1099 18,933 9,331 12,468 -367,10 -963,39 -957,34 -968,29 -19,-973 -9,-973 -18,-978 1884,-38 947,-29 z" />
<path id="Dearborn" d="M 12486,7609 l 7,882 8,393 20,931 -4,2 -7,6 -118,89 -193,198 -91,60 -179,119 -16,18 -12,19 -5,15 -6,54 0,17 45,88 49,60 58,71 7,8 -201,225 -107,-60 -21,0 -51,45 -26,15 -25,-20 -41,70 -62,46 -15,-31 -31,-10 -36,25 20,76 -20,20 -47,20 -15,20 -51,5 -41,-35 -41,55 -118,-40 -21,15 -51,5 -21,-15 -10,-15 -31,15 -31,100 11,46 -47,55 -61,-30 -62,-16 -36,91 -77,-20 -56,0 -57,80 -36,15 0,50 -31,41 -36,20 11,70 -11,35 -66,-20 -41,20 -21,5 -26,-5 -46,-45 -20,15 -41,95 -26,15 -31,66 -26,-15 -36,-41 -46,15 -36,36 -41,-1 -20,-20 -15,-70 66,-96 -5,-35 -61,5 -67,86 -51,-1 21,-151 15,-100 68,-332 130,-1001 57,-468 63,-513 62,-453 73,-534 63,-452 230,0 959,1 z" />
<path id="Decatur" d="M 8340,6023 l 32,2059 -1233,818 -1083,708 -1052,28 -4,-488 1,-292 1,-519 5,-161 2,-639 5,-85 0,-126 1,-131 472,-14 -3,-1097 -5,-30 z" />
<path id="Delaware" d="M 6977,-4243 l 1907,-18 29,796 24,972 13,941 14,650 -3075,25 -44,-3358 z" />
<path id="Dubois" d="M -3625,16353 l -2,966 4,211 0,252 -1,171 0,50 4,458 4,297 0,347 -1,166 0,166 -996,-13 -1,468 -975,-8 -980,2 -492,-6 1,-287 34,-3134 25,20 31,91 36,45 61,-20 72,-90 98,-20 87,61 46,-5 62,-51 51,41 41,0 72,-55 61,71 77,55 87,-15 31,-10 72,16 0,125 56,21 82,-40 6,-81 36,-40 102,0 10,56 72,45 57,-45 66,-15 77,66 97,10 26,-15 11,-60 46,-45 133,-40 98,-60 77,-91 -15,-35 113,0 123,1 144,0 z" />
<path id="Elkhart" d="M 1699,-19569 l 1085,-7 1203,4 235,0 819,1 19,687 19,963 23,968 15,574 -6,388 -963,14 -978,3 -947,8 -487,9 -4,-307 0,-162 1,-161 -5,-71 z" />
<path id="Fayette" d="M 8953,2285 l 323,0 -2,821 1292,-9 12,2079 -810,14 -959,14 -488,9 -55,-2914 503,-20 z" />
<path id="Floyd" d="M 2374,17555 l 0,171 1631,-22 236,338 179,262 -67,40 -11,35 -71,10 -21,0 -10,35 -21,10 -10,30 20,10 0,36 -15,5 -82,-31 -26,10 21,86 102,45 -92,60 5,51 46,25 -77,25 46,71 10,95 -16,50 -5,5 -56,15 -57,10 -51,15 -44,15 -44,20 -57,67 -40,90 -27,157 -26,149 -56,133 -56,72 -87,80 -178,164 -5,4 -71,109 -60,94 -6,13 0,-77 -457,0 -39,-831 -164,0 1,-166 -185,5 -10,-302 -164,-1 -4,-312 -159,0 2,-966 z" />
<path id="Fountain" d="M -7009,-4101 l -15,1657 -19,2925 -472,-7 -984,-13 -958,-8 -405,-7 -11,-25 -71,20 -62,-40 -20,-36 87,-105 26,-106 0,-60 -46,-76 -19,-347 36,-101 62,-70 -61,-91 92,-70 41,-91 1,-85 36,-156 -10,-146 57,-131 6,-206 5,-31 16,-55 -10,-60 -5,-41 -205,-121 -66,-106 20,-66 98,-125 52,-121 128,-35 98,-75 292,-115 46,-30 47,-4 25,-56 62,-20 36,-40 41,-90 87,-55 37,-91 66,-45 98,-35 119,-246 61,-66 82,-40 88,-80 46,-40 10,-76 26,-40 118,-19 200,-116 139,-34 92,-40 82,-66 57,6 51,-20 46,15 185,-60 62,-60 154,-95 15,-61 62,-70 z" />
<path id="Franklin" d="M 10578,5176 l 118,-5 -6,35 108,1 144,0 1537,2 5,583 4,620 -5,511 -1,158 4,528 -934,4 -959,-1 -230,0 -1323,18 -16,10 -652,442 -32,-2059 -19,-810 488,-9 959,-14 z" />
<path id="Fulton" d="M 1586,-13034 l 18,983 487,-14 9,498 599,-13 -6,478 -604,19 -933,8 -322,9 -12,403 0,66 -1,494 -599,18 -241,-5 -205,-6 -522,-1 -943,-2 8,-978 -8,-962 8,-968 394,-9 538,2 87,0 881,-3 169,0 773,-8 128,-5 z" />
<path id="Gibson" d="M -10442,16227 l -1,166 -6,402 -1,156 170,1 -1,176 0,85 -5,81 328,6 -12,629 15,-10 52,-15 46,10 67,5 61,-15 67,21 72,5 56,-20 108,-20 92,21 41,25 103,20 20,5 -24,1459 -1,161 -6,292 -338,-1 -970,2 -16,423 -1940,-62 7,-373 -970,-3 0,-146 6,-161 -1595,-71 0,-15 10,-49 6,-37 -6,-45 -3,-20 -3,-14 -19,-37 -10,-25 -15,-36 1,-7 3,-12 11,-10 10,-9 15,4 21,10 8,11 23,37 45,76 21,32 9,12 11,13 21,22 22,0 7,-2 7,-4 20,-25 6,-13 3,-14 0,-21 2,-30 5,-18 13,-28 14,-8 21,-10 24,-14 6,-4 28,-35 1,-20 -5,-26 -14,-20 -26,-26 -4,-6 -4,-9 -4,-11 -3,-14 10,-30 21,-21 25,-13 15,-14 8,-10 9,-15 10,-32 6,-18 14,-38 12,-18 19,-23 26,-24 37,-19 26,-14 15,-2 20,0 36,5 30,10 22,18 9,8 10,15 5,30 -10,25 -16,25 -16,29 -5,6 -2,6 -18,35 -20,35 -6,35 4,19 3,14 14,22 13,10 8,5 30,-5 12,-5 21,-12 21,-36 23,-47 10,-20 11,-10 26,-25 15,-15 10,-8 18,-16 21,-30 23,-49 27,-50 19,-38 21,-50 16,-30 20,-25 31,-10 20,5 21,17 11,15 8,12 9,50 -1,28 -2,19 -8,29 -7,24 -11,58 16,45 6,18 4,10 25,37 20,25 13,11 7,5 25,6 22,-1 26,-10 31,-25 41,-70 26,-40 20,-45 12,-45 1,-10 5,-29 1,-22 1,-19 1,-56 -4,-41 0,-40 5,-64 18,-85 12,-40 6,-38 17,-31 14,-29 8,-16 10,-15 17,-26 7,-8 20,-25 16,-30 22,-29 27,-34 23,-22 36,-25 92,-30 62,-22 37,-13 17,-13 9,-7 31,-24 24,-26 10,-15 10,-18 16,-33 3,-5 14,-21 32,-44 33,-45 31,-45 49,-67 39,-54 15,-30 6,-15 1,-5 4,-15 77,-35 113,16 118,-25 241,-145 72,35 93,-40 -5,-60 -77,-36 -16,-60 11,-20 61,5 62,-100 21,-10 41,10 51,25 41,-10 31,41 -11,70 21,30 41,6 31,-41 5,-20 51,-15 87,36 108,-45 77,-125 11,-86 82,-151 -5,-25 -35,-30 -21,-56 31,-65 36,0 15,61 41,35 134,16 148,-20 -4,-86 -36,-35 -10,-70 -26,-31 26,-55 56,-20 36,0 57,46 5,40 -37,80 16,51 30,5 83,-60 46,5 112,96 42,-5 25,-15 16,-95 133,-60 47,-56 0,-40 15,-25 21,-20 10,-86 z" />
<path id="Grant" d="M 6927,-7296 l 29,968 8,967 14,961 -1,157 -1132,8 -2409,25 -5,-317 -21,-1773 -8,-957 656,-8 953,-14 302,-4 656,-9 z" />
<path id="Greene" d="M -6811,9184 l 348,6 954,18 944,38 979,-3 -18,951 -23,966 3,956 -108,0 -456,-1 -380,-1 -318,-1 -662,3 -979,12 -682,-22 -298,-11 0,-30 -954,-13 34,-961 23,-986 8,-967 964,39 z" />
<path id="Hamilton" d="M 3447,-2452 l -7,901 16,2170 -1,166 -636,19 -35,0 -334,4 -2209,15 -5,-322 -23,-967 -2,-981 -4,-559 -10,-383 980,-28 979,-13 953,-13 z" />
<path id="Hancock" d="M 5891,578 l 19,801 -180,4 8,972 -312,-1 2,972 -461,4 -959,-2 -974,23 -333,9 -27,-1917 139,-5 6,-634 636,-19 1,-166 z" />
<path id="Harrison" d="M 2046,17564 l -2,966 159,0 4,312 164,1 10,302 185,-5 -1,166 164,0 39,831 457,0 0,77 -7,18 -43,105 -13,274 26,311 8,94 -4,153 -30,112 -32,119 -21,86 -9,46 -8,46 -43,264 -25,71 -139,170 -14,16 -39,14 -37,13 -72,25 -80,16 -13,2 -258,49 -13,1 -143,27 -133,51 -41,54 -8,13 -2,8 1,125 1,75 -15,38 -26,30 -57,20 -93,-70 -61,-84 -151,-290 -104,-100 -4,-2 -155,-67 -111,-15 -27,-2 -46,4 -142,20 -79,21 -52,14 -46,10 -18,-2 -69,-15 -241,-109 -10,-7 -249,-192 -173,-104 -34,-25 -14,-12 -110,-123 -4,-6 -31,-71 -8,-34 -32,-180 1,-108 21,-118 52,-278 -26,-101 -41,-72 -16,-19 -87,-97 -35,-35 -38,-22 -63,-34 -124,-65 -83,-65 47,-31 76,51 41,0 26,-40 -77,-71 16,-15 46,5 26,-131 21,-25 56,5 51,16 31,-5 -46,-86 46,-15 11,-35 -82,-61 5,-25 41,-35 77,46 41,-31 21,-40 11,-286 5,-46 6,-236 46,0 31,-91 56,36 16,-5 20,-76 21,-10 5,-40 -15,-15 -52,-10 -41,30 6,-106 20,0 26,-10 0,-15 -77,-25 -26,10 -51,-15 -113,-81 57,-91 10,16 21,20 41,15 5,-55 5,-51 -25,-100 0,-20 20,-5 26,-5 -25,-66 -16,-30 21,-70 26,-61 56,5 10,46 52,30 36,-15 41,-50 0,-30 -5,-15 -82,-26 -10,-121 -21,-40 57,-35 25,15 52,-35 5,-20 -31,-30 -20,-46 5,-35 -20,-45 10,-55 -51,-36 -41,5 -16,-25 47,-35 41,-81 z" />
<path id="Hendricks" d="M -513,846 l 14,640 -26,0 0,151 9,2451 -1184,22 4,322 -944,3 -692,-2 21,-96 51,-45 52,-80 0,-116 -215,-1 -175,5 7,-649 8,-987 8,-971 -72,5 -3,-650 z" />
<path id="Henry" d="M 8964,-902 l 14,801 118,0 18,1434 -103,0 -61,5 3,947 -184,-6 -503,20 -431,-1 -969,18 -953,39 -175,0 -8,-972 180,-4 -19,-801 -2,-1455 z" />
<path id="Howard" d="M 3410,-6300 l 21,1773 -3223,53 -6,161 5,167 -323,-1 -5,-161 -240,-1 -4,-483 -559,-2 9,-1440 148,0 984,-12 641,-9 328,-4 963,-18 959,-18 z" />
<path id="Huntington" d="M 7841,-11213 l 0,30 9,957 13,967 14,973 8,972 -958,18 -958,4 -656,9 -23,-1275 -5,-181 -46,-2398 661,-4 0,-25 958,-29 z" />
<path id="Jackson" d="M 1612,10544 l 4,156 1898,-61 16,-25 -36,-45 5,-15 41,-25 41,-41 36,-10 6,-40 41,-20 10,-20 61,0 57,-15 41,-50 57,-15 107,-10 57,25 13,770 5,317 8,644 0,91 5,100 8,785 5,187 -51,55 10,15 -46,106 -21,35 25,100 -56,25 -10,-25 -16,25 -51,10 -26,51 5,20 -15,5 -57,80 -10,121 -16,10 -20,-15 -11,45 -25,10 -26,25 10,66 -51,10 0,40 -31,-20 -57,70 -20,-20 -46,30 -16,-15 -25,10 -11,10 -25,5 -36,-10 -31,-21 -25,-35 -31,0 -26,-20 -36,-25 -41,-41 0,-15 31,-5 -15,-40 21,-30 -36,-41 -26,26 -21,-16 -25,26 -16,-26 -51,-15 -26,10 0,40 -82,-20 16,-50 -72,15 -20,-30 5,-56 -77,45 5,30 -10,21 -36,5 -16,-56 21,-25 -72,-5 -25,-30 -52,45 -10,55 -72,30 -26,-10 -10,-65 -41,15 0,-81 -61,-25 -67,80 -36,-10 -46,50 -46,0 -16,-15 -10,-35 21,-50 -41,-16 -21,0 -36,66 -46,0 -77,-1 -26,-10 -51,-90 -107,-91 -57,10 -36,40 -61,-66 -108,-40 -46,20 -15,30 -16,60 15,61 -36,35 -30,-20 -88,0 -71,35 -88,14 -66,-40 -108,-40 -82,-61 -26,30 -56,-5 -41,-35 -15,-56 -26,-15 -31,10 0,40 -10,15 -56,-5 -21,-10 -5,-40 -51,-10 -16,30 -25,15 -41,-10 -16,20 0,60 -31,10 -20,-15 -5,-55 -36,-10 -88,100 -10,20 -51,25 -57,-25 -46,0 -15,-46 -57,25 -5,46 -66,-6 -36,21 -32,-1887 -4,-327 6,-333 -338,0 -4,-468 0,-146 261,10 118,1 247,10 1338,-32 z" />
<path id="Jasper" d="M -5561,-13758 l -1,80 -12,640 -8,958 -3,972 3,942 -492,-1 -2,806 -456,-2 -492,4 -4,1128 -466,-1 -942,-14 3,-962 -2,-982 -67,0 -4,-303 22,-649 8,-973 9,-962 1,-504 421,-180 67,-71 169,-196 57,-65 56,-25 216,-95 241,-105 107,10 302,112 189,71 128,107 490,359 57,66 46,20 56,0 92,-55 134,-40 41,-35 z" />
<path id="Jay" d="M 12387,-6457 l 22,2432 4,479 -804,19 -1000,19 -948,24 -748,19 -29,-796 97,-4 16,5 -9,-1129 47,1 -9,-973 799,-14 318,-9 651,-19 963,-30 z" />
<path id="Jefferson" d="M 7127,12025 l 503,-9 128,-5 180,0 969,-24 318,-14 36,2504 -102,-48 -9,-9 -147,-164 -69,-106 -52,-75 -45,-50 -6,-4 -102,-56 -166,-24 -29,-2 -118,-1 -185,26 -5,1 -107,36 -25,5 -216,48 -164,-10 -13,-2 -123,-28 -80,-18 -101,6 -7,0 -148,77 -37,37 -13,14 -116,226 -5,12 -10,70 7,90 7,43 23,49 3,6 73,128 3,8 46,122 0,386 -1,112 27,161 53,109 7,11 -441,-1 -5,-65 -154,-1 -5,-161 -636,14 -4,-498 -4,-302 -329,0 -9,-322 -52,0 -128,-1 -143,0 -5,-247 -154,0 -5,-95 -174,4 -3,-850 0,-106 400,-9 0,86 77,0 0,-86 164,-5 -9,-312 328,-4 -10,-317 323,-4 -14,-343 502,-9 47,0 107,-5 z" />
<path id="Jennings" d="M 7139,8900 l -13,1530 -1,60 2,1535 -154,-1 -107,5 -47,0 -502,9 14,343 -323,4 10,317 -328,4 9,312 -164,5 0,86 -77,0 0,-86 -400,9 0,106 -62,-5 -26,-20 -25,35 -52,-20 -20,-31 -5,-60 -56,-45 -26,-1 -36,31 15,25 -10,5 -67,-15 -35,-1 -47,26 -15,30 -41,10 -72,-5 -26,-16 -36,15 11,36 -41,30 -16,-25 -46,10 0,40 -26,20 -46,-40 -25,10 -26,55 -103,-5 -5,-187 -8,-785 -5,-100 0,-91 -8,-644 -5,-317 -13,-770 -5,-191 -4,-483 959,-23 1052,-28 z" />
<path id="Johnson" d="M 2699,4015 l 13,3231 -251,4 -77,0 -298,5 -523,13 -133,0 -318,10 -959,27 -8,-986 2,-956 18,-961 -4,-333 z" />
<path id="Knox" d="M -7209,12106 l 30,35 -5,36 -36,9 -25,-20 -31,-5 -57,60 -41,56 -31,20 -61,45 30,85 31,36 0,25 -36,30 -31,-15 -20,-46 -21,-10 -20,15 -11,35 26,36 -5,35 20,25 36,-5 0,46 -52,-6 -97,-96 -20,5 -11,21 62,70 -26,70 36,31 -26,25 15,45 -41,50 -46,10 -36,-55 -61,-20 -16,10 -46,-31 -46,25 -51,-5 -21,-25 -31,15 10,30 88,20 15,51 -16,20 26,25 0,25 -36,15 -56,-60 -31,0 0,70 -16,30 -35,-60 -26,-10 -21,20 -10,20 10,20 62,30 5,35 -26,66 -31,-20 -15,-86 -46,-20 -21,25 21,95 -47,36 -20,50 -26,-10 21,-126 5,-15 -25,-30 -47,15 31,115 -31,-5 -31,20 -20,66 -26,0 -10,-21 20,-70 -46,-15 -31,35 -25,-5 0,-40 41,-21 -46,-35 -67,136 46,55 -16,61 26,85 -6,91 -31,25 -71,-10 -36,15 -16,105 26,45 41,1 46,-45 46,15 -46,120 -31,-20 -31,5 -10,30 71,76 41,50 16,26 -36,15 -41,-26 -67,76 -6,35 67,25 -5,45 -36,5 -46,-40 -10,-20 0,-25 -21,-6 -20,41 20,55 36,40 0,36 -57,35 -10,50 -52,35 26,81 -108,75 66,55 67,6 20,5 0,25 -71,10 -31,20 0,20 97,81 5,50 10,30 72,-115 21,-25 31,15 -6,50 -82,90 -26,51 41,70 108,-70 31,15 -21,71 20,55 -36,0 -51,-56 -31,15 5,61 67,20 10,76 57,20 -37,35 -41,-10 -35,-25 -36,45 35,70 77,91 0,81 -41,-6 -46,-55 -47,25 26,40 113,56 -21,40 -61,10 -6,15 36,40 -36,51 -5,35 30,55 62,1 15,15 -5,55 -36,45 -36,0 -20,25 61,31 36,45 -21,30 -77,5 10,30 77,41 -36,90 -15,15 -36,0 -21,25 -46,90 5,66 -175,80 -123,90 -118,15 -46,-96 -210,-106 -174,-162 -57,-20 -66,10 -36,55 15,65 56,76 5,30 -26,75 -46,46 -46,-6 -46,-35 -21,-55 26,-126 -35,-66 -36,-15 -57,5 -61,-30 -41,10 -26,25 -5,120 -52,5 -56,-40 0,-81 -25,-35 -62,25 -5,96 -31,15 -82,-51 -149,-6 -15,11 -11,4 -10,86 -21,20 -15,25 0,40 -47,56 -133,60 -16,95 -25,15 -42,5 -112,-96 -46,-5 -83,60 -30,-5 -16,-51 37,-80 -5,-40 -57,-46 -36,0 -56,20 -26,55 26,31 10,70 36,35 4,86 -148,20 -134,-16 -41,-35 -15,-61 -36,0 -31,65 21,56 35,30 5,25 -82,151 -11,86 -77,125 -108,45 -87,-36 -51,15 -5,20 -31,41 -41,-6 -21,-30 11,-70 -31,-41 -41,10 -51,-25 -41,-10 -21,10 -62,100 -61,-5 -11,20 16,60 77,36 5,60 -93,40 -72,-35 -241,145 -118,25 -113,-16 -77,35 5,-30 2,-27 3,-44 6,-50 1,-12 4,-33 0,-11 3,-13 7,-37 11,-25 26,-23 22,-18 21,-25 6,-20 0,-13 -3,-16 -3,-6 -8,-11 -12,-15 -8,-8 -12,-6 -8,-3 -26,-6 -26,-1 -36,-5 -17,-3 -7,-4 -6,-1 -10,-7 -10,-10 -4,-8 -4,-35 0,-10 2,-8 11,-39 16,-32 22,-30 3,-5 28,-29 28,-26 31,-19 17,-2 30,-3 30,-1 5,1 26,-2 46,-2 28,-1 38,-1 37,-4 62,-24 19,-11 47,-24 42,-24 20,-11 36,-31 7,-10 19,-28 27,-39 14,-33 16,-30 14,-21 10,-10 18,1 9,0 4,3 12,6 18,18 20,10 13,6 15,3 19,0 9,-2 26,-10 22,-9 16,-20 11,-25 5,-25 -5,-30 -5,-25 -7,-11 -11,-14 -19,-26 -20,-16 -15,-19 -14,-27 -10,-19 -19,-37 -19,-46 -30,-48 -20,-35 -3,-12 0,-8 7,-19 6,-6 26,-25 31,-25 20,-10 26,-15 27,-31 3,-7 9,-23 1,-35 6,-25 6,-20 0,-10 6,-11 9,-14 7,-6 4,-4 10,-5 20,-15 19,-14 10,-18 12,-30 1,-20 0,-29 -4,-27 1,-15 3,-23 2,-12 6,-16 6,-6 12,-11 5,-1 14,0 16,5 25,25 19,13 28,10 21,4 31,5 22,0 14,-9 6,-19 2,-12 -4,-31 -14,-25 -5,-3 -15,-8 -13,-7 -8,-4 -33,-15 -17,-22 -4,-13 -3,-13 6,-36 10,-34 10,-21 10,-20 6,-20 0,-65 11,-20 10,-22 15,-24 1,-6 1,-16 1,-30 -9,-25 -4,-26 0,-19 6,-21 16,-19 4,-4 17,-15 26,-6 19,-9 20,-15 15,-20 10,-28 12,-40 6,-30 17,-35 15,-31 8,-12 46,-35 31,-19 22,-10 29,-11 67,-25 56,-15 72,-9 65,-15 5,-1 84,-26 62,-23 42,-39 14,-12 23,-22 34,-42 27,-61 12,-60 4,-23 2,-12 7,-35 1,-6 5,-29 2,-10 7,-26 11,-20 15,-26 16,-30 15,-19 17,-23 10,-25 12,-19 18,-33 20,-31 16,-20 15,-15 11,-25 -5,-25 -11,-15 -15,-16 -11,-19 1,-21 0,-26 11,-30 2,-7 8,-27 10,-30 2,-12 3,-14 0,-29 -15,-16 -25,-6 -26,4 -15,3 -11,1 -15,0 -11,-2 -4,-2 -11,-7 -9,-15 4,-17 4,-6 8,-7 12,-4 14,-5 21,-10 11,-3 15,-6 21,-11 7,-3 7,-4 8,-6 10,-12 6,-12 0,-21 -4,-35 -9,-30 -7,-18 -11,-18 -31,-41 -8,-11 -68,-89 -41,-55 -20,-36 -21,-39 -18,-24 -4,-11 -3,-11 8,-34 13,-22 17,-18 8,-17 -5,-30 -12,-32 -5,-8 -5,-7 -14,-31 -4,-33 0,-27 -4,-21 -1,-18 -5,-19 -7,-24 -5,-10 -10,-10 -10,-11 -45,-31 -5,-1 -72,-20 -21,-7 -18,-12 -15,-20 -10,-21 1,-10 2,-5 5,-10 10,-5 16,-5 17,-1 7,-7 11,-10 11,-14 -1,-18 -8,-13 -5,-15 1,-15 6,-20 3,-5 7,-10 16,-9 22,-9 15,-5 21,-17 0,-34 -20,-19 -26,-25 -6,-7 -17,-21 -5,-15 -2,-13 4,-30 11,-10 10,-5 15,9 16,6 15,5 11,0 10,-5 10,-30 27,-23 11,-8 17,-12 25,-9 20,-4 21,-4 8,-5 5,0 318,11 1082,24 990,-2 0,-60 954,13 0,30 z" />
<path id="Kosciusko" d="M 5111,-15991 l 18,958 14,635 10,313 3,978 -297,-1 24,993 9,478 -2193,57 -599,13 -9,-498 -487,14 -18,-983 200,0 -33,-1441 -17,-1447 0,-35 487,-9 947,-8 978,-3 z" />
<path id="LaGrange" d="M 8112,-19597 l 584,-8 194,0 20,651 19,983 19,953 -953,19 -962,9 -968,23 -963,14 -23,-968 -19,-963 -19,-687 701,1 z" />
<path id="LaPorte" d="M -4653,-19570 l 372,3 114,1 241,1 829,6 920,8 37,0 -12,575 -6,393 -6,176 0,81 164,1 164,10 3,802 -98,110 -1,399 -15,25 -11,91 -194,4 -3,958 -481,4 -497,-7 -241,221 -92,20 -144,86 -31,40 -36,121 -16,100 -31,61 -103,161 -5,96 -31,60 -31,50 -31,41 -20,100 -11,76 -56,60 -139,106 -118,155 -67,91 -251,130 -82,15 -21,10 -112,-10 -57,50 -200,30 -61,50 -118,40 -51,15 -154,105 -41,5 -62,76 -15,10 5,-207 1,-348 -3,-584 0,-81 1,-161 5,-147 7,-660 13,-943 -14,-479 12,-504 -7,-978 0,-161 1,-20 81,-30 52,-20 31,-76 30,-10 11,-30 51,-25 82,-35 82,-45 67,-35 97,-56 154,-90 51,-30 z" />
<path id="Lake" d="M -10465,-19103 l 6,5 81,86 -20,30 20,25 112,102 61,55 62,26 15,35 51,25 46,41 82,41 92,-25 87,106 31,-10 5,-81 92,-80 56,56 -185,206 138,141 51,0 57,1 10,0 36,30 102,36 143,61 31,15 143,36 128,30 92,1 46,45 56,21 123,0 36,5 107,-4 108,-5 399,-39 0,106 -1,126 -1,378 2,1185 -9,983 0,161 -6,237 -1,222 0,161 4,166 0,166 -6,81 0,272 5,10 -67,71 -421,180 -82,35 -323,321 -62,35 -77,5 -36,0 -297,105 -118,110 -98,0 -76,5 -220,-127 -46,-10 -16,-6 -87,46 -179,-1 -389,39 19,-1120 1,-348 13,-1225 15,-696 21,-892 36,-1583 z" />
<path id="Lawrence" d="M -441,11174 l 338,0 -6,333 4,327 32,1887 -41,14 -21,31 -46,75 -6,65 -20,31 -1,100 -77,15 -25,-15 -72,30 19,503 -2149,0 -159,-1 -959,3 3,-1469 0,-21 1,-332 2,-634 -3,-956 975,3 969,3 144,0 651,2 159,0 z" />
<path id="Madison" d="M 5845,-4235 l 44,3358 2,1455 -2435,41 -16,-2170 7,-901 -11,-1758 z" />
<path id="Marion" d="M 241,823 l 2209,-15 334,-4 35,0 -6,634 -139,5 27,1917 -2,655 -2538,54 -677,19 -9,-2451 0,-151 26,0 -14,-640 256,-9 180,-5 z" />
<path id="Marshall" d="M 1732,-16426 l 0,162 4,307 0,35 17,1447 33,1441 -200,0 -297,4 -128,5 -773,8 -169,0 -881,3 -87,0 -538,-2 -394,9 1,-398 0,-141 6,-509 3,-786 0,-313 1,-116 -4,-483 0,-172 1,-307 0,-167 21,0 72,1 169,0 481,-9 241,-4 158,0 200,-10 604,-3 650,-4 118,1 369,0 159,1 z" />
<path id="Martin" d="M -5548,12116 l 662,-3 318,1 380,1 456,1 108,0 -2,634 -1,332 0,21 -3,1469 -1,276 -1,172 0,15 8,971 -1,347 -974,-3 -144,0 -123,-1 -113,0 15,35 -77,91 -98,60 -133,40 -46,45 -11,60 -26,15 -97,-10 -77,-66 -66,15 -57,45 -72,-45 -10,-56 35,-3486 159,-5 -4,-322 z" />
<path id="Miami" d="M 2693,-11102 l 0,20 60,3104 4,191 9,534 333,1 303,-5 8,957 -302,5 -959,18 -963,18 -328,4 -24,-891 -9,-403 -14,-398 11,-298 -1,-1858 1,-494 0,-66 12,-403 322,-9 933,-8 z" />
<path id="Monroe" d="M -3139,7232 l 0,75 497,22 949,7 702,-8 8,800 5,171 67,5 22,1414 -1,146 0,297 -6,131 0,272 451,-4 0,146 4,468 -288,-6 -159,0 -651,-2 -144,0 -969,-3 -975,-3 23,-966 18,-951 -7,-966 -8,-926 164,61 15,-25 26,5 41,25 20,-30 -20,-106 5,-65 37,-75 30,5 82,85 z" />
<path id="Montgomery" d="M -3652,-2389 l -6,398 -2,559 8,976 3,972 -1,332 3,650 -846,-13 -118,0 -779,-23 -184,-10 -775,-18 -210,0 -497,-7 13,-946 19,-2925 482,11 963,13 958,23 z" />
<path id="Morgan" d="M 161,4069 l 4,333 -18,961 -2,956 8,986 -928,18 -216,5 -702,8 -949,-7 -497,-22 0,-75 -7,-1349 -462,-6 2,-494 0,-130 134,-86 149,-150 36,-86 -30,-126 -15,-221 -5,-111 5,-40 692,2 944,-3 -4,-322 1184,-22 z" />
<path id="Newton" d="M -8466,-13581 l -1,504 -9,962 -8,973 -22,649 4,303 67,0 2,982 -3,962 -974,-8 -927,-13 -302,-1 0,-36 14,-1088 25,-1576 1,-25 2,-344 18,-1210 7,-477 389,-39 179,1 87,-46 16,6 46,10 220,127 76,-5 98,0 118,-110 297,-105 36,0 77,-5 62,-35 323,-321 z" />
<path id="Noble" d="M 8948,-17018 l 18,978 9,973 19,973 -968,3 -5,0 -963,4 -958,-2 1,-317 -958,8 -14,-635 -18,-958 6,-388 -15,-574 963,-14 968,-23 962,-9 z" />
<path id="Ohio" d="M 12049,10639 l 156,191 48,80 57,96 74,124 8,17 4,12 34,132 5,85 -3,23 -20,40 -47,53 -144,162 -5,6 -41,45 -72,81 -26,35 -7,13 -22,68 -2,9 10,46 26,50 77,75 41,16 -2457,16 37,-291 31,-207 51,1 67,-86 61,-5 5,35 -66,96 15,70 20,20 41,1 36,-36 46,-15 36,41 26,15 31,-66 26,-15 41,-95 20,-15 46,45 26,5 21,-5 41,-20 66,20 11,-35 -11,-70 36,-20 31,-41 0,-50 36,-15 57,-80 56,0 77,20 36,-91 62,16 61,30 47,-55 -11,-46 31,-100 31,-15 10,15 21,15 51,-5 21,-15 118,40 41,-55 41,35 51,-5 15,-20 47,-20 20,-20 -20,-76 36,-25 31,10 15,31 62,-46 41,-70 25,20 26,-15 51,-45 21,0 107,60 z" />
<path id="Orange" d="M -363,14570 l -7,2943 20,282 -477,-11 -170,-1 -1888,1 -410,-1 -67,-1 -261,0 0,-252 -4,-211 2,-966 1,-347 -8,-971 0,-15 1,-172 1,-276 959,-3 159,1 z" />
<path id="Owen" d="M -3608,5877 l 462,6 7,1349 -62,-1 -82,-85 -30,-5 -37,75 -5,65 20,106 -20,30 -41,-25 -26,-5 -15,25 -164,-61 8,926 7,966 -979,3 -944,-38 -954,-18 -348,-6 31,-1923 338,12 615,6 30,-1454 118,0 190,6 z" />
<path id="Parke" d="M -7043,481 l -13,946 497,7 210,0 4,514 -11,463 -19,971 -18,987 -964,-33 -651,-28 -313,-11 -974,-13 -282,-6 11,-70 -46,-106 -26,-31 -25,-80 10,-91 -35,-90 10,-81 47,-45 10,-40 -10,-56 -15,-30 87,-211 -35,-86 51,-70 -40,-121 67,-272 -9,-266 15,-56 21,-65 5,-20 0,-40 -5,-66 0,-45 -66,-197 12,-292 87,-10 46,-55 41,-95 6,-56 41,-20 20,-40 -15,-30 -123,-41 -77,-86 1,-20 92,-65 5,-20 -40,-126 -46,-66 -51,-40 -62,-5 -154,-76 -30,-61 77,-65 -20,-40 -47,-6 -71,35 -108,-60 -10,-41 103,-100 26,-95 -10,-21 405,7 958,8 984,13 z" />
<path id="Perry" d="M -3617,19271 l 118,0 831,-8 -7,624 970,3 -12,870 -6,179 -10,47 15,51 13,17 60,62 9,6 46,16 51,20 46,45 16,20 6,11 27,70 2,10 0,23 -5,56 -5,27 -14,29 -48,81 -118,123 -123,41 -175,10 -25,2 -82,-3 -26,2 -14,1 -63,20 -16,9 -17,12 -33,36 -35,96 -3,35 -6,74 -4,52 -13,155 -2,16 1,29 2,248 42,141 77,152 3,6 26,55 9,31 5,26 -20,91 -71,76 -107,46 -175,-4 -30,-3 -263,-29 -102,46 -37,45 -9,27 -14,69 8,150 9,152 1,10 -20,106 -13,28 -14,26 -13,15 -109,100 -7,6 -150,83 -82,31 -109,-15 -47,-33 -7,-7 -31,-51 -10,-65 9,-34 80,-261 54,-177 -6,-86 -12,-16 -12,-15 -110,-53 -98,1 -28,7 -24,10 -47,29 -231,166 -36,9 -51,11 -31,-3 -17,-4 -120,-117 -11,-12 -102,-121 -95,-196 -49,-107 -33,-80 -47,-127 -110,-293 -99,-75 -114,-49 102,-25 52,-56 21,-35 76,36 62,65 82,21 26,0 10,-20 -20,-116 -10,-156 -15,-81 -26,-50 0,-45 5,-41 -10,-25 -15,-25 21,-55 51,-10 77,-45 -56,-56 -26,-75 -30,-61 -21,-30 72,-60 26,-30 0,-166 -30,-46 -36,15 -16,25 -20,5 -31,-30 -31,-15 -35,-126 -21,-91 -20,-60 -25,-101 -47,-25 -10,-15 21,-30 10,-15 21,-30 20,-30 31,-51 -41,-60 -25,-91 -5,-121 57,-20 31,-65 0,-196 1,-468 996,13 z" />
<path id="Pike" d="M -7026,16459 l -34,3134 -1976,-16 6,-156 -164,-1 24,-1459 -20,-5 -103,-20 -41,-25 -92,-21 -108,20 -56,20 -72,-5 -67,-21 -61,15 -67,-5 -46,-10 -52,15 -15,10 12,-629 -328,-6 5,-81 0,-85 1,-176 -170,-1 1,-156 6,-402 1,-166 15,-11 149,6 82,51 31,-15 5,-96 62,-25 25,35 0,81 56,40 52,-5 5,-120 26,-25 41,-10 61,30 57,-5 36,15 35,66 -26,126 21,55 46,35 46,6 46,-46 26,-75 -5,-30 -56,-76 -15,-65 36,-55 66,-10 57,20 174,162 210,106 46,96 118,-15 123,-90 175,-80 -5,-66 46,-90 21,-25 36,0 15,-15 21,-10 36,10 66,51 62,20 56,-45 36,-75 62,-30 179,55 82,71 20,106 77,-5 67,56 -21,80 41,51 51,0 83,-30 10,-20 -36,-66 11,-35 25,-30 36,20 41,56 21,5 41,-15 0,-91 41,-25 62,-10 66,46 41,50 25,76 98,20 -52,55 0,30 36,11 52,-30 z" />
<path id="Porter" d="M -5540,-19031 l -1,20 0,161 7,978 -12,504 14,479 -13,943 -7,660 -5,147 -1,161 0,81 3,584 -1,348 -5,207 -36,55 -41,35 -134,40 -92,55 -56,0 -46,-20 -57,-66 -490,-359 -128,-107 -189,-71 -302,-112 -107,-10 -241,105 -216,95 -56,25 -57,65 -169,196 -5,-10 0,-272 6,-81 0,-166 -4,-166 0,-161 1,-222 6,-237 0,-161 9,-983 -2,-1185 1,-378 1,-126 0,-106 379,-85 467,-139 241,-90 128,-60 82,-30 77,-40 118,-50 97,-40 92,-40 72,-41 87,-40 108,-60 143,-75 118,-65 98,-50 61,-25 z" />
<path id="Posey" d="M -15017,19481 l 1595,71 -6,161 0,146 970,3 -7,373 -6,478 -72,-6 -33,966 -29,946 -6,624 -19,11 -137,40 -17,5 -5,0 -136,-8 -5,0 -159,-10 -46,21 -10,5 -41,24 -43,30 -8,6 -73,55 -18,10 -84,32 -16,2 -61,1 -159,-7 -10,-1 -119,-36 -20,-8 -12,-11 -62,-72 -24,-47 -23,-44 -7,-6 -41,-37 -43,-40 -13,-16 -12,-18 -26,-56 -39,-77 -13,-15 -96,-80 -84,-25 -12,-2 -41,5 -20,10 -43,29 -50,56 -67,75 -36,50 -45,62 -45,60 -39,50 -20,35 -8,23 -11,59 -2,13 8,30 27,77 187,231 26,50 20,108 32,168 1,11 -26,106 -5,15 -206,130 -46,61 -47,80 -41,65 -6,7 -67,46 -9,2 -13,0 -28,-7 -21,-8 -10,-9 -87,-96 -42,-46 -110,-68 -27,-16 -17,-11 -67,-60 -72,-19 -61,9 -8,3 -60,28 -5,-36 -3,-20 -9,-35 -8,-16 -8,-13 -20,-15 -16,-6 -13,-3 -41,-1 -7,2 -40,11 -21,10 -10,4 -27,19 -31,14 -41,9 -41,-6 -46,-22 -45,-33 -7,-14 -19,-41 -21,-56 -2,-6 -12,-45 -1,-12 0,-32 5,-30 11,-20 25,-15 31,-5 31,7 40,18 22,10 56,26 56,30 18,7 25,7 50,6 35,-4 42,-10 4,-2 29,-15 15,-7 8,-6 4,-4 10,-12 12,-45 0,-35 -9,-32 -24,-30 -22,-15 -22,-14 -71,-30 -77,-41 -52,-30 -57,-47 -35,-60 -20,-44 -27,-49 -15,-35 -24,-42 -19,-41 -24,-41 -11,-17 -9,-14 -20,-30 -15,-39 -13,-33 2,-35 3,-16 4,-11 10,-21 21,-9 8,-2 17,0 25,11 26,16 36,30 25,22 29,22 50,37 29,6 42,6 62,4 36,-5 4,-1 18,-5 29,-7 8,-2 12,0 26,5 11,5 15,9 17,13 28,14 20,6 5,-2 21,-8 13,-8 8,-8 16,-28 5,-27 0,-19 -2,-19 -1,-14 -7,-29 -21,-45 -20,-30 -31,-11 -51,-10 -120,-16 -6,-1 -49,-9 -77,0 -22,-6 -25,-5 -20,-15 -15,-16 -12,-13 -3,-6 -9,-25 2,-26 18,-34 15,-20 21,-15 25,-10 20,0 20,11 28,25 7,7 20,15 25,21 19,11 22,1 31,-4 24,-6 22,-13 24,-22 14,-22 1,-30 -4,-35 -14,-51 -8,-51 -9,-50 2,-41 0,-12 3,-15 2,-6 8,-13 21,-16 20,-12 26,-8 21,-10 26,-14 25,-16 22,-22 15,-23 5,-20 3,-22 7,-35 -9,-46 -5,-22 -6,-16 -22,-58 -6,-13 -52,-96 -14,-30 -6,-25 -2,-15 -5,-36 12,-35 16,-35 28,-40 4,-4 22,-29 49,-35 9,-14 4,-8 1,-31 -17,-24 -7,-4 -13,-7 -18,-3 -13,0 -48,3 -35,4 -34,1 -36,-5 -26,-16 -26,-26 -19,-29 1,-31 8,-17 11,-17 21,-31 30,-20 21,-10 20,-6 57,-4 77,13 35,6 31,2 26,-10 36,-8 37,-14 36,-13 23,-13 32,-16 88,-55 56,-30 32,-25 42,-34 23,-32 21,-37 12,-38 1,-10 5,-37 1,-17 -3,-11 -6,-24 -5,-14 -10,-25 -6,-9 -8,-14 0,-51 -16,-15 -17,-4 -23,4 -21,10 -29,14 -74,41 -128,65 -25,13 -30,13 -10,5 -36,14 -21,4 -15,-5 -17,-10 -5,-4 -8,-13 -10,-20 -8,-14 -5,-14 -5,-35 6,-38 11,-20 32,-35 21,-14 38,-23 35,-9 23,-1 70,0 31,1 5,-2 31,-9 26,-10 20,-15 4,-6 12,-19 10,-35 5,-45 6,-39 11,-33 25,-26 10,-9 51,-13 29,-8 26,6 30,11 31,10 19,1 14,-5 29,-29 23,-31 15,-27 6,-11 14,-17 23,-27 21,-19 23,-15 26,-20 20,-23 9,-14 7,-10 6,-20 17,-19 15,-15 17,-25 0,-25 -14,-36 -4,-20 -14,-21 -16,-10 -11,-1 -11,3 -13,10 -12,11 -4,6 -7,9 -21,29 -20,20 -20,5 -10,-6 -3,-5 -4,-16 -4,-35 -1,-6 -12,-35 -5,-25 -11,-33 -18,-18 -15,-16 -35,-16 -20,-1 -36,-6 -14,-6 -32,-18 -51,-41 -4,-3 -29,-38 -59,-100 -4,-8 -27,-67 -12,-48 -7,-32 -4,-24 -2,-27 5,-55 0,-17 2,-53 3,-11 z" />
<path id="Pulaski" d="M -1681,-13007 l -8,968 8,962 -8,978 -948,-33 -56,0 -922,-13 -26,0 -968,-8 -973,-13 -3,-942 3,-972 8,-958 1946,6 830,12 149,1 292,0 476,7 123,5 z" />
<path id="Putnam" d="M -3647,1498 l 72,-5 -8,971 -8,987 -7,649 175,-5 215,1 0,116 -52,80 -51,45 -21,96 -5,40 5,111 15,221 30,126 -36,86 -149,150 -134,86 0,130 -2,494 -1881,-46 -190,-6 -118,0 -620,-7 11,-488 13,-961 18,-987 19,-971 11,-463 -4,-514 775,18 184,10 779,23 118,0 z" />
<path id="Randolph" d="M 12413,-3546 l 12,1511 -16,433 -4,96 6,1338 -403,0 -297,10 -2615,57 -118,0 -14,-801 -14,-650 -13,-941 -24,-972 748,-19 948,-24 1000,-19 z" />
<path id="Ripley" d="M 10363,7612 l -63,452 -73,534 -62,453 -63,513 -57,468 -130,1001 -68,332 -15,100 -21,151 -31,207 -560,9 5,141 -318,14 -969,24 -180,0 -128,5 -503,9 -2,-1535 1,-60 13,-1530 1233,-818 652,-442 16,-10 z" />
<path id="Rush" d="M 8266,2299 l 55,2914 19,810 -2861,31 -51,-2728 -2,-972 312,1 175,0 953,-39 969,-18 z" />
<path id="Saint_Joseph" d="M 342,-19561 l 1357,-8 29,2911 5,71 -1,161 -163,0 -159,-1 -369,0 -118,-1 -650,4 -604,3 -200,10 -158,0 -241,4 -481,9 -169,0 -72,-1 -21,0 0,167 -1,307 -481,-1 3,-958 194,-4 11,-91 15,-25 1,-399 98,-110 -3,-802 -164,-10 -164,-1 0,-81 6,-176 6,-393 12,-575 594,5 1397,-12 z" />
<path id="Scott" d="M 5058,13138 l 3,850 174,-4 5,95 154,0 5,247 143,0 128,1 52,0 9,322 329,0 4,302 4,498 -1950,32 5,161 -82,-6 0,86 -82,0 0,80 -82,0 4,141 -230,0 -10,-146 -318,4 -37,-1756 31,0 25,35 31,21 36,10 25,-5 11,-10 25,-10 16,15 46,-30 20,20 57,-70 31,20 0,-40 51,-10 -10,-66 26,-25 25,-10 11,-45 20,15 16,-10 10,-121 57,-80 15,-5 -5,-20 26,-51 51,-10 16,-25 10,25 56,-25 -25,-100 21,-35 46,-106 -10,-15 51,-55 103,5 26,-55 25,-10 46,40 26,-20 0,-40 46,-10 16,25 41,-30 -11,-36 36,-15 26,16 72,5 41,-10 15,-30 47,-26 35,1 67,15 10,-5 -15,-25 36,-31 26,1 56,45 5,60 20,31 52,20 25,-35 26,20 z" />
<path id="Shelby" d="M 5428,3326 l 51,2728 5,30 3,1097 -472,14 -990,3 -985,43 -328,5 -13,-3231 2,-655 333,-9 974,-23 959,2 z" />
<path id="Spencer" d="M -4614,19892 l 0,196 -31,65 -57,20 5,121 25,91 41,60 -31,51 -20,30 -21,30 -10,15 -21,30 10,15 47,25 25,101 20,60 21,91 35,126 31,15 31,30 20,-5 16,-25 36,-15 30,46 0,166 -26,30 -72,60 21,30 30,61 26,75 56,56 -77,45 -51,10 -21,55 15,25 10,25 -5,41 0,45 26,50 15,81 10,156 20,116 -10,20 -26,0 -82,-21 -62,-65 -76,-36 -21,35 -52,56 -102,25 -41,9 -52,20 -51,30 -67,30 -44,16 -92,43 -193,188 -84,104 -89,109 -99,84 -6,2 -201,62 -76,4 -101,5 -58,4 -39,8 -106,27 -60,15 -88,45 -92,50 -93,45 -83,58 -71,67 -57,56 -14,22 -19,34 -14,50 14,97 12,79 -9,71 -22,91 -82,342 -17,39 -79,188 -46,76 -112,106 -51,30 -71,41 -78,20 -7,1 -151,-4 -37,-18 -4,-3 -37,-22 -5,-7 -46,-95 -45,-180 -13,-33 -46,-101 -141,-157 -67,-22 -20,-5 -42,-7 -183,-20 -180,-62 -15,-8 -62,-36 -18,-12 -64,-43 -50,-41 -78,-67 -77,-69 -30,-25 11,-558 160,-196 31,-20 51,-80 21,25 41,-5 20,-15 16,-55 10,-61 -15,-30 57,-80 20,5 83,-60 154,-121 26,-45 51,-40 26,-70 72,-45 20,-30 31,-36 0,-60 108,15 36,-25 5,-50 -15,-20 -103,-26 0,-25 26,-20 31,-10 20,36 26,-25 5,-41 -20,-15 -5,-35 51,-65 -20,-96 52,-50 128,46 15,60 36,25 15,41 93,-35 112,5 62,-15 21,-10 35,0 6,-40 -26,-30 -26,-5 -35,-11 5,-45 41,-85 0,-71 16,-55 15,-45 11,-10 25,-45 31,-10 26,-41 36,-30 5,-15 5,-40 -20,-10 0,-30 36,-25 -5,-106 0,-15 -5,-45 498,11 7,-941 980,-2 z" />
<path id="Starke" d="M -1674,-15925 l 0,172 4,483 -1,116 0,313 -3,786 -6,509 0,141 -1,398 -77,0 -123,-5 -476,-7 -292,0 -149,-1 -830,-12 -1946,-6 12,-640 1,-80 15,-10 62,-76 41,-5 154,-105 51,-15 118,-40 61,-50 200,-30 57,-50 112,10 21,-10 82,-15 251,-130 67,-91 118,-155 139,-106 56,-60 11,-76 20,-100 31,-41 31,-50 31,-60 5,-96 103,-161 31,-61 16,-100 36,-121 31,-40 144,-86 92,-20 241,-221 497,7 481,-4 z" />
<path id="Steuben" d="M 8890,-19605 l 2749,-42 333,-3 164,-1 19,718 28,1510 6,328 -410,10 -947,29 -1884,38 -19,-953 -19,-983 z" />
<path id="Sullivan" d="M -8383,8162 l -13,976 -8,967 -23,986 -34,961 0,60 -990,2 -1082,-24 -318,-11 0,-25 -10,-15 -22,-11 -20,-6 -19,-12 -6,-6 -4,-21 0,-28 6,-20 11,-19 19,-27 10,-9 9,-8 21,-24 12,-31 4,-27 0,-48 -15,-40 -15,-21 -6,-14 0,-11 6,-25 10,-20 6,-11 7,-9 18,-15 15,-20 10,-20 -1,-13 -9,-12 -15,-21 -34,-31 -17,-14 -5,-5 -12,-17 -20,-21 -10,-25 -10,-22 -20,-26 -28,-25 -12,-9 -11,-6 -56,-21 -73,-31 -66,-20 -77,-34 -35,-17 -24,-16 -17,-8 -6,-11 -2,-11 2,-11 10,-6 6,-3 15,1 21,5 26,7 16,-2 15,-15 5,-15 0,-9 -9,-14 -7,-7 -25,-15 -25,-10 -15,-11 -5,-5 -11,-14 -1,-26 14,-25 23,-55 20,-40 15,-31 4,-6 10,-32 1,-30 -9,-42 -28,-50 -20,-36 -19,-26 -9,-19 -5,-22 0,-20 17,-34 11,-25 16,-25 6,-14 6,-16 6,-25 -5,-30 -9,-20 -25,-26 -29,-47 -14,-19 -5,-7 -21,-32 -20,-26 -29,-29 -34,-37 -30,-20 -25,-10 -15,-3 -15,0 -16,-1 -36,4 -41,-16 -30,-22 -3,-5 -7,-23 -8,-18 0,-30 3,-11 5,-11 10,-20 15,-16 21,-20 10,-25 -1,-22 -9,-13 -15,-10 -7,-2 -16,0 -15,-3 -77,0 -75,-1 -14,0 -19,-3 -28,-2 -18,-6 -15,-3 -20,-18 -13,-29 -1,-26 6,-25 11,-10 21,-4 19,-4 27,6 24,3 12,0 14,1 20,0 17,-6 9,-4 2,-6 0,-10 -4,-15 -11,-6 -6,-7 -7,-2 -17,-8 -5,-2 -10,-8 -15,-10 -5,-12 0,-13 -4,-22 -10,-15 -16,-15 -34,-11 -17,-6 -6,-1 -24,-8 -11,-15 -2,-9 1,-8 6,-36 6,-24 16,-20 11,-29 4,-10 10,-30 10,-15 16,-21 15,-14 21,-14 6,-1 25,0 10,2 12,1 8,2 6,1 15,4 24,10 17,0 15,-5 11,-10 0,-15 -10,-9 -30,-22 -9,-4 -16,-7 -26,-5 -20,-6 -12,-13 0,-15 5,-10 21,-25 36,-25 56,-25 22,-4 24,-17 3,-3 8,-11 5,-25 0,-60 10,-28 11,-14 15,-4 16,4 25,6 28,0 14,-8 12,-11 2,-5 7,-9 11,-19 16,-20 10,-15 8,-8 20,-5 30,-10 21,-9 21,-20 12,-19 9,-27 10,-25 16,-25 21,-15 9,-9 15,-18 8,-15 9,-29 5,-30 3,-26 2,-24 0,-65 -10,-96 0,-35 -9,-32 4,-19 6,-19 12,-16 9,-11 4,-9 11,-10 0,-10 -1,-21 -15,-20 -15,-10 -38,0 -8,3 -25,23 -13,21 -16,24 -14,10 -9,6 -21,3 -10,-4 -7,-9 -5,-13 -35,-61 -15,-33 -5,-10 -4,-11 251,6 984,19 944,13 z" />
<path id="Switzerland" d="M 9780,11823 l -37,291 2457,-16 41,4 299,13 201,76 18,8 41,30 16,33 4,8 14,34 -4,171 -38,86 -3,5 -113,82 -60,44 -14,12 -90,122 -16,27 -18,47 -2,8 1,10 18,69 131,229 7,100 -21,51 -48,28 -13,6 -11,2 -45,0 -21,-2 -26,-5 -87,-25 -12,-4 -106,-32 -71,-9 -150,-19 -116,19 -11,4 -41,20 -44,19 -84,41 -143,69 -17,7 -22,4 -105,14 -139,-18 -83,-11 -143,17 -122,66 -33,22 -76,61 -41,25 -3,-6 -234,163 -15,8 -24,13 -52,24 -85,39 -9,4 -224,158 -12,11 -128,119 -122,113 -28,26 -118,81 -61,30 -67,30 -28,9 -64,17 -26,4 -26,2 -159,-8 -56,-14 0,-12 -36,-2504 -5,-141 z" />
<path id="Tippecanoe" d="M -4277,-6263 l 641,2 2,977 -1,478 4,489 -8,961 -13,967 -969,-8 -958,-23 -963,-13 -482,-11 15,-1657 -2,-1219 -7,-972 482,7 963,13 968,8 z" />
<path id="Tipton" d="M 3431,-4527 l 5,317 11,1758 -338,9 -953,13 -979,13 -980,28 13,-957 -3,-800 -5,-167 6,-161 z" />
<path id="Union" d="M 12448,2934 l 26,1765 4,423 1,87 -1537,-2 -144,0 -108,-1 6,-35 -118,5 -12,-2079 -4,-161 553,-9 -5,25 z" />
<path id="Vanderburgh" d="M -10525,20297 l -7,457 -31,0 -28,966 200,1 -23,1086 -21,11 -97,60 -64,45 -14,10 -87,75 -77,65 -67,55 -9,5 -89,30 -10,0 -6,-3 -86,-62 -72,-52 -206,-124 -70,-63 -44,-67 -63,-161 -52,-135 -83,-80 -36,-5 -60,30 -2,6 -18,85 -29,137 -3,8 -10,14 -44,49 -104,116 -12,17 -4,8 -17,81 34,112 3,8 51,75 117,84 69,70 23,26 21,50 19,38 5,12 1,154 0,7 -26,76 -10,18 -115,194 -41,45 -10,10 -92,57 -154,51 -128,0 -103,-15 -9,-5 -114,-78 -37,-141 9,-120 25,-91 45,-74 67,-110 4,-53 -11,-71 -19,-32 -19,-25 -62,-41 -46,-11 -51,16 -87,45 6,-624 29,-946 33,-966 72,6 6,-478 z" />
<path id="Vermillion" d="M -9713,-1507 l -5,31 -6,206 -57,131 10,146 -36,156 -1,85 -41,91 -92,70 61,91 -62,70 -36,101 19,347 46,76 0,60 -26,106 -87,105 20,36 62,40 71,-20 11,25 10,21 -26,95 -103,100 10,41 108,60 71,-35 47,6 20,40 -77,65 30,61 154,76 62,5 51,40 46,66 40,126 -5,20 -92,65 -1,20 77,86 123,41 15,30 -20,40 -41,20 -6,56 -41,95 -46,55 -87,10 -12,292 66,197 0,45 5,66 0,40 -5,20 -21,65 -15,56 9,266 -67,272 40,121 -51,70 35,86 -87,211 15,30 10,56 -10,40 -47,45 -10,81 35,90 -10,91 25,80 26,31 46,106 -11,70 -677,-12 -605,-2 14,-1072 15,-1576 2,-157 2,-226 16,-1183 20,-1580 6,-217 364,1 -10,222 z" />
<path id="Vigo" d="M -9577,4278 l 282,6 974,13 313,11 -18,972 -308,-6 -13,971 -18,946 -18,971 -954,-8 -944,-13 -984,-19 -251,-6 -11,-15 -7,-13 1,-35 1,-27 12,-33 4,-22 -6,-27 -12,-17 -12,-19 -7,-12 -4,-31 -5,-15 1,-25 17,-29 16,-25 21,-25 16,-24 6,-25 -5,-23 -2,-6 -8,-19 -20,-15 -21,-6 -35,5 -26,5 -26,0 -10,-2 -9,-5 -10,-15 1,-21 11,-10 18,-7 6,-2 29,-8 26,-11 15,-14 21,-29 39,-69 38,-54 8,-15 13,-25 22,-34 22,-30 23,-26 21,-19 5,-3 15,-8 31,-15 36,-5 51,7 18,2 43,5 6,0 20,-3 16,-5 25,-10 16,-15 15,-25 10,-20 6,-19 8,-15 6,-7 6,-4 21,-10 6,-2 8,0 9,5 18,12 19,14 22,10 15,-9 7,-735 4,-233 5,-420 13,-942 5,-415 0,-113 605,2 z" />
<path id="Wabash" d="M 4892,-11637 l 14,499 333,1 46,2398 5,181 23,1275 -302,4 -953,14 -656,8 -303,5 -333,-1 -9,-534 -4,-191 -60,-3104 0,-20 6,-478 z" />
<path id="Warren" d="M -7011,-5320 l 2,1219 -46,0 -62,70 -15,61 -154,95 -62,60 -185,60 -46,-15 -51,20 -57,-6 -82,66 -92,40 -139,34 -200,116 -118,19 -26,40 -10,76 -46,40 -88,80 -82,40 -61,66 -119,246 -98,35 -66,45 -37,91 -87,55 -41,90 -36,40 -62,20 -25,56 -47,4 -46,30 -292,115 -98,75 -128,35 -52,121 -98,125 -20,66 66,106 205,121 5,41 10,60 -16,55 -717,-17 10,-222 -364,-1 41,-1369 46,-1561 17,-720 313,11 958,13 959,13 968,29 z" />
<path id="Warrick" d="M -7060,19593 l -1,287 492,6 -7,941 -498,-11 5,45 0,15 5,106 -36,25 0,30 20,10 -5,40 -5,15 -36,30 -26,41 -31,10 -25,45 -11,10 -15,45 -16,55 0,71 -41,85 -5,45 35,11 26,5 26,30 -6,40 -35,0 -21,10 -62,15 -112,-5 -93,35 -15,-41 -36,-25 -15,-60 -128,-46 -52,50 20,96 -51,65 5,35 20,15 -5,41 -26,25 -20,-36 -31,10 -26,20 0,25 103,26 15,20 -5,50 -36,25 -108,-15 0,60 -31,36 -20,30 -72,45 -26,70 -51,40 -26,45 -154,121 -83,60 -20,-5 -57,80 15,30 -10,61 -16,55 -20,15 -41,5 -21,-25 -51,80 -31,20 -160,196 -11,558 -72,-66 -102,-85 -103,-76 -22,-12 -27,-14 -128,-76 -94,-55 -55,-19 -52,-19 -204,-147 -79,-58 -71,-45 -52,-30 -38,-19 -196,-58 -23,-1 -115,-4 -120,30 -46,24 23,-1086 -200,-1 28,-966 31,0 7,-457 16,-423 970,-2 338,1 6,-292 1,-161 164,1 -6,156 z" />
<path id="Washington" d="M -73,13721 l 36,-21 66,6 5,-46 57,-25 15,46 46,0 57,25 51,-25 10,-20 88,-100 36,10 5,55 20,15 31,-10 0,-60 16,-20 41,10 25,-15 16,-30 51,10 5,40 21,10 56,5 10,-15 0,-40 31,-10 26,15 15,56 41,35 56,5 26,-30 82,61 108,40 66,40 88,-14 71,-35 88,0 30,20 36,-35 -15,-61 16,-60 15,-30 46,-20 108,40 61,66 36,-40 57,-10 107,91 51,90 26,10 77,1 46,0 36,-66 21,0 41,16 -21,50 10,35 16,15 46,0 46,-50 36,10 67,-80 61,25 0,81 41,-15 10,65 26,10 72,-30 10,-55 52,-45 25,30 72,5 -21,25 16,56 36,-5 10,-21 -5,-30 77,-45 -5,56 20,30 72,-15 -16,50 82,20 0,-40 26,-10 51,15 16,26 25,-26 21,16 26,-26 36,41 -21,30 15,40 -31,5 0,15 41,41 36,25 26,20 37,1756 318,-4 10,146 4,176 -169,4 4,322 -159,-5 0,171 -621,9 0,151 -329,4 -7,780 -328,9 -1939,-50 -477,-1 7,-2943 -19,-503 72,-30 25,15 77,-15 1,-100 20,-31 6,-65 46,-75 21,-31 z" />
<path id="Wayne" d="M 12411,-168 l 6,620 5,370 26,2112 -1338,18 5,-25 -553,9 4,161 -1292,9 2,-821 -323,0 -3,-947 61,-5 103,0 -18,-1434 2615,-57 297,-10 z" />
<path id="Wells" d="M 10047,-10263 l 96,3879 -318,9 -799,14 -169,5 -948,14 -953,14 -29,-968 958,-18 -8,-972 -14,-973 -13,-967 953,-14 952,-18 z" />
<path id="White" d="M -2637,-10132 l -7,977 -18,982 -964,-22 -481,-7 0,45 -42,96 67,61 -41,65 -21,45 -16,91 26,66 46,70 -26,25 -51,51 15,25 92,-5 5,20 -66,60 -21,81 -133,0 -4,1143 -328,-1 -968,-8 -963,-13 -482,-7 -10,-1939 4,-1128 492,-4 456,2 2,-806 492,1 973,13 968,8 26,0 922,13 z" />
<path id="Whitley" d="M 8026,-14091 l -7,958 -241,10 24,977 39,933 -983,18 -958,29 0,25 -661,4 -333,-1 -14,-499 -9,-478 -24,-993 297,1 -3,-978 -10,-313 958,-8 -1,317 958,2 963,-4 z" />
</g>
<use xlink:href="#White" stroke="none" fill="red" />
</svg>
