<?xml version="1.0" standalone="yes"?>
<!DOCTYPE svg PUBLIC "-//W3C//DTD SVG 1.1//EN" "http://www.w3.org/Graphics/SVG/1.1/DTD/svg11.dtd">
<svg xmlns="http://www.w3.org/2000/svg" xmlns:xlink="http://www.w3.org/1999/xlink" version="1.1" width="3675.4" height="3995.2" viewBox="-17320,-17038 36754,39952">
<clipPath id="state_clip_path">
<g id="state_outline">
<path id="1719" d="M 18983,-20883 l 64,3727 3,118 -51,16 -71,41 -67,30 -15,26 -117,36 -62,15 -102,41 -158,61 -77,36 -76,41 -102,56 -67,16 -138,31 -91,40 -57,21 -97,56 -66,21 -107,46 -62,20 -66,36 -71,20 -31,6 -67,10 -81,5 -57,11 -15,10 -25,25 -31,16 -31,20 -25,15 -21,5 -25,6 -26,10 -25,10 -21,-10 -20,-20 -21,0 -82,21 -35,25 -41,51 -61,41 -46,20 -41,10 -51,21 -41,20 -41,10 -41,21 -61,41 -35,20 -51,25 -57,26 -87,36 -86,46 -67,35 -41,11 -56,15 -66,20 -77,11 -56,10 -92,16 -67,15 -56,21 -102,26 -26,5 -35,10 -62,16 -82,15 -86,66 -67,26 -163,56 -143,77 -123,51 -96,51 -72,35 -66,31 -72,35 -92,36 -133,77 -168,101 -76,51 -92,51 -67,51 -41,5 -86,56 -67,46 -97,56 -61,35 -66,31 -67,25 -127,46 -46,6 -41,0 -46,-20 -31,-15 -36,10 -51,36 -56,45 -92,56 -122,87 -72,45 -41,36 -46,25 -112,66 -46,16 -26,15 -35,25 -56,36 -72,61 -46,45 -45,36 -36,40 -51,46 -26,25 -45,41 -41,41 -61,50 -62,61 -45,41 -51,60 -72,91 -66,92 -86,121 -56,66 -56,50 -26,26 -82,51 -91,50 -87,41 -67,31 -40,55 -56,56 -67,61 -56,61 -41,50 -61,61 -112,91 -41,46 -56,45 -56,51 -41,41 -61,65 -51,26 -112,91 -143,122 -66,51 -62,35 -56,31 -66,30 -46,36 -61,45 -67,51 -56,31 -51,60 -66,36 -118,61 -5,0 -82,30 -164,-39 -102,-30 -87,-15 -62,-10 -133,26 -87,21 -87,41 -61,0 -61,35 -108,11 -66,5 -82,-4 -282,-35 -143,-29 -67,-25 -62,-15 -102,-50 -77,-45 -5,-5 -113,-45 -103,-40 -76,-20 -72,-9 -113,30 -92,41 -92,21 -133,56 -122,40 -215,57 -143,41 -133,56 -97,50 -67,31 -61,25 -26,11 -25,10 -21,5 -10,15 -36,5 -36,0 -10,10 -25,36 -51,35 -92,56 -77,61 -66,51 -87,50 -61,51 -57,25 -143,77 -76,0 -52,5 -61,-5 -77,11 -199,0 -118,6 -72,10 -46,11 -10,0 -21,5 -56,20 -77,15 -46,31 -76,40 -61,36 -62,35 -92,51 -92,56 -143,76 -107,61 -62,25 -112,51 -256,26 -72,-20 -87,-35 -92,-55 -118,-60 -16,-10 -71,-40 -165,-110 -56,-25 -92,-60 -57,-71 -62,-50 -61,-50 -72,-80 -82,-45 -57,-56 -61,-65 -57,-50 -103,-116 -46,-50 -36,-50 -26,-41 -31,-30 -66,-30 -36,31 10,55 88,30 82,131 46,20 41,45 57,45 36,30 31,35 30,41 31,50 36,40 41,15 36,25 26,25 31,30 31,36 25,25 41,30 31,25 21,30 -16,25 -41,-20 -25,-10 -21,-15 -25,-15 -41,-25 -52,-35 -36,-30 -36,-20 -30,-5 -31,5 -16,-75 -25,10 -21,-35 10,-21 10,-40 -10,-20 -31,15 -35,0 -11,10 -10,21 -36,-5 -82,0 -30,-20 35,-15 16,0 56,-21 26,-20 -1,-30 -92,10 -123,-10 -51,-35 -41,-40 -36,0 -51,21 -41,20 -51,30 -36,21 10,-106 -31,0 -35,151 -20,5 -31,-15 -16,-5 -25,5 -41,21 -67,20 -51,-5 -36,-10 -10,-5 -51,-45 -52,-50 -31,-76 -35,-20 -52,-40 -51,0 -56,-50 -46,30 -31,-10 -52,-50 -30,5 -5,51 0,106 -51,70 -71,41 -62,56 -81,40 -82,-10 -62,16 -46,-15 -41,40 -56,25 -92,76 -112,76 -72,26 -77,-5 -30,-5 -67,-40 -57,-35 -41,-61 -25,-45 -31,-45 -16,-50 0,-31 -46,-55 -26,0 -46,15 -36,26 1,25 20,20 5,25 11,20 46,0 10,20 -5,20 -26,36 -15,10 -36,10 -30,-5 -26,-20 -26,-15 -41,35 -5,31 -5,30 -15,0 -16,-65 16,-31 30,-25 21,-35 -6,-10 -5,-16 -25,6 -57,-10 -25,-20 -31,-41 -51,-15 -36,6 -41,10 -87,35 -36,10 -25,-9 -41,-16 -41,11 -21,-5 -20,-5 -31,-20 -5,-20 0,-26 10,-20 41,-20 61,0 77,-11 92,-25 56,-10 5,30 41,-5 46,-21 21,-20 30,-15 36,30 41,25 41,-5 5,-20 11,-25 20,-16 26,-15 35,-10 41,25 16,5 25,-76 41,-50 -5,-35 25,-46 10,-25 36,-30 72,14 71,15 47,5 51,-10 51,-15 72,10 56,-6 82,5 77,0 76,-10 72,-16 67,-35 51,-16 15,-30 36,-15 35,-10 47,-11 77,71 66,55 31,-15 25,-81 31,-35 25,-16 41,-10 92,-10 46,-15 52,9 56,0 67,40 56,-20 31,-25 51,-51 41,-5 41,10 40,-5 41,-5 41,4 57,5 25,30 1,46 10,30 26,40 36,30 20,-45 -26,-86 -15,-35 -21,-35 -16,-35 -10,-26 21,-25 35,-45 15,-31 0,-75 5,-25 -5,-21 -15,-25 -16,-15 -20,-10 -26,-10 -36,-5 -46,6 -82,-10 -61,-15 -67,-5 -71,25 -31,16 -56,10 -77,5 -41,46 -97,25 -67,21 -66,5 -26,0 -10,-30 0,-25 10,-21 15,-10 41,-25 57,5 81,-26 21,-30 -36,-45 -16,-31 -5,-20 -36,-35 -10,-35 -41,-40 -51,20 -16,30 -30,41 -16,20 -20,35 -15,41 5,15 -10,50 -31,41 -35,20 -26,30 -41,21 -20,15 -36,30 -56,10 -46,26 -92,40 -16,0 -15,-10 0,-20 15,-20 46,-30 56,-16 67,-25 36,-51 35,-25 46,-45 31,-76 20,-31 31,-60 56,-101 51,-10 15,-21 -31,-35 -20,-40 -16,-25 -26,-51 -25,-35 -6,-35 -46,15 -46,-5 -41,16 -25,15 -36,35 -20,41 -5,55 36,15 -5,25 -10,56 5,15 20,25 6,20 0,15 -26,36 -5,50 -10,30 -15,21 -21,35 -5,25 -25,15 -41,41 -25,45 -41,41 -67,40 -46,26 -51,30 -31,-5 -56,21 -51,15 -72,5 -112,-10 -46,-25 -36,-20 -57,-15 -66,-20 -46,-10 -36,-20 -5,-5 -26,-15 -56,-35 -31,-20 -10,-5 -16,-5 -31,-15 -35,-20 -36,-25 -16,-10 -56,-45 -67,-45 -128,-111 -62,-60 -56,-71 -67,-110 -41,-41 -11,-30 -20,-35 -16,-40 -36,-41 -51,-60 -57,-35 -102,-55 -82,-45 -98,-35 -76,-10 -41,-5 -169,-20 -88,-30 -25,-9 -57,-16 -87,-15 -66,-25 -51,-30 -6,-5 -20,-10 -41,-20 -10,-5 -47,-20 -25,-15 -21,20 -35,11 -52,-5 -46,-15 0,-36 26,-40 0,-20 -52,-45 -51,-46 -67,-45 -25,-15 -82,-60 -47,-30 -46,-25 -31,-21 -5,1 -30,-31 -36,-20 -26,-25 -26,-15 -97,-20 -46,0 -15,10 -21,16 -41,-10 -36,-20 0,-16 5,-15 16,-20 20,-10 62,25 46,-5 15,-15 0,-15 -139,-111 -30,-30 -31,-25 -21,-15 -20,-15 -21,-5 -15,-5 -5,10 0,40 -5,35 -26,46 -66,50 -31,16 -46,15 -61,5 -92,-10 -87,-30 -67,-15 -56,-5 -51,6 -62,10 -76,0 -57,-10 -31,-20 -51,-45 -10,-10 -5,-15 -16,-21 -15,-10 -210,-125 25,-66 56,-30 31,-5 36,-31 17,-80 182,-6 56,-3 41,-2 842,-799 1715,-1619 6,-5 345,1018 1559,993 1354,873 303,196 932,-8 1346,5 1445,-883 1379,-848 2914,-1778 613,-376 3096,-2093 zM -5,-13870 l 16,15 15,30 21,15 36,-30 0,-25 -11,-96 -26,-40 -61,-20 -57,10 1,40 -41,51 -5,60 20,11 11,-1 41,-10 zM 201,-13694 l -62,10 -132,61 -41,61 -31,45 46,35 36,5 11,10 10,15 5,46 31,-10 15,-56 5,-10 -5,-61 35,-45 57,-10 66,-16 67,-40 20,-41 -31,-25 -25,-5 -31,16 zM 79,-13311 l -15,41 -20,25 -57,20 -20,1 -31,-5 -5,-46 -36,-50 -10,45 -36,56 -41,20 -10,30 6,86 15,30 -15,36 -10,80 46,26 102,-97 56,-70 62,-6 15,-20 15,-15 56,-61 31,-45 30,-46 10,-65 -25,5 -21,0 -56,5 zM 972,-12840 l -21,-10 -56,-15 -51,21 -46,20 -36,56 5,55 -35,41 -36,25 5,30 10,25 36,25 51,5 41,-5 36,25 41,40 72,51 46,-6 51,-45 41,-36 15,-35 36,-35 -10,-31 -21,-40 31,-50 15,-61 15,-60 -15,10 -21,15 -10,15 -41,10 -15,25 -5,31 -46,10 -31,-25 -46,-25 z" />
<path id="1732" d="M -5275,-14091 l -17,80 -36,31 -31,5 -56,30 -25,66 210,125 15,10 16,21 5,15 10,10 51,45 31,20 57,10 76,0 62,-10 51,-6 56,5 67,15 87,30 92,10 61,-5 46,-15 31,-16 66,-50 26,-46 5,-35 0,-40 5,-10 15,5 21,5 20,15 21,15 31,25 30,30 139,111 0,15 -15,15 -46,5 -62,-25 -20,10 -16,20 -5,15 0,16 36,20 41,10 21,-16 15,-10 46,0 97,20 26,15 26,25 36,20 30,31 5,-1 31,21 46,25 47,30 82,60 25,15 67,45 51,46 52,45 0,20 -26,40 0,36 46,15 52,5 35,-11 21,-20 25,15 47,20 10,5 41,20 20,10 6,5 51,30 66,25 87,15 57,16 25,9 88,30 169,20 41,5 76,10 98,35 82,45 102,55 57,35 51,60 36,41 16,40 20,35 11,30 41,41 67,110 56,71 62,60 128,111 67,45 56,45 16,10 36,25 35,20 31,15 16,5 10,5 31,20 56,35 26,15 5,5 36,20 46,10 66,20 57,15 36,20 46,25 112,10 72,-5 51,-15 56,-21 31,5 51,-30 46,-26 67,-40 41,-41 25,-45 41,-41 25,-15 5,-25 21,-35 15,-21 10,-30 5,-50 26,-36 0,-15 -6,-20 -20,-25 -5,-15 10,-56 5,-25 -36,-15 5,-55 20,-41 36,-35 25,-15 41,-16 46,5 46,-15 6,35 25,35 26,51 16,25 20,40 31,35 -15,21 -51,10 -56,101 -31,60 -20,31 -31,76 -46,45 -35,25 -36,51 -67,25 -56,16 -46,30 -15,20 0,20 15,10 16,0 92,-40 46,-26 56,-10 36,-30 20,-15 41,-21 26,-30 35,-20 31,-41 10,-50 -5,-15 15,-41 20,-35 16,-20 30,-41 16,-30 51,-20 41,40 10,35 36,35 5,20 16,31 36,45 -21,30 -81,26 -57,-5 -41,25 -15,10 -10,21 0,25 10,30 26,0 66,-5 67,-21 97,-25 41,-46 77,-5 56,-10 31,-16 71,-25 67,5 61,15 82,10 46,-6 36,5 26,10 20,10 16,15 15,25 5,21 -5,25 0,75 -15,31 -35,45 -21,25 10,26 16,35 21,35 15,35 26,86 -20,45 -36,-30 -26,-40 -10,-30 -1,-46 -25,-30 -57,-5 -41,-4 -41,5 -40,5 -41,-10 -41,5 -51,51 -31,25 -56,20 -67,-40 -56,0 -52,-9 -46,15 -92,10 -41,10 -25,16 -31,35 -25,81 -31,15 -66,-55 -77,-71 -47,11 -35,10 -36,15 -15,30 -51,16 -67,35 -72,16 -76,10 -77,0 -82,-5 -56,6 -72,-10 -51,15 -51,10 -47,-5 -71,-15 -72,-14 -36,30 -10,25 -25,46 5,35 -41,50 -25,76 -16,-5 -41,-25 -35,10 -26,15 -20,16 -11,25 -5,20 -41,5 -41,-25 -36,-30 -30,15 -21,20 -46,21 -41,5 -5,-30 -56,10 -92,25 -77,11 -61,0 -41,20 -10,20 0,26 5,20 31,20 20,5 21,5 41,-11 41,16 25,9 36,-10 87,-35 41,-10 36,-6 51,15 31,41 25,20 57,10 25,-6 5,16 6,10 -21,35 -30,25 -16,31 16,65 15,0 5,-30 5,-31 41,-35 26,15 26,20 30,5 36,-10 15,-10 26,-36 5,-20 -10,-20 -46,0 -11,-20 -5,-25 -20,-20 -1,-25 36,-26 46,-15 26,0 46,55 0,31 16,50 31,45 25,45 41,61 57,35 67,40 30,5 77,5 72,-26 112,-76 92,-76 56,-25 41,-40 46,15 62,-16 82,10 81,-40 62,-56 71,-41 51,-70 0,-106 5,-51 30,-5 52,50 31,10 46,-30 56,50 51,0 52,40 35,20 31,76 52,50 51,45 10,5 36,10 51,5 67,-20 41,-21 25,-5 16,5 31,15 20,-5 35,-151 31,0 -10,106 36,-21 51,-30 41,-20 51,-21 36,0 41,40 51,35 123,10 92,-10 1,30 -26,20 -56,21 -16,0 -35,15 30,20 82,0 36,5 10,-21 11,-10 35,0 31,-15 10,20 -10,40 -10,21 21,35 25,-10 16,75 31,-5 30,5 36,20 36,30 52,35 41,25 25,15 21,15 25,10 41,20 16,-25 -21,-30 -31,-25 -41,-30 -25,-25 -31,-36 -31,-30 -26,-25 -36,-25 -41,-15 -36,-40 -31,-50 -30,-41 -31,-35 -36,-30 -57,-45 -41,-45 -46,-20 -82,-131 -88,-30 -10,-55 36,-31 66,30 31,30 26,41 36,50 46,50 103,116 57,50 61,65 57,56 82,45 72,80 61,50 62,50 57,71 92,60 56,25 165,110 71,40 16,10 118,60 92,55 87,35 72,20 256,-26 112,-51 62,-25 107,-61 143,-76 92,-56 92,-51 62,-35 61,-36 76,-40 46,-31 77,-15 56,-20 21,-5 10,0 46,-11 72,-10 118,-6 199,0 77,-11 61,5 52,-5 76,0 143,-77 57,-25 61,-51 87,-50 66,-51 77,-61 92,-56 51,-35 25,-36 10,-10 36,0 36,-5 10,-15 21,-5 25,-10 26,-11 61,-25 67,-31 97,-50 133,-56 143,-41 215,-57 122,-40 133,-56 92,-21 92,-41 113,-30 72,9 76,20 103,40 113,45 5,5 77,45 102,50 62,15 67,25 143,29 282,35 82,4 66,-5 108,-11 61,-35 61,0 87,-41 87,-21 133,-26 62,10 87,15 102,30 164,39 82,-30 5,0 118,-61 66,-36 51,-60 56,-31 67,-51 61,-45 46,-36 66,-30 56,-31 62,-35 66,-51 143,-122 112,-91 51,-26 61,-65 41,-41 56,-51 56,-45 41,-46 112,-91 61,-61 41,-50 56,-61 67,-61 56,-56 40,-55 67,-31 87,-41 91,-50 82,-51 26,-26 56,-50 56,-66 86,-121 66,-92 72,-91 51,-60 45,-41 62,-61 61,-50 41,-41 45,-41 26,-25 51,-46 36,-40 45,-36 46,-45 72,-61 56,-36 35,-25 26,-15 46,-16 112,-66 46,-25 41,-36 72,-45 122,-87 92,-56 56,-45 51,-36 36,-10 31,15 46,20 41,0 46,-6 127,-46 67,-25 66,-31 61,-35 97,-56 67,-46 86,-56 41,-5 67,-51 92,-51 76,-51 168,-101 133,-77 92,-36 72,-35 66,-31 72,-35 96,-51 123,-51 143,-77 163,-56 67,-26 86,-66 82,-15 62,-16 35,-10 26,-5 102,-26 56,-21 67,-15 92,-16 56,-10 77,-11 66,-20 56,-15 41,-11 67,-35 86,-46 87,-36 57,-26 51,-25 35,-20 61,-41 41,-21 41,-10 41,-20 51,-21 41,-10 46,-20 61,-41 41,-51 35,-25 82,-21 21,0 20,20 21,10 25,-10 26,-10 25,-6 21,-5 25,-15 31,-20 31,-16 25,-25 15,-10 57,-11 81,-5 67,-10 31,-6 71,-20 66,-36 62,-20 107,-46 66,-21 97,-56 57,-21 91,-40 138,-31 67,-16 102,-56 76,-41 77,-36 158,-61 102,-41 62,-15 117,-36 15,-26 67,-30 71,-41 51,-16 17,998 15,428 34,1146 12,433 13,490 33,1442 0,71 2,30 5,169 4,113 4,101 47,1669 39,1392 16,614 7,240 2,47 2,71 45,1643 18,714 4,167 14,515 16,629 28,1356 1,79 5,262 1,57 -23,12 -81,43 -86,22 -66,27 -50,38 -41,29 -44,44 -40,26 -23,15 -21,12 -27,0 -34,-10 -36,-31 -26,-24 -41,-36 -36,-9 -36,-5 -51,16 -31,15 -47,19 -38,17 -41,29 -22,17 -42,38 -18,22 -12,15 -20,35 -39,47 -28,34 -31,33 -45,42 -16,22 -4,5 -19,39 -3,22 -3,30 4,34 21,57 39,42 105,92 32,40 27,50 16,45 24,46 20,32 14,20 8,10 25,44 16,30 5,23 4,27 7,40 16,50 16,45 25,91 43,73 26,43 24,35 41,50 21,40 20,46 6,40 11,26 4,9 1,59 -10,62 -26,76 -30,70 -30,66 -26,70 -4,20 -5,28 -3,66 -2,26 -1,22 11,85 6,56 -4,31 -2,12 -4,17 -13,15 -13,14 -35,31 -40,32 -25,26 -5,10 -4,10 0,13 2,11 16,25 31,20 41,29 26,14 4,3 33,21 3,4 21,19 19,42 6,30 1,9 5,36 -4,29 -14,47 -14,56 -7,58 5,40 10,42 21,34 20,40 16,30 15,41 11,20 4,32 6,53 -9,56 -16,65 -10,23 -12,23 -27,53 -6,12 -35,68 -19,46 -7,26 -5,22 7,33 3,15 6,47 0,51 -10,52 -18,28 -8,11 -40,39 -40,28 -45,36 -60,27 -60,52 -25,41 -25,45 -4,7 -9,31 -14,50 -9,35 -9,36 -19,66 -6,46 -1,15 -5,61 -8,40 -14,56 -14,46 -29,41 -29,42 -30,51 -29,41 -44,67 -47,92 -46,85 -10,46 -8,17 -8,34 -9,50 -7,46 -6,47 -3,22 -4,36 6,70 21,60 0,66 1,76 -10,55 -19,33 -60,60 -9,8 -45,41 -31,30 -31,36 -4,5 -23,33 -17,36 -6,16 -4,16 -6,29 6,40 15,41 19,38 16,41 11,37 5,40 1,50 0,33 -1,10 -4,31 -5,32 -7,22 -5,17 -4,11 -20,61 -5,15 -12,42 -2,8 -6,56 -2,18 -3,22 0,71 11,90 8,53 3,23 11,65 5,61 0,34 -1,20 -9,46 -19,45 -20,21 -28,35 -42,29 -55,51 -29,47 -14,50 1,26 3,20 14,56 22,69 29,69 17,45 10,37 1,8 -3,50 -13,37 -13,11 -13,9 -31,6 -25,0 -45,-19 -46,-25 -13,-8 -33,-19 -30,-19 -36,-9 -36,-5 -56,13 -30,13 -6,4 -21,40 -6,41 10,41 18,58 27,55 8,19 15,28 31,37 31,43 16,36 5,17 3,18 6,40 -3,37 -21,39 -20,25 -26,25 -41,41 -66,41 -30,18 -52,32 -11,5 -23,19 -21,20 -7,24 -4,18 -1,49 11,47 11,50 4,21 6,29 11,63 5,31 -5,52 -2,29 -3,27 -14,50 -26,54 -39,47 -18,17 -30,24 -72,61 -65,49 -40,42 -28,30 -5,5 -25,51 -9,37 6,61 18,39 22,49 40,43 37,37 31,34 5,6 26,29 25,33 16,22 16,23 31,43 34,55 9,17 12,23 16,28 6,38 -10,50 -25,36 -24,27 -7,8 -40,21 -52,23 -36,12 -30,15 -26,21 -26,25 -12,32 -5,20 -3,19 -4,42 -5,45 5,54 5,50 4,48 1,9 -5,54 -5,60 -5,40 -19,101 -21,81 -10,26 -24,48 -25,41 -45,47 -50,27 -41,6 -46,-2 -36,-5 -41,-4 -57,2 -40,1 -15,0 -35,11 -46,22 -41,34 -36,26 -19,14 -30,31 -15,15 -52,50 -68,57 -40,36 -72,65 -54,49 -33,32 -87,91 -112,111 -31,33 -54,59 -40,51 -84,74 -21,16 -41,35 -31,36 -17,21 -44,67 -40,42 -10,10 -49,52 -80,73 -28,31 -53,63 -28,32 -29,39 -66,88 -3,5 -58,118 -61,106 -8,12 -29,59 -13,26 -41,75 -29,44 -33,26 -40,16 -41,10 -56,8 -21,2 -52,6 -61,20 -56,21 -51,35 -23,17 -16,15 -23,23 -5,6 -56,84 -40,41 -22,24 -8,8 -33,34 -15,16 -15,30 -19,63 -6,19 -10,44 -11,51 -19,50 -21,20 -36,21 -82,-5 -21,-3 -14,-4 -62,-18 -77,2 -26,7 -36,12 -55,20 -36,15 -8,2 -37,6 -36,16 -18,11 -17,10 -40,31 -15,9 -24,12 -36,17 -51,29 -14,10 -22,15 -19,17 -22,19 -26,25 -30,20 -33,23 -65,42 -96,58 -85,68 -45,19 -24,8 -62,21 -27,2 -30,1 -5,1 -37,-9 -67,-24 -48,-44 -42,-52 -27,-57 -20,-58 -21,-76 -3,-10 -19,-55 -23,-69 -33,-75 -6,-11 -25,-36 -36,-50 -36,-35 -36,-30 -45,-30 -16,-10 -62,-20 -68,-4 -45,5 -46,20 -51,34 -31,37 -28,33 -20,28 -19,32 -15,25 -44,67 -42,57 -51,51 -46,40 -13,9 -23,14 -95,63 -45,21 -44,20 -26,12 -30,13 -47,20 -41,27 -35,36 -34,42 -25,36 -11,27 -7,19 -11,50 -3,15 -4,41 1,40 -8,56 -8,70 -14,71 -7,80 -5,71 0,75 -4,62 -1,64 -3,30 -3,22 -4,24 -20,27 -20,9 -16,4 -23,-3 -13,-3 -46,-13 -26,-10 -63,-33 -39,-18 -54,-10 -41,-6 -16,-3 -33,5 -19,4 -27,7 -33,4 -8,0 -41,-9 -41,-14 -31,-6 -14,-2 -27,-3 -86,-4 -68,10 -92,25 -30,14 -33,18 -20,15 -20,19 -45,44 -35,56 -14,36 -6,26 -1,15 5,39 10,41 13,44 6,35 -3,52 0,44 -5,42 -3,25 -4,17 -19,22 -25,11 -30,11 -104,10 -51,15 -30,16 -25,26 -25,36 -14,31 -22,46 -11,36 -14,40 -26,36 -24,21 -30,26 -25,21 -23,29 -21,32 0,26 -3,45 0,15 3,23 15,52 32,78 31,86 20,76 6,75 3,27 1,18 2,61 2,70 1,21 0,29 3,55 0,36 -5,40 -4,24 -8,37 -24,60 -23,43 -6,10 -37,43 -26,22 -17,12 -54,31 -61,21 -118,6 -57,-15 -23,-9 -18,-6 -36,-15 -28,-5 -26,0 -20,11 -16,30 -3,5 -4,35 0,45 12,36 9,22 8,23 22,61 6,19 36,75 47,55 56,45 57,50 28,25 18,16 45,48 47,57 27,39 13,46 12,60 1,39 0,12 -5,50 -2,23 -5,28 -19,46 -29,46 -16,39 -20,39 -6,11 -26,49 -19,61 -5,86 10,49 15,41 39,58 37,40 21,29 28,39 20,25 11,36 1,13 1,31 -4,18 -8,18 -26,31 -10,7 -16,9 -15,8 -5,1 -41,0 -21,-3 -10,-3 -42,-14 -27,-12 -13,-8 -41,-30 -41,-35 -26,-17 -10,-8 -42,-55 -29,-29 -27,-15 -7,-4 -24,-11 -48,-8 -25,1 -9,0 -38,22 -34,30 -30,40 -12,18 -17,30 -20,46 -6,31 -1,16 -5,44 0,47 -5,55 -10,61 -15,40 -34,56 -14,21 -19,24 -37,37 -4,3 -40,39 -16,15 -29,26 -33,25 -17,12 -51,44 -4,3 -51,22 -30,-3 -51,-5 -82,-36 -55,-35 -21,-15 -69,-58 -11,-16 -21,-28 -16,-30 -3,-18 0,-15 7,-27 19,-36 14,-31 11,-11 29,-31 35,-36 43,-50 36,-45 31,-45 15,-36 5,-35 -10,-34 -17,-46 -32,-68 -55,-94 -5,-18 -16,-51 -10,-31 -10,-30 -26,-45 -31,-50 -26,-50 -11,-20 -13,-28 -22,-50 -26,-38 -21,-25 -38,-19 -24,-8 -12,-3 -30,2 -12,0 -20,5 -24,12 -28,8 -8,3 -36,11 -46,1 -27,-2 -13,-4 -20,-10 -18,-11 -24,-29 -9,-13 -26,-52 -16,-65 -24,-75 -28,-46 -46,-37 -47,-29 -58,-23 -8,-1 -84,-7 -46,5 -19,2 -9,4 -28,17 -35,20 -31,46 -20,45 -10,56 0,55 -4,48 -19,46 -9,15 -19,22 -38,43 -64,47 -4,3 -46,21 -49,26 -52,33 -39,24 -11,8 -18,21 -21,27 -20,39 -16,46 -8,20 -4,15 -14,38 -5,13 -19,46 -6,10 -14,26 -5,13 -11,36 -7,17 -9,18 -30,71 -20,41 -33,64 -41,77 -7,15 -29,61 -33,44 -32,33 -40,38 -25,41 -21,50 -4,16 -2,19 -4,45 7,66 3,15 11,40 16,55 6,55 2,55 -8,82 -14,80 -21,66 -35,61 -36,45 -44,48 -40,36 -64,42 -47,19 -5,2 -56,25 -40,17 -6,3 -40,16 -35,27 -17,11 -21,17 -51,50 -36,31 -45,70 -13,33 -10,35 -3,50 -5,56 8,45 11,25 14,20 9,8 31,20 25,20 31,14 26,30 36,37 19,41 11,40 1,39 1,52 2,60 12,55 34,95 18,46 15,38 8,19 14,42 -2,80 -9,45 -19,46 -24,61 -9,51 -2,33 0,11 7,46 4,20 23,90 34,115 42,116 3,9 33,74 19,105 6,46 6,48 -7,46 -4,29 -19,69 -24,46 -40,46 -19,17 -25,19 -17,15 -25,17 -33,15 -27,9 -55,4 -7,1 -72,10 -25,-3 -72,-11 -68,-20 -61,-19 -56,-16 -38,-7 -15,-3 -57,2 -41,6 -27,11 -12,7 -41,35 -55,47 -35,31 -24,20 -3,3 -28,34 -13,26 -5,16 -14,42 -5,48 -1,23 0,93 5,76 -5,30 -5,50 -4,31 -20,75 -19,51 -18,49 -9,53 -8,70 -4,56 -8,66 -8,85 -8,53 -14,71 -19,43 -17,32 -10,46 -10,40 -9,60 -5,28 -6,23 -14,54 -2,6 -30,46 -31,30 -44,33 -38,17 -27,16 -16,5 -56,12 -46,11 -66,17 -60,16 -15,3 -32,5 -56,6 -41,7 -26,0 -51,-15 -26,-5 -36,-10 -20,-5 -30,-4 -13,-1 -39,10 -26,7 -11,6 -26,11 -24,10 -41,16 -77,37 -39,11 -115,34 -125,35 -65,16 -51,16 -46,15 -62,20 -40,21 -51,27 -10,5 -40,21 -87,30 -7,2 -104,34 -80,13 -93,10 -72,0 -13,-3 -59,-12 -82,-34 -27,-14 -22,-12 -37,-29 -42,-39 -22,-35 -9,-27 -47,-125 -31,-202 -17,-107 -61,-129 -47,-39 -56,-31 -83,-40 -87,-45 -81,-59 -53,-71 -11,-15 -55,-73 -80,-88 -79,-162 -13,-27 -73,-110 -19,-22 -67,-45 -72,-45 -61,-51 -12,-8 -36,-25 -138,-14 -52,1 -178,3 -123,0 -77,-20 -30,-11 -190,-102 -6,3 -67,-40 -67,-56 -61,-49 -82,-108 -3,-6 -69,-198 -2,-9 -4,-31 -6,-50 -6,-106 -5,-105 -1,-96 -5,-90 -11,-56 -12,-55 -83,-145 -35,-60 -9,-21 -21,-56 1,-14 25,-196 20,-81 3,-12 30,-122 -4,-62 -41,-105 -10,-16 -24,-27 -25,-24 -23,-19 -25,-9 -57,-16 -278,78 -135,59 -18,10 -29,20 -139,102 -36,25 -17,7 -75,26 -149,-25 -157,-27 -13,-1 -138,66 -56,52 -103,205 -7,10 -80,78 -204,96 -10,5 -139,65 -22,10 -89,64 -6,7 -85,150 -27,71 -61,161 -11,16 -55,70 -90,68 -24,13 -16,4 -112,16 -253,34 -11,1 -10,0 -47,-6 -58,-13 -73,-39 -127,-70 -4,-1 -53,-9 -62,0 -82,50 -77,46 -25,30 -51,56 -34,37 -82,89 -78,38 -99,-32 -61,-46 -42,-58 -17,-79 -37,-169 -39,-86 -8,-7 -258,-178 -81,-42 -84,-23 -93,-25 -70,-14 -397,-60 -6,-1 -136,-20 -25,-14 -41,-23 -100,-114 -150,-115 -50,-37 -142,-44 -13,-3 -18,-1 -145,14 -134,44 -231,74 -8,2 -135,31 -123,28 -88,37 -53,54 -30,52 -19,35 -25,81 -10,100 -4,39 -6,57 -11,24 -25,56 -6,5 -52,57 -74,46 -67,4 -25,-5 -234,-84 -91,-57 -111,-70 -123,-20 -194,-33 -44,-11 -67,-40 -8,-11 -51,-85 -8,-15 -21,-90 -33,-154 -8,-27 -6,-19 -46,-101 -50,-42 -120,-39 -129,-43 -117,-87 -36,-50 -8,-27 -29,-134 -8,-36 -12,-50 -3,-6 -73,-121 -7,-8 -19,-14 -75,-41 -14,-6 -56,-14 -13,-3 -162,-37 -67,-15 -174,-60 -126,-94 -29,-22 -147,-49 -76,9 -7,1 -82,10 -134,41 -215,29 -239,58 -23,4 -35,0 -215,-6 -365,-134 -290,-106 -199,-36 -32,-9 -214,-63 -11,-6 -108,-74 -50,-56 -11,-15 -32,-82 -9,-41 -5,-24 -22,-113 15,-349 2,-33 1,-60 -46,-173 -22,-38 -106,-183 -76,-117 -242,-369 -48,-137 -6,-127 -7,-34 -34,-168 -7,-17 -75,-157 -57,-81 -77,-70 -75,-52 -147,-74 -207,-55 -28,-5 -138,-9 -88,-10 -150,-85 -54,-100 -7,-16 -15,-66 0,-25 5,-156 -1,-70 0,-17 -19,-111 -29,-66 -112,-108 -15,-10 -59,-18 -5,-1 -33,7 -31,7 -33,20 -33,23 -83,99 -72,86 -9,9 -16,12 -63,39 -116,26 -10,-2 -114,-42 -102,-38 -73,33 -18,21 -78,87 -56,26 -79,36 -138,47 -38,14 -141,10 -67,-13 -123,-74 -51,-48 -94,-92 -44,-24 -51,-20 -36,-10 -62,-15 -25,-13 -36,-22 -26,-20 -44,-59 -13,-17 -82,-121 -72,-105 -47,-55 -46,-51 -48,-34 -36,-23 -44,-23 -48,-13 -6,-1 -46,11 -13,4 -67,47 -66,94 -46,65 -37,53 -40,34 -25,19 -9,5 -159,70 -140,32 16,-931 6,-394 27,-881 16,-528 8,-157 24,-512 20,-619 17,-583 3,-87 12,-423 43,-1765 55,-2111 9,-370 19,-619 46,-1338 7,-96 33,-432 47,-1510 15,-480 73,-2430 42,-1418 1,-57 8,-255 42,-1990 2,-126 2,-38 11,-743 5,-270 50,-2658 0,-10 2,-184 7,-468 4,-331 19,-933 24,-1099 1,-58 6,-328 33,-1510 1092,-31 364,-5 1116,-13 824,-11 305,-3 1850,-17 1169,-19 534,-16 416,-14 467,-12 387,-10 26,-1 113,-4 2350,-88 4,22 0,10 -5,15 5,20 51,0 31,-15 41,-26 64,-35 z" />
<path id="1737" d="M -5,-13870 l -40,10 -41,10 -11,1 -20,-11 5,-60 41,-51 -1,-40 57,-10 61,20 26,40 11,96 0,25 -36,30 -21,-15 -15,-30 z" />
<path id="1739" d="M 201,-13694 l 46,-15 31,-16 25,5 31,25 -20,41 -67,40 -66,16 -57,10 -35,45 5,61 -5,10 -15,56 -31,10 -5,-46 -10,-15 -11,-10 -36,-5 -46,-35 31,-45 41,-61 132,-61 z" />
<path id="1741" d="M 79,-13311 l 36,-20 56,-5 21,0 25,-5 -10,65 -30,46 -31,45 -56,61 -15,15 -15,20 -62,6 -56,70 -102,97 -46,-26 10,-80 15,-36 -15,-30 -6,-86 10,-30 41,-20 36,-56 10,-45 36,50 5,46 31,5 20,-1 57,-20 20,-25 z" />
<path id="1746" d="M 972,-12840 l 5,56 46,25 31,25 46,-10 5,-31 15,-25 41,-10 10,-15 21,-15 15,-10 -15,60 -15,61 -31,50 21,40 10,31 -36,35 -15,35 -41,36 -51,45 -46,6 -72,-51 -41,-40 -36,-25 -41,5 -51,-5 -36,-25 -10,-25 -5,-30 36,-25 35,-41 -5,-55 36,-56 46,-20 51,-21 56,15 z" />
</g>
</clipPath>
<g stroke="black" fill="none" stroke-linejoin="round" stroke-width="58" clip-path="url(#state_clip_path)">
<use xlink:href="#state_outline" fill="white" stroke-width="257" />
<use fill="#a0a0ff" stroke="none" xlink:href="#1719" />
<path id="Adams" d="M -7417,16025 l 533,24 866,-193 1092,-200 611,39 77,100 124,106 82,90 72,45 26,60 15,1726 -11,2712 -51,56 -34,37 -82,89 -78,38 -99,-32 -61,-46 -42,-58 -17,-79 -37,-169 -39,-86 -8,-7 -258,-178 -81,-42 -84,-23 -93,-25 -70,-14 -397,-60 -6,-1 -136,-20 -25,-14 -41,-23 -100,-114 -150,-115 -50,-37 -142,-44 -13,-3 -18,-1 -145,14 -134,44 -231,74 -8,2 -135,31 -123,28 -88,37 -53,54 -30,52 -19,35 -25,81 -10,100 -4,39 -6,57 -11,24 -25,56 -6,5 -52,57 -74,46 -67,4 -25,-5 -234,-84 -91,-57 88,-1363 163,-1998 z" />
<path id="Allen" d="M -8960,-5096 l -12,1119 -8,972 -18,972 -963,-3 -482,-4 -476,6 -1,-166 -968,-8 4,-323 -1470,-12 17,-1451 482,4 4,-478 461,-1 1490,12 4,-484 968,3 0,-161 z" />
<path id="Ashland" d="M 4036,-6666 l 76,-1 1312,16 -5,226 -8,570 374,-2 40,2378 15,1219 -804,13 14,1103 -983,150 -14,-897 -5,-85 -14,-922 -138,1 -118,0 -72,-5 0,-156 -1,-106 0,-211 -6,-131 0,-66 -62,-70 -36,-30 15,-50 0,-76 -164,-4 0,-71 -82,5 -1,-70 15,-81 -7,-524 0,-30 -25,-1285 -51,6 -72,0 -28,-625 -5,-35 0,-141 z" />
<path id="Ashtabula" d="M 15066,-15553 l 82,-15 62,-16 35,-10 26,-5 102,-26 56,-21 67,-15 92,-16 56,-10 77,-11 66,-20 56,-15 41,-11 67,-35 86,-46 87,-36 57,-26 51,-25 35,-20 61,-41 41,-21 41,-10 41,-20 51,-21 41,-10 46,-20 61,-41 41,-51 35,-25 82,-21 21,0 20,20 21,10 25,-10 26,-10 25,-6 21,-5 25,-15 31,-20 31,-16 25,-25 15,-10 57,-11 81,-5 67,-10 31,-6 71,-20 66,-36 62,-20 107,-46 66,-21 97,-56 57,-21 91,-40 138,-31 67,-16 102,-56 76,-41 77,-36 158,-61 102,-41 62,-15 117,-36 15,-26 67,-30 71,-41 51,-16 17,998 15,428 34,1146 12,433 13,490 33,1442 0,71 2,30 5,169 4,113 -833,30 -789,10 -814,4 -481,13 -133,1 -993,5 -41,-2108 -6,-257 z" />
<path id="Athens" d="M 6610,10142 l -15,182 1,65 0,20 -10,76 0,15 -44,639 -5,25 200,5 831,31 800,42 -14,328 -37,971 -10,171 169,5 -4,161 154,9 -5,121 -4,196 851,17 -8,609 -25,26 -25,36 -14,31 -22,46 -11,36 -14,40 -26,36 -24,21 -30,26 -25,21 -23,29 -21,32 0,13 -774,-32 -1001,-36 -1051,-46 -980,-62 -662,-37 29,-423 44,-569 -333,-19 68,-991 10,-157 63,-830 975,67 19,-282 44,-715 56,0 z" />
<path id="Auglaize" d="M -13354,-2543 l 1470,12 -4,323 968,8 1,166 476,-6 482,4 963,3 -4,222 5,20 -9,624 -4,313 -271,36 -246,-5 -446,-4 -4,584 -77,-5 -2854,-24 -18,1133 -809,-4 -5,262 -179,-45 4,-221 18,-973 19,-972 13,-972 9,-488 z" />
<path id="Belmont" d="M 13550,3170 l -1,-30 47,-1 97,0 87,5 743,1 -5,30 36,5 949,26 51,4 923,21 66,0 923,30 5,-56 538,18 -8,17 -8,34 -9,50 -7,46 -6,47 -3,22 -4,36 6,70 21,60 0,66 1,76 -10,55 -19,33 -60,60 -9,8 -45,41 -31,30 -31,36 -4,5 -23,33 -17,36 -6,16 -4,16 -6,29 6,40 15,41 19,38 16,41 11,37 5,40 1,50 0,33 -1,10 -4,31 -5,32 -7,22 -5,17 -4,11 -20,61 -5,15 -12,42 -2,8 -6,56 -2,18 -3,22 0,71 11,90 8,53 3,23 11,65 5,61 0,34 -1,20 -9,46 -19,45 -20,21 -28,35 -42,29 -55,51 -29,47 -14,50 1,26 3,20 14,56 22,69 29,69 17,45 10,37 1,8 -3,50 -13,37 -13,11 -13,9 -31,6 -25,0 -45,-19 -46,-25 -13,-8 -33,-19 -30,-19 -36,-9 -36,-5 -56,13 -30,13 -6,4 -21,40 -6,41 10,41 18,58 27,55 8,19 15,28 31,37 31,43 16,36 5,17 3,18 6,40 -3,37 -21,39 -20,25 -26,25 -41,41 -66,41 -30,18 -52,32 -11,5 -1450,-43 -236,-13 0,-16 -944,-25 0,-15 -92,-5 -851,-6 3,-488 0,-50 3,-303 5,-65 0,-25 z" />
<path id="Brown" d="M -10159,13395 l 1103,93 -28,1168 -5,25 -28,921 -24,362 10,35 467,19 995,-7 252,14 -70,871 -163,1998 -88,1363 -111,-70 -123,-20 -194,-33 -44,-11 -67,-40 -8,-11 -51,-85 -8,-15 -21,-90 -33,-154 -8,-27 -6,-19 -46,-101 -50,-42 -120,-39 -129,-43 -117,-87 -36,-50 -8,-27 -29,-134 -8,-36 -12,-50 -3,-6 -73,-121 -7,-8 -19,-14 -75,-41 -14,-6 -56,-14 -13,-3 -162,-37 -67,-15 -174,-60 -126,-94 -29,-22 -147,-49 -76,9 -7,1 -82,10 -134,41 -215,29 -239,58 -23,4 -35,0 100,-825 19,-307 350,-3015 51,-277 z" />
<path id="Butler" d="M -13308,9622 l -5,231 1,247 57,30 61,-5 118,-31 51,5 -44,529 -45,478 30,0 1,55 -86,761 -84,1011 -303,-65 -354,-19 -56,-15 -246,-40 -164,16 -185,-61 -164,31 -339,-65 -308,-9 -272,-45 -61,30 -36,45 -528,-9 -1002,-29 16,-528 8,-157 24,-512 20,-619 17,-583 3,-87 12,-423 966,24 959,18 964,9 5,-237 892,19 z" />
<path id="Carroll" d="M 12681,-2164 l 113,-1 210,4 30,0 293,-1 16,-811 323,8 0,-75 835,-5 67,-5 41,5 737,-9 692,-13 17,292 6,262 -5,55 2,322 486,-2 2,237 0,85 -5,20 5,10 0,41 -4,85 2,494 -487,-3 -7,791 1,15 -5,177 -102,-5 -5,5 -26,-5 -3,454 0,35 -1215,-14 -133,-5 5,-25 -938,-10 -15,5 0,20 -41,0 -446,-18 1,-881 5,-166 4,-111 9,-302 -487,-8 13,-650 z" />
<path id="Champaign" d="M -6253,2609 l 487,49 -79,1103 -14,166 -100,1108 -1010,-63 -1605,-152 -641,-44 -887,-84 -302,-24 10,-151 0,-26 119,-1420 45,-483 -1,-25 45,-489 267,30 77,5 164,14 676,59 36,5 739,64 -10,131 -5,35 z" />
<path id="Clark" d="M -10404,4668 l 302,24 887,84 641,44 1605,152 1010,63 52,10 -10,65 -290,1023 -60,247 -51,191 -107,393 -65,272 -117,483 -508,-49 5,-35 -789,-63 -16,-86 -574,-84 -185,-25 25,-272 -980,-83 15,-166 -564,-49 -159,-15 -251,-20 30,-332 84,-967 z" />
<path id="Clermont" d="M -12457,13183 l 2185,197 113,15 -64,916 -51,277 -350,3015 -19,307 -100,825 -215,-6 -365,-134 -290,-106 -199,-36 -32,-9 -214,-63 -11,-6 -108,-74 -50,-56 -11,-15 -32,-82 -9,-41 -5,-24 -22,-113 15,-349 2,-33 1,-60 -46,-173 -22,-38 -106,-183 -76,-117 -242,-369 -48,-137 -6,-127 -7,-34 -34,-168 -7,-17 -75,-157 -57,-81 136,-1052 34,-403 5,-50 -5,-25 26,-60 5,-71 -6,-30 62,-61 25,-10 16,-55 5,-20 25,-25 21,-46 36,-25 10,-35 0,-51 -57,-90 -46,0 -46,35 -144,11 -41,-141 -36,-15 0,-15 5,-15 97,-81 62,-20 45,-56 16,-85 30,-31 87,-30 98,-76 15,-25 56,-35 10,-40 z" />
<path id="Clinton" d="M -7338,10142 l 390,35 420,34 -143,1842 -665,490 -1028,787 -51,111 -26,111 -56,61 -5,50 -30,15 -51,86 -216,-10 15,-246 -272,-20 -1103,-93 -113,-15 64,-770 169,-1943 20,-206 5,-86 15,-146 30,-327 z" />
<path id="Columbiana" d="M 14574,-4969 l 1598,-34 0,-126 4,-196 625,-9 1,136 5,56 -4,131 2566,-49 14,515 16,629 28,1356 1,79 5,262 1,57 -23,12 -81,43 -86,22 -66,27 -50,38 -41,29 -44,44 -40,26 -23,15 -21,12 -27,0 -34,-10 -36,-31 -26,-24 -41,-36 -36,-9 -36,-5 -51,16 -31,15 -47,19 -38,17 -41,29 -22,17 -42,38 -18,22 -12,15 -20,35 -39,47 -28,34 -31,33 -45,42 -16,22 -4,5 -19,39 -3,22 -3,30 -692,13 -6,-156 -20,0 -702,4 -41,0 -210,-9 4,-85 0,-41 -5,-10 5,-20 0,-85 -2,-237 -486,2 -2,-322 5,-55 -6,-262 -17,-292 -692,13 -737,9 z" />
<path id="Coshocton" d="M 5362,94 l 800,37 36,0 5,-15 435,13 57,0 328,8 805,27 1568,19 -18,720 1,101 815,21 -12,811 -18,821 -384,-9 -12,786 -395,-3 -574,-13 -51,0 -51,-5 -118,-4 -108,-5 -702,-17 -815,-17 -790,-22 -805,-37 33,-800 -113,-5 42,-1178 0,-16 9,-211 5,-146 4,-202 5,-161 4,-151 5,-161 4,-106 5,-45 z" />
<path id="Crawford" d="M -106,-5886 l 205,-1 72,5 558,3 47,0 0,156 1,192 -2,997 -19,1819 -190,-4 -917,-7 0,80 -435,2 -369,11 -92,0 -881,3 -190,5 -169,-4 1,-2987 -6,-237 327,-1 128,-6 31,0 169,5 979,2 148,-1 343,4 57,-5 5,-35 92,4 61,-5 z" />
<path id="Cuyahoga" d="M 11066,-13022 l 18,686 809,-14 22,1386 127,-5 11,131 1,101 -144,0 6,116 0,30 8,701 -1428,-3 -210,1 1,201 62,202 201,377 -35,30 -282,6 -358,7 -77,0 -313,7 -839,19 -778,28 -4,-841 -789,-2 0,-1412 9,-292 77,45 102,50 62,15 67,25 143,29 282,35 82,4 66,-5 108,-11 61,-35 61,0 87,-41 87,-21 133,-26 62,10 87,15 102,30 164,39 82,-30 5,0 118,-61 66,-36 51,-60 56,-31 67,-51 61,-45 46,-36 66,-30 56,-31 62,-35 66,-51 143,-122 112,-91 51,-26 61,-65 41,-41 56,-51 56,-45 41,-46 112,-91 61,-61 41,-50 56,-61 67,-61 56,-56 40,-55 67,-31 87,-41 91,-50 82,-51 z" />
<path id="Darke" d="M -13740,1119 l -16,1747 -3,3087 -507,1 -949,-4 -928,-13 -481,-10 -449,-14 9,-370 19,-619 46,-1338 7,-96 33,-432 47,-1510 15,-480 164,10 651,20 933,23 0,-15 891,4 z" />
<path id="Defiance" d="M -12748,-10783 l 947,13 -8,968 -18,973 -18,968 -953,-9 9,-489 -967,-23 4,-484 -963,-14 -978,-13 -968,-24 0,-10 2,-184 7,-468 4,-331 19,-933 963,14 978,19 957,13 z" />
<path id="Delaware" d="M -1735,365 l -9,166 825,48 -29,438 -15,192 1533,90 41,0 -39,645 -10,161 -29,554 -67,1128 -1503,-91 -1102,-52 -872,-52 -13,-1123 -646,-13 6,-1365 -16,-161 18,-685 1143,77 z" />
<g id="Erie">
<path id="2610" d="M 972,-12840 l 5,56 46,25 31,25 46,-10 5,-31 15,-25 41,-10 10,-15 21,-15 15,-10 -15,60 -15,61 -31,50 21,40 10,31 -36,35 -15,35 -41,36 -51,45 -46,6 -72,-51 -41,-40 -36,-25 -41,5 -51,-5 -36,-25 -10,-25 -5,-30 36,-25 35,-41 -5,-55 36,-56 46,-20 51,-21 56,15 z" />
<path id="2641" d="M 3913,-10697 l 34,796 28,811 -840,8 -834,-17 -840,-7 -835,-12 -835,-23 -46,-1562 -164,0 -302,1 92,-76 56,-25 41,-40 46,15 62,-16 82,10 81,-40 62,-56 71,-41 51,-70 0,-106 5,-51 30,-5 52,50 31,10 46,-30 56,50 51,0 52,40 35,20 31,76 52,50 51,45 10,5 36,10 51,5 67,-20 41,-21 25,-5 16,5 31,15 20,-5 35,-151 31,0 -10,106 36,-21 51,-30 41,-20 51,-21 36,0 41,40 51,35 123,10 92,-10 1,30 -26,20 -56,21 -16,0 -35,15 30,20 82,0 36,5 10,-21 11,-10 35,0 31,-15 10,20 -10,40 -10,21 21,35 25,-10 16,75 31,-5 30,5 36,20 36,30 52,35 41,25 25,15 21,15 25,10 41,20 16,-25 -21,-30 -31,-25 -41,-30 -25,-25 -31,-36 -31,-30 -26,-25 -36,-25 -41,-15 -36,-40 -31,-50 -30,-41 -31,-35 -36,-30 -57,-45 -41,-45 -46,-20 -82,-131 -88,-30 -10,-55 36,-31 66,30 31,30 26,41 36,50 46,50 103,116 57,50 61,65 57,56 82,45 72,80 61,50 62,50 57,71 92,60 56,25 165,110 71,40 16,10 118,60 92,55 87,35 72,20 256,-26 112,-51 62,-25 107,-61 143,-76 92,-56 92,-51 62,-35 61,-36 76,-40 46,-31 77,-15 56,-20 z" />
</g>
<path id="Fairfield" d="M 288,5852 l 282,19 87,5 498,28 277,19 902,53 303,14 297,24 92,-61 -5,71 -5,10 -10,115 -5,66 -9,131 -30,408 -19,231 656,43 -44,720 -14,262 174,9 149,15 -73,972 -344,-24 -646,-43 -49,654 -1041,-66 -19,498 -954,-52 -5,151 -805,-63 -154,-10 20,-231 54,-745 -26,0 113,-1611 24,-327 159,14 40,-463 34,-514 -164,-14 19,-323 z" />
<path id="Fayette" d="M -7174,8295 l 241,24 1733,142 1462,96 -137,1989 -67,131 -15,10 -836,1396 -1878,-30 143,-1842 -420,-34 -390,-35 z" />
<path id="Franklin" d="M -3011,3592 l 872,52 1102,52 1503,91 -92,1657 -57,0 1,25 -30,383 -241,-15 -19,323 164,14 -34,514 -40,463 -159,-14 -24,327 -1831,-125 -1262,-42 -497,-49 -70,-1152 148,-96 -15,-15 -16,-41 10,-45 -5,-91 -36,-45 -31,-50 -31,-40 -26,-166 -1,-126 -31,-131 -31,-55 -46,-101 10,-30 36,-35 35,-61 5,-40 -41,-131 -16,-90 10,-86 421,24 54,-665 308,9 z" />
<path id="Fulton" d="M -12864,-13901 l 1850,-17 1169,-19 534,-16 416,-14 53,842 1,293 -36,-5 -28,1295 1,152 -3840,-38 9,-313 -322,-4 4,-369 14,-776 -143,0 4,-549 9,-459 z" />
<path id="Gallia" d="M 3303,15887 l 538,43 436,29 -9,151 5,20 118,4 800,38 72,4 959,52 26,5 -10,151 -14,241 0,41 -10,126 -14,26 -5,13 -11,36 -7,17 -9,18 -30,71 -20,41 -33,64 -41,77 -7,15 -29,61 -33,44 -32,33 -40,38 -25,41 -21,50 -4,16 -2,19 -4,45 7,66 3,15 11,40 16,55 6,55 2,55 -8,82 -14,80 -21,66 -35,61 -36,45 -44,48 -40,36 -64,42 -47,19 -5,2 -56,25 -40,17 -6,3 -40,16 -35,27 -17,11 -21,17 -51,50 -36,31 -45,70 -13,33 -10,35 -3,50 -5,56 8,45 11,25 14,20 9,8 31,20 25,20 31,14 26,30 36,37 19,41 11,40 1,39 1,52 2,60 12,55 34,95 18,46 15,38 8,19 14,42 -2,80 -9,45 -19,46 -24,61 -9,51 -2,33 0,11 7,46 4,20 23,90 34,115 42,116 3,9 33,74 19,105 6,46 6,48 -7,46 -4,29 -19,69 -24,46 -40,46 -19,17 -25,19 -17,15 -25,17 -33,15 -27,9 -55,4 -7,1 -72,10 -25,-3 -72,-11 -68,-20 -61,-19 -56,-16 -38,-7 -15,-3 -57,2 -41,6 -27,11 -12,7 -41,35 -55,47 -35,31 -24,20 -3,3 -667,-17 33,-639 5,-106 15,-186 5,-71 -129,-9 -898,-58 5,-161 39,-493 -174,-19 24,-327 -857,-78 15,-196 29,-363 5,-80 10,-81 10,-95 872,72 165,20 10,-111 9,-101 15,-191 15,-196 0,-25 44,-514 30,-322 14,-352 15,-146 z" />
<path id="Geauga" d="M 11893,-12350 l 793,-14 -8,-786 1612,-34 -19,-811 824,-25 6,257 41,2108 27,1290 12,424 -804,19 -773,14 -896,19 -784,-1 -8,-701 0,-30 -6,-116 144,0 -1,-101 -11,-131 -127,5 z" />
<path id="Greene" d="M -10588,6772 l 251,20 159,15 564,49 -15,166 980,83 -25,272 185,25 574,84 16,86 789,63 -5,35 -59,625 -164,1847 -2631,-240 -457,-45 -718,-68 45,-534 -21,-5 0,-20 70,-841 59,-685 5,-75 20,-237 45,-488 277,19 41,5 5,-70 z" />
<path id="Guernsey" d="M 12584,2696 l -3,479 969,-5 -26,2432 -974,-11 0,46 -323,-4 1,272 -5,50 -148,-4 -36,0 -190,-4 -31,0 -241,-4 -14,328 -974,-21 -7,644 -67,0 -908,-21 5,-146 -5,-5 17,-836 -323,-8 36,-1188 36,-1259 395,3 12,-786 384,9 21,0 1861,32 z" />
<path id="Hamilton" d="M -17271,12698 l 1002,29 528,9 36,-45 61,-30 272,45 308,9 339,65 164,-31 185,61 164,-16 246,40 56,15 354,19 303,65 164,-15 616,64 -31,61 5,30 41,15 26,15 0,45 -25,35 -11,16 -10,40 -56,35 -15,25 -98,76 -87,30 -30,31 -16,85 -45,56 -62,20 -97,81 -5,15 0,15 36,15 41,141 144,-11 46,-35 46,0 57,90 0,51 -10,35 -36,25 -21,46 -25,25 -5,20 -16,55 -25,10 -62,61 6,30 -5,71 -26,60 5,25 -5,50 -34,403 -136,1052 -77,-70 -75,-52 -147,-74 -207,-55 -28,-5 -138,-9 -88,-10 -150,-85 -54,-100 -7,-16 -15,-66 0,-25 5,-156 -1,-70 0,-17 -19,-111 -29,-66 -112,-108 -15,-10 -59,-18 -5,-1 -33,7 -31,7 -33,20 -33,23 -83,99 -72,86 -9,9 -16,12 -63,39 -116,26 -10,-2 -114,-42 -102,-38 -73,33 -18,21 -78,87 -56,26 -79,36 -138,47 -38,14 -141,10 -67,-13 -123,-74 -51,-48 -94,-92 -44,-24 -51,-20 -36,-10 -62,-15 -25,-13 -36,-22 -26,-20 -44,-59 -13,-17 -82,-121 -72,-105 -47,-55 -46,-51 -48,-34 -36,-23 -44,-23 -48,-13 -6,-1 -46,11 -13,4 -67,47 -66,94 -46,65 -37,53 -40,34 -25,19 -9,5 -159,70 -140,32 16,-931 6,-394 z" />
<path id="Hancock" d="M -5069,-7791 l -10,328 0,1612 -302,1 -19,479 -159,0 -4,484 -159,0 -158,-5 -5,278 -13,690 -190,-5 -953,-23 -968,-7 -963,-18 12,-1119 29,-2741 973,3 481,4 487,14 476,9 487,14 z" />
<path id="Hardin" d="M -8972,-3977 l 963,18 968,7 953,23 190,5 164,4 -12,1285 477,-1 0,166 169,4 -3,484 -5,322 1,161 11,343 6,146 5,131 17,322 -36,111 -861,7 5,-60 -3009,-270 -41,-10 0,-75 4,-313 9,-624 -5,-20 4,-222 18,-972 z" />
<path id="Harrison" d="M 13127,251 l 446,18 41,0 0,-20 15,-5 938,10 -5,25 133,5 1215,14 451,3 118,-1 77,5 5,15 -8,468 -36,0 -5,41 -7,735 0,35 -28,1632 -923,-21 -51,-4 -949,-26 -36,-5 5,-30 -743,-1 -87,-5 -97,0 -47,1 1,30 -969,5 3,-479 16,-1002 503,3 z" />
<path id="Henry" d="M -8904,-11390 l -14,776 -13,832 0,1945 -820,-3 -153,-5 -973,-8 -968,-8 18,-968 18,-973 8,-968 -947,-13 4,-645 z" />
<path id="Highland" d="M -4793,12083 l -5,101 -31,65 -25,51 5,35 31,70 -20,51 -31,45 -20,81 10,65 -31,15 -10,25 31,71 0,45 -10,40 26,41 -15,85 21,45 25,0 16,20 -57,81 16,61 -102,35 -16,40 11,25 87,51 36,25 5,20 -5,50 -10,40 0,20 16,5 36,10 30,31 41,30 31,15 21,-5 20,-26 21,-45 51,-30 31,15 5,30 -10,100 -20,81 25,-5 16,0 -91,393 -288,1575 -1092,200 -866,193 -533,-24 -252,-14 -995,7 -467,-19 -10,-35 24,-362 28,-921 5,-25 28,-1168 272,20 -15,246 216,10 51,-86 30,-15 5,-50 56,-61 26,-111 51,-111 1028,-787 665,-490 z" />
<path id="Hocking" d="M 3791,9006 l -10,161 -29,483 200,14 677,43 139,5 -15,322 898,57 -44,715 -19,282 -975,-67 -63,830 -10,157 -964,-62 -975,-62 -19,297 -170,-15 -841,-52 -15,161 -969,-72 14,-197 25,-432 4,-101 5,-30 20,-353 24,-322 5,-35 5,-50 5,-66 39,-493 5,-151 954,52 19,-498 1041,66 49,-654 646,43 z" />
<path id="Holmes" d="M 9872,-2302 l 7,372 -113,16 -32,2085 -5,20 -333,-8 -1568,-19 -805,-27 -328,-8 -57,0 -435,-13 -5,15 -36,0 -800,-37 42,-1295 -354,57 -14,-1103 804,-13 z" />
<path id="Huron" d="M 3975,-9090 l 6,277 13,534 18,817 11,242 13,554 -840,13 0,141 5,35 28,625 -200,-4 -256,1 -302,1 -410,-4 -15,-5 -312,1 -67,-5 -174,1 -87,0 -21,-5 -61,0 -52,1 -25,-5 -10,5 -82,0 -87,-5 -216,-4 -123,0 -558,-3 -72,-5 -205,1 -17,-544 -6,-277 -5,-136 -12,-297 -11,-323 0,-80 -12,-313 -11,-448 -6,-126 -5,-146 -6,-182 -12,-383 835,23 835,12 840,7 834,17 z" />
<path id="Jackson" d="M 266,14413 l 164,15 25,-257 0,-86 10,-110 974,62 -10,120 1,26 990,87 -30,407 1001,72 -10,86 -5,96 -10,176 -10,60 -4,81 -5,60 -44,579 -10,161 -15,146 -14,352 -30,322 -44,514 0,25 -15,196 -15,191 -9,101 -10,111 -165,-20 -872,-72 -10,95 -164,-14 -36,0 -123,-10 -180,-14 -143,-10 -185,-14 -82,-5 -46,-5 -421,-29 -67,-4 -159,-5 44,-755 20,-231 -1,-20 -307,-19 -159,-15 29,-367 5,-121 10,-101 39,-639 19,-237 35,-397 5,-91 z" />
<path id="Jefferson" d="M 16542,-1660 l 210,9 41,0 702,-4 20,0 6,156 692,-13 4,34 21,57 39,42 105,92 32,40 27,50 16,45 24,46 20,32 14,20 8,10 25,44 16,30 5,23 4,27 7,40 16,50 16,45 25,91 43,73 26,43 24,35 41,50 21,40 20,46 6,40 11,26 4,9 1,59 -10,62 -26,76 -30,70 -30,66 -26,70 -4,20 -5,28 -3,66 -2,26 -1,22 11,85 6,56 -4,31 -2,12 -4,17 -13,15 -13,14 -35,31 -40,32 -25,26 -5,10 -4,10 0,13 2,11 16,25 31,20 41,29 26,14 4,3 33,21 3,4 21,19 19,42 6,30 1,9 5,36 -4,29 -14,47 -14,56 -7,58 5,40 10,42 21,34 20,40 16,30 15,41 11,20 4,32 6,53 -9,56 -16,65 -10,23 -12,23 -27,53 -6,12 -35,68 -19,46 -7,26 -5,22 7,33 3,15 6,47 0,51 -10,52 -18,28 -8,11 -40,39 -40,28 -45,36 -60,27 -60,52 -25,41 -25,45 -4,7 -9,31 -14,50 -9,35 -9,36 -19,66 -6,46 -1,15 -5,61 -8,40 -14,56 -14,46 -29,41 -29,42 -30,51 -29,41 -44,67 -47,92 -46,85 -10,46 -538,-18 -5,56 -923,-30 -66,0 28,-1632 0,-35 7,-735 5,-41 36,0 8,-468 -5,-15 -77,-5 -118,1 -451,-3 0,-35 3,-454 26,5 5,-5 102,5 5,-177 -1,-15 7,-791 487,3 z" />
<path id="Knox" d="M 4067,-994 l 983,-150 354,-57 -42,1295 0,35 -5,45 -4,106 -5,161 -4,151 -5,161 -4,202 -5,146 -9,211 0,16 -42,1178 -723,-2 1,10 -487,-8 -1046,-52 -134,-4 5,-212 -1497,-85 -836,-48 10,-161 39,-645 287,20 133,9 46,0 369,24 111,-1964 -10,-16 -77,11 -1,-312 169,-1 641,-2 323,-1 1142,-10 z" />
<path id="Lake" d="M 15066,-15553 l 29,1533 -824,25 19,811 -1612,34 8,786 -793,14 -809,14 -18,-686 56,-50 56,-66 86,-121 66,-92 72,-91 51,-60 45,-41 62,-61 61,-50 41,-41 45,-41 26,-25 51,-46 36,-40 45,-36 46,-45 72,-61 56,-36 35,-25 26,-15 46,-16 112,-66 46,-25 41,-36 72,-45 122,-87 92,-56 56,-45 51,-36 36,-10 31,15 46,20 41,0 46,-6 127,-46 67,-25 66,-31 61,-35 97,-56 67,-46 86,-56 41,-5 67,-51 92,-51 76,-51 168,-101 133,-77 92,-36 72,-35 66,-31 72,-35 96,-51 123,-51 143,-77 163,-56 67,-26 z" />
<path id="Lawrence" d="M 1448,17961 l 143,10 180,14 123,10 36,0 164,14 -10,81 -5,80 -29,363 -15,196 857,78 -24,327 174,19 -39,493 -5,161 898,58 129,9 -5,71 -15,186 -5,106 -33,639 667,17 -28,34 -13,26 -5,16 -14,42 -5,48 -1,23 0,93 5,76 -5,30 -5,50 -4,31 -20,75 -19,51 -18,49 -9,53 -8,70 -4,56 -8,66 -8,85 -8,53 -14,71 -19,43 -17,32 -10,46 -10,40 -9,60 -5,28 -6,23 -14,54 -2,6 -30,46 -31,30 -44,33 -38,17 -27,16 -16,5 -56,12 -46,11 -66,17 -60,16 -15,3 -32,5 -56,6 -41,7 -26,0 -51,-15 -26,-5 -36,-10 -20,-5 -30,-4 -13,-1 -39,10 -26,7 -11,6 -26,11 -24,10 -41,16 -77,37 -39,11 -115,34 -125,35 -65,16 -51,16 -46,15 -62,20 -40,21 -51,27 -10,5 -40,21 -87,30 -7,2 -104,34 -80,13 -93,10 -72,0 -13,-3 -59,-12 -82,-34 -27,-14 -22,-12 -37,-29 -42,-39 -22,-35 -9,-27 -47,-125 -31,-202 -17,-107 -61,-129 -47,-39 -56,-31 -83,-40 -87,-45 -81,-59 -53,-71 -11,-15 -55,-73 -80,-88 -79,-162 -13,-27 -73,-110 -19,-22 -67,-45 -72,-45 -61,-51 -12,-8 -36,-25 -138,-14 -52,1 -178,3 -123,0 -77,-20 -30,-11 -190,-102 378,-169 271,-122 -160,-366 -67,-156 19,-398 334,24 159,10 50,-151 55,-654 282,19 15,-161 20,-5 15,-222 19,-246 z" />
<path id="Licking" d="M 5279,2506 l 113,5 -33,800 -32,997 0,36 -37,1092 5,30 -4,61 -10,131 0,60 -123,-10 -159,1 0,35 -14,302 -5,41 0,40 -574,-28 -41,0 -262,-14 -102,-10 -62,-4 -159,-10 -128,-10 -164,-9 -82,-5 5,-60 -385,-24 -92,61 -297,-24 -303,-14 -902,-53 -277,-19 -498,-28 -87,-5 -282,-19 30,-383 -1,-25 57,0 92,-1657 67,-1128 29,-554 836,48 1497,85 -5,212 134,4 1046,52 487,8 -1,-10 z" />
<path id="Logan" d="M -5965,-439 l -288,3048 -1989,-192 5,-35 10,-131 -739,-64 -36,-5 -676,-59 -164,-14 -77,-5 -267,-30 50,-478 41,35 8,-851 26,-5 7,-1023 77,5 4,-584 446,4 246,5 271,-36 0,75 41,10 3009,270 z" />
<path id="Lorain" d="M 3913,-10697 l 10,0 46,-11 72,-10 118,-6 199,0 77,-11 61,5 52,-5 76,0 143,-77 57,-25 61,-51 87,-50 66,-51 77,-61 92,-56 51,-35 25,-36 10,-10 36,0 36,-5 10,-15 21,-5 25,-10 26,-11 61,-25 67,-31 97,-50 133,-56 143,-41 215,-57 122,-40 133,-56 92,-21 92,-41 113,-30 72,9 76,20 103,40 113,45 5,5 -9,292 0,1412 789,2 4,841 -794,9 -2,831 -830,4 -7,710 -804,-2 0,131 -7,681 -1312,-16 -76,1 -13,-554 -11,-242 -18,-817 -13,-534 -6,-277 -28,-811 z" />
<path id="Lucas" d="M -5275,-14091 l -17,80 -36,31 -31,5 -56,30 -25,66 210,125 15,10 16,21 5,15 10,10 51,45 31,20 57,10 76,0 62,-10 51,-6 56,5 67,15 87,30 92,10 61,-5 46,-15 31,-16 66,-50 26,-46 5,-35 0,-40 5,-10 15,5 21,5 20,15 21,15 31,25 30,30 139,111 0,15 -15,15 -46,5 -62,-25 -20,10 -16,20 -5,15 0,16 36,20 41,10 21,-16 15,-10 46,0 97,20 26,15 26,25 36,20 30,31 5,-1 31,21 46,25 47,30 82,60 25,15 67,45 51,46 52,45 0,20 -26,40 0,36 46,15 52,5 35,-11 21,-20 25,15 47,20 10,5 41,20 20,10 6,5 51,30 66,25 87,15 57,16 -10,19 -256,1 -307,1 -72,0 -113,1 -327,11 -215,0 -758,17 -56,0 -1280,19 -178,222 -21,86 -86,56 -46,101 -97,50 -190,91 -143,137 -122,61 -108,45 -97,66 -71,151 -15,106 -20,126 -51,81 -169,96 -148,142 -184,81 -71,131 -97,96 -159,56 -87,66 -143,50 -210,102 -128,-10 14,-776 -1,-152 28,-1295 36,5 -1,-293 -53,-842 467,-12 387,-10 26,-1 113,-4 2350,-88 4,22 0,10 -5,15 5,20 51,0 31,-15 41,-26 64,-35 z" />
<path id="Madison" d="M -5859,3927 l 1102,12 810,13 625,28 -54,665 -421,-24 -10,86 16,90 41,131 -5,40 -35,61 -36,35 -10,30 46,101 31,55 31,131 1,126 26,166 31,40 31,50 36,45 5,91 -10,45 16,41 15,15 -148,96 70,1152 -59,922 -24,387 -1462,-96 -1733,-142 -241,-24 59,-625 508,49 117,-483 65,-272 107,-393 51,-191 60,-247 290,-1023 10,-65 -52,-10 z" />
<path id="Mahoning" d="M 19300,-7655 l 2,71 45,1643 18,714 4,167 -2566,49 4,-131 -5,-56 -1,-136 -625,9 -4,196 0,126 -1598,34 -14,-852 0,-111 133,0 486,-13 87,0 0,-157 -1,-55 -6,-212 0,-40 -6,-176 -20,-983 1787,-39 1122,-22 z" />
<path id="Marion" d="M -2487,-2629 l 169,4 190,-5 881,-3 92,0 369,-11 435,-2 -3,438 0,10 -5,66 -5,136 -138,0 -41,1 -221,5 -430,7 -5,1717 -10,0 -36,5 -450,62 -40,564 -784,-43 -1143,-77 3,-700 -1445,9 36,-111 -17,-322 -5,-131 -6,-146 -11,-343 -1,-161 5,-322 3,-484 328,0 574,3 72,5 -1,-166 57,-1 435,-6 174,5 282,4 205,-1 77,0 z" />
<path id="Medina" d="M 9485,-9062 l 9,3205 -67,5 -573,8 -175,0 -153,6 -2310,-16 -431,-3 -374,2 8,-570 5,-226 7,-681 0,-131 804,2 7,-710 830,-4 2,-831 794,-9 778,-28 z" />
<path id="Meigs" d="M 4732,14010 l 662,37 980,62 1051,46 1001,36 774,32 0,13 -3,45 0,15 3,23 15,52 32,78 31,86 20,76 6,75 3,27 1,18 2,61 2,70 1,21 0,29 3,55 0,36 -5,40 -4,24 -8,37 -24,60 -23,43 -6,10 -37,43 -26,22 -17,12 -54,31 -61,21 -118,6 -57,-15 -23,-9 -18,-6 -36,-15 -28,-5 -26,0 -20,11 -16,30 -3,5 -4,35 0,45 12,36 9,22 8,23 22,61 6,19 36,75 47,55 56,45 57,50 28,25 18,16 45,48 47,57 27,39 13,46 12,60 1,39 0,12 -5,50 -2,23 -5,28 -19,46 -29,46 -16,39 -20,39 -6,11 -26,49 -19,61 -5,86 10,49 15,41 39,58 37,40 21,29 28,39 20,25 11,36 1,13 1,31 -4,18 -8,18 -26,31 -10,7 -16,9 -15,8 -5,1 -41,0 -21,-3 -10,-3 -42,-14 -27,-12 -13,-8 -41,-30 -41,-35 -26,-17 -10,-8 -42,-55 -29,-29 -27,-15 -7,-4 -24,-11 -48,-8 -25,1 -9,0 -38,22 -34,30 -30,40 -12,18 -17,30 -20,46 -6,31 -1,16 -5,44 0,47 -5,55 -10,61 -15,40 -34,56 -14,21 -19,24 -37,37 -4,3 -40,39 -16,15 -29,26 -33,25 -17,12 -51,44 -4,3 -51,22 -30,-3 -51,-5 -82,-36 -55,-35 -21,-15 -69,-58 -11,-16 -21,-28 -16,-30 -3,-18 0,-15 7,-27 19,-36 14,-31 11,-11 29,-31 35,-36 43,-50 36,-45 31,-45 15,-36 5,-35 -10,-34 -17,-46 -32,-68 -55,-94 -5,-18 -16,-51 -10,-31 -10,-30 -26,-45 -31,-50 -26,-50 -11,-20 -13,-28 -22,-50 -26,-38 -21,-25 -38,-19 -24,-8 -12,-3 -30,2 -12,0 -20,5 -24,12 -28,8 -8,3 -36,11 -46,1 -27,-2 -13,-4 -20,-10 -18,-11 -24,-29 -9,-13 -26,-52 -16,-65 -24,-75 -28,-46 -46,-37 -47,-29 -58,-23 -8,-1 -84,-7 -46,5 -19,2 -9,4 -28,17 -35,20 -31,46 -20,45 -10,56 0,55 -4,48 -19,46 -9,15 -19,22 -38,43 -64,47 -4,3 -46,21 -49,26 -52,33 -39,24 -11,8 -18,21 -21,27 -20,39 -16,46 -8,20 -4,15 -14,38 -5,13 -19,46 -6,10 10,-126 0,-41 14,-241 10,-151 -26,-5 -959,-52 -72,-4 -800,-38 -118,-4 -5,-20 9,-151 64,-982 63,-986 z" />
<path id="Mercer" d="M -13856,-2552 l -9,488 -13,972 -19,972 -18,973 -4,221 179,45 -518,-9 -891,-4 0,15 -933,-23 -651,-20 -164,-10 73,-2430 42,-1418 1,-57 8,-255 953,24 994,18 974,19 z" />
<path id="Miami" d="M -13756,2866 l 769,14 1050,-12 1,51 1661,152 -119,1420 0,26 -10,151 -70,805 -84,967 -980,-79 10,-100 20,-307 -795,-4 -384,-4 -585,1 -487,6 z" />
<path id="Monroe" d="M 13513,6533 l 851,6 92,5 0,15 944,25 0,16 236,13 1450,43 -23,19 -21,20 -7,24 -4,18 -1,49 11,47 11,50 4,21 6,29 11,63 5,31 -5,52 -2,29 -3,27 -14,50 -26,54 -39,47 -18,17 -30,24 -72,61 -65,49 -40,42 -28,30 -5,5 -25,51 -9,37 6,61 18,39 22,49 40,43 37,37 31,34 5,6 26,29 25,33 16,22 16,23 31,43 34,55 9,17 12,23 16,28 6,38 -10,50 -25,36 -24,27 -7,8 -40,21 -52,23 -36,12 -30,15 -26,21 -26,25 -12,32 -5,20 -3,19 -4,42 -5,45 5,54 5,50 4,48 1,9 -5,54 -5,60 -5,40 -19,101 -21,81 -10,26 -24,48 -25,41 -45,47 -50,27 -41,6 -46,-2 -36,-5 -41,-4 -57,2 -40,1 -15,0 -35,11 -46,22 -41,34 -36,26 -19,14 -30,31 -15,15 -52,50 -68,57 -40,36 -72,65 -54,49 -33,32 -87,91 -112,111 -31,33 -54,59 -40,51 -84,74 -21,16 14,-358 -1785,-41 -46,0 5,25 -164,1 4,-327 -159,0 4,-332 -1,-166 3,-619 -334,7 3,-499 -1,-302 5,-171 12,-710 5,-30 0,-101 z" />
<path id="Montgomery" d="M -14266,5954 l 507,-1 487,-6 585,-1 384,4 795,4 -20,307 -10,100 980,79 -30,332 -10,86 -5,70 -41,-5 -277,-19 -45,488 -20,237 -5,75 -59,685 -70,841 0,20 21,5 -45,534 -1533,-153 -631,-14 -77,0 -892,-19 -2,-750 8,-971 2,-952 z" />
<path id="Morgan" d="M 6345,7702 l 1430,55 805,37 1011,41 0,10 497,18 -17,951 0,15 344,9 144,4 -4,433 -3,423 -867,-31 -51,45 -118,6 -51,25 -15,55 5,101 0,65 -55,152 0,50 11,161 143,4 -3,544 -456,-18 0,-45 -62,-5 -149,-5 5,-35 -323,-14 -34,499 -164,-10 -800,-42 -831,-31 -200,-5 5,-25 44,-639 0,-15 10,-76 0,-20 -1,-65 15,-182 67,5 53,-831 10,-140 14,-323 39,-644 -477,-28 z" />
<path id="Morrow" d="M -351,-2646 l 0,-80 917,7 190,4 845,17 1,247 11,232 -159,0 0,36 1,35 0,252 170,-1 -5,141 12,423 0,217 6,186 -169,1 1,312 77,-11 10,16 -111,1964 -369,-24 -46,0 -133,-9 -287,-20 -41,0 -1533,-90 15,-192 29,-438 -825,-48 9,-166 40,-564 450,-62 36,-5 10,0 5,-1717 430,-7 221,-5 41,-1 138,0 5,-136 5,-66 0,-10 z" />
<path id="Muskingum" d="M 5359,3311 l 805,37 790,22 815,17 702,17 108,5 118,4 51,5 51,0 574,13 -36,1259 -36,1188 323,8 -17,836 5,5 -5,146 -16,962 -1011,-41 -805,-37 -1430,-55 14,-382 9,-121 -507,-28 -329,-14 64,-942 5,-45 -47,-5 -574,-38 0,-40 5,-41 14,-302 0,-35 159,-1 123,10 0,-60 10,-131 4,-61 -5,-30 37,-1092 0,-36 z" />
<path id="Noble" d="M 13513,6533 l -646,-17 0,101 -5,30 -12,710 -5,171 1,302 -3,499 334,-7 -3,619 1,166 -4,332 1,161 -631,-7 0,-80 -334,-4 0,-156 -159,1 -1,-166 -333,-4 -1,-151 -179,-4 2,695 -425,-13 -559,-13 3,-423 4,-433 -144,-4 -344,-9 0,-15 17,-951 -497,-18 0,-10 16,-962 908,21 67,0 7,-644 974,21 14,-328 241,4 31,0 190,4 36,0 148,4 5,-50 -1,-272 323,4 0,-46 974,11 0,25 -5,65 -3,303 0,50 z" />
<g id="Ottawa">
<path id="2578" d="M -5,-13870 l -40,10 -41,10 -11,1 -20,-11 5,-60 41,-51 -1,-40 57,-10 61,20 26,40 11,96 0,25 -36,30 -21,-15 -15,-30 z" />
<path id="2587" d="M 201,-13694 l 46,-15 31,-16 25,5 31,25 -20,41 -67,40 -66,16 -57,10 -35,45 5,61 -5,10 -15,56 -31,10 -5,-46 -10,-15 -11,-10 -36,-5 -46,-35 31,-45 41,-61 132,-61 z" />
<path id="2591" d="M 79,-13311 l 36,-20 56,-5 21,0 25,-5 -10,65 -30,46 -31,45 -56,61 -15,15 -15,20 -62,6 -56,70 -102,97 -46,-26 10,-80 15,-36 -15,-30 -6,-86 10,-30 41,-20 36,-56 10,-45 36,50 5,46 31,5 20,-1 57,-20 20,-25 z" />
<path id="2609" d="M -4997,-12822 l 56,0 758,-17 215,0 327,-11 113,-1 72,0 307,-1 256,-1 10,-19 25,9 88,30 169,20 41,5 76,10 98,35 82,45 102,55 57,35 51,60 36,41 16,40 20,35 11,30 41,41 67,110 56,71 62,60 128,111 67,45 56,45 16,10 36,25 35,20 31,15 16,5 10,5 31,20 56,35 26,15 5,5 36,20 46,10 66,20 57,15 36,20 46,25 112,10 72,-5 51,-15 56,-21 31,5 51,-30 46,-26 67,-40 41,-41 25,-45 41,-41 25,-15 5,-25 21,-35 15,-21 10,-30 5,-50 26,-36 0,-15 -6,-20 -20,-25 -5,-15 10,-56 5,-25 -36,-15 5,-55 20,-41 36,-35 25,-15 41,-16 46,5 46,-15 6,35 25,35 26,51 16,25 20,40 31,35 -15,21 -51,10 -56,101 -31,60 -20,31 -31,76 -46,45 -35,25 -36,51 -67,25 -56,16 -46,30 -15,20 0,20 15,10 16,0 92,-40 46,-26 56,-10 36,-30 20,-15 41,-21 26,-30 35,-20 31,-41 10,-50 -5,-15 15,-41 20,-35 16,-20 30,-41 16,-30 51,-20 41,40 10,35 36,35 5,20 16,31 36,45 -21,30 -81,26 -57,-5 -41,25 -15,10 -10,21 0,25 10,30 26,0 66,-5 67,-21 97,-25 41,-46 77,-5 56,-10 31,-16 71,-25 67,5 61,15 82,10 46,-6 36,5 26,10 20,10 16,15 15,25 5,21 -5,25 0,75 -15,31 -35,45 -21,25 10,26 16,35 21,35 15,35 26,86 -20,45 -36,-30 -26,-40 -10,-30 -1,-46 -25,-30 -57,-5 -41,-4 -41,5 -40,5 -41,-10 -41,5 -51,51 -31,25 -56,20 -67,-40 -56,0 -52,-9 -46,15 -92,10 -41,10 -25,16 -31,35 -25,81 -31,15 -66,-55 -77,-71 -47,11 -35,10 -36,15 -15,30 -51,16 -67,35 -72,16 -76,10 -77,0 -82,-5 -56,6 -72,-10 -51,15 -51,10 -47,-5 -71,-15 -72,-14 -36,30 -10,25 -25,46 5,35 -41,50 -25,76 -16,-5 -41,-25 -35,10 -26,15 -20,16 -11,25 -5,20 -41,5 -41,-25 -36,-30 -30,15 -21,20 -46,21 -41,5 -5,-30 -56,10 -92,25 -77,11 -61,0 -41,20 -476,-3 -205,-5 -41,0 -200,-4 -261,-4 -1111,-2 0,-162 -7,-312 6,-10 -635,6 -1,-161 -3,-968 z" />
</g>
<path id="Paulding" d="M -16661,-8917 l 968,24 978,13 963,14 -4,484 967,23 -9,489 -18,973 -18,967 -482,-4 -491,-4 -969,-19 -973,-13 -967,-19 5,-270 z" />
<path id="Perry" d="M 3026,5953 l 385,24 -5,60 82,5 164,9 128,10 159,10 62,4 102,10 262,14 41,0 574,28 574,38 47,5 -5,45 -64,942 329,14 507,28 -9,121 -14,382 -29,479 477,28 -39,644 -14,323 -10,140 -53,831 -67,-5 -903,-51 -56,0 -898,-57 15,-322 -139,-5 -677,-43 -200,-14 29,-483 10,-161 73,-972 -149,-15 -174,-9 14,-262 44,-720 -656,-43 19,-231 30,-408 9,-131 5,-66 10,-115 5,-10 z" />
<path id="Pickaway" d="M -3655,7248 l 497,49 1262,42 1831,125 -113,1611 26,0 -54,745 -20,231 154,10 805,63 -39,493 -5,66 -5,50 -5,35 -24,322 -718,-48 -36,0 -175,-9 -46,-5 -261,-14 -57,-10 -20,5 -134,-10 -72,-4 -466,-29 -231,-9 10,-51 20,-45 16,-10 20,-15 16,-5 25,4 51,0 16,-30 -1,-80 -36,-66 -25,-10 -52,10 -918,-32 -1456,-81 137,-1989 24,-387 z" />
<path id="Pike" d="M -4638,14081 l 487,18 2611,189 21,0 169,14 328,19 118,10 703,48 298,19 169,15 -39,493 -5,91 -35,397 -19,237 -39,639 -10,101 -5,121 -29,367 -806,-48 -944,-47 -297,-9 -1032,-12 -431,-19 -25,-25 30,-56 -36,-85 25,-116 -15,-60 -82,-30 -72,-60 -42,-151 -72,-40 -220,-5 -26,-60 -72,-45 -82,-90 -124,-106 -77,-100 -611,-39 z" />
<path id="Portage" d="M 15181,-9941 l 19,841 7,449 7,317 6,106 13,660 20,983 6,176 0,40 6,212 1,55 0,157 -87,0 -486,13 -133,0 -52,1 -112,0 -2418,37 -14,-861 -12,-1467 -27,-1587 -1,-81 784,1 896,-19 773,-14 z" />
<path id="Preble" d="M -17073,5913 l 449,14 481,10 928,13 949,4 -3,976 -2,952 -8,971 2,750 -5,237 -964,-9 -959,-18 -966,-24 43,-1765 z" />
<path id="Putnam" d="M -11845,-7861 l 968,8 973,8 153,5 820,3 -29,2741 -968,-3 0,161 -968,-3 -4,484 -1490,-12 -461,1 9,-494 -482,-4 8,-968 482,4 18,-967 18,-973 z" />
<path id="Richland" d="M 776,-5879 l 76,0 216,4 87,5 82,0 10,-5 25,5 52,-1 61,0 21,5 87,0 174,-1 67,5 312,-1 15,5 410,4 302,-1 256,-1 200,4 72,0 51,-6 25,1285 0,30 7,524 -15,81 1,70 82,-5 0,71 164,4 0,76 -15,50 36,30 62,70 0,66 6,131 0,211 1,106 0,156 72,5 118,0 138,-1 14,922 5,85 14,897 -323,51 -1142,10 -323,1 -641,2 -6,-186 0,-217 -12,-423 5,-141 -170,1 0,-252 -1,-35 0,-36 159,0 -11,-232 -1,-247 -845,-17 19,-1819 2,-997 -1,-192 z" />
<path id="Ross" d="M -3875,10546 l 1456,81 918,32 52,-10 25,10 36,66 1,80 -16,30 -51,0 -25,-4 -16,5 -20,15 -16,10 -20,45 -10,51 231,9 466,29 72,4 134,10 20,-5 57,10 261,14 46,5 175,9 36,0 718,48 -20,353 -5,30 -4,101 -25,432 -14,197 -44,659 -15,207 -29,412 -15,232 -19,262 -10,110 0,86 -25,257 -164,-15 -169,-15 -298,-19 -703,-48 -118,-10 -328,-19 -169,-14 -21,0 -2611,-189 -487,-18 91,-393 -16,0 -25,5 20,-81 10,-100 -5,-30 -31,-15 -51,30 -21,45 -20,26 -21,5 -31,-15 -41,-30 -30,-31 -36,-10 -16,-5 0,-20 10,-40 5,-50 -5,-20 -36,-25 -87,-51 -11,-25 16,-40 102,-35 -16,-61 57,-81 -16,-20 -25,0 -21,-45 15,-85 -26,-41 10,-40 0,-45 -31,-71 10,-25 31,-15 -10,-65 20,-81 31,-45 20,-51 -31,-70 -5,-35 25,-51 31,-65 5,-101 836,-1396 15,-10 z" />
<path id="Sandusky" d="M -4993,-11496 l 635,-6 -6,10 7,312 0,162 1111,2 261,4 200,4 41,0 205,5 476,3 -10,20 0,26 5,20 31,20 20,5 21,5 41,-11 41,16 25,9 36,-10 87,-35 41,-10 36,-6 51,15 31,41 25,20 57,10 25,-6 5,16 6,10 -21,35 -30,25 -16,31 16,65 15,0 5,-30 5,-31 41,-35 26,15 26,20 30,5 36,-10 15,-10 26,-36 5,-20 -10,-20 -46,0 -11,-20 -5,-25 -20,-20 -1,-25 36,-26 46,-15 26,0 46,55 0,31 16,50 31,45 25,45 41,61 57,35 67,40 30,5 77,5 72,-26 112,-76 302,-1 164,0 46,1562 12,383 -323,-4 -159,-4 -327,1 -159,0 -410,2 -61,0 -174,-10 -118,0 -123,-4 -97,0 -492,2 -783,32 -210,1 -118,-5 -77,0 -169,-4 -118,-10 -117,-5 -246,-4 -579,6 28,-806 14,-726 z" />
<path id="Scioto" d="M -3934,16096 l 220,5 72,40 42,151 72,60 82,30 15,60 -25,116 36,85 -30,56 25,25 431,19 1032,12 297,9 944,47 806,48 159,15 307,19 1,20 -20,231 -44,755 159,5 67,4 421,29 46,5 82,5 185,14 -40,489 -19,246 -15,222 -20,5 -15,161 -282,-19 -55,654 -50,151 -159,-10 -334,-24 -19,398 67,156 160,366 -271,122 -378,169 -6,3 -67,-40 -67,-56 -61,-49 -82,-108 -3,-6 -69,-198 -2,-9 -4,-31 -6,-50 -6,-106 -5,-105 -1,-96 -5,-90 -11,-56 -12,-55 -83,-145 -35,-60 -9,-21 -21,-56 1,-14 25,-196 20,-81 3,-12 30,-122 -4,-62 -41,-105 -10,-16 -24,-27 -25,-24 -23,-19 -25,-9 -57,-16 -278,78 -135,59 -18,10 -29,20 -139,102 -36,25 -17,7 -75,26 -149,-25 -157,-27 -13,-1 -138,66 -56,52 -103,205 -7,10 -80,78 -204,96 -10,5 -139,65 -22,10 -89,64 -6,7 -85,150 -27,71 -61,161 -11,16 -55,70 -90,68 -24,13 -16,4 -112,16 -253,34 -11,1 -10,0 -47,-6 -58,-13 -73,-39 -127,-70 -4,-1 -53,-9 -62,0 -82,50 -77,46 -25,30 11,-2712 z" />
<path id="Seneca" d="M -5057,-8764 l 579,-6 246,4 117,5 118,10 169,4 77,0 118,5 210,-1 783,-32 492,-2 97,0 123,4 118,0 174,10 61,0 410,-2 159,0 327,-1 159,4 323,4 6,182 5,146 6,126 11,448 12,313 0,80 11,323 12,297 5,136 6,277 17,544 -46,-5 -61,5 -92,-4 -5,35 -57,5 -343,-4 -148,1 -979,-2 -169,-5 -31,0 -128,6 -327,1 -36,0 -159,-5 -579,2 -1045,-2 -451,6 -107,1 -210,0 0,-1612 10,-328 -1,-217 z" />
<path id="Shelby" d="M -10054,-248 l -7,1023 -26,5 -8,851 -41,-35 -50,478 -45,489 1,25 -45,483 -1661,-152 -1,-51 -1050,12 -769,-14 16,-1747 5,-262 809,4 18,-1133 z" />
<path id="Stark" d="M 11978,-5894 l 2418,-37 112,0 52,-1 0,111 14,852 35,1924 -41,-5 -67,5 -835,5 0,75 -323,-8 -16,811 -293,1 -30,0 -210,-4 -113,1 -1015,5 5,-61 -26,-45 -61,-35 -103,5 -71,112 -1531,253 -7,-372 -3,-766 -23,-1970 1921,62 16,-917 z" />
<path id="Summit" d="M 11924,-9890 l 1,81 27,1587 12,1467 14,861 -195,1 -16,917 -1921,-62 -9,-821 -343,2 -9,-3205 313,-7 77,0 358,-7 282,-6 35,-30 -201,-377 -62,-202 -1,-201 210,-1 z" />
<path id="Trumbull" d="M 15142,-11655 l 993,-5 133,-1 481,-13 814,-4 789,-10 833,-30 4,101 47,1669 39,1392 16,614 7,240 2,47 -1158,26 -1122,22 -1787,39 -13,-660 -6,-106 -7,-317 -7,-449 -19,-841 -12,-424 z" />
<path id="Tuscarawas" d="M 9879,-1930 l 1531,-253 71,-112 103,-5 61,35 26,45 -5,61 1015,-5 -9,297 -13,650 487,8 -9,302 -4,111 -5,166 -1,881 -24,1446 -503,-3 -16,1002 -538,-7 -1861,-32 -21,0 18,-821 12,-811 -815,-21 -1,-101 18,-720 333,8 5,-20 32,-2085 z" />
<path id="Union" d="M -5104,-446 l 1445,-9 -3,700 -18,685 16,161 -6,1365 646,13 13,1123 -3,397 -308,-9 -625,-28 -810,-13 -1102,-12 14,-166 79,-1103 -487,-49 288,-3048 z" />
<path id="Van_Wert" d="M -13316,-5934 l -8,968 482,4 -9,494 -4,478 -482,-4 -17,1451 -502,-9 4,-479 -974,-19 -994,-18 -953,-24 42,-1990 2,-126 2,-38 11,-743 967,19 973,13 969,19 z" />
<path id="Vinton" d="M 4540,12008 l -68,991 333,19 -44,569 -29,423 -328,-19 -63,986 -64,982 -436,-29 -538,-43 44,-579 5,-60 4,-81 10,-60 10,-176 5,-96 10,-86 -1001,-72 30,-407 -990,-87 -1,-26 10,-120 -974,-62 19,-262 15,-232 29,-412 15,-207 44,-659 969,72 15,-161 841,52 170,15 19,-297 975,62 z" />
<path id="Warren" d="M -11144,9789 l 718,68 457,45 -30,327 -15,146 -5,86 -20,206 -169,1943 -64,770 -2185,-197 25,-35 0,-45 -26,-15 -41,-15 -5,-30 31,-61 -616,-64 -164,15 84,-1011 86,-761 -1,-55 -30,0 45,-478 44,-529 -51,-5 -118,31 -61,5 -57,-30 -1,-247 5,-231 631,14 z" />
<path id="Washington" d="M 13171,9439 l 159,0 -4,327 164,-1 -5,-25 46,0 1785,41 -14,358 -41,35 -31,36 -17,21 -44,67 -40,42 -10,10 -49,52 -80,73 -28,31 -53,63 -28,32 -29,39 -66,88 -3,5 -58,118 -61,106 -8,12 -29,59 -13,26 -41,75 -29,44 -33,26 -40,16 -41,10 -56,8 -21,2 -52,6 -61,20 -56,21 -51,35 -23,17 -16,15 -23,23 -5,6 -56,84 -40,41 -22,24 -8,8 -33,34 -15,16 -15,30 -19,63 -6,19 -10,44 -11,51 -19,50 -21,20 -36,21 -82,-5 -21,-3 -14,-4 -62,-18 -77,2 -26,7 -36,12 -55,20 -36,15 -8,2 -37,6 -36,16 -18,11 -17,10 -40,31 -15,9 -24,12 -36,17 -51,29 -14,10 -22,15 -19,17 -22,19 -26,25 -30,20 -33,23 -65,42 -96,58 -85,68 -45,19 -24,8 -62,21 -27,2 -30,1 -5,1 -37,-9 -67,-24 -48,-44 -42,-52 -27,-57 -20,-58 -21,-76 -3,-10 -19,-55 -23,-69 -33,-75 -6,-11 -25,-36 -36,-50 -36,-35 -36,-30 -45,-30 -16,-10 -62,-20 -68,-4 -45,5 -46,20 -51,34 -31,37 -28,33 -20,28 -19,32 -15,25 -44,67 -42,57 -51,51 -46,40 -13,9 -23,14 -95,63 -45,21 -44,20 -26,12 -30,13 -47,20 -41,27 -35,36 -34,42 -25,36 -11,27 -7,19 -11,50 -3,15 -4,41 1,40 -8,56 -8,70 -14,71 -7,80 -5,71 0,75 -4,62 -1,64 -3,30 -3,22 -4,24 -20,27 -20,9 -16,4 -23,-3 -13,-3 -46,-13 -26,-10 -63,-33 -39,-18 -54,-10 -41,-6 -16,-3 -33,5 -19,4 -27,7 -33,4 -8,0 -41,-9 -41,-14 -31,-6 -14,-2 -27,-3 -86,-4 -68,10 -92,25 -30,14 -33,18 -20,15 -20,19 -45,44 -35,56 -14,36 -6,26 -1,15 5,39 10,41 13,44 6,35 -3,52 0,44 -5,42 -3,25 -4,17 -19,22 -25,11 -30,11 -104,10 -51,15 -30,16 8,-609 -851,-17 4,-196 5,-121 -154,-9 4,-161 -169,-5 10,-171 37,-971 14,-328 164,10 34,-499 323,14 -5,35 149,5 62,5 0,45 456,18 3,-544 -143,-4 -11,-161 0,-50 55,-152 0,-65 -5,-101 15,-55 51,-25 118,-6 51,-45 867,31 559,13 425,13 -2,-695 179,4 1,151 333,4 1,166 159,-1 0,156 334,4 0,80 631,7 z" />
<path id="Wayne" d="M 9494,-5857 l 343,-2 9,821 23,1970 3,766 -4032,42 -15,-1219 -40,-2378 431,3 2310,16 153,-6 175,0 573,-8 z" />
<path id="Williams" d="M -13169,-13898 l -9,459 -4,549 143,0 -14,776 -4,369 322,4 -9,313 -4,645 -983,-14 -957,-13 -978,-19 -963,-14 24,-1099 1,-58 6,-328 33,-1510 1092,-31 364,-5 1116,-13 z" />
<path id="Wood" d="M -4993,-11496 l -22,1200 -14,726 -28,806 -13,756 1,217 -958,-2 -487,-14 -476,-9 -487,-14 -481,-4 -973,-3 0,-1945 13,-832 128,10 210,-102 143,-50 87,-66 159,-56 97,-96 71,-131 184,-81 148,-142 169,-96 51,-81 20,-126 15,-106 71,-151 97,-66 108,-45 122,-61 143,-137 190,-91 97,-50 46,-101 86,-56 21,-86 178,-222 1280,-19 0,197 3,968 z" />
<path id="Wyandot" d="M -5079,-5851 l 210,0 107,-1 451,-6 1045,2 579,-2 159,5 36,0 6,237 -1,2987 -410,6 -77,0 -205,1 -282,-4 -174,-5 -435,6 -57,1 1,166 -72,-5 -574,-3 -328,0 -169,-4 0,-166 -477,1 12,-1285 -164,-4 13,-690 5,-278 158,5 159,0 4,-484 159,0 19,-479 z" />
</g>
<use xlink:href="#Cuyahoga" stroke="none" fill="red" />
</svg>
